<svg xmlns="http://www.w3.org/2000/svg" xmlns:xlink="http://www.w3.org/1999/xlink" xmlns:lucid="lucid" width="1382.08" height="616"><g transform="translate(-1700 -164)" lucid:page-tab-id="uEUKbwD0WcLB"><path d="M2532 720h505.08" stroke="#5e5e5e" stroke-width="8" fill="none"/><path d="M2532.1 724h-4.34l.24-3.96-.1-3.16-.13-.88h4.33z" fill="#5e5e5e"/><path d="M3036.98 720h4.1M1966 280h1070" stroke="#5e5e5e" stroke-width="8" fill="none"/><path d="M1966.1 284h-4.1v-8h4.1z" fill="#5e5e5e"/><path d="M3035.9 280h4.1" stroke="#5e5e5e" stroke-width="8" fill="none"/><path d="M1962 190c0-3.3 2.7-6 6-6h228c3.3 0 6 2.7 6 6v48c0 3.3-2.7 6-6 6h-228c-3.3 0-6-2.7-6-6z" fill="none"/><use xlink:href="#a" transform="matrix(1,0,0,1,1962,184) translate(20.740740740740762 21.111111111111114)"/><use xlink:href="#b" transform="matrix(1,0,0,1,1962,184) translate(62.654320987654344 21.111111111111114)"/><use xlink:href="#c" transform="matrix(1,0,0,1,1962,184) translate(145.30864197530866 21.111111111111114)"/><use xlink:href="#d" transform="matrix(1,0,0,1,1962,184) translate(95.30864197530865 47.777777777777786)"/><path d="M1960.2 440.26L3036 440M1960.3 440.26h-4.1M3035.9 440h4.1" stroke="#5e5e5e" stroke-width="8" fill="none"/><path d="M2120 280c0 22.1-17.9 40-40 40s-40-17.9-40-40 17.9-40 40-40 40 17.9 40 40z" stroke="#999" stroke-width="6" fill="#ffc374"/><use xlink:href="#e" transform="matrix(1,0,0,1,2045,245) translate(25.771604938271608 39.65277777777778)"/><path d="M2347 437c0 22.1-17.9 40-40 40s-40-17.9-40-40 17.9-40 40-40 40 17.9 40 40z" stroke="#5e5e5e" stroke-width="6" fill="#fff"/><use xlink:href="#f" transform="matrix(1,0,0,1,2272,401.99999999999994) translate(27.006172839506174 39.65277777777778)"/><path d="M2949.2 441.6c0 22.1-17.9 40-40 40s-40-17.9-40-40 17.9-40 40-40 40 17.9 40 40z" stroke="#5e5e5e" stroke-width="6" fill="#fff"/><use xlink:href="#f" transform="matrix(1,0,0,1,2874.200956203102,406.59808759379615) translate(27.006172839506174 39.65277777777778)"/><path d="M2349 440.1l1.5.1 2.45.24 2.25.32 2.1.4 1.97.44 1.86.5 1.76.56 1.65.6 1.6.67 1.52.7 1.46.76 1.4.8 1.38.85 1.33.9 1.3.98 1.25 1.03 1.23 1.1 1.22 1.17 1.2 1.26 1.17 1.34 1.15 1.45 1.15 1.56 1.15 1.7 1.13 1.86 1.14 2.03 1.12 2.24 1.13 2.48 1.1 2.78 1.12 3.13 1.1 3.55 1.06 4.1 1.05 4.8 1 5.72.9 6.95.78 8.76.54 11.67.07 17.47-3.35 102.4.54 11.74.77 8.83.92 7 1 5.76 1.05 4.84 1.08 4.15 1.1 3.6 1.13 3.17 1.13 2.8 1.13 2.53 1.14 2.27 1.14 2.06 1.16 1.88 1.16 1.72 1.17 1.6 1.17 1.46 1.2 1.37 1.2 1.28 1.23 1.2 1.25 1.1 1.28 1.05 1.3 1 1.35.9 1.4.88 1.42.83 1.5.77 1.54.7 1.62.68 1.7.62 1.78.57 1.9.52 2 .45 2.14.4 2.3.32 2.13.2M2349.1 440.06l-4.1-.06M2440.9 719.88l4.1.12" stroke="#5e5e5e" stroke-width="8" fill="none"/><path d="M2525 720c0 22.1-17.9 40-40 40s-40-17.9-40-40 17.9-40 40-40 40 17.9 40 40z" stroke="#5e5e5e" stroke-width="6" fill="#fff"/><path d="M2469.03 696c0-3.3 2.68-6 6-6h25c3.3 0 6 2.7 6 6v48c0 3.3-2.7 6-6 6h-25c-3.32 0-6-2.7-6-6z" stroke="#000" stroke-opacity="0" stroke-width="3" fill="#fff" fill-opacity="0"/><use xlink:href="#g" transform="matrix(1,0,0,1,2474.0285714285715,695.0000185747631) translate(6.740740740740741 30.27777777777778)"/><path d="M2141.93 323.97c0 6.05-4.9 10.96-10.96 10.96-6.06 0-10.97-4.9-10.97-10.96 0-6.06 4.9-10.97 10.97-10.97 6.05 0 10.96 4.9 10.96 10.97zM2141.93 415.62c0 6.06-4.9 10.97-10.96 10.97-6.06 0-10.97-4.92-10.97-10.98 0-6.06 4.9-10.96 10.97-10.96 6.05 0 10.96 4.9 10.96 10.96zM2180 350.55c0 6.06-4.9 10.97-10.97 10.97-6.05 0-10.96-4.9-10.96-10.97 0-6.05 4.9-10.96 10.96-10.96 6.06 0 10.97 4.9 10.97 10.95z" stroke="#5e5e5e" stroke-width="6" fill="#fff"/><path d="M2130.97 397.63v-55.67" stroke="#5e5e5e" stroke-width="8" fill="none"/><path d="M2134.97 402.26l-.38-.16-3.63-.47-3.63.47-.37.16v-4.73h8zM2134.97 342.06h-8v-4.73l.37.15 3.63.48 3.62-.48.37-.15z" fill="#5e5e5e"/><path d="M2168.76 367.53l-.2.97-.43 1.3-.52 1.05-.6.9-.7.82-.85.75-1.07.7-1.42.7-2.12.72-4.4.84-12.84 1.9-2.84.95-2.04 1-1.62 1.1-1.36 1.18-1.2 1.37-1.04 1.6-.95 1.93-.84 2.48-.64 3.37-.1 1.37" stroke="#5e5e5e" stroke-width="6" fill="none"/><path d="M2171.84 367.8l-6-.37.2-3.28 3 .4 3.02-.4z" fill="#5e5e5e"/><path d="M2130.97 394.45l-.2 3.07" stroke="#5e5e5e" stroke-width="6" fill="none"/><path d="M2020 346c0-3.3 2.7-6 6-6h88c3.3 0 6 2.7 6 6v51.33c0 3.32-2.7 6-6 6h-88c-3.3 0-6-2.68-6-6z" stroke="#000" stroke-opacity="0" stroke-width="3" fill="#fff" fill-opacity="0"/><use xlink:href="#h" transform="matrix(1,0,0,1,2025,345) translate(11.728395061728392 17.77777777777778)"/><use xlink:href="#i" transform="matrix(1,0,0,1,2025,345) translate(9.845679012345677 44.44444444444444)"/><path d="M2516.93 510.97c0 6.05-4.9 10.96-10.96 10.96-6.06 0-10.97-4.9-10.97-10.96 0-6.06 4.9-10.97 10.97-10.97 6.05 0 10.96 4.9 10.96 10.97zM2516.93 602.62c0 6.06-4.9 10.97-10.96 10.97-6.06 0-10.97-4.92-10.97-10.98 0-6.06 4.9-10.96 10.97-10.96 6.05 0 10.96 4.9 10.96 10.96zM2555 537.55c0 6.06-4.9 10.97-10.97 10.97-6.05 0-10.96-4.9-10.96-10.97 0-6.05 4.9-10.96 10.96-10.96 6.06 0 10.97 4.9 10.97 10.95z" stroke="#5e5e5e" stroke-width="6" fill="#fff"/><path d="M2505.97 584.63v-55.67" stroke="#5e5e5e" stroke-width="8" fill="none"/><path d="M2509.97 589.26l-.38-.16-3.63-.47-3.63.47-.37.16v-4.73h8zM2509.97 529.06h-8v-4.73l.37.15 3.63.48 3.62-.48.37-.15z" fill="#5e5e5e"/><path d="M2543.76 554.53l-.2.97-.43 1.3-.52 1.05-.6.9-.7.82-.85.75-1.07.7-1.42.7-2.12.72-4.4.84-12.84 1.9-2.84.95-2.04 1-1.62 1.1-1.36 1.18-1.2 1.37-1.04 1.6-.95 1.93-.84 2.48-.64 3.37-.1 1.37" stroke="#5e5e5e" stroke-width="6" fill="none"/><path d="M2546.84 554.8l-6-.37.2-3.28 3 .4 3.02-.4z" fill="#5e5e5e"/><path d="M2505.97 581.45l-.2 3.07" stroke="#5e5e5e" stroke-width="6" fill="none"/><path d="M2395 519.67c0-3.32 2.7-6 6-6h88c3.3 0 6 2.68 6 6v78c0 3.3-2.7 6-6 6h-88c-3.3 0-6-2.7-6-6z" stroke="#000" stroke-opacity="0" stroke-width="3" fill="#fff" fill-opacity="0"/><use xlink:href="#j" transform="matrix(1,0,0,1,2400,518.6666666666667) translate(11.728395061728392 17.77777777777778)"/><use xlink:href="#k" transform="matrix(1,0,0,1,2400,518.6666666666667) translate(7.345679012345677 44.44444444444444)"/><use xlink:href="#l" transform="matrix(1,0,0,1,2400,518.6666666666667) translate(70.30864197530863 44.44444444444444)"/><use xlink:href="#i" transform="matrix(1,0,0,1,2400,518.6666666666667) translate(9.845679012345677 71.11111111111111)"/><path d="M2144 280.06h.92l4.26.26 3.73.37 3.3.46 2.96.54 2.64.6 2.4.66 2.18.7 2 .73 1.86.75 1.72.8 1.6.82 1.5.86 1.4.88 1.33.92 1.25.95 1.2.98 1.14 1.02 1.08 1.05 1.05 1.1 1 1.17.98 1.2.95 1.28.9 1.35.9 1.44.85 1.54.83 1.66.8 1.8.8 1.94.74 2.13.73 2.37.7 2.67.66 3.03.6 3.52.57 4.22.46 5.28.33 7.22.02 14-.24 27.88.34 7.3.48 5.35.56 4.3.62 3.57.68 3.1.7 2.7.75 2.44.78 2.2.8 1.98.84 1.83.85 1.7.87 1.57.9 1.48.95 1.4.97 1.32 1 1.25 1.03 1.2 1.1 1.14 1.12 1.1 1.18 1.05 1.24 1.02 1.3.98 1.4.95 1.45.92 1.55.88 1.67.86 1.78.84 1.93.8 2.1.76 2.28.73 2.5.68 2.77.65 3.08.57 3.46.5 3.92.38 2.15.12M2144.1 280.06l-4.1-.06M2247.1 439.88l4.1.12" stroke="#5e5e5e" stroke-width="8" fill="none"/><path d="M1722 256c0-3.3 2.7-6 6-6h228c3.3 0 6 2.7 6 6v48c0 3.3-2.7 6-6 6h-228c-3.3 0-6-2.7-6-6z" stroke="#000" stroke-opacity="0" stroke-width="3" fill="#fff" fill-opacity="0"/><use xlink:href="#m" transform="matrix(1,0,0,1,1727,255) translate(22.46913580246914 30.27777777777778)"/><use xlink:href="#n" transform="matrix(1,0,0,1,1727,255) translate(78.0246913580247 30.27777777777778)"/><use xlink:href="#o" transform="matrix(1,0,0,1,1727,255) translate(137.22222222222223 30.27777777777778)"/><path d="M1720 412.67c0-3.32 2.7-6 6-6h228c3.3 0 6 2.68 6 6v48c0 3.3-2.7 6-6 6h-228c-3.3 0-6-2.7-6-6z" stroke="#000" stroke-opacity="0" stroke-width="3" fill="#fff" fill-opacity="0"/><use xlink:href="#m" transform="matrix(1,0,0,1,1725,411.6666666666665) translate(22.46913580246914 30.27777777777778)"/><use xlink:href="#n" transform="matrix(1,0,0,1,1725,411.6666666666665) translate(78.0246913580247 30.27777777777778)"/><use xlink:href="#o" transform="matrix(1,0,0,1,1725,411.6666666666665) translate(137.22222222222223 30.27777777777778)"/><path d="M2528 440.06h.94l4.3.26 3.8.38 3.36.47 3.02.56 2.72.63 2.5.67 2.26.73 2.1.77 1.94.8 1.8.84 1.7.87 1.6.9 1.5.95 1.4.96 1.36 1.02 1.3 1.05 1.23 1.1 1.2 1.16 1.13 1.2 1.1 1.26 1.08 1.34 1.04 1.42 1.02 1.5.98 1.62.97 1.74.94 1.87.92 2.05.9 2.25.9 2.5.86 2.82.84 3.23.82 3.76.8 4.55.75 5.82.72 8.34 2.38 44.12.77 5.87.8 4.62.83 3.83.86 3.28.88 2.87.9 2.56.93 2.3.95 2.1.97 1.93.98 1.78 1 1.67 1.05 1.55 1.08 1.46 1.1 1.37 1.15 1.3 1.18 1.25 1.23 1.2 1.27 1.13 1.34 1.1 1.4 1.04 1.47 1 1.55 1 1.64.93 1.76.9 1.87.87 2.02.84 2.17.8 2.37.76 2.6.7 2.84.66 3.15.58 3.52.5 3.97.4 2.18.12M2528.1 440.06l-4.1-.06M2639.9 599.88l4.1.12M2731 600h305" stroke="#5e5e5e" stroke-width="8" fill="none"/><path d="M2731.1 604h-4.34l.24-3.96-.1-3.16-.13-.88h4.33z" fill="#5e5e5e"/><path d="M3035.9 600h4.1" stroke="#5e5e5e" stroke-width="8" fill="none"/><path d="M2724 600c0 22.1-17.9 40-40 40s-40-17.9-40-40 17.9-40 40-40 40 17.9 40 40z" stroke="#5e5e5e" stroke-width="6" fill="#fff"/><use xlink:href="#g" transform="matrix(1,0,0,1,2649,565) translate(28.24074074074074 39.65277777777778)"/><path d="M2755.82 479.4c0 5.2-4.22 9.42-9.4 9.42-5.2 0-9.42-4.22-9.42-9.4 0-5.2 4.2-9.42 9.4-9.42s9.42 4.2 9.42 9.4zM2755.82 558.04c0 5.2-4.22 9.4-9.4 9.4-5.2 0-9.42-4.2-9.42-9.4s4.2-9.4 9.4-9.4 9.42 4.2 9.42 9.4zM2790.6 541c0 5.2-4.2 9.4-9.4 9.4s-9.4-4.2-9.4-9.4 4.2-9.4 9.4-9.4 9.4 4.2 9.4 9.4z" stroke="#de5f85" stroke-width="6" fill="#fff"/><path d="M2746.4 541.6v-45.76" stroke="#de5f85" stroke-width="8" fill="none"/><path d="M2750.4 546.28l-3.92-.68-3.12.38-.95.4v-4.87h8zM2750.4 495.94h-8v-4.77l3.93.68 3.12-.38.96-.4z" fill="#de5f85"/><path d="M2746.56 510.43l.28 1.13.4 1.02.44.75.46.58.5.5.57.4.7.34.9.3 1.28.23 2.6.08 10.75-.23 2.76.5 2.27.78 2.04 1.04 1.96 1.38 1.96 1.85 2.06 2.6 1.3 2.26M2746.5 510.52l-.27-3.07" stroke="#de5f85" stroke-width="6" fill="none"/><path d="M2784.8 529.17l-3.53-.6-3.12.37-.08.04-.9-1.9 5.42-2.57z" fill="#de5f85"/><path d="M2757 475.75c0-3.32 2.7-6 6-6h67.8c3.3 0 6 2.68 6 6v40.66c0 3.33-2.7 6-6 6H2763c-3.3 0-6-2.67-6-6z" stroke="#000" stroke-opacity="0" stroke-width="3" fill="#fff" fill-opacity="0"/><use xlink:href="#p" transform="matrix(1,0,0,1,2762,474.7482555247504) translate(20.23456790123457 14.222222222222221)"/><use xlink:href="#q" transform="matrix(1,0,0,1,2762,474.7482555247504) translate(1.9382716049382793 35.55555555555556)"/><path d="M2858.82 478.54c0 4.7-4.22 8.53-9.4 8.53-5.2 0-9.42-3.82-9.42-8.53 0-4.72 4.2-8.54 9.4-8.54s9.42 3.82 9.42 8.54zM2858.82 681.68c0 4.7-4.22 8.54-9.4 8.54-5.2 0-9.42-3.83-9.42-8.54 0-4.72 4.2-8.54 9.4-8.54s9.42 3.82 9.42 8.54zM2893.6 666.22c0 4.7-4.2 8.53-9.4 8.53s-9.4-3.82-9.4-8.53c0-4.72 4.2-8.54 9.4-8.54s9.4 3.82 9.4 8.54z" stroke="#de5f85" stroke-width="6" fill="#fff"/><path d="M2849.4 666.12V494.1" stroke="#de5f85" stroke-width="8" fill="none"/><path d="M2853.4 670.73l-3.92-.6-3.05.32-1.02.4v-4.83h8zM2853.4 494.2h-8v-4.7l3.94.6 3.05-.34 1-.4z" fill="#de5f85"/><path d="M2849.57 638.75l.24 1.02.4.96.4.68.4.54.45.42.5.35.58.3.72.25 1 .18 1.6.05 13.9-1.1 2.35.44 2.03.7 1.86.94 1.8 1.28 1.83 1.74 1.95 2.47 1.2 2.07M2849.5 638.84l-.27-3.06" stroke="#de5f85" stroke-width="6" fill="none"/><path d="M2887.77 655.2l-3.5-.54-3.05.33-.16.05-.9-1.9 5.43-2.55z" fill="#de5f85"/><path d="M2860 503.22c0-3.3 2.7-6 6-6h67.8c3.3 0 6 2.7 6 6v35.8c0 3.3-2.7 6-6 6H2866c-3.3 0-6-2.7-6-6z" stroke="#000" stroke-opacity="0" stroke-width="3" fill="#fff" fill-opacity="0"/><use xlink:href="#p" transform="matrix(1,0,0,1,2865,502.22030240878865) translate(20.23456790123457 14.222222222222221)"/><use xlink:href="#q" transform="matrix(1,0,0,1,2865,502.22030240878865) translate(1.9382716049382793 35.55555555555556)"/><path d="M2616 523.4c0-3.3 2.7-6 6-6h128.07c3.3 0 6 2.7 6 6v33.05c0 3.32-2.7 6-6 6H2622c-3.3 0-6-2.68-6-6z" stroke="#000" stroke-opacity="0" stroke-width="3" fill="#fff" fill-opacity="0"/><use xlink:href="#r" transform="matrix(1,0,0,1,2621,522.4149221914172) translate(27.845679012345677 22.27777777777778)"/><use xlink:href="#s" transform="matrix(1,0,0,1,2621,522.4149221914172) translate(90.80864197530863 22.27777777777778)"/><path d="M2432 643c0-3.3 2.7-6 6-6h128.07c3.3 0 6 2.7 6 6v33.04c0 3.3-2.7 6-6 6H2438c-3.3 0-6-2.7-6-6z" stroke="#000" stroke-opacity="0" stroke-width="3" fill="#fff" fill-opacity="0"/><g><use xlink:href="#r" transform="matrix(1,0,0,1,2437,642) translate(27.845679012345677 22.27777777777778)"/><use xlink:href="#t" transform="matrix(1,0,0,1,2437,642) translate(90.80864197530863 22.27777777777778)"/></g><path d="M2321.93 510.97c0 6.05-4.9 10.96-10.96 10.96-6.06 0-10.97-4.9-10.97-10.96 0-6.06 4.9-10.97 10.97-10.97 6.05 0 10.96 4.9 10.96 10.97zM2321.93 602.62c0 6.06-4.9 10.97-10.96 10.97-6.06 0-10.97-4.92-10.97-10.98 0-6.06 4.9-10.96 10.97-10.96 6.05 0 10.96 4.9 10.96 10.96zM2360 537.55c0 6.06-4.9 10.97-10.97 10.97-6.05 0-10.96-4.9-10.96-10.97 0-6.05 4.9-10.96 10.96-10.96 6.06 0 10.97 4.9 10.97 10.95z" stroke="#5e5e5e" stroke-width="6" fill="#fff"/><path d="M2310.97 584.63v-55.67" stroke="#5e5e5e" stroke-width="8" fill="none"/><path d="M2314.97 589.26l-.38-.16-3.63-.47-3.63.47-.37.16v-4.73h8zM2314.97 529.06h-8v-4.73l.37.15 3.63.48 3.62-.48.37-.15z" fill="#5e5e5e"/><path d="M2348.76 554.53l-.2.97-.43 1.3-.52 1.05-.6.9-.7.82-.85.75-1.07.7-1.42.7-2.12.72-4.4.84-12.84 1.9-2.84.95-2.04 1-1.62 1.1-1.36 1.18-1.2 1.37-1.04 1.6-.95 1.93-.84 2.48-.64 3.37-.1 1.37" stroke="#5e5e5e" stroke-width="6" fill="none"/><path d="M2351.84 554.8l-6-.37.2-3.28 3 .4 3.02-.4z" fill="#5e5e5e"/><path d="M2310.97 581.45l-.2 3.07" stroke="#5e5e5e" stroke-width="6" fill="none"/><path d="M2200 519.67c0-3.32 2.7-6 6-6h88c3.3 0 6 2.68 6 6v78c0 3.3-2.7 6-6 6h-88c-3.3 0-6-2.7-6-6z" stroke="#000" stroke-opacity="0" stroke-width="3" fill="#fff" fill-opacity="0"/><g><use xlink:href="#h" transform="matrix(1,0,0,1,2205,518.6666666666667) translate(11.728395061728392 17.77777777777778)"/><use xlink:href="#r" transform="matrix(1,0,0,1,2205,518.6666666666667) translate(7.345679012345677 44.44444444444444)"/><use xlink:href="#u" transform="matrix(1,0,0,1,2205,518.6666666666667) translate(70.30864197530863 44.44444444444444)"/><use xlink:href="#i" transform="matrix(1,0,0,1,2205,518.6666666666667) translate(9.845679012345677 71.11111111111111)"/></g><defs><path fill="#333" d="M127-220V0H93v-220H8v-28h204v28h-85" id="v"/><path fill="#333" d="M141-36C126-15 110 5 73 4 37 3 15-17 15-53c-1-64 63-63 125-63 3-35-9-54-41-54-24 1-41 7-42 31l-33-3c5-37 33-52 76-52 45 0 72 20 72 64v82c-1 20 7 32 28 27v20c-31 9-61-2-59-35zM48-53c0 20 12 33 32 33 41-3 63-29 60-74-43 2-92-5-92 41" id="w"/><path fill="#333" d="M177-190C167-65 218 103 67 71c-23-6-38-20-44-43l32-5c15 47 100 32 89-28v-30C133-14 115 1 83 1 29 1 15-40 15-95c0-56 16-97 71-98 29-1 48 16 59 35 1-10 0-23 2-32h30zM94-22c36 0 50-32 50-73 0-42-14-75-50-75-39 0-46 34-46 75s6 73 46 73" id="x"/><g id="a"><use transform="matrix(0.06172839506172839,0,0,0.06172839506172839,0,0)" xlink:href="#v"/><use transform="matrix(0.06172839506172839,0,0,0.06172839506172839,11.049382716049381,0)" xlink:href="#w"/><use transform="matrix(0.06172839506172839,0,0,0.06172839506172839,23.39506172839506,0)" xlink:href="#x"/></g><path fill="#333" d="M30-248c87 1 191-15 191 75 0 78-77 80-158 76V0H30v-248zm33 125c57 0 124 11 124-50 0-59-68-47-124-48v98" id="y"/><path fill="#333" d="M114-163C36-179 61-72 57 0H25l-1-190h30c1 12-1 29 2 39 6-27 23-49 58-41v29" id="z"/><path fill="#333" d="M100-194c62-1 85 37 85 99 1 63-27 99-86 99S16-35 15-95c0-66 28-99 85-99zM99-20c44 1 53-31 53-75 0-43-8-75-51-75s-53 32-53 75 10 74 51 75" id="A"/><path fill="#333" d="M85-194c31 0 48 13 60 33l-1-100h32l1 261h-30c-2-10 0-23-3-31C134-8 116 4 85 4 32 4 16-35 15-94c0-66 23-100 70-100zm9 24c-40 0-46 34-46 75 0 40 6 74 45 74 42 0 51-32 51-76 0-42-9-74-50-73" id="B"/><path fill="#333" d="M84 4C-5 8 30-112 23-190h32v120c0 31 7 50 39 49 72-2 45-101 50-169h31l1 190h-30c-1-10 1-25-2-33-11 22-28 36-60 37" id="C"/><path fill="#333" d="M96-169c-40 0-48 33-48 73s9 75 48 75c24 0 41-14 43-38l32 2c-6 37-31 61-74 61-59 0-76-41-82-99-10-93 101-131 147-64 4 7 5 14 7 22l-32 3c-4-21-16-35-41-35" id="D"/><path fill="#333" d="M59-47c-2 24 18 29 38 22v24C64 9 27 4 27-40v-127H5v-23h24l9-43h21v43h35v23H59v120" id="E"/><g id="b"><use transform="matrix(0.06172839506172839,0,0,0.06172839506172839,0,0)" xlink:href="#y"/><use transform="matrix(0.06172839506172839,0,0,0.06172839506172839,14.814814814814813,0)" xlink:href="#z"/><use transform="matrix(0.06172839506172839,0,0,0.06172839506172839,22.160493827160494,0)" xlink:href="#A"/><use transform="matrix(0.06172839506172839,0,0,0.06172839506172839,34.50617283950617,0)" xlink:href="#B"/><use transform="matrix(0.06172839506172839,0,0,0.06172839506172839,46.85185185185185,0)" xlink:href="#C"/><use transform="matrix(0.06172839506172839,0,0,0.06172839506172839,59.197530864197525,0)" xlink:href="#D"/><use transform="matrix(0.06172839506172839,0,0,0.06172839506172839,70.30864197530863,0)" xlink:href="#E"/></g><path fill="#333" d="M137 0h-34L2-248h35l83 218 83-218h36" id="F"/><path fill="#333" d="M100-194c63 0 86 42 84 106H49c0 40 14 67 53 68 26 1 43-12 49-29l28 8c-11 28-37 45-77 45C44 4 14-33 15-96c1-61 26-98 85-98zm52 81c6-60-76-77-97-28-3 7-6 17-6 28h103" id="G"/><path fill="#333" d="M135-143c-3-34-86-38-87 0 15 53 115 12 119 90S17 21 10-45l28-5c4 36 97 45 98 0-10-56-113-15-118-90-4-57 82-63 122-42 12 7 21 19 24 35" id="H"/><path fill="#333" d="M24-231v-30h32v30H24zM24 0v-190h32V0H24" id="I"/><path fill="#333" d="M117-194c89-4 53 116 60 194h-32v-121c0-31-8-49-39-48C34-167 62-67 57 0H25l-1-190h30c1 10-1 24 2 32 11-22 29-35 61-36" id="J"/><g id="c"><use transform="matrix(0.06172839506172839,0,0,0.06172839506172839,0,0)" xlink:href="#F"/><use transform="matrix(0.06172839506172839,0,0,0.06172839506172839,13.580246913580245,0)" xlink:href="#G"/><use transform="matrix(0.06172839506172839,0,0,0.06172839506172839,25.925925925925924,0)" xlink:href="#z"/><use transform="matrix(0.06172839506172839,0,0,0.06172839506172839,33.2716049382716,0)" xlink:href="#H"/><use transform="matrix(0.06172839506172839,0,0,0.06172839506172839,44.38271604938271,0)" xlink:href="#I"/><use transform="matrix(0.06172839506172839,0,0,0.06172839506172839,49.25925925925925,0)" xlink:href="#A"/><use transform="matrix(0.06172839506172839,0,0,0.06172839506172839,61.60493827160493,0)" xlink:href="#J"/></g><path fill="#333" d="M27 0v-27h64v-190l-56 39v-29l58-41h29v221h61V0H27" id="K"/><path fill="#333" d="M33 0v-38h34V0H33" id="L"/><path fill="#333" d="M101-251c68 0 85 55 85 127S166 4 100 4C33 4 14-52 14-124c0-73 17-127 87-127zm-1 229c47 0 54-49 54-102s-4-102-53-102c-51 0-55 48-55 102 0 53 5 102 54 102" id="M"/><g id="d"><use transform="matrix(0.06172839506172839,0,0,0.06172839506172839,0,0)" xlink:href="#K"/><use transform="matrix(0.06172839506172839,0,0,0.06172839506172839,12.345679012345679,0)" xlink:href="#L"/><use transform="matrix(0.06172839506172839,0,0,0.06172839506172839,18.51851851851852,0)" xlink:href="#M"/><use transform="matrix(0.06172839506172839,0,0,0.06172839506172839,30.864197530864196,0)" xlink:href="#L"/><use transform="matrix(0.06172839506172839,0,0,0.06172839506172839,37.03703703703704,0)" xlink:href="#M"/></g><path fill="#333" d="M230 0l2-204L168 0h-37L68-204 70 0H24v-248h70l56 185 57-185h69V0h-46" id="N"/><use transform="matrix(0.06172839506172839,0,0,0.06172839506172839,0,0)" xlink:href="#N" id="e"/><path fill="#333" d="M30-248c118-7 216 8 213 122C240-48 200 0 122 0H30v-248zM63-27c89 8 146-16 146-99s-60-101-146-95v194" id="O"/><use transform="matrix(0.06172839506172839,0,0,0.06172839506172839,0,0)" xlink:href="#O" id="f"/><path fill="#333" d="M63-220v92h138v28H63V0H30v-248h175v28H63" id="P"/><use transform="matrix(0.06172839506172839,0,0,0.06172839506172839,0,0)" xlink:href="#P" id="g"/><path fill="#333" d="M212-179c-10-28-35-45-73-45-59 0-87 40-87 99 0 60 29 101 89 101 43 0 62-24 78-52l27 14C228-24 195 4 139 4 59 4 22-46 18-125c-6-104 99-153 187-111 19 9 31 26 39 46" id="Q"/><g id="h"><use transform="matrix(0.06172839506172839,0,0,0.06172839506172839,0,0)" xlink:href="#Q"/><use transform="matrix(0.06172839506172839,0,0,0.06172839506172839,15.987654320987653,0)" xlink:href="#z"/><use transform="matrix(0.06172839506172839,0,0,0.06172839506172839,23.333333333333332,0)" xlink:href="#G"/><use transform="matrix(0.06172839506172839,0,0,0.06172839506172839,35.67901234567901,0)" xlink:href="#w"/><use transform="matrix(0.06172839506172839,0,0,0.06172839506172839,48.02469135802469,0)" xlink:href="#E"/><use transform="matrix(0.06172839506172839,0,0,0.06172839506172839,54.19753086419753,0)" xlink:href="#G"/></g><path fill="#333" d="M160-131c35 5 61 23 61 61C221 17 115-2 30 0v-248c76 3 177-17 177 60 0 33-19 50-47 57zm-97-11c50-1 110 9 110-42 0-47-63-36-110-37v79zm0 115c55-2 124 14 124-45 0-56-70-42-124-44v89" id="R"/><path fill="#333" d="M106-169C34-169 62-67 57 0H25v-261h32l-1 103c12-21 28-36 61-36 89 0 53 116 60 194h-32v-121c2-32-8-49-39-48" id="S"/><g id="i"><use transform="matrix(0.06172839506172839,0,0,0.06172839506172839,0,0)" xlink:href="#R"/><use transform="matrix(0.06172839506172839,0,0,0.06172839506172839,14.814814814814813,0)" xlink:href="#z"/><use transform="matrix(0.06172839506172839,0,0,0.06172839506172839,22.160493827160494,0)" xlink:href="#w"/><use transform="matrix(0.06172839506172839,0,0,0.06172839506172839,34.50617283950617,0)" xlink:href="#J"/><use transform="matrix(0.06172839506172839,0,0,0.06172839506172839,46.85185185185185,0)" xlink:href="#D"/><use transform="matrix(0.06172839506172839,0,0,0.06172839506172839,57.96296296296296,0)" xlink:href="#S"/></g><g id="j"><use transform="matrix(0.06172839506172839,0,0,0.06172839506172839,0,0)" xlink:href="#Q"/><use transform="matrix(0.06172839506172839,0,0,0.06172839506172839,15.987654320987653,0)" xlink:href="#z"/><use transform="matrix(0.06172839506172839,0,0,0.06172839506172839,23.333333333333332,0)" xlink:href="#G"/><use transform="matrix(0.06172839506172839,0,0,0.06172839506172839,35.67901234567901,0)" xlink:href="#w"/><use transform="matrix(0.06172839506172839,0,0,0.06172839506172839,48.02469135802469,0)" xlink:href="#E"/><use transform="matrix(0.06172839506172839,0,0,0.06172839506172839,54.19753086419753,0)" xlink:href="#G"/></g><g id="k"><use transform="matrix(0.06172839506172839,0,0,0.06172839506172839,0,0)" xlink:href="#y"/><use transform="matrix(0.06172839506172839,0,0,0.06172839506172839,14.814814814814813,0)" xlink:href="#w"/><use transform="matrix(0.06172839506172839,0,0,0.06172839506172839,27.160493827160494,0)" xlink:href="#E"/><use transform="matrix(0.06172839506172839,0,0,0.06172839506172839,33.333333333333336,0)" xlink:href="#D"/><use transform="matrix(0.06172839506172839,0,0,0.06172839506172839,44.44444444444444,0)" xlink:href="#S"/></g><path fill="#333" d="M101-251c82-7 93 87 43 132L82-64C71-53 59-42 53-27h129V0H18c2-99 128-94 128-182 0-28-16-43-45-43s-46 15-49 41l-32-3c6-41 34-60 81-64" id="T"/><use transform="matrix(0.06172839506172839,0,0,0.06172839506172839,0,0)" xlink:href="#T" id="l"/><path fill="#333" d="M30 0v-248h33v221h125V0H30" id="U"/><g id="m"><use transform="matrix(0.06172839506172839,0,0,0.06172839506172839,0,0)" xlink:href="#U"/><use transform="matrix(0.06172839506172839,0,0,0.06172839506172839,12.345679012345679,0)" xlink:href="#A"/><use transform="matrix(0.06172839506172839,0,0,0.06172839506172839,24.691358024691358,0)" xlink:href="#J"/><use transform="matrix(0.06172839506172839,0,0,0.06172839506172839,37.03703703703704,0)" xlink:href="#x"/></g><path fill="#333" d="M108 0H70L1-190h34L89-25l56-165h34" id="V"/><g id="n"><use transform="matrix(0.06172839506172839,0,0,0.06172839506172839,0,0)" xlink:href="#U"/><use transform="matrix(0.06172839506172839,0,0,0.06172839506172839,12.345679012345679,0)" xlink:href="#I"/><use transform="matrix(0.06172839506172839,0,0,0.06172839506172839,17.22222222222222,0)" xlink:href="#V"/><use transform="matrix(0.06172839506172839,0,0,0.06172839506172839,28.333333333333332,0)" xlink:href="#G"/><use transform="matrix(0.06172839506172839,0,0,0.06172839506172839,40.67901234567901,0)" xlink:href="#B"/></g><g id="o"><use transform="matrix(0.06172839506172839,0,0,0.06172839506172839,0,0)" xlink:href="#R"/><use transform="matrix(0.06172839506172839,0,0,0.06172839506172839,14.814814814814813,0)" xlink:href="#z"/><use transform="matrix(0.06172839506172839,0,0,0.06172839506172839,22.160493827160494,0)" xlink:href="#w"/><use transform="matrix(0.06172839506172839,0,0,0.06172839506172839,34.50617283950617,0)" xlink:href="#J"/><use transform="matrix(0.06172839506172839,0,0,0.06172839506172839,46.85185185185185,0)" xlink:href="#D"/><use transform="matrix(0.06172839506172839,0,0,0.06172839506172839,57.96296296296296,0)" xlink:href="#S"/></g><path fill="#333" d="M24 0v-261h32V0H24" id="W"/><g id="p"><use transform="matrix(0.049382716049382706,0,0,0.049382716049382706,0,0)" xlink:href="#y"/><use transform="matrix(0.049382716049382706,0,0,0.049382716049382706,11.85185185185185,0)" xlink:href="#C"/><use transform="matrix(0.049382716049382706,0,0,0.049382716049382706,21.728395061728392,0)" xlink:href="#W"/><use transform="matrix(0.049382716049382706,0,0,0.049382716049382706,25.629629629629626,0)" xlink:href="#W"/></g><path fill="#333" d="M233-177c-1 41-23 64-60 70L243 0h-38l-65-103H63V0H30v-248c88 3 205-21 203 71zM63-129c60-2 137 13 137-47 0-61-80-42-137-45v92" id="X"/><path fill="#333" d="M145-31C134-9 116 4 85 4 32 4 16-35 15-94c0-59 17-99 70-100 32-1 48 14 60 33 0-11-1-24 2-32h30l-1 268h-32zM93-21c41 0 51-33 51-76s-8-73-50-73c-40 0-46 35-46 75s5 74 45 74" id="Y"/><g id="q"><use transform="matrix(0.049382716049382706,0,0,0.049382716049382706,0,0)" xlink:href="#X"/><use transform="matrix(0.049382716049382706,0,0,0.049382716049382706,12.790123456790122,0)" xlink:href="#G"/><use transform="matrix(0.049382716049382706,0,0,0.049382716049382706,22.666666666666664,0)" xlink:href="#Y"/><use transform="matrix(0.049382716049382706,0,0,0.049382716049382706,32.5432098765432,0)" xlink:href="#C"/><use transform="matrix(0.049382716049382706,0,0,0.049382716049382706,42.419753086419746,0)" xlink:href="#G"/><use transform="matrix(0.049382716049382706,0,0,0.049382716049382706,52.29629629629628,0)" xlink:href="#H"/><use transform="matrix(0.049382716049382706,0,0,0.049382716049382706,61.185185185185176,0)" xlink:href="#E"/></g><g id="r"><use transform="matrix(0.06172839506172839,0,0,0.06172839506172839,0,0)" xlink:href="#y"/><use transform="matrix(0.06172839506172839,0,0,0.06172839506172839,14.814814814814813,0)" xlink:href="#w"/><use transform="matrix(0.06172839506172839,0,0,0.06172839506172839,27.160493827160494,0)" xlink:href="#E"/><use transform="matrix(0.06172839506172839,0,0,0.06172839506172839,33.333333333333336,0)" xlink:href="#D"/><use transform="matrix(0.06172839506172839,0,0,0.06172839506172839,44.44444444444444,0)" xlink:href="#S"/></g><use transform="matrix(0.06172839506172839,0,0,0.06172839506172839,0,0)" xlink:href="#T" id="s"/><use transform="matrix(0.06172839506172839,0,0,0.06172839506172839,0,0)" xlink:href="#K" id="t"/><use transform="matrix(0.06172839506172839,0,0,0.06172839506172839,0,0)" xlink:href="#K" id="u"/></defs></g></svg>