<svg xmlns="http://www.w3.org/2000/svg" xmlns:xlink="http://www.w3.org/1999/xlink" xmlns:lucid="lucid" width="1941" height="816"><g transform="translate(-1700 -164)" lucid:page-tab-id="EzrLV4CK~mgA"><path d="M1966 280h1630" stroke="#5e5e5e" stroke-width="8" fill="none"/><path d="M1966.1 284h-4.1v-8h4.1z" fill="#5e5e5e"/><path d="M3595.9 280h4.1" stroke="#5e5e5e" stroke-width="8" fill="none"/><path d="M1962 190c0-3.3 2.7-6 6-6h228c3.3 0 6 2.7 6 6v48c0 3.3-2.7 6-6 6h-228c-3.3 0-6-2.7-6-6z" fill="none"/><use xlink:href="#a" transform="matrix(1,0,0,1,1962,184) translate(94.93827160493828 21.111111111111114)"/><use xlink:href="#b" transform="matrix(1,0,0,1,1962,184) translate(36.820987654321 47.777777777777786)"/><use xlink:href="#c" transform="matrix(1,0,0,1,1962,184) translate(129.2283950617284 47.777777777777786)"/><path d="M1960.2 440.26H3596M1960.3 440.26h-4.1M3595.9 440.26h4.1" stroke="#5e5e5e" stroke-width="8" fill="none"/><path d="M2120 280c0 22.1-17.9 40-40 40s-40-17.9-40-40 17.9-40 40-40 40 17.9 40 40z" stroke="#999" stroke-width="6" fill="#ffc374"/><use xlink:href="#d" transform="matrix(1,0,0,1,2045,245) translate(25.771604938271608 39.65277777777778)"/><path d="M2337 437c0 22.1-17.9 40-40 40s-40-17.9-40-40 17.9-40 40-40 40 17.9 40 40z" stroke="#5e5e5e" stroke-width="6" fill="#fff"/><use xlink:href="#e" transform="matrix(1,0,0,1,2262,401.99999999999994) translate(27.006172839506174 39.65277777777778)"/><path d="M2949.2 441.6c0 22.1-17.9 40-40 40s-40-17.9-40-40 17.9-40 40-40 40 17.9 40 40z" stroke="#5e5e5e" stroke-width="6" fill="#fff"/><use xlink:href="#e" transform="matrix(1,0,0,1,2874.200956203102,406.59808759379615) translate(27.006172839506174 39.65277777777778)"/><path d="M2141.93 323.97c0 6.05-4.9 10.96-10.96 10.96-6.06 0-10.97-4.9-10.97-10.96 0-6.06 4.9-10.97 10.97-10.97 6.05 0 10.96 4.9 10.96 10.97zM2141.93 415.62c0 6.06-4.9 10.97-10.96 10.97-6.06 0-10.97-4.92-10.97-10.98 0-6.06 4.9-10.96 10.97-10.96 6.05 0 10.96 4.9 10.96 10.96zM2180 350.55c0 6.06-4.9 10.97-10.97 10.97-6.05 0-10.96-4.9-10.96-10.97 0-6.05 4.9-10.96 10.96-10.96 6.06 0 10.97 4.9 10.97 10.95z" stroke="#5e5e5e" stroke-width="6" fill="#fff"/><path d="M2130.97 397.63v-55.67" stroke="#5e5e5e" stroke-width="8" fill="none"/><path d="M2134.97 402.26l-.38-.16-3.63-.47-3.63.47-.37.16v-4.73h8zM2134.97 342.06h-8v-4.73l.37.15 3.63.48 3.62-.48.37-.15z" fill="#5e5e5e"/><path d="M2168.76 367.53l-.2.97-.43 1.3-.52 1.05-.6.9-.7.82-.85.75-1.07.7-1.42.7-2.12.72-4.4.84-12.84 1.9-2.84.95-2.04 1-1.62 1.1-1.36 1.18-1.2 1.37-1.04 1.6-.95 1.93-.84 2.48-.64 3.37-.1 1.37" stroke="#5e5e5e" stroke-width="6" fill="none"/><path d="M2171.84 367.8l-6-.37.2-3.28 3 .4 3.02-.4z" fill="#5e5e5e"/><path d="M2130.97 394.45l-.2 3.07" stroke="#5e5e5e" stroke-width="6" fill="none"/><path d="M2020 332.67c0-3.32 2.7-6 6-6h88c3.3 0 6 2.68 6 6v78c0 3.3-2.7 6-6 6h-88c-3.3 0-6-2.7-6-6z" stroke="#000" stroke-opacity="0" stroke-width="3" fill="#fff" fill-opacity="0"/><use xlink:href="#f" transform="matrix(1,0,0,1,2025,331.6666666666667) translate(11.728395061728392 17.77777777777778)"/><use xlink:href="#g" transform="matrix(1,0,0,1,2025,331.6666666666667) translate(25.27777777777778 44.44444444444444)"/><use xlink:href="#h" transform="matrix(1,0,0,1,2025,331.6666666666667) translate(9.845679012345677 71.11111111111111)"/><path d="M2144 280.06h.92l4.26.26 3.73.37 3.3.46 2.96.54 2.64.6 2.4.66 2.18.7 2 .73 1.86.75 1.72.8 1.6.82 1.5.86 1.4.88 1.33.92 1.25.95 1.2.98 1.14 1.02 1.08 1.05 1.05 1.1 1 1.17.98 1.2.95 1.28.9 1.35.9 1.44.85 1.54.83 1.66.8 1.8.8 1.94.74 2.13.73 2.37.7 2.67.66 3.03.6 3.52.57 4.22.46 5.28.33 7.22.02 14-.24 27.88.34 7.3.48 5.35.56 4.3.62 3.57.68 3.1.7 2.7.75 2.44.78 2.2.8 1.98.84 1.83.85 1.7.87 1.57.9 1.48.95 1.4.97 1.32 1 1.25 1.03 1.2 1.1 1.14 1.12 1.1 1.18 1.05 1.24 1.02 1.3.98 1.4.95 1.45.92 1.55.88 1.67.86 1.78.84 1.93.8 2.1.76 2.28.73 2.5.68 2.77.65 3.08.57 3.46.5 3.92.38 2.15.12M2144.1 280.06l-4.1-.06M2247.1 439.88l4.1.12" stroke="#5e5e5e" stroke-width="8" fill="none"/><path d="M1722 254.33c0-3.3 2.7-6 6-6h228c3.3 0 6 2.7 6 6v51.34c0 3.3-2.7 6-6 6h-228c-3.3 0-6-2.7-6-6z" stroke="#000" stroke-opacity="0" stroke-width="3" fill="#fff" fill-opacity="0"/><use xlink:href="#i" transform="matrix(1,0,0,1,1727,253.33333333333334) translate(22.46913580246914 17.77777777777778)"/><use xlink:href="#j" transform="matrix(1,0,0,1,1727,253.33333333333334) translate(78.0246913580247 17.77777777777778)"/><use xlink:href="#k" transform="matrix(1,0,0,1,1727,253.33333333333334) translate(137.22222222222223 17.77777777777778)"/><use xlink:href="#l" transform="matrix(1,0,0,1,1727,253.33333333333334) translate(43.48765432098766 44.44444444444444)"/><use xlink:href="#m" transform="matrix(1,0,0,1,1727,253.33333333333334) translate(81.69753086419755 44.44444444444444)"/><use xlink:href="#n" transform="matrix(1,0,0,1,1727,253.33333333333334) translate(118.73456790123457 44.44444444444444)"/><path d="M1720 411c0-3.3 2.7-6 6-6h228c3.3 0 6 2.7 6 6v51.33c0 3.32-2.7 6-6 6h-228c-3.3 0-6-2.68-6-6z" stroke="#000" stroke-opacity="0" stroke-width="3" fill="#fff" fill-opacity="0"/><use xlink:href="#i" transform="matrix(1,0,0,1,1725,409.99999999999983) translate(22.46913580246914 17.77777777777778)"/><use xlink:href="#j" transform="matrix(1,0,0,1,1725,409.99999999999983) translate(78.0246913580247 17.77777777777778)"/><use xlink:href="#k" transform="matrix(1,0,0,1,1725,409.99999999999983) translate(137.22222222222223 17.77777777777778)"/><use xlink:href="#l" transform="matrix(1,0,0,1,1725,409.99999999999983) translate(43.48765432098766 44.44444444444444)"/><use xlink:href="#m" transform="matrix(1,0,0,1,1725,409.99999999999983) translate(81.69753086419755 44.44444444444444)"/><use xlink:href="#n" transform="matrix(1,0,0,1,1725,409.99999999999983) translate(118.73456790123457 44.44444444444444)"/><path d="M2362 400h56M2362.05 400H2360M2417.95 400h2.05M2390 322v62.36M2390 322.05V320M2379.82 366.86l10.18 17.2 10.18-17.2" stroke="#5e5e5e" stroke-width="4" fill="none"/><path d="M2414 346c0-3.3 2.7-6 6-6h88c3.3 0 6 2.7 6 6v48c0 3.3-2.7 6-6 6h-88c-3.3 0-6-2.7-6-6z" stroke="#000" stroke-opacity="0" stroke-width="3" fill="#fff" fill-opacity="0"/><use xlink:href="#o" transform="matrix(1,0,0,1,2419,345) translate(26.54320987654321 17.77777777777778)"/><use xlink:href="#p" transform="matrix(1,0,0,1,2419,345) translate(0.5864197530864175 44.44444444444444)"/><path d="M2962 400h56M2962.05 400H2960M3017.95 400h2.05M2990 322v62.36M2990 322.05V320M2979.82 366.86l10.18 17.2 10.18-17.2" stroke="#5e5e5e" stroke-width="4" fill="none"/><path d="M3014 346c0-3.3 2.7-6 6-6h88c3.3 0 6 2.7 6 6v48c0 3.3-2.7 6-6 6h-88c-3.3 0-6-2.7-6-6z" stroke="#000" stroke-opacity="0" stroke-width="3" fill="#fff" fill-opacity="0"/><use xlink:href="#o" transform="matrix(1,0,0,1,3019,345) translate(26.54320987654321 17.77777777777778)"/><use xlink:href="#p" transform="matrix(1,0,0,1,3019,345) translate(0.5864197530864175 44.44444444444444)"/><path d="M2743.93 920H3596" stroke="#5e5e5e" stroke-width="8" fill="none"/><path d="M2744.04 924h-4.35l.23-3.96-.1-3.16-.12-.88h4.34z" fill="#5e5e5e"/><path d="M3595.9 920h4.1M2550.6 600.17l.9.05 2.18.22 2.07.3 1.95.35 1.84.42 1.76.48 1.68.53 1.6.6 1.57.64 1.5.7 1.46.74 1.42.82 1.4.87 1.34.92 1.34 1 1.3 1.08 1.3 1.16 1.3 1.24 1.28 1.35 1.27 1.46 1.28 1.6 1.27 1.74 1.28 1.9 1.3 2.1 1.28 2.33 1.3 2.6 1.33 2.92 1.32 3.3 1.34 3.8 1.34 4.38 1.35 5.16 1.34 6.15 1.3 7.5 1.24 9.48 1.1 12.52.83 18.1.06 36-.86 82.02.83 18.18 1.1 12.57 1.25 9.52 1.32 7.55 1.34 6.2 1.37 5.17 1.36 4.42 1.35 3.82 1.34 3.34 1.33 2.94 1.3 2.62 1.32 2.34 1.3 2.12 1.3 1.92 1.27 1.75 1.3 1.6 1.27 1.47 1.3 1.36 1.3 1.26 1.32 1.16 1.32 1.1 1.35 1 1.36.94 1.4.88 1.43.8 1.46.77 1.52.7 1.57.66 1.63.6 1.7.54 1.77.5 1.87.42 1.97.36 2.08.3 1.46.14M2550.7 600.1l-4.1-.05" stroke="#5e5e5e" stroke-width="8" fill="none"/><path d="M2654.17 916l-.24 3.96.1 3.16.13.9-4.45-.14.25-8z" fill="#5e5e5e"/><path d="M2736.93 920c0 22.1-17.9 40-40 40s-40-17.9-40-40 17.9-40 40-40 40 17.9 40 40z" stroke="#5e5e5e" stroke-width="6" fill="#fff"/><path d="M2680.96 896c0-3.3 2.7-6 6-6h25c3.3 0 6 2.7 6 6v48c0 3.3-2.7 6-6 6h-25c-3.3 0-6-2.7-6-6z" stroke="#000" stroke-opacity="0" stroke-width="3" fill="#fff" fill-opacity="0"/><use xlink:href="#q" transform="matrix(1,0,0,1,2685.9596059113305,895.0000185747631) translate(6.0925925925925934 30.27777777777778)"/><path d="M2750.86 690.6c0 6.05-4.9 10.96-10.96 10.96-6.06 0-10.97-4.9-10.97-10.97 0-6.06 4.9-10.97 10.97-10.97 6.05 0 10.96 4.9 10.96 10.96zM2750.86 782.25c0 6.06-4.9 10.96-10.96 10.96-6.06 0-10.97-4.9-10.97-10.95 0-6.06 4.9-10.97 10.97-10.97 6.05 0 10.96 4.9 10.96 10.97zM2788.93 717.18c0 6.06-4.9 10.97-10.96 10.97-6.06 0-10.97-4.9-10.97-10.97 0-6.06 4.9-10.97 10.97-10.97 6.05 0 10.96 4.92 10.96 10.98z" stroke="#5e5e5e" stroke-width="6" fill="#fff"/><path d="M2739.9 764.26V708.6" stroke="#5e5e5e" stroke-width="8" fill="none"/><path d="M2743.9 768.9l-.38-.17-3.62-.47-3.63.47-.37.16v-4.74h8zM2743.9 708.7h-8v-4.74l.37.15 3.63.5 3.62-.5.38-.14z" fill="#5e5e5e"/><path d="M2777.7 734.15l-.2.98-.44 1.3-.52 1.05-.6.9-.7.82-.86.75-1.07.7-1.4.7-2.13.72-4.4.84-12.84 1.9-2.84.95-2.05 1-1.62 1.1-1.36 1.2-1.2 1.35-1.04 1.6-.95 1.93-.84 2.48-.65 3.37-.1 1.38" stroke="#5e5e5e" stroke-width="6" fill="none"/><path d="M2780.77 734.43l-6-.37.2-3.28 3 .4 3.03-.4z" fill="#5e5e5e"/><path d="M2739.9 761.08l-.2 3.07" stroke="#5e5e5e" stroke-width="6" fill="none"/><path d="M2613.93 699.3c0-3.32 2.7-6 6-6h103c3.3 0 6 2.68 6 6v78c0 3.3-2.7 6-6 6h-103c-3.3 0-6-2.7-6-6z" stroke="#000" stroke-opacity="0" stroke-width="3" fill="#fff" fill-opacity="0"/><use xlink:href="#r" transform="matrix(1,0,0,1,2618.931034482759,698.2954116683658) translate(19.228395061728392 17.77777777777778)"/><use xlink:href="#s" transform="matrix(1,0,0,1,2618.931034482759,698.2954116683658) translate(-4.197530864197539 44.44444444444444)"/><use xlink:href="#h" transform="matrix(1,0,0,1,2618.931034482759,698.2954116683658) translate(17.345679012345677 71.11111111111111)"/><path d="M2940.93 760.62L3596 760" stroke="#5e5e5e" stroke-width="8" fill="none"/><path d="M2941.04 764.62h-4.35l.23-3.95-.1-3.16-.12-.87h4.33z" fill="#5e5e5e"/><path d="M3595.9 760h4.1" stroke="#5e5e5e" stroke-width="8" fill="none"/><path d="M2933.93 760.63c0 22.1-17.9 40-40 40s-40-17.9-40-40 17.9-40 40-40 40 17.9 40 40z" stroke="#5e5e5e" stroke-width="6" fill="#fff"/><use xlink:href="#q" transform="matrix(1,0,0,1,2858.931034482759,725.628745001699) translate(27.592592592592595 39.65277777777778)"/><path d="M3030.75 659.3c0 5.18-4.22 9.4-9.4 9.4-5.2 0-9.42-4.22-9.42-9.4 0-5.2 4.2-9.42 9.4-9.42s9.42 4.2 9.42 9.4zM3030.75 737.92c0 5.2-4.22 9.4-9.4 9.4-5.2 0-9.42-4.2-9.42-9.4s4.2-9.4 9.4-9.4 9.42 4.2 9.42 9.4zM3065.54 720.88c0 5.2-4.22 9.4-9.4 9.4-5.2 0-9.42-4.2-9.42-9.4s4.2-9.4 9.4-9.4 9.42 4.2 9.42 9.4z" stroke="#de5f85" stroke-width="6" fill="#fff"/><path d="M3021.34 721.5V675.7" stroke="#de5f85" stroke-width="8" fill="none"/><path d="M3025.34 726.16l-3.93-.67-3.1.36-.96.4v-4.87h8zM3025.34 675.82h-8v-4.77l3.92.68 3.13-.38.94-.4z" fill="#de5f85"/><path d="M3021.5 690.3l.27 1.14.4 1.02.44.75.47.6.5.47.57.4.7.35.88.3 1.3.23 2.58.08 10.76-.23 2.76.5 2.28.78 2.04 1.04 1.96 1.38 1.95 1.85 2.06 2.6 1.3 2.26M3021.44 690.4l-.28-3.06" stroke="#de5f85" stroke-width="6" fill="none"/><path d="M3059.73 709.05l-3.53-.6-3.12.37-.08.04-.9-1.9 5.42-2.57z" fill="#de5f85"/><path d="M3031.93 655.63c0-3.3 2.7-6 6-6h67.8c3.3 0 6 2.7 6 6v40.67c0 3.3-2.7 6-6 6h-67.8c-3.3 0-6-2.7-6-6z" stroke="#000" stroke-opacity="0" stroke-width="3" fill="#fff" fill-opacity="0"/><use xlink:href="#t" transform="matrix(1,0,0,1,3036.931034482759,654.628745001699) translate(20.23456790123457 14.222222222222221)"/><use xlink:href="#u" transform="matrix(1,0,0,1,3036.931034482759,654.628745001699) translate(1.9382716049382793 35.55555555555556)"/><path d="M2990.75 658.16c0 4.72-4.22 8.54-9.4 8.54-5.2 0-9.42-3.82-9.42-8.54 0-4.7 4.2-8.53 9.4-8.53s9.42 3.82 9.42 8.53zM2990.75 861.3c0 4.72-4.22 8.54-9.4 8.54-5.2 0-9.42-3.82-9.42-8.53 0-4.7 4.2-8.53 9.4-8.53s9.42 3.82 9.42 8.54zM3025.54 845.85c0 4.7-4.22 8.53-9.4 8.53-5.2 0-9.42-3.82-9.42-8.53 0-4.72 4.2-8.54 9.4-8.54s9.42 3.83 9.42 8.55z" stroke="#de5f85" stroke-width="6" fill="#fff"/><path d="M2981.34 845.75V673.72" stroke="#de5f85" stroke-width="8" fill="none"/><path d="M2985.34 850.36l-3.93-.6-3.04.32-1.02.4v-4.83h8zM2985.34 673.82h-8v-4.7l3.93.6 3.05-.33 1.02-.4z" fill="#de5f85"/><path d="M2981.5 818.38l.25 1.02.38.96.4.68.4.52.45.43.5.34.58.3.73.23.97.2 1.6.04 13.9-1.08 2.37.43 2.02.7 1.86.94 1.8 1.26 1.84 1.75 1.95 2.48 1.2 2.07M2981.44 818.47l-.28-3.06" stroke="#de5f85" stroke-width="6" fill="none"/><path d="M3019.7 834.83l-3.5-.55-3.05.34-.16.06-.9-1.9 5.42-2.55z" fill="#de5f85"/><path d="M2891.93 825.63c0-3.3 2.7-6 6-6h67.8c3.3 0 6 2.7 6 6v35.8c0 3.3-2.7 6-6 6h-67.8c-3.3 0-6-2.7-6-6z" stroke="#000" stroke-opacity="0" stroke-width="3" fill="#fff" fill-opacity="0"/><use xlink:href="#t" transform="matrix(1,0,0,1,2896.9310344827595,824.6287450016991) translate(20.23456790123457 14.222222222222221)"/><use xlink:href="#u" transform="matrix(1,0,0,1,2896.9310344827595,824.6287450016991) translate(1.9382716049382793 35.55555555555556)"/><path d="M2826.93 694.04c0-3.3 2.7-6 6-6H2961c3.3 0 6 2.7 6 6v33.04c0 3.3-2.7 6-6 6h-128.07c-3.3 0-6-2.7-6-6z" stroke="#000" stroke-opacity="0" stroke-width="3" fill="#fff" fill-opacity="0"/><use xlink:href="#v" transform="matrix(1,0,0,1,2831.931034482759,693.0436671931161) translate(8.802469135802461 22.27777777777778)"/><path d="M2629.93 822.63c0-3.3 2.7-6 6-6H2764c3.3 0 6 2.7 6 6v33.04c0 3.3-2.7 6-6 6h-128.07c-3.3 0-6-2.7-6-6z" stroke="#000" stroke-opacity="0" stroke-width="3" fill="#fff" fill-opacity="0"/><use xlink:href="#w" transform="matrix(1,0,0,1,2634.931034482759,821.6287450016989) translate(7.567901234567891 22.27777777777778)"/><path d="M2543.86 690.6c0 6.05-4.9 10.96-10.96 10.96-6.06 0-10.97-4.9-10.97-10.97 0-6.06 4.9-10.97 10.97-10.97 6.05 0 10.96 4.9 10.96 10.96zM2543.86 782.25c0 6.06-4.9 10.96-10.96 10.96-6.06 0-10.97-4.9-10.97-10.95 0-6.06 4.9-10.97 10.97-10.97 6.05 0 10.96 4.9 10.96 10.97zM2581.93 717.18c0 6.06-4.9 10.97-10.96 10.97-6.06 0-10.97-4.9-10.97-10.97 0-6.06 4.9-10.97 10.97-10.97 6.05 0 10.96 4.92 10.96 10.98z" stroke="#5e5e5e" stroke-width="6" fill="#fff"/><path d="M2532.9 764.26V708.6" stroke="#5e5e5e" stroke-width="8" fill="none"/><path d="M2536.9 768.9l-.38-.17-3.62-.47-3.63.47-.37.16v-4.74h8zM2536.9 708.7h-8v-4.74l.37.15 3.63.5 3.62-.5.38-.14z" fill="#5e5e5e"/><path d="M2570.7 734.15l-.2.98-.44 1.3-.52 1.05-.6.9-.7.82-.86.75-1.07.7-1.4.7-2.13.72-4.4.84-12.84 1.9-2.84.95-2.05 1-1.62 1.1-1.36 1.2-1.2 1.35-1.04 1.6-.95 1.93-.84 2.48-.65 3.37-.1 1.38" stroke="#5e5e5e" stroke-width="6" fill="none"/><path d="M2573.77 734.43l-6-.37.2-3.28 3 .4 3.03-.4z" fill="#5e5e5e"/><path d="M2532.9 761.08l-.2 3.07" stroke="#5e5e5e" stroke-width="6" fill="none"/><path d="M2380 699.3c0-3.32 2.7-6 6-6h129.93c3.3 0 6 2.68 6 6v78c0 3.3-2.7 6-6 6H2386c-3.3 0-6-2.7-6-6z" stroke="#000" stroke-opacity="0" stroke-width="3" fill="#fff" fill-opacity="0"/><use xlink:href="#f" transform="matrix(1,0,0,1,2385,698.2954116683658) translate(32.72839506172839 17.77777777777778)"/><use xlink:href="#x" transform="matrix(1,0,0,1,2385,698.2954116683658) translate(8.067901234567891 44.44444444444444)"/><use xlink:href="#h" transform="matrix(1,0,0,1,2385,698.2954116683658) translate(30.845679012345677 71.11111111111111)"/><path d="M2744 600.06h.92l4.26.26 3.73.37 3.3.46 2.96.54 2.64.6 2.4.66 2.18.7 2 .73 1.86.75 1.72.8 1.6.82 1.5.86 1.4.88 1.33.92 1.25.95 1.2.98 1.14 1.02 1.08 1.05 1.05 1.1 1 1.17.98 1.2.95 1.28.9 1.35.9 1.44.85 1.54.83 1.66.8 1.8.8 1.94.74 2.13.73 2.37.7 2.67.66 3.03.6 3.52.57 4.22.46 5.28.33 7.22.02 14-.24 27.88.34 7.3.48 5.35.56 4.3.62 3.57.68 3.1.7 2.7.75 2.44.78 2.2.8 1.98.84 1.83.85 1.7.87 1.57.9 1.48.95 1.4.97 1.32 1 1.25 1.03 1.2 1.1 1.14 1.12 1.1 1.18 1.05 1.24 1.02 1.3.98 1.4.95 1.45.92 1.55.88 1.67.86 1.78.84 1.93.8 2.1.76 2.28.73 2.5.68 2.77.65 3.08.57 3.46.5 3.92.38 2.15.12M2744.1 600.06l-4.1-.06M2847.1 759.88l4.1.12M2344 440.06h.92l4.26.26 3.73.37 3.3.46 2.96.54 2.64.6 2.4.66 2.18.7 2 .73 1.86.75 1.72.8 1.6.82 1.5.86 1.4.88 1.33.92 1.25.95 1.2.98 1.14 1.02 1.08 1.05 1.05 1.1 1 1.17.98 1.2.95 1.28.9 1.35.9 1.44.85 1.54.83 1.66.8 1.8.8 1.94.74 2.13.73 2.37.7 2.67.66 3.03.6 3.52.57 4.22.46 5.28.33 7.22.02 14-.24 27.88.34 7.3.48 5.35.56 4.3.62 3.57.68 3.1.7 2.7.75 2.44.78 2.2.8 1.98.84 1.83.85 1.7.87 1.57.9 1.48.95 1.4.97 1.32 1 1.25 1.03 1.2 1.1 1.14 1.12 1.1 1.18 1.05 1.24 1.02 1.3.98 1.4.95 1.45.92 1.55.88 1.67.86 1.78.84 1.93.8 2.1.76 2.28.73 2.5.68 2.77.65 3.08.57 3.46.5 3.92.38 2.15.12M2344.1 440.06l-4.1-.06M2447.1 599.88l4.1.12M2456 600h1140" stroke="#5e5e5e" stroke-width="8" fill="none"/><path d="M2452 599.96l.1 3.16.13.88H2449v-8h3.24z" fill="#5e5e5e"/><path d="M3595.9 600h4.1" stroke="#5e5e5e" stroke-width="8" fill="none"/><path d="M2535 600c0 22.1-17.9 40-40 40s-40-17.9-40-40 17.9-40 40-40 40 17.9 40 40z" stroke="#5e5e5e" stroke-width="6" fill="#fff"/><use xlink:href="#e" transform="matrix(1,0,0,1,2460,565) translate(27.006172839506174 39.65277777777778)"/><path d="M3160 600c0 22.1-17.9 40-40 40s-40-17.9-40-40 17.9-40 40-40 40 17.9 40 40z" stroke="#5e5e5e" stroke-width="6" fill="#fff"/><use xlink:href="#e" transform="matrix(1,0,0,1,3085,565) translate(27.006172839506174 39.65277777777778)"/><path d="M3398.82 489.66c0 5.2-4.22 9.4-9.4 9.4-5.2 0-9.42-4.2-9.42-9.4s4.2-9.4 9.4-9.4 9.42 4.2 9.42 9.4zM3398.82 568.3c0 5.2-4.22 9.4-9.4 9.4-5.2 0-9.42-4.2-9.42-9.4s4.2-9.4 9.4-9.4 9.42 4.2 9.42 9.4zM3433.6 551.25c0 5.2-4.2 9.4-9.4 9.4s-9.4-4.2-9.4-9.4 4.2-9.4 9.4-9.4 9.4 4.2 9.4 9.4z" stroke="#de5f85" stroke-width="6" fill="#fff"/><path d="M3389.4 551.87V506.1" stroke="#de5f85" stroke-width="8" fill="none"/><path d="M3393.4 556.53l-3.92-.67-3.12.37-.95.42v-4.9h8zM3393.4 506.2h-8v-4.77l3.93.67 3.12-.38.96-.4z" fill="#de5f85"/><path d="M3389.56 520.68l.28 1.14.4 1 .44.76.46.58.5.48.57.4.7.35.9.3 1.28.22 2.6.08 10.75-.23 2.76.5 2.27.78 2.04 1.04 1.96 1.37 1.96 1.86 2.06 2.6 1.3 2.25M3389.5 520.77l-.27-3.06" stroke="#de5f85" stroke-width="6" fill="none"/><path d="M3427.8 539.42l-3.53-.6-3.12.37-.08.03-.9-1.9 5.42-2.57z" fill="#de5f85"/><path d="M3400 486c0-3.3 2.7-6 6-6h67.8c3.3 0 6 2.7 6 6v40.67c0 3.3-2.7 6-6 6H3406c-3.3 0-6-2.7-6-6z" stroke="#000" stroke-opacity="0" stroke-width="3" fill="#fff" fill-opacity="0"/><g><use xlink:href="#t" transform="matrix(1,0,0,1,3405,485) translate(20.23456790123457 14.222222222222221)"/><use xlink:href="#u" transform="matrix(1,0,0,1,3405,485) translate(1.9382716049382793 35.55555555555556)"/></g><path d="M3480 440c0 22.1-17.9 40-40 40s-40-17.9-40-40 17.9-40 40-40 40 17.9 40 40z" stroke="#5e5e5e" stroke-width="6" fill="#fff"/><g><use xlink:href="#e" transform="matrix(1,0,0,1,3405,405) translate(27.006172839506174 39.65277777777778)"/></g><path d="M3153.83 569l24.66-24.65M3153.9 568.94l-2.9 2.9" stroke="#5e5e5e" stroke-width="8" fill="none"/><path d="M3191.4 531.43l-6.8 13.37-6.56-6.56z" stroke="#5e5e5e" stroke-width="8" fill="#5e5e5e"/><path d="M3324.22 472c17.67 0 32 14.18 32 31.67 0 17.5-14.33 31.66-32 31.66h-96c-17.67 0-32-14.17-32-31.66 0-17.5 14.33-31.67 32-31.67z" stroke="#5e5e5e" stroke-width="3" fill="#ffc374"/><g><use xlink:href="#y" transform="matrix(1,0,0,1,3201.219720638085,477) translate(30.320987654320994 33.05555555555556)"/></g><path d="M2560 526c0-3.3 2.7-6 6-6h548c3.3 0 6 2.7 6 6v47.37c0 3.3-2.7 6-6 6h-548c-3.3 0-6-2.7-6-6z" stroke="#000" stroke-opacity="0" stroke-width="3" fill="#fff" fill-opacity="0"/><g><use xlink:href="#z" transform="matrix(1,0,0,1,2565,525) translate(54.75308641975309 30.27777777777778)"/><use xlink:href="#A" transform="matrix(1,0,0,1,2565,525) translate(100.37037037037038 30.27777777777778)"/><use xlink:href="#B" transform="matrix(1,0,0,1,2565,525) translate(183.64197530864197 30.27777777777778)"/><use xlink:href="#C" transform="matrix(1,0,0,1,2565,525) translate(208.33333333333334 30.27777777777778)"/><use xlink:href="#D" transform="matrix(1,0,0,1,2565,525) translate(267.4074074074074 30.27777777777778)"/><use xlink:href="#E" transform="matrix(1,0,0,1,2565,525) translate(317.90123456790127 30.27777777777778)"/><use xlink:href="#F" transform="matrix(1,0,0,1,2565,525) translate(363.4567901234568 30.27777777777778)"/><use xlink:href="#G" transform="matrix(1,0,0,1,2565,525) translate(443.5185185185185 30.27777777777778)"/></g><path d="M3120 331c0-3.3 2.7-6 6-6h448c3.3 0 6 2.7 6 6v48c0 3.3-2.7 6-6 6h-448c-3.3 0-6-2.7-6-6z" stroke="#000" stroke-opacity="0" stroke-width="3" fill="#fff" fill-opacity="0"/><g><use xlink:href="#H" transform="matrix(1,0,0,1,3125,329.9999999999612) translate(82.0679012345679 30.52777777777778)"/><use xlink:href="#I" transform="matrix(1,0,0,1,3125,329.9999999999612) translate(154.78395061728395 30.52777777777778)"/><use xlink:href="#J" transform="matrix(1,0,0,1,3125,329.9999999999612) translate(190.46296296296296 30.52777777777778)"/><use xlink:href="#K" transform="matrix(1,0,0,1,3125,329.9999999999612) translate(284.0432098765432 30.52777777777778)"/></g><path d="M2680 224.33c0-3.3 2.7-6 6-6h448c3.3 0 6 2.7 6 6v51.34c0 3.3-2.7 6-6 6h-448c-3.3 0-6-2.7-6-6z" stroke="#000" stroke-opacity="0" stroke-width="3" fill="#fff" fill-opacity="0"/><g><use xlink:href="#L" transform="matrix(1,0,0,1,2685,223.33333333333334) translate(136.26543209876544 31.27777777777778)"/><use xlink:href="#M" transform="matrix(1,0,0,1,2685,223.33333333333334) translate(229.84567901234567 31.27777777777778)"/></g><defs><path fill="#333" d="M137 0h-34L2-248h35l83 218 83-218h36" id="N"/><path fill="#333" d="M24-231v-30h32v30H24zM24 0v-190h32V0H24" id="O"/><path fill="#333" d="M135-143c-3-34-86-38-87 0 15 53 115 12 119 90S17 21 10-45l28-5c4 36 97 45 98 0-10-56-113-15-118-90-4-57 82-63 122-42 12 7 21 19 24 35" id="P"/><path fill="#333" d="M59-47c-2 24 18 29 38 22v24C64 9 27 4 27-40v-127H5v-23h24l9-43h21v43h35v23H59v120" id="Q"/><path fill="#333" d="M205 0l-28-72H64L36 0H1l101-248h38L239 0h-34zm-38-99l-47-123c-12 45-31 82-46 123h93" id="R"/><g id="a"><use transform="matrix(0.06172839506172839,0,0,0.06172839506172839,0,0)" xlink:href="#N"/><use transform="matrix(0.06172839506172839,0,0,0.06172839506172839,14.382716049382715,0)" xlink:href="#O"/><use transform="matrix(0.06172839506172839,0,0,0.06172839506172839,19.25925925925926,0)" xlink:href="#P"/><use transform="matrix(0.06172839506172839,0,0,0.06172839506172839,30.37037037037037,0)" xlink:href="#Q"/><use transform="matrix(0.06172839506172839,0,0,0.06172839506172839,36.54320987654321,0)" xlink:href="#R"/></g><path fill="#333" d="M30-248c87 1 191-15 191 75 0 78-77 80-158 76V0H30v-248zm33 125c57 0 124 11 124-50 0-59-68-47-124-48v98" id="S"/><path fill="#333" d="M24 0v-261h32V0H24" id="T"/><path fill="#333" d="M141-36C126-15 110 5 73 4 37 3 15-17 15-53c-1-64 63-63 125-63 3-35-9-54-41-54-24 1-41 7-42 31l-33-3c5-37 33-52 76-52 45 0 72 20 72 64v82c-1 20 7 32 28 27v20c-31 9-61-2-59-35zM48-53c0 20 12 33 32 33 41-3 63-29 60-74-43 2-92-5-92 41" id="U"/><path fill="#333" d="M117-194c89-4 53 116 60 194h-32v-121c0-31-8-49-39-48C34-167 62-67 57 0H25l-1-190h30c1 10-1 24 2 32 11-22 29-35 61-36" id="V"/><path fill="#333" d="M84 4C-5 8 30-112 23-190h32v120c0 31 7 50 39 49 72-2 45-101 50-169h31l1 190h-30c-1-10 1-25-2-33-11 22-28 36-60 37" id="W"/><path fill="#333" d="M210-169c-67 3-38 105-44 169h-31v-121c0-29-5-50-35-48C34-165 62-65 56 0H25l-1-190h30c1 10-1 24 2 32 10-44 99-50 107 0 11-21 27-35 58-36 85-2 47 119 55 194h-31v-121c0-29-5-49-35-48" id="X"/><g id="b"><use transform="matrix(0.06172839506172839,0,0,0.06172839506172839,0,0)" xlink:href="#S"/><use transform="matrix(0.06172839506172839,0,0,0.06172839506172839,14.814814814814813,0)" xlink:href="#T"/><use transform="matrix(0.06172839506172839,0,0,0.06172839506172839,19.691358024691354,0)" xlink:href="#U"/><use transform="matrix(0.06172839506172839,0,0,0.06172839506172839,32.03703703703703,0)" xlink:href="#Q"/><use transform="matrix(0.06172839506172839,0,0,0.06172839506172839,38.20987654320987,0)" xlink:href="#O"/><use transform="matrix(0.06172839506172839,0,0,0.06172839506172839,43.08641975308642,0)" xlink:href="#V"/><use transform="matrix(0.06172839506172839,0,0,0.06172839506172839,55.432098765432094,0)" xlink:href="#W"/><use transform="matrix(0.06172839506172839,0,0,0.06172839506172839,67.77777777777777,0)" xlink:href="#X"/></g><path fill="#333" d="M100-194c63 0 86 42 84 106H49c0 40 14 67 53 68 26 1 43-12 49-29l28 8c-11 28-37 45-77 45C44 4 14-33 15-96c1-61 26-98 85-98zm52 81c6-60-76-77-97-28-3 7-6 17-6 28h103" id="Y"/><path fill="#333" d="M114-163C36-179 61-72 57 0H25l-1-190h30c1 12-1 29 2 39 6-27 23-49 58-41v29" id="Z"/><path fill="#333" d="M100-194c62-1 85 37 85 99 1 63-27 99-86 99S16-35 15-95c0-66 28-99 85-99zM99-20c44 1 53-31 53-75 0-43-8-75-51-75s-53 32-53 75 10 74 51 75" id="aa"/><g id="c"><use transform="matrix(0.06172839506172839,0,0,0.06172839506172839,0,0)" xlink:href="#N"/><use transform="matrix(0.06172839506172839,0,0,0.06172839506172839,13.580246913580245,0)" xlink:href="#Y"/><use transform="matrix(0.06172839506172839,0,0,0.06172839506172839,25.925925925925924,0)" xlink:href="#Z"/><use transform="matrix(0.06172839506172839,0,0,0.06172839506172839,33.2716049382716,0)" xlink:href="#P"/><use transform="matrix(0.06172839506172839,0,0,0.06172839506172839,44.38271604938271,0)" xlink:href="#O"/><use transform="matrix(0.06172839506172839,0,0,0.06172839506172839,49.25925925925925,0)" xlink:href="#aa"/><use transform="matrix(0.06172839506172839,0,0,0.06172839506172839,61.60493827160493,0)" xlink:href="#V"/></g><path fill="#333" d="M230 0l2-204L168 0h-37L68-204 70 0H24v-248h70l56 185 57-185h69V0h-46" id="ab"/><use transform="matrix(0.06172839506172839,0,0,0.06172839506172839,0,0)" xlink:href="#ab" id="d"/><path fill="#333" d="M30-248c118-7 216 8 213 122C240-48 200 0 122 0H30v-248zM63-27c89 8 146-16 146-99s-60-101-146-95v194" id="ac"/><use transform="matrix(0.06172839506172839,0,0,0.06172839506172839,0,0)" xlink:href="#ac" id="e"/><path fill="#333" d="M212-179c-10-28-35-45-73-45-59 0-87 40-87 99 0 60 29 101 89 101 43 0 62-24 78-52l27 14C228-24 195 4 139 4 59 4 22-46 18-125c-6-104 99-153 187-111 19 9 31 26 39 46" id="ad"/><g id="f"><use transform="matrix(0.06172839506172839,0,0,0.06172839506172839,0,0)" xlink:href="#ad"/><use transform="matrix(0.06172839506172839,0,0,0.06172839506172839,15.987654320987653,0)" xlink:href="#Z"/><use transform="matrix(0.06172839506172839,0,0,0.06172839506172839,23.333333333333332,0)" xlink:href="#Y"/><use transform="matrix(0.06172839506172839,0,0,0.06172839506172839,35.67901234567901,0)" xlink:href="#U"/><use transform="matrix(0.06172839506172839,0,0,0.06172839506172839,48.02469135802469,0)" xlink:href="#Q"/><use transform="matrix(0.06172839506172839,0,0,0.06172839506172839,54.19753086419753,0)" xlink:href="#Y"/></g><path fill="#333" d="M108 0H70L1-190h34L89-25l56-165h34" id="ae"/><g id="g"><use transform="matrix(0.06172839506172839,0,0,0.06172839506172839,0,0)" xlink:href="#ac"/><use transform="matrix(0.06172839506172839,0,0,0.06172839506172839,15.987654320987653,0)" xlink:href="#Y"/><use transform="matrix(0.06172839506172839,0,0,0.06172839506172839,28.333333333333332,0)" xlink:href="#ae"/></g><path fill="#333" d="M160-131c35 5 61 23 61 61C221 17 115-2 30 0v-248c76 3 177-17 177 60 0 33-19 50-47 57zm-97-11c50-1 110 9 110-42 0-47-63-36-110-37v79zm0 115c55-2 124 14 124-45 0-56-70-42-124-44v89" id="af"/><path fill="#333" d="M96-169c-40 0-48 33-48 73s9 75 48 75c24 0 41-14 43-38l32 2c-6 37-31 61-74 61-59 0-76-41-82-99-10-93 101-131 147-64 4 7 5 14 7 22l-32 3c-4-21-16-35-41-35" id="ag"/><path fill="#333" d="M106-169C34-169 62-67 57 0H25v-261h32l-1 103c12-21 28-36 61-36 89 0 53 116 60 194h-32v-121c2-32-8-49-39-48" id="ah"/><g id="h"><use transform="matrix(0.06172839506172839,0,0,0.06172839506172839,0,0)" xlink:href="#af"/><use transform="matrix(0.06172839506172839,0,0,0.06172839506172839,14.814814814814813,0)" xlink:href="#Z"/><use transform="matrix(0.06172839506172839,0,0,0.06172839506172839,22.160493827160494,0)" xlink:href="#U"/><use transform="matrix(0.06172839506172839,0,0,0.06172839506172839,34.50617283950617,0)" xlink:href="#V"/><use transform="matrix(0.06172839506172839,0,0,0.06172839506172839,46.85185185185185,0)" xlink:href="#ag"/><use transform="matrix(0.06172839506172839,0,0,0.06172839506172839,57.96296296296296,0)" xlink:href="#ah"/></g><path fill="#333" d="M30 0v-248h33v221h125V0H30" id="ai"/><path fill="#333" d="M177-190C167-65 218 103 67 71c-23-6-38-20-44-43l32-5c15 47 100 32 89-28v-30C133-14 115 1 83 1 29 1 15-40 15-95c0-56 16-97 71-98 29-1 48 16 59 35 1-10 0-23 2-32h30zM94-22c36 0 50-32 50-73 0-42-14-75-50-75-39 0-46 34-46 75s6 73 46 73" id="aj"/><g id="i"><use transform="matrix(0.06172839506172839,0,0,0.06172839506172839,0,0)" xlink:href="#ai"/><use transform="matrix(0.06172839506172839,0,0,0.06172839506172839,12.345679012345679,0)" xlink:href="#aa"/><use transform="matrix(0.06172839506172839,0,0,0.06172839506172839,24.691358024691358,0)" xlink:href="#V"/><use transform="matrix(0.06172839506172839,0,0,0.06172839506172839,37.03703703703704,0)" xlink:href="#aj"/></g><path fill="#333" d="M85-194c31 0 48 13 60 33l-1-100h32l1 261h-30c-2-10 0-23-3-31C134-8 116 4 85 4 32 4 16-35 15-94c0-66 23-100 70-100zm9 24c-40 0-46 34-46 75 0 40 6 74 45 74 42 0 51-32 51-76 0-42-9-74-50-73" id="ak"/><g id="j"><use transform="matrix(0.06172839506172839,0,0,0.06172839506172839,0,0)" xlink:href="#ai"/><use transform="matrix(0.06172839506172839,0,0,0.06172839506172839,12.345679012345679,0)" xlink:href="#O"/><use transform="matrix(0.06172839506172839,0,0,0.06172839506172839,17.22222222222222,0)" xlink:href="#ae"/><use transform="matrix(0.06172839506172839,0,0,0.06172839506172839,28.333333333333332,0)" xlink:href="#Y"/><use transform="matrix(0.06172839506172839,0,0,0.06172839506172839,40.67901234567901,0)" xlink:href="#ak"/></g><g id="k"><use transform="matrix(0.06172839506172839,0,0,0.06172839506172839,0,0)" xlink:href="#af"/><use transform="matrix(0.06172839506172839,0,0,0.06172839506172839,14.814814814814813,0)" xlink:href="#Z"/><use transform="matrix(0.06172839506172839,0,0,0.06172839506172839,22.160493827160494,0)" xlink:href="#U"/><use transform="matrix(0.06172839506172839,0,0,0.06172839506172839,34.50617283950617,0)" xlink:href="#V"/><use transform="matrix(0.06172839506172839,0,0,0.06172839506172839,46.85185185185185,0)" xlink:href="#ag"/><use transform="matrix(0.06172839506172839,0,0,0.06172839506172839,57.96296296296296,0)" xlink:href="#ah"/></g><path fill="#333" d="M87 75C49 33 22-17 22-94c0-76 28-126 65-167h31c-38 41-64 92-64 168S80 34 118 75H87" id="al"/><g id="l"><use transform="matrix(0.06172839506172839,0,0,0.06172839506172839,0,0)" xlink:href="#al"/><use transform="matrix(0.06172839506172839,0,0,0.06172839506172839,7.345679012345679,0)" xlink:href="#ak"/><use transform="matrix(0.06172839506172839,0,0,0.06172839506172839,19.691358024691358,0)" xlink:href="#aa"/></g><g id="m"><use transform="matrix(0.06172839506172839,0,0,0.06172839506172839,0,0)" xlink:href="#V"/><use transform="matrix(0.06172839506172839,0,0,0.06172839506172839,12.345679012345679,0)" xlink:href="#aa"/><use transform="matrix(0.06172839506172839,0,0,0.06172839506172839,24.691358024691358,0)" xlink:href="#Q"/></g><path fill="#333" d="M33-261c38 41 65 92 65 168S71 34 33 75H2C39 34 66-17 66-93S39-220 2-261h31" id="am"/><g id="n"><use transform="matrix(0.06172839506172839,0,0,0.06172839506172839,0,0)" xlink:href="#ak"/><use transform="matrix(0.06172839506172839,0,0,0.06172839506172839,12.345679012345679,0)" xlink:href="#Y"/><use transform="matrix(0.06172839506172839,0,0,0.06172839506172839,24.691358024691358,0)" xlink:href="#T"/><use transform="matrix(0.06172839506172839,0,0,0.06172839506172839,29.5679012345679,0)" xlink:href="#Y"/><use transform="matrix(0.06172839506172839,0,0,0.06172839506172839,41.913580246913575,0)" xlink:href="#Q"/><use transform="matrix(0.06172839506172839,0,0,0.06172839506172839,48.08641975308642,0)" xlink:href="#Y"/><use transform="matrix(0.06172839506172839,0,0,0.06172839506172839,60.432098765432094,0)" xlink:href="#am"/></g><g id="o"><use transform="matrix(0.06172839506172839,0,0,0.06172839506172839,0,0)" xlink:href="#S"/><use transform="matrix(0.06172839506172839,0,0,0.06172839506172839,14.814814814814813,0)" xlink:href="#W"/><use transform="matrix(0.06172839506172839,0,0,0.06172839506172839,27.160493827160494,0)" xlink:href="#T"/><use transform="matrix(0.06172839506172839,0,0,0.06172839506172839,32.03703703703704,0)" xlink:href="#T"/></g><g id="p"><use transform="matrix(0.06172839506172839,0,0,0.06172839506172839,0,0)" xlink:href="#ad"/><use transform="matrix(0.06172839506172839,0,0,0.06172839506172839,15.987654320987653,0)" xlink:href="#ah"/><use transform="matrix(0.06172839506172839,0,0,0.06172839506172839,28.333333333333332,0)" xlink:href="#U"/><use transform="matrix(0.06172839506172839,0,0,0.06172839506172839,40.67901234567901,0)" xlink:href="#V"/><use transform="matrix(0.06172839506172839,0,0,0.06172839506172839,53.02469135802469,0)" xlink:href="#aj"/><use transform="matrix(0.06172839506172839,0,0,0.06172839506172839,65.37037037037037,0)" xlink:href="#Y"/><use transform="matrix(0.06172839506172839,0,0,0.06172839506172839,77.71604938271605,0)" xlink:href="#P"/></g><use transform="matrix(0.06172839506172839,0,0,0.06172839506172839,0,0)" xlink:href="#S" id="q"/><g id="r"><use transform="matrix(0.06172839506172839,0,0,0.06172839506172839,0,0)" xlink:href="#ad"/><use transform="matrix(0.06172839506172839,0,0,0.06172839506172839,15.987654320987653,0)" xlink:href="#Z"/><use transform="matrix(0.06172839506172839,0,0,0.06172839506172839,23.333333333333332,0)" xlink:href="#Y"/><use transform="matrix(0.06172839506172839,0,0,0.06172839506172839,35.67901234567901,0)" xlink:href="#U"/><use transform="matrix(0.06172839506172839,0,0,0.06172839506172839,48.02469135802469,0)" xlink:href="#Q"/><use transform="matrix(0.06172839506172839,0,0,0.06172839506172839,54.19753086419753,0)" xlink:href="#Y"/></g><path fill="#333" d="M195 0l-74-108L45 0H8l94-129-87-119h37l69 98 67-98h37l-84 118L233 0h-38" id="an"/><path fill="#333" d="M232-93c-1 65-40 97-104 97C67 4 28-28 28-90v-158h33c8 89-33 224 67 224 102 0 64-133 71-224h33v155" id="ao"/><path fill="#333" d="M16-82v-28h88v28H16" id="ap"/><path fill="#333" d="M110-160c48 1 74 30 74 79 0 53-28 85-80 85-65 0-83-55-86-122-5-90 50-162 133-122 14 7 22 21 27 39l-31 6c-5-40-67-38-82-6-9 19-15 44-15 74 11-20 30-34 60-33zm-7 138c34 0 49-23 49-58s-16-56-50-56c-29 0-50 16-49 49 1 36 15 65 50 65" id="aq"/><path fill="#333" d="M33 0v-38h34V0H33" id="ar"/><path fill="#333" d="M155-56V0h-30v-56H8v-25l114-167h33v167h35v25h-35zm-30-156c-27 46-58 90-88 131h88v-131" id="as"/><path fill="#333" d="M27 0v-27h64v-190l-56 39v-29l58-41h29v221h61V0H27" id="at"/><path fill="#333" d="M101-251c82-7 93 87 43 132L82-64C71-53 59-42 53-27h129V0H18c2-99 128-94 128-182 0-28-16-43-45-43s-46 15-49 41l-32-3c6-41 34-60 81-64" id="au"/><path fill="#333" d="M134-131c28 9 52 24 51 62-1 50-34 73-85 73S17-19 16-69c0-36 21-54 49-61-75-25-45-126 34-121 46 3 78 18 79 63 0 33-17 51-44 57zm-34-11c31 1 46-15 46-44 0-28-17-43-47-42-29 0-46 13-45 42 1 28 16 44 46 44zm1 122c35 0 51-18 51-52 0-30-18-46-53-46-33 0-51 17-51 47 0 34 19 51 53 51" id="av"/><g id="s"><use transform="matrix(0.06172839506172839,0,0,0.06172839506172839,0,0)" xlink:href="#an"/><use transform="matrix(0.06172839506172839,0,0,0.06172839506172839,14.814814814814813,0)" xlink:href="#ao"/><use transform="matrix(0.06172839506172839,0,0,0.06172839506172839,30.80246913580247,0)" xlink:href="#ap"/><use transform="matrix(0.06172839506172839,0,0,0.06172839506172839,38.148148148148145,0)" xlink:href="#aq"/><use transform="matrix(0.06172839506172839,0,0,0.06172839506172839,50.49382716049382,0)" xlink:href="#ar"/><use transform="matrix(0.06172839506172839,0,0,0.06172839506172839,56.666666666666664,0)" xlink:href="#as"/><use transform="matrix(0.06172839506172839,0,0,0.06172839506172839,69.01234567901234,0)" xlink:href="#ap"/><use transform="matrix(0.06172839506172839,0,0,0.06172839506172839,76.35802469135803,0)" xlink:href="#at"/><use transform="matrix(0.06172839506172839,0,0,0.06172839506172839,88.70370370370371,0)" xlink:href="#au"/><use transform="matrix(0.06172839506172839,0,0,0.06172839506172839,101.0493827160494,0)" xlink:href="#av"/></g><g id="t"><use transform="matrix(0.049382716049382706,0,0,0.049382716049382706,0,0)" xlink:href="#S"/><use transform="matrix(0.049382716049382706,0,0,0.049382716049382706,11.85185185185185,0)" xlink:href="#W"/><use transform="matrix(0.049382716049382706,0,0,0.049382716049382706,21.728395061728392,0)" xlink:href="#T"/><use transform="matrix(0.049382716049382706,0,0,0.049382716049382706,25.629629629629626,0)" xlink:href="#T"/></g><path fill="#333" d="M233-177c-1 41-23 64-60 70L243 0h-38l-65-103H63V0H30v-248c88 3 205-21 203 71zM63-129c60-2 137 13 137-47 0-61-80-42-137-45v92" id="aw"/><path fill="#333" d="M145-31C134-9 116 4 85 4 32 4 16-35 15-94c0-59 17-99 70-100 32-1 48 14 60 33 0-11-1-24 2-32h30l-1 268h-32zM93-21c41 0 51-33 51-76s-8-73-50-73c-40 0-46 35-46 75s5 74 45 74" id="ax"/><g id="u"><use transform="matrix(0.049382716049382706,0,0,0.049382716049382706,0,0)" xlink:href="#aw"/><use transform="matrix(0.049382716049382706,0,0,0.049382716049382706,12.790123456790122,0)" xlink:href="#Y"/><use transform="matrix(0.049382716049382706,0,0,0.049382716049382706,22.666666666666664,0)" xlink:href="#ax"/><use transform="matrix(0.049382716049382706,0,0,0.049382716049382706,32.5432098765432,0)" xlink:href="#W"/><use transform="matrix(0.049382716049382706,0,0,0.049382716049382706,42.419753086419746,0)" xlink:href="#Y"/><use transform="matrix(0.049382716049382706,0,0,0.049382716049382706,52.29629629629628,0)" xlink:href="#P"/><use transform="matrix(0.049382716049382706,0,0,0.049382716049382706,61.185185185185176,0)" xlink:href="#Q"/></g><g id="v"><use transform="matrix(0.06172839506172839,0,0,0.06172839506172839,0,0)" xlink:href="#an"/><use transform="matrix(0.06172839506172839,0,0,0.06172839506172839,14.814814814814813,0)" xlink:href="#ao"/><use transform="matrix(0.06172839506172839,0,0,0.06172839506172839,30.80246913580247,0)" xlink:href="#ap"/><use transform="matrix(0.06172839506172839,0,0,0.06172839506172839,38.148148148148145,0)" xlink:href="#aq"/><use transform="matrix(0.06172839506172839,0,0,0.06172839506172839,50.49382716049382,0)" xlink:href="#ar"/><use transform="matrix(0.06172839506172839,0,0,0.06172839506172839,56.666666666666664,0)" xlink:href="#as"/><use transform="matrix(0.06172839506172839,0,0,0.06172839506172839,69.01234567901234,0)" xlink:href="#ap"/><use transform="matrix(0.06172839506172839,0,0,0.06172839506172839,76.35802469135803,0)" xlink:href="#at"/><use transform="matrix(0.06172839506172839,0,0,0.06172839506172839,88.70370370370371,0)" xlink:href="#au"/><use transform="matrix(0.06172839506172839,0,0,0.06172839506172839,101.0493827160494,0)" xlink:href="#av"/></g><path fill="#333" d="M143 4C61 4 22-44 18-125c-5-107 100-154 193-111 17 8 29 25 37 43l-32 9c-13-25-37-40-76-40-61 0-88 39-88 99 0 61 29 100 91 101 35 0 62-11 79-27v-45h-74v-28h105v86C228-13 192 4 143 4" id="ay"/><path fill="#333" d="M54-142c48-35 137-8 131 61C196 18 31 33 14-55l32-4c7 23 22 37 52 37 35-1 51-22 54-58 4-55-73-65-99-34H22l8-134h141v27H59" id="az"/><path fill="#333" d="M126-127c33 6 58 20 58 59 0 88-139 92-164 29-3-8-5-16-6-25l32-3c6 27 21 44 54 44 32 0 52-15 52-46 0-38-36-46-79-43v-28c39 1 72-4 72-42 0-27-17-43-46-43-28 0-47 15-49 41l-32-3c6-42 35-63 81-64 48-1 79 21 79 65 0 36-21 52-52 59" id="aA"/><g id="w"><use transform="matrix(0.06172839506172839,0,0,0.06172839506172839,0,0)" xlink:href="#ac"/><use transform="matrix(0.06172839506172839,0,0,0.06172839506172839,15.987654320987653,0)" xlink:href="#ay"/><use transform="matrix(0.06172839506172839,0,0,0.06172839506172839,33.2716049382716,0)" xlink:href="#ap"/><use transform="matrix(0.06172839506172839,0,0,0.06172839506172839,40.61728395061728,0)" xlink:href="#az"/><use transform="matrix(0.06172839506172839,0,0,0.06172839506172839,52.962962962962955,0)" xlink:href="#ar"/><use transform="matrix(0.06172839506172839,0,0,0.06172839506172839,59.1358024691358,0)" xlink:href="#aA"/><use transform="matrix(0.06172839506172839,0,0,0.06172839506172839,71.48148148148148,0)" xlink:href="#ap"/><use transform="matrix(0.06172839506172839,0,0,0.06172839506172839,78.82716049382717,0)" xlink:href="#aA"/><use transform="matrix(0.06172839506172839,0,0,0.06172839506172839,91.17283950617285,0)" xlink:href="#as"/><use transform="matrix(0.06172839506172839,0,0,0.06172839506172839,103.51851851851853,0)" xlink:href="#au"/></g><g id="x"><use transform="matrix(0.06172839506172839,0,0,0.06172839506172839,0,0)" xlink:href="#ac"/><use transform="matrix(0.06172839506172839,0,0,0.06172839506172839,15.987654320987653,0)" xlink:href="#ay"/><use transform="matrix(0.06172839506172839,0,0,0.06172839506172839,33.2716049382716,0)" xlink:href="#ap"/><use transform="matrix(0.06172839506172839,0,0,0.06172839506172839,40.61728395061728,0)" xlink:href="#az"/><use transform="matrix(0.06172839506172839,0,0,0.06172839506172839,52.962962962962955,0)" xlink:href="#ar"/><use transform="matrix(0.06172839506172839,0,0,0.06172839506172839,59.1358024691358,0)" xlink:href="#aA"/><use transform="matrix(0.06172839506172839,0,0,0.06172839506172839,71.48148148148148,0)" xlink:href="#ap"/><use transform="matrix(0.06172839506172839,0,0,0.06172839506172839,78.82716049382717,0)" xlink:href="#aA"/><use transform="matrix(0.06172839506172839,0,0,0.06172839506172839,91.17283950617285,0)" xlink:href="#as"/><use transform="matrix(0.06172839506172839,0,0,0.06172839506172839,103.51851851851853,0)" xlink:href="#au"/></g><path fill="#333" d="M76-208v77h127v40H76V0H24v-248h183v40H76" id="aB"/><path fill="#333" d="M140-251c80 0 125 45 125 126S219 4 139 4C58 4 15-44 15-125s44-126 125-126zm-1 214c52 0 73-35 73-88 0-50-21-86-72-86-52 0-73 35-73 86s22 88 72 88" id="aC"/><path fill="#333" d="M240-174c0 40-23 61-54 70L253 0h-59l-57-94H76V0H24v-248c93 4 217-23 216 74zM76-134c48-2 112 12 112-38 0-48-66-32-112-35v73" id="aD"/><path fill="#333" d="M238-95c0 69-44 99-111 99C63 4 22-25 22-93v-155h51v151c-1 38 19 59 55 60 90 1 49-130 58-211h52v153" id="aE"/><g id="y"><use transform="matrix(0.06790123456790123,0,0,0.06790123456790123,0,0)" xlink:href="#aB"/><use transform="matrix(0.06790123456790123,0,0,0.06790123456790123,14.87037037037037,0)" xlink:href="#aC"/><use transform="matrix(0.06790123456790123,0,0,0.06790123456790123,33.882716049382715,0)" xlink:href="#aD"/><use transform="matrix(0.06790123456790123,0,0,0.06790123456790123,51.46913580246913,0)" xlink:href="#aE"/><use transform="matrix(0.06790123456790123,0,0,0.06790123456790123,69.05555555555554,0)" xlink:href="#ab"/></g><path fill="#333" d="M24 0v-248h52V0H24" id="aF"/><path fill="#333" d="M67-125c0 53 21 87 73 88 37 1 54-22 65-47l45 17C233-25 199 4 140 4 58 4 20-42 15-125 8-235 124-281 211-232c18 10 29 29 36 50l-46 12c-8-25-30-41-62-41-52 0-71 34-72 86" id="aG"/><g id="z"><use transform="matrix(0.06172839506172839,0,0,0.06172839506172839,0,0)" xlink:href="#aF"/><use transform="matrix(0.06172839506172839,0,0,0.06172839506172839,6.172839506172839,0)" xlink:href="#aC"/><use transform="matrix(0.06172839506172839,0,0,0.06172839506172839,23.456790123456788,0)" xlink:href="#aG"/></g><path fill="#333" d="M136-208V0H84v-208H4v-40h212v40h-80" id="aH"/><path fill="#333" d="M185-48c-13 30-37 53-82 52C43 2 14-33 14-96s30-98 90-98c62 0 83 45 84 108H66c0 31 8 55 39 56 18 0 30-7 34-22zm-45-69c5-46-57-63-70-21-2 6-4 13-4 21h74" id="aI"/><path fill="#333" d="M137-138c1-29-70-34-71-4 15 46 118 7 119 86 1 83-164 76-172 9l43-7c4 19 20 25 44 25 33 8 57-30 24-41C81-84 22-81 20-136c-2-80 154-74 161-7" id="aJ"/><path fill="#333" d="M115-3C79 11 28 4 28-45v-112H4v-33h27l15-45h31v45h36v33H77v99c-1 23 16 31 38 25v30" id="aK"/><path fill="#333" d="M25-224v-37h50v37H25zM25 0v-190h50V0H25" id="aL"/><path fill="#333" d="M135-194c87-1 58 113 63 194h-50c-7-57 23-157-34-157-59 0-34 97-39 157H25l-1-190h47c2 12-1 28 3 38 12-26 28-41 61-42" id="aM"/><path fill="#333" d="M195-6C206 82 75 100 31 46c-4-6-6-13-8-21l49-6c3 16 16 24 34 25 40 0 42-37 40-79-11 22-30 35-61 35-53 0-70-43-70-97 0-56 18-96 73-97 30 0 46 14 59 34l2-30h47zm-90-29c32 0 41-27 41-63 0-35-9-62-40-62-32 0-39 29-40 63 0 36 9 62 39 62" id="aN"/><g id="A"><use transform="matrix(0.06172839506172839,0,0,0.06172839506172839,0,0)" xlink:href="#aH"/><use transform="matrix(0.06172839506172839,0,0,0.06172839506172839,11.851851851851851,0)" xlink:href="#aI"/><use transform="matrix(0.06172839506172839,0,0,0.06172839506172839,24.19753086419753,0)" xlink:href="#aJ"/><use transform="matrix(0.06172839506172839,0,0,0.06172839506172839,36.54320987654321,0)" xlink:href="#aK"/><use transform="matrix(0.06172839506172839,0,0,0.06172839506172839,43.888888888888886,0)" xlink:href="#aL"/><use transform="matrix(0.06172839506172839,0,0,0.06172839506172839,50.06172839506173,0)" xlink:href="#aM"/><use transform="matrix(0.06172839506172839,0,0,0.06172839506172839,63.58024691358025,0)" xlink:href="#aN"/></g><g id="B"><use transform="matrix(0.06172839506172839,0,0,0.06172839506172839,0,0)" xlink:href="#aL"/><use transform="matrix(0.06172839506172839,0,0,0.06172839506172839,6.172839506172839,0)" xlink:href="#aJ"/></g><path fill="#333" d="M88-194c31-1 46 15 58 34l-1-101h50l1 261h-48c-2-10 0-23-3-31C134-8 116 4 84 4 32 4 16-41 15-95c0-56 19-97 73-99zm17 164c33 0 40-30 41-66 1-37-9-64-41-64s-38 30-39 65c0 43 13 65 39 65" id="aO"/><path fill="#333" d="M110-194c64 0 96 36 96 99 0 64-35 99-97 99-61 0-95-36-95-99 0-62 34-99 96-99zm-1 164c35 0 45-28 45-65 0-40-10-65-43-65-34 0-45 26-45 65 0 36 10 65 43 65" id="aP"/><g id="C"><use transform="matrix(0.06172839506172839,0,0,0.06172839506172839,0,0)" xlink:href="#aO"/><use transform="matrix(0.06172839506172839,0,0,0.06172839506172839,13.518518518518517,0)" xlink:href="#aP"/><use transform="matrix(0.06172839506172839,0,0,0.06172839506172839,27.037037037037035,0)" xlink:href="#aM"/><use transform="matrix(0.06172839506172839,0,0,0.06172839506172839,40.55555555555555,0)" xlink:href="#aI"/></g><path fill="#333" d="M231 0h-52l-39-155L100 0H48L-1-190h46L77-45c9-52 24-97 36-145h53l37 145 32-145h46" id="aQ"/><path fill="#333" d="M114-157C55-157 80-60 75 0H25v-261h50l-1 109c12-26 28-41 61-42 86-1 58 113 63 194h-50c-7-57 23-157-34-157" id="aR"/><g id="D"><use transform="matrix(0.06172839506172839,0,0,0.06172839506172839,0,0)" xlink:href="#aQ"/><use transform="matrix(0.06172839506172839,0,0,0.06172839506172839,17.28395061728395,0)" xlink:href="#aL"/><use transform="matrix(0.06172839506172839,0,0,0.06172839506172839,23.456790123456788,0)" xlink:href="#aK"/><use transform="matrix(0.06172839506172839,0,0,0.06172839506172839,30.80246913580247,0)" xlink:href="#aR"/></g><g id="E"><use transform="matrix(0.06172839506172839,0,0,0.06172839506172839,0,0)" xlink:href="#aK"/><use transform="matrix(0.06172839506172839,0,0,0.06172839506172839,7.345679012345679,0)" xlink:href="#aR"/><use transform="matrix(0.06172839506172839,0,0,0.06172839506172839,20.864197530864196,0)" xlink:href="#aL"/><use transform="matrix(0.06172839506172839,0,0,0.06172839506172839,27.037037037037035,0)" xlink:href="#aJ"/></g><path fill="#333" d="M135-194c52 0 70 43 70 98 0 56-19 99-73 100-30 1-46-15-58-35L72 0H24l1-261h50v104c11-23 29-37 60-37zM114-30c31 0 40-27 40-66 0-37-7-63-39-63s-41 28-41 65c0 36 8 64 40 64" id="aS"/><path fill="#333" d="M135-150c-39-12-60 13-60 57V0H25l-1-190h47c2 13-1 29 3 40 6-28 27-53 61-41v41" id="aT"/><path fill="#333" d="M133-34C117-15 103 5 69 4 32 3 11-16 11-54c-1-60 55-63 116-61 1-26-3-47-28-47-18 1-26 9-28 27l-52-2c7-38 36-58 82-57s74 22 75 68l1 82c-1 14 12 18 25 15v27c-30 8-71 5-69-32zm-48 3c29 0 43-24 42-57-32 0-66-3-65 30 0 17 8 27 23 27" id="aU"/><path fill="#333" d="M190-63c-7 42-38 67-86 67-59 0-84-38-90-98-12-110 154-137 174-36l-49 2c-2-19-15-32-35-32-30 0-35 28-38 64-6 74 65 87 74 30" id="aV"/><g id="F"><use transform="matrix(0.06172839506172839,0,0,0.06172839506172839,0,0)" xlink:href="#aS"/><use transform="matrix(0.06172839506172839,0,0,0.06172839506172839,13.518518518518517,0)" xlink:href="#aT"/><use transform="matrix(0.06172839506172839,0,0,0.06172839506172839,22.160493827160494,0)" xlink:href="#aU"/><use transform="matrix(0.06172839506172839,0,0,0.06172839506172839,34.50617283950617,0)" xlink:href="#aM"/><use transform="matrix(0.06172839506172839,0,0,0.06172839506172839,48.02469135802469,0)" xlink:href="#aV"/><use transform="matrix(0.06172839506172839,0,0,0.06172839506172839,60.37037037037037,0)" xlink:href="#aR"/></g><g id="G"><use transform="matrix(0.06172839506172839,0,0,0.06172839506172839,0,0)" xlink:href="#aV"/><use transform="matrix(0.06172839506172839,0,0,0.06172839506172839,12.345679012345679,0)" xlink:href="#aP"/><use transform="matrix(0.06172839506172839,0,0,0.06172839506172839,25.864197530864196,0)" xlink:href="#aO"/><use transform="matrix(0.06172839506172839,0,0,0.06172839506172839,39.382716049382715,0)" xlink:href="#aI"/></g><path fill="#333" d="M123 10C108 53 80 86 19 72V37c35 8 53-11 59-39L3-190h52l48 148c12-52 28-100 44-148h51" id="aW"/><g id="H"><use transform="matrix(0.06172839506172839,0,0,0.06172839506172839,0,0)" xlink:href="#aD"/><use transform="matrix(0.06172839506172839,0,0,0.06172839506172839,15.987654320987653,0)" xlink:href="#aI"/><use transform="matrix(0.06172839506172839,0,0,0.06172839506172839,28.333333333333332,0)" xlink:href="#aU"/><use transform="matrix(0.06172839506172839,0,0,0.06172839506172839,40.67901234567901,0)" xlink:href="#aO"/><use transform="matrix(0.06172839506172839,0,0,0.06172839506172839,54.19753086419753,0)" xlink:href="#aW"/></g><path fill="#333" d="M121-226c-27-7-43 5-38 36h38v33H83V0H34v-157H6v-33h28c-9-59 32-81 87-68v32" id="aX"/><g id="I"><use transform="matrix(0.06172839506172839,0,0,0.06172839506172839,0,0)" xlink:href="#aX"/><use transform="matrix(0.06172839506172839,0,0,0.06172839506172839,7.345679012345679,0)" xlink:href="#aP"/><use transform="matrix(0.06172839506172839,0,0,0.06172839506172839,20.864197530864196,0)" xlink:href="#aT"/></g><path fill="#333" d="M175 0L67-191c6 58 2 128 3 191H24v-248h59L193-55c-6-58-2-129-3-193h46V0h-61" id="aY"/><path fill="#333" d="M25 0v-261h50V0H25" id="aZ"/><g id="J"><use transform="matrix(0.06172839506172839,0,0,0.06172839506172839,0,0)" xlink:href="#aY"/><use transform="matrix(0.06172839506172839,0,0,0.06172839506172839,15.987654320987653,0)" xlink:href="#aU"/><use transform="matrix(0.06172839506172839,0,0,0.06172839506172839,28.333333333333332,0)" xlink:href="#aK"/><use transform="matrix(0.06172839506172839,0,0,0.06172839506172839,35.67901234567901,0)" xlink:href="#aL"/><use transform="matrix(0.06172839506172839,0,0,0.06172839506172839,41.851851851851855,0)" xlink:href="#aP"/><use transform="matrix(0.06172839506172839,0,0,0.06172839506172839,55.370370370370374,0)" xlink:href="#aM"/><use transform="matrix(0.06172839506172839,0,0,0.06172839506172839,68.88888888888889,0)" xlink:href="#aU"/><use transform="matrix(0.06172839506172839,0,0,0.06172839506172839,81.23456790123457,0)" xlink:href="#aZ"/></g><g id="K"><use transform="matrix(0.06172839506172839,0,0,0.06172839506172839,0,0)" xlink:href="#aD"/><use transform="matrix(0.06172839506172839,0,0,0.06172839506172839,15.987654320987653,0)" xlink:href="#aI"/><use transform="matrix(0.06172839506172839,0,0,0.06172839506172839,28.333333333333332,0)" xlink:href="#aZ"/><use transform="matrix(0.06172839506172839,0,0,0.06172839506172839,34.50617283950617,0)" xlink:href="#aI"/><use transform="matrix(0.06172839506172839,0,0,0.06172839506172839,46.85185185185185,0)" xlink:href="#aU"/><use transform="matrix(0.06172839506172839,0,0,0.06172839506172839,59.197530864197525,0)" xlink:href="#aJ"/><use transform="matrix(0.06172839506172839,0,0,0.06172839506172839,71.5432098765432,0)" xlink:href="#aI"/></g><g id="L"><use transform="matrix(0.06172839506172839,0,0,0.06172839506172839,0,0)" xlink:href="#aY"/><use transform="matrix(0.06172839506172839,0,0,0.06172839506172839,15.987654320987653,0)" xlink:href="#aU"/><use transform="matrix(0.06172839506172839,0,0,0.06172839506172839,28.333333333333332,0)" xlink:href="#aK"/><use transform="matrix(0.06172839506172839,0,0,0.06172839506172839,35.67901234567901,0)" xlink:href="#aL"/><use transform="matrix(0.06172839506172839,0,0,0.06172839506172839,41.851851851851855,0)" xlink:href="#aP"/><use transform="matrix(0.06172839506172839,0,0,0.06172839506172839,55.370370370370374,0)" xlink:href="#aM"/><use transform="matrix(0.06172839506172839,0,0,0.06172839506172839,68.88888888888889,0)" xlink:href="#aU"/><use transform="matrix(0.06172839506172839,0,0,0.06172839506172839,81.23456790123457,0)" xlink:href="#aZ"/></g><g id="M"><use transform="matrix(0.06172839506172839,0,0,0.06172839506172839,0,0)" xlink:href="#aD"/><use transform="matrix(0.06172839506172839,0,0,0.06172839506172839,15.987654320987653,0)" xlink:href="#aI"/><use transform="matrix(0.06172839506172839,0,0,0.06172839506172839,28.333333333333332,0)" xlink:href="#aZ"/><use transform="matrix(0.06172839506172839,0,0,0.06172839506172839,34.50617283950617,0)" xlink:href="#aI"/><use transform="matrix(0.06172839506172839,0,0,0.06172839506172839,46.85185185185185,0)" xlink:href="#aU"/><use transform="matrix(0.06172839506172839,0,0,0.06172839506172839,59.197530864197525,0)" xlink:href="#aJ"/><use transform="matrix(0.06172839506172839,0,0,0.06172839506172839,71.5432098765432,0)" xlink:href="#aI"/></g></defs></g></svg>