<svg xmlns="http://www.w3.org/2000/svg" xmlns:xlink="http://www.w3.org/1999/xlink" xmlns:lucid="lucid" width="1601" height="499"><g transform="translate(-1700 -164)" lucid:page-tab-id="uEUKbwD0WcLB"><path d="M1966 280h1290" stroke="#5e5e5e" stroke-width="8" fill="none"/><path d="M1966.1 284h-4.1v-8h4.1z" fill="#5e5e5e"/><path d="M3255.9 280h4.1" stroke="#5e5e5e" stroke-width="8" fill="none"/><path d="M1962 190c0-3.3 2.7-6 6-6h228c3.3 0 6 2.7 6 6v48c0 3.3-2.7 6-6 6h-228c-3.3 0-6-2.7-6-6z" fill="none"/><use xlink:href="#a" transform="matrix(1,0,0,1,1962,184) translate(94.93827160493828 21.111111111111114)"/><use xlink:href="#b" transform="matrix(1,0,0,1,1962,184) translate(36.820987654321 47.777777777777786)"/><use xlink:href="#c" transform="matrix(1,0,0,1,1962,184) translate(129.2283950617284 47.777777777777786)"/><path d="M1960.2 440.26L3256 440M1960.3 440.26h-4.1M3255.9 440h4.1" stroke="#5e5e5e" stroke-width="8" fill="none"/><path d="M2120 280c0 22.1-17.9 40-40 40s-40-17.9-40-40 17.9-40 40-40 40 17.9 40 40z" stroke="#999" stroke-width="6" fill="#ffc374"/><use xlink:href="#d" transform="matrix(1,0,0,1,2045,245) translate(25.771604938271608 39.65277777777778)"/><path d="M2337 437c0 22.1-17.9 40-40 40s-40-17.9-40-40 17.9-40 40-40 40 17.9 40 40z" stroke="#5e5e5e" stroke-width="6" fill="#fff"/><use xlink:href="#e" transform="matrix(1,0,0,1,2262,401.99999999999994) translate(27.006172839506174 39.65277777777778)"/><path d="M3240 441.6c0 22.1-17.9 40-40 40s-40-17.9-40-40 17.9-40 40-40 40 17.9 40 40z" stroke="#5e5e5e" stroke-width="6" fill="#fff"/><use xlink:href="#e" transform="matrix(1,0,0,1,3165,406.59808759379615) translate(27.006172839506174 39.65277777777778)"/><path d="M2141.93 323.97c0 6.05-4.9 10.96-10.96 10.96-6.06 0-10.97-4.9-10.97-10.96 0-6.06 4.9-10.97 10.97-10.97 6.05 0 10.96 4.9 10.96 10.97zM2141.93 415.62c0 6.06-4.9 10.97-10.96 10.97-6.06 0-10.97-4.92-10.97-10.98 0-6.06 4.9-10.96 10.97-10.96 6.05 0 10.96 4.9 10.96 10.96zM2180 350.55c0 6.06-4.9 10.97-10.97 10.97-6.05 0-10.96-4.9-10.96-10.97 0-6.05 4.9-10.96 10.96-10.96 6.06 0 10.97 4.9 10.97 10.95z" stroke="#5e5e5e" stroke-width="6" fill="#fff"/><path d="M2130.97 397.63v-55.67" stroke="#5e5e5e" stroke-width="8" fill="none"/><path d="M2134.97 402.26l-.38-.16-3.63-.47-3.63.47-.37.16v-4.73h8zM2134.97 342.06h-8v-4.73l.37.15 3.63.48 3.62-.48.37-.15z" fill="#5e5e5e"/><path d="M2168.76 367.53l-.2.97-.43 1.3-.52 1.05-.6.9-.7.82-.85.75-1.07.7-1.42.7-2.12.72-4.4.84-12.84 1.9-2.84.95-2.04 1-1.62 1.1-1.36 1.18-1.2 1.37-1.04 1.6-.95 1.93-.84 2.48-.64 3.37-.1 1.37" stroke="#5e5e5e" stroke-width="6" fill="none"/><path d="M2171.84 367.8l-6-.37.2-3.28 3 .4 3.02-.4z" fill="#5e5e5e"/><path d="M2130.97 394.45l-.2 3.07" stroke="#5e5e5e" stroke-width="6" fill="none"/><path d="M2020 332.67c0-3.32 2.7-6 6-6h88c3.3 0 6 2.68 6 6v78c0 3.3-2.7 6-6 6h-88c-3.3 0-6-2.7-6-6z" stroke="#000" stroke-opacity="0" stroke-width="3" fill="#fff" fill-opacity="0"/><use xlink:href="#f" transform="matrix(1,0,0,1,2025,331.6666666666667) translate(11.728395061728392 17.77777777777778)"/><use xlink:href="#g" transform="matrix(1,0,0,1,2025,331.6666666666667) translate(25.27777777777778 44.44444444444444)"/><use xlink:href="#h" transform="matrix(1,0,0,1,2025,331.6666666666667) translate(9.845679012345677 71.11111111111111)"/><path d="M2144 280.06h.92l4.26.26 3.73.37 3.3.46 2.96.54 2.64.6 2.4.66 2.18.7 2 .73 1.86.75 1.72.8 1.6.82 1.5.86 1.4.88 1.33.92 1.25.95 1.2.98 1.14 1.02 1.08 1.05 1.05 1.1 1 1.17.98 1.2.95 1.28.9 1.35.9 1.44.85 1.54.83 1.66.8 1.8.8 1.94.74 2.13.73 2.37.7 2.67.66 3.03.6 3.52.57 4.22.46 5.28.33 7.22.02 14-.24 27.88.34 7.3.48 5.35.56 4.3.62 3.57.68 3.1.7 2.7.75 2.44.78 2.2.8 1.98.84 1.83.85 1.7.87 1.57.9 1.48.95 1.4.97 1.32 1 1.25 1.03 1.2 1.1 1.14 1.12 1.1 1.18 1.05 1.24 1.02 1.3.98 1.4.95 1.45.92 1.55.88 1.67.86 1.78.84 1.93.8 2.1.76 2.28.73 2.5.68 2.77.65 3.08.57 3.46.5 3.92.38 2.15.12M2144.1 280.06l-4.1-.06M2247.1 439.88l4.1.12" stroke="#5e5e5e" stroke-width="8" fill="none"/><path d="M1722 254.33c0-3.3 2.7-6 6-6h228c3.3 0 6 2.7 6 6v51.34c0 3.3-2.7 6-6 6h-228c-3.3 0-6-2.7-6-6z" stroke="#000" stroke-opacity="0" stroke-width="3" fill="#fff" fill-opacity="0"/><use xlink:href="#i" transform="matrix(1,0,0,1,1727,253.33333333333334) translate(22.46913580246914 17.77777777777778)"/><use xlink:href="#j" transform="matrix(1,0,0,1,1727,253.33333333333334) translate(78.0246913580247 17.77777777777778)"/><use xlink:href="#k" transform="matrix(1,0,0,1,1727,253.33333333333334) translate(137.22222222222223 17.77777777777778)"/><use xlink:href="#l" transform="matrix(1,0,0,1,1727,253.33333333333334) translate(43.48765432098766 44.44444444444444)"/><use xlink:href="#m" transform="matrix(1,0,0,1,1727,253.33333333333334) translate(81.69753086419755 44.44444444444444)"/><use xlink:href="#n" transform="matrix(1,0,0,1,1727,253.33333333333334) translate(118.73456790123457 44.44444444444444)"/><path d="M1720 411c0-3.3 2.7-6 6-6h228c3.3 0 6 2.7 6 6v51.33c0 3.32-2.7 6-6 6h-228c-3.3 0-6-2.68-6-6z" stroke="#000" stroke-opacity="0" stroke-width="3" fill="#fff" fill-opacity="0"/><use xlink:href="#i" transform="matrix(1,0,0,1,1725,409.99999999999983) translate(22.46913580246914 17.77777777777778)"/><use xlink:href="#j" transform="matrix(1,0,0,1,1725,409.99999999999983) translate(78.0246913580247 17.77777777777778)"/><use xlink:href="#k" transform="matrix(1,0,0,1,1725,409.99999999999983) translate(137.22222222222223 17.77777777777778)"/><use xlink:href="#l" transform="matrix(1,0,0,1,1725,409.99999999999983) translate(43.48765432098766 44.44444444444444)"/><use xlink:href="#m" transform="matrix(1,0,0,1,1725,409.99999999999983) translate(81.69753086419755 44.44444444444444)"/><use xlink:href="#n" transform="matrix(1,0,0,1,1725,409.99999999999983) translate(118.73456790123457 44.44444444444444)"/><path d="M2373.34 440.24l.92.02 4.26.24 3.74.37 3.3.47 2.93.54 2.63.6 2.4.66 2.18.7 2 .72 1.85.77 1.7.8 1.6.8 1.5.86 1.4.87 1.32.9 1.26.95 1.2.97 1.12 1 1.1 1.06 1.03 1.1 1 1.15.97 1.2.93 1.28.9 1.35.88 1.43.85 1.52.84 1.64.8 1.77.77 1.92.76 2.1.72 2.36.7 2.62.64 3 .6 3.47.55 4.14.45 5.16.32 7 .03 12.58-.35 30.65.32 7.05.47 5.23.56 4.2.6 3.55.68 3.05.7 2.68.74 2.4.76 2.16.8 1.98.82 1.82.85 1.68.88 1.57.9 1.47.93 1.38.97 1.32 1 1.24 1.04 1.2 1.08 1.12 1.13 1.1 1.2 1.04 1.22 1 1.3 1 1.37.93 1.45.9 1.55.9 1.66.85 1.78.83 1.92.8 2.1.76 2.27.73 2.5.68 2.76.65 3.07.57 3.46.5 3.92.38 2.15.12M2373.44 440.24l-4.1-.06M2475.9 599.88l4.1.12M2564 600h692M2564.1 600h-4.1M3255.9 600h4.1" stroke="#5e5e5e" stroke-width="8" fill="none"/><path d="M3138.82 489.66c0 5.2-4.22 9.4-9.4 9.4-5.2 0-9.42-4.2-9.42-9.4s4.2-9.4 9.4-9.4 9.42 4.2 9.42 9.4zM3138.82 568.3c0 5.2-4.22 9.4-9.4 9.4-5.2 0-9.42-4.2-9.42-9.4s4.2-9.4 9.4-9.4 9.42 4.2 9.42 9.4zM3173.6 551.25c0 5.2-4.2 9.4-9.4 9.4s-9.4-4.2-9.4-9.4 4.2-9.4 9.4-9.4 9.4 4.2 9.4 9.4z" stroke="#de5f85" stroke-width="6" fill="#fff"/><path d="M3129.4 551.87V506.1" stroke="#de5f85" stroke-width="8" fill="none"/><path d="M3133.4 556.53l-3.92-.67-3.12.37-.95.42v-4.9h8zM3133.4 506.2h-8v-4.77l3.93.67 3.12-.38.96-.4z" fill="#de5f85"/><path d="M3129.56 520.68l.28 1.14.4 1 .44.76.46.58.5.48.57.4.7.35.9.3 1.28.22 2.6.08 10.75-.23 2.76.5 2.27.78 2.04 1.04 1.96 1.37 1.96 1.86 2.06 2.6 1.3 2.25M3129.5 520.77l-.27-3.06" stroke="#de5f85" stroke-width="6" fill="none"/><path d="M3167.8 539.42l-3.53-.6-3.12.37-.08.03-.9-1.9 5.42-2.57z" fill="#de5f85"/><path d="M3140 486c0-3.3 2.7-6 6-6h67.8c3.3 0 6 2.7 6 6v40.67c0 3.3-2.7 6-6 6H3146c-3.3 0-6-2.7-6-6z" stroke="#000" stroke-opacity="0" stroke-width="3" fill="#fff" fill-opacity="0"/><use xlink:href="#o" transform="matrix(1,0,0,1,3145,485) translate(20.23456790123457 14.222222222222221)"/><use xlink:href="#p" transform="matrix(1,0,0,1,3145,485) translate(1.9382716049382793 35.55555555555556)"/><path d="M2331.93 510.97c0 6.05-4.9 10.96-10.96 10.96-6.06 0-10.97-4.9-10.97-10.96 0-6.06 4.9-10.97 10.97-10.97 6.05 0 10.96 4.9 10.96 10.97zM2331.93 602.62c0 6.06-4.9 10.97-10.96 10.97-6.06 0-10.97-4.92-10.97-10.98 0-6.06 4.9-10.96 10.97-10.96 6.05 0 10.96 4.9 10.96 10.96zM2370 537.55c0 6.06-4.9 10.97-10.97 10.97-6.05 0-10.96-4.9-10.96-10.97 0-6.05 4.9-10.96 10.96-10.96 6.06 0 10.97 4.9 10.97 10.95z" stroke="#5e5e5e" stroke-width="6" fill="#fff"/><path d="M2320.97 584.63v-55.67" stroke="#5e5e5e" stroke-width="8" fill="none"/><path d="M2324.97 589.26l-.38-.16-3.63-.47-3.63.47-.37.16v-4.73h8zM2324.97 529.06h-8v-4.73l.37.15 3.63.48 3.62-.48.37-.15z" fill="#5e5e5e"/><path d="M2358.76 554.53l-.2.97-.43 1.3-.52 1.05-.6.9-.7.82-.85.75-1.07.7-1.42.7-2.12.72-4.4.84-12.84 1.9-2.84.95-2.04 1-1.62 1.1-1.36 1.18-1.2 1.37-1.04 1.6-.95 1.93-.84 2.48-.64 3.37-.1 1.37" stroke="#5e5e5e" stroke-width="6" fill="none"/><path d="M2361.84 554.8l-6-.37.2-3.28 3 .4 3.02-.4z" fill="#5e5e5e"/><path d="M2320.97 581.45l-.2 3.07" stroke="#5e5e5e" stroke-width="6" fill="none"/><path d="M2100 519.67c0-3.32 2.7-6 6-6h198c3.3 0 6 2.68 6 6v78c0 3.3-2.7 6-6 6h-198c-3.3 0-6-2.7-6-6z" stroke="#000" stroke-opacity="0" stroke-width="3" fill="#fff" fill-opacity="0"/><use xlink:href="#f" transform="matrix(1,0,0,1,2105,518.6666666666667) translate(66.72839506172839 30.27777777777778)"/><use xlink:href="#q" transform="matrix(1,0,0,1,2105,518.6666666666667) translate(10.000000000000014 56.94444444444445)"/><path d="M2362 400h56M2362.05 400H2360M2417.95 400h2.05M2390 322v62.36M2390 322.05V320M2379.82 366.86l10.18 17.2 10.18-17.2" stroke="#5e5e5e" stroke-width="4" fill="none"/><path d="M2414 346c0-3.3 2.7-6 6-6h88c3.3 0 6 2.7 6 6v48c0 3.3-2.7 6-6 6h-88c-3.3 0-6-2.7-6-6z" stroke="#000" stroke-opacity="0" stroke-width="3" fill="#fff" fill-opacity="0"/><use xlink:href="#r" transform="matrix(1,0,0,1,2419,345) translate(26.54320987654321 17.77777777777778)"/><use xlink:href="#s" transform="matrix(1,0,0,1,2419,345) translate(0.5864197530864175 44.44444444444444)"/><path d="M2638 580h56M2638.05 580H2636M2693.95 580h2.05M2666 502v62.36M2666 502.05V500M2655.82 546.86l10.18 17.2 10.18-17.2" stroke="#5e5e5e" stroke-width="4" fill="none"/><path d="M2690 526c0-3.3 2.7-6 6-6h88c3.3 0 6 2.7 6 6v48c0 3.3-2.7 6-6 6h-88c-3.3 0-6-2.7-6-6z" stroke="#000" stroke-opacity="0" stroke-width="3" fill="#fff" fill-opacity="0"/><g><use xlink:href="#r" transform="matrix(1,0,0,1,2695,525) translate(26.54320987654321 17.77777777777778)"/><use xlink:href="#s" transform="matrix(1,0,0,1,2695,525) translate(0.5864197530864175 44.44444444444444)"/></g><path d="M2563 599c0 22.1-17.9 40-40 40s-40-17.9-40-40 17.9-40 40-40 40 17.9 40 40z" stroke="#5e5e5e" stroke-width="6" fill="#fff"/><path d="M2507.03 575c0-3.3 2.68-6 6-6h25c3.3 0 6 2.7 6 6v48c0 3.3-2.7 6-6 6h-25c-3.32 0-6-2.7-6-6z" stroke="#000" stroke-opacity="0" stroke-width="3" fill="#fff" fill-opacity="0"/><g><use xlink:href="#t" transform="matrix(1,0,0,1,2512.0285714285715,574.0000185747631) translate(6.0925925925925934 30.27777777777778)"/></g><path d="M2456 522c0-3.3 2.7-6 6-6h128.07c3.3 0 6 2.7 6 6v33.04c0 3.3-2.7 6-6 6H2462c-3.3 0-6-2.7-6-6z" stroke="#000" stroke-opacity="0" stroke-width="3" fill="#fff" fill-opacity="0"/><g><use xlink:href="#q" transform="matrix(1,0,0,1,2461,521) translate(-24.499999999999986 22.444444444444443)"/></g><path d="M2907 603c0 22.1-17.9 40-40 40s-40-17.9-40-40 17.9-40 40-40 40 17.9 40 40z" stroke="#5e5e5e" stroke-width="6" fill="#fff"/><path d="M2851.03 579c0-3.3 2.68-6 6-6h25c3.3 0 6 2.7 6 6v48c0 3.3-2.7 6-6 6h-25c-3.32 0-6-2.7-6-6z" stroke="#000" stroke-opacity="0" stroke-width="3" fill="#fff" fill-opacity="0"/><g><use xlink:href="#t" transform="matrix(1,0,0,1,2856.0285714285715,578.0000185747631) translate(6.0925925925925934 30.27777777777778)"/></g><path d="M2893.83 573l24.66-24.65M2893.9 572.94l-2.9 2.9" stroke="#5e5e5e" stroke-width="8" fill="none"/><path d="M2931.4 535.43l-6.8 13.37-6.56-6.56z" stroke="#5e5e5e" stroke-width="8" fill="#5e5e5e"/><path d="M3064.22 476c17.67 0 32 14.18 32 31.67 0 17.5-14.33 31.66-32 31.66h-96c-17.67 0-32-14.17-32-31.66 0-17.5 14.33-31.67 32-31.67z" stroke="#5e5e5e" stroke-width="3" fill="#ffc374"/><g><use xlink:href="#u" transform="matrix(1,0,0,1,2941.219720638085,481) translate(30.320987654320994 33.05555555555556)"/></g><path d="M2747 515c0-3.3 2.7-6 6-6h228c3.3 0 6 2.7 6 6v48c0 3.3-2.7 6-6 6h-228c-3.3 0-6-2.7-6-6z" stroke="#000" stroke-opacity="0" stroke-width="3" fill="#fff" fill-opacity="0"/><g><use xlink:href="#v" transform="matrix(1,0,0,1,2752,514.0000185747631) translate(93.0246913580247 30.27777777777778)"/></g><defs><path fill="#333" d="M137 0h-34L2-248h35l83 218 83-218h36" id="w"/><path fill="#333" d="M24-231v-30h32v30H24zM24 0v-190h32V0H24" id="x"/><path fill="#333" d="M135-143c-3-34-86-38-87 0 15 53 115 12 119 90S17 21 10-45l28-5c4 36 97 45 98 0-10-56-113-15-118-90-4-57 82-63 122-42 12 7 21 19 24 35" id="y"/><path fill="#333" d="M59-47c-2 24 18 29 38 22v24C64 9 27 4 27-40v-127H5v-23h24l9-43h21v43h35v23H59v120" id="z"/><path fill="#333" d="M205 0l-28-72H64L36 0H1l101-248h38L239 0h-34zm-38-99l-47-123c-12 45-31 82-46 123h93" id="A"/><g id="a"><use transform="matrix(0.06172839506172839,0,0,0.06172839506172839,0,0)" xlink:href="#w"/><use transform="matrix(0.06172839506172839,0,0,0.06172839506172839,14.382716049382715,0)" xlink:href="#x"/><use transform="matrix(0.06172839506172839,0,0,0.06172839506172839,19.25925925925926,0)" xlink:href="#y"/><use transform="matrix(0.06172839506172839,0,0,0.06172839506172839,30.37037037037037,0)" xlink:href="#z"/><use transform="matrix(0.06172839506172839,0,0,0.06172839506172839,36.54320987654321,0)" xlink:href="#A"/></g><path fill="#333" d="M30-248c87 1 191-15 191 75 0 78-77 80-158 76V0H30v-248zm33 125c57 0 124 11 124-50 0-59-68-47-124-48v98" id="B"/><path fill="#333" d="M24 0v-261h32V0H24" id="C"/><path fill="#333" d="M141-36C126-15 110 5 73 4 37 3 15-17 15-53c-1-64 63-63 125-63 3-35-9-54-41-54-24 1-41 7-42 31l-33-3c5-37 33-52 76-52 45 0 72 20 72 64v82c-1 20 7 32 28 27v20c-31 9-61-2-59-35zM48-53c0 20 12 33 32 33 41-3 63-29 60-74-43 2-92-5-92 41" id="D"/><path fill="#333" d="M117-194c89-4 53 116 60 194h-32v-121c0-31-8-49-39-48C34-167 62-67 57 0H25l-1-190h30c1 10-1 24 2 32 11-22 29-35 61-36" id="E"/><path fill="#333" d="M84 4C-5 8 30-112 23-190h32v120c0 31 7 50 39 49 72-2 45-101 50-169h31l1 190h-30c-1-10 1-25-2-33-11 22-28 36-60 37" id="F"/><path fill="#333" d="M210-169c-67 3-38 105-44 169h-31v-121c0-29-5-50-35-48C34-165 62-65 56 0H25l-1-190h30c1 10-1 24 2 32 10-44 99-50 107 0 11-21 27-35 58-36 85-2 47 119 55 194h-31v-121c0-29-5-49-35-48" id="G"/><g id="b"><use transform="matrix(0.06172839506172839,0,0,0.06172839506172839,0,0)" xlink:href="#B"/><use transform="matrix(0.06172839506172839,0,0,0.06172839506172839,14.814814814814813,0)" xlink:href="#C"/><use transform="matrix(0.06172839506172839,0,0,0.06172839506172839,19.691358024691354,0)" xlink:href="#D"/><use transform="matrix(0.06172839506172839,0,0,0.06172839506172839,32.03703703703703,0)" xlink:href="#z"/><use transform="matrix(0.06172839506172839,0,0,0.06172839506172839,38.20987654320987,0)" xlink:href="#x"/><use transform="matrix(0.06172839506172839,0,0,0.06172839506172839,43.08641975308642,0)" xlink:href="#E"/><use transform="matrix(0.06172839506172839,0,0,0.06172839506172839,55.432098765432094,0)" xlink:href="#F"/><use transform="matrix(0.06172839506172839,0,0,0.06172839506172839,67.77777777777777,0)" xlink:href="#G"/></g><path fill="#333" d="M100-194c63 0 86 42 84 106H49c0 40 14 67 53 68 26 1 43-12 49-29l28 8c-11 28-37 45-77 45C44 4 14-33 15-96c1-61 26-98 85-98zm52 81c6-60-76-77-97-28-3 7-6 17-6 28h103" id="H"/><path fill="#333" d="M114-163C36-179 61-72 57 0H25l-1-190h30c1 12-1 29 2 39 6-27 23-49 58-41v29" id="I"/><path fill="#333" d="M100-194c62-1 85 37 85 99 1 63-27 99-86 99S16-35 15-95c0-66 28-99 85-99zM99-20c44 1 53-31 53-75 0-43-8-75-51-75s-53 32-53 75 10 74 51 75" id="J"/><g id="c"><use transform="matrix(0.06172839506172839,0,0,0.06172839506172839,0,0)" xlink:href="#w"/><use transform="matrix(0.06172839506172839,0,0,0.06172839506172839,13.580246913580245,0)" xlink:href="#H"/><use transform="matrix(0.06172839506172839,0,0,0.06172839506172839,25.925925925925924,0)" xlink:href="#I"/><use transform="matrix(0.06172839506172839,0,0,0.06172839506172839,33.2716049382716,0)" xlink:href="#y"/><use transform="matrix(0.06172839506172839,0,0,0.06172839506172839,44.38271604938271,0)" xlink:href="#x"/><use transform="matrix(0.06172839506172839,0,0,0.06172839506172839,49.25925925925925,0)" xlink:href="#J"/><use transform="matrix(0.06172839506172839,0,0,0.06172839506172839,61.60493827160493,0)" xlink:href="#E"/></g><path fill="#333" d="M230 0l2-204L168 0h-37L68-204 70 0H24v-248h70l56 185 57-185h69V0h-46" id="K"/><use transform="matrix(0.06172839506172839,0,0,0.06172839506172839,0,0)" xlink:href="#K" id="d"/><path fill="#333" d="M30-248c118-7 216 8 213 122C240-48 200 0 122 0H30v-248zM63-27c89 8 146-16 146-99s-60-101-146-95v194" id="L"/><use transform="matrix(0.06172839506172839,0,0,0.06172839506172839,0,0)" xlink:href="#L" id="e"/><path fill="#333" d="M212-179c-10-28-35-45-73-45-59 0-87 40-87 99 0 60 29 101 89 101 43 0 62-24 78-52l27 14C228-24 195 4 139 4 59 4 22-46 18-125c-6-104 99-153 187-111 19 9 31 26 39 46" id="M"/><g id="f"><use transform="matrix(0.06172839506172839,0,0,0.06172839506172839,0,0)" xlink:href="#M"/><use transform="matrix(0.06172839506172839,0,0,0.06172839506172839,15.987654320987653,0)" xlink:href="#I"/><use transform="matrix(0.06172839506172839,0,0,0.06172839506172839,23.333333333333332,0)" xlink:href="#H"/><use transform="matrix(0.06172839506172839,0,0,0.06172839506172839,35.67901234567901,0)" xlink:href="#D"/><use transform="matrix(0.06172839506172839,0,0,0.06172839506172839,48.02469135802469,0)" xlink:href="#z"/><use transform="matrix(0.06172839506172839,0,0,0.06172839506172839,54.19753086419753,0)" xlink:href="#H"/></g><path fill="#333" d="M108 0H70L1-190h34L89-25l56-165h34" id="N"/><g id="g"><use transform="matrix(0.06172839506172839,0,0,0.06172839506172839,0,0)" xlink:href="#L"/><use transform="matrix(0.06172839506172839,0,0,0.06172839506172839,15.987654320987653,0)" xlink:href="#H"/><use transform="matrix(0.06172839506172839,0,0,0.06172839506172839,28.333333333333332,0)" xlink:href="#N"/></g><path fill="#333" d="M160-131c35 5 61 23 61 61C221 17 115-2 30 0v-248c76 3 177-17 177 60 0 33-19 50-47 57zm-97-11c50-1 110 9 110-42 0-47-63-36-110-37v79zm0 115c55-2 124 14 124-45 0-56-70-42-124-44v89" id="O"/><path fill="#333" d="M96-169c-40 0-48 33-48 73s9 75 48 75c24 0 41-14 43-38l32 2c-6 37-31 61-74 61-59 0-76-41-82-99-10-93 101-131 147-64 4 7 5 14 7 22l-32 3c-4-21-16-35-41-35" id="P"/><path fill="#333" d="M106-169C34-169 62-67 57 0H25v-261h32l-1 103c12-21 28-36 61-36 89 0 53 116 60 194h-32v-121c2-32-8-49-39-48" id="Q"/><g id="h"><use transform="matrix(0.06172839506172839,0,0,0.06172839506172839,0,0)" xlink:href="#O"/><use transform="matrix(0.06172839506172839,0,0,0.06172839506172839,14.814814814814813,0)" xlink:href="#I"/><use transform="matrix(0.06172839506172839,0,0,0.06172839506172839,22.160493827160494,0)" xlink:href="#D"/><use transform="matrix(0.06172839506172839,0,0,0.06172839506172839,34.50617283950617,0)" xlink:href="#E"/><use transform="matrix(0.06172839506172839,0,0,0.06172839506172839,46.85185185185185,0)" xlink:href="#P"/><use transform="matrix(0.06172839506172839,0,0,0.06172839506172839,57.96296296296296,0)" xlink:href="#Q"/></g><path fill="#333" d="M30 0v-248h33v221h125V0H30" id="R"/><path fill="#333" d="M177-190C167-65 218 103 67 71c-23-6-38-20-44-43l32-5c15 47 100 32 89-28v-30C133-14 115 1 83 1 29 1 15-40 15-95c0-56 16-97 71-98 29-1 48 16 59 35 1-10 0-23 2-32h30zM94-22c36 0 50-32 50-73 0-42-14-75-50-75-39 0-46 34-46 75s6 73 46 73" id="S"/><g id="i"><use transform="matrix(0.06172839506172839,0,0,0.06172839506172839,0,0)" xlink:href="#R"/><use transform="matrix(0.06172839506172839,0,0,0.06172839506172839,12.345679012345679,0)" xlink:href="#J"/><use transform="matrix(0.06172839506172839,0,0,0.06172839506172839,24.691358024691358,0)" xlink:href="#E"/><use transform="matrix(0.06172839506172839,0,0,0.06172839506172839,37.03703703703704,0)" xlink:href="#S"/></g><path fill="#333" d="M85-194c31 0 48 13 60 33l-1-100h32l1 261h-30c-2-10 0-23-3-31C134-8 116 4 85 4 32 4 16-35 15-94c0-66 23-100 70-100zm9 24c-40 0-46 34-46 75 0 40 6 74 45 74 42 0 51-32 51-76 0-42-9-74-50-73" id="T"/><g id="j"><use transform="matrix(0.06172839506172839,0,0,0.06172839506172839,0,0)" xlink:href="#R"/><use transform="matrix(0.06172839506172839,0,0,0.06172839506172839,12.345679012345679,0)" xlink:href="#x"/><use transform="matrix(0.06172839506172839,0,0,0.06172839506172839,17.22222222222222,0)" xlink:href="#N"/><use transform="matrix(0.06172839506172839,0,0,0.06172839506172839,28.333333333333332,0)" xlink:href="#H"/><use transform="matrix(0.06172839506172839,0,0,0.06172839506172839,40.67901234567901,0)" xlink:href="#T"/></g><g id="k"><use transform="matrix(0.06172839506172839,0,0,0.06172839506172839,0,0)" xlink:href="#O"/><use transform="matrix(0.06172839506172839,0,0,0.06172839506172839,14.814814814814813,0)" xlink:href="#I"/><use transform="matrix(0.06172839506172839,0,0,0.06172839506172839,22.160493827160494,0)" xlink:href="#D"/><use transform="matrix(0.06172839506172839,0,0,0.06172839506172839,34.50617283950617,0)" xlink:href="#E"/><use transform="matrix(0.06172839506172839,0,0,0.06172839506172839,46.85185185185185,0)" xlink:href="#P"/><use transform="matrix(0.06172839506172839,0,0,0.06172839506172839,57.96296296296296,0)" xlink:href="#Q"/></g><path fill="#333" d="M87 75C49 33 22-17 22-94c0-76 28-126 65-167h31c-38 41-64 92-64 168S80 34 118 75H87" id="U"/><g id="l"><use transform="matrix(0.06172839506172839,0,0,0.06172839506172839,0,0)" xlink:href="#U"/><use transform="matrix(0.06172839506172839,0,0,0.06172839506172839,7.345679012345679,0)" xlink:href="#T"/><use transform="matrix(0.06172839506172839,0,0,0.06172839506172839,19.691358024691358,0)" xlink:href="#J"/></g><g id="m"><use transform="matrix(0.06172839506172839,0,0,0.06172839506172839,0,0)" xlink:href="#E"/><use transform="matrix(0.06172839506172839,0,0,0.06172839506172839,12.345679012345679,0)" xlink:href="#J"/><use transform="matrix(0.06172839506172839,0,0,0.06172839506172839,24.691358024691358,0)" xlink:href="#z"/></g><path fill="#333" d="M33-261c38 41 65 92 65 168S71 34 33 75H2C39 34 66-17 66-93S39-220 2-261h31" id="V"/><g id="n"><use transform="matrix(0.06172839506172839,0,0,0.06172839506172839,0,0)" xlink:href="#T"/><use transform="matrix(0.06172839506172839,0,0,0.06172839506172839,12.345679012345679,0)" xlink:href="#H"/><use transform="matrix(0.06172839506172839,0,0,0.06172839506172839,24.691358024691358,0)" xlink:href="#C"/><use transform="matrix(0.06172839506172839,0,0,0.06172839506172839,29.5679012345679,0)" xlink:href="#H"/><use transform="matrix(0.06172839506172839,0,0,0.06172839506172839,41.913580246913575,0)" xlink:href="#z"/><use transform="matrix(0.06172839506172839,0,0,0.06172839506172839,48.08641975308642,0)" xlink:href="#H"/><use transform="matrix(0.06172839506172839,0,0,0.06172839506172839,60.432098765432094,0)" xlink:href="#V"/></g><g id="o"><use transform="matrix(0.049382716049382706,0,0,0.049382716049382706,0,0)" xlink:href="#B"/><use transform="matrix(0.049382716049382706,0,0,0.049382716049382706,11.85185185185185,0)" xlink:href="#F"/><use transform="matrix(0.049382716049382706,0,0,0.049382716049382706,21.728395061728392,0)" xlink:href="#C"/><use transform="matrix(0.049382716049382706,0,0,0.049382716049382706,25.629629629629626,0)" xlink:href="#C"/></g><path fill="#333" d="M233-177c-1 41-23 64-60 70L243 0h-38l-65-103H63V0H30v-248c88 3 205-21 203 71zM63-129c60-2 137 13 137-47 0-61-80-42-137-45v92" id="W"/><path fill="#333" d="M145-31C134-9 116 4 85 4 32 4 16-35 15-94c0-59 17-99 70-100 32-1 48 14 60 33 0-11-1-24 2-32h30l-1 268h-32zM93-21c41 0 51-33 51-76s-8-73-50-73c-40 0-46 35-46 75s5 74 45 74" id="X"/><g id="p"><use transform="matrix(0.049382716049382706,0,0,0.049382716049382706,0,0)" xlink:href="#W"/><use transform="matrix(0.049382716049382706,0,0,0.049382716049382706,12.790123456790122,0)" xlink:href="#H"/><use transform="matrix(0.049382716049382706,0,0,0.049382716049382706,22.666666666666664,0)" xlink:href="#X"/><use transform="matrix(0.049382716049382706,0,0,0.049382716049382706,32.5432098765432,0)" xlink:href="#F"/><use transform="matrix(0.049382716049382706,0,0,0.049382716049382706,42.419753086419746,0)" xlink:href="#H"/><use transform="matrix(0.049382716049382706,0,0,0.049382716049382706,52.29629629629628,0)" xlink:href="#y"/><use transform="matrix(0.049382716049382706,0,0,0.049382716049382706,61.185185185185176,0)" xlink:href="#z"/></g><path fill="#333" d="M16-82v-28h88v28H16" id="Y"/><path fill="#333" d="M143 4C61 4 22-44 18-125c-5-107 100-154 193-111 17 8 29 25 37 43l-32 9c-13-25-37-40-76-40-61 0-88 39-88 99 0 61 29 100 91 101 35 0 62-11 79-27v-45h-74v-28h105v86C228-13 192 4 143 4" id="Z"/><path fill="#333" d="M54-142c48-35 137-8 131 61C196 18 31 33 14-55l32-4c7 23 22 37 52 37 35-1 51-22 54-58 4-55-73-65-99-34H22l8-134h141v27H59" id="aa"/><path fill="#333" d="M33 0v-38h34V0H33" id="ab"/><path fill="#333" d="M126-127c33 6 58 20 58 59 0 88-139 92-164 29-3-8-5-16-6-25l32-3c6 27 21 44 54 44 32 0 52-15 52-46 0-38-36-46-79-43v-28c39 1 72-4 72-42 0-27-17-43-46-43-28 0-47 15-49 41l-32-3c6-42 35-63 81-64 48-1 79 21 79 65 0 36-21 52-52 59" id="ac"/><path fill="#333" d="M155-56V0h-30v-56H8v-25l114-167h33v167h35v25h-35zm-30-156c-27 46-58 90-88 131h88v-131" id="ad"/><path fill="#333" d="M101-251c82-7 93 87 43 132L82-64C71-53 59-42 53-27h129V0H18c2-99 128-94 128-182 0-28-16-43-45-43s-46 15-49 41l-32-3c6-41 34-60 81-64" id="ae"/><g id="q"><use transform="matrix(0.06172839506172839,0,0,0.06172839506172839,0,0)" xlink:href="#B"/><use transform="matrix(0.06172839506172839,0,0,0.06172839506172839,14.814814814814813,0)" xlink:href="#D"/><use transform="matrix(0.06172839506172839,0,0,0.06172839506172839,27.160493827160494,0)" xlink:href="#z"/><use transform="matrix(0.06172839506172839,0,0,0.06172839506172839,33.333333333333336,0)" xlink:href="#P"/><use transform="matrix(0.06172839506172839,0,0,0.06172839506172839,44.44444444444444,0)" xlink:href="#Q"/><use transform="matrix(0.06172839506172839,0,0,0.06172839506172839,56.79012345679012,0)" xlink:href="#Y"/><use transform="matrix(0.06172839506172839,0,0,0.06172839506172839,64.1358024691358,0)" xlink:href="#L"/><use transform="matrix(0.06172839506172839,0,0,0.06172839506172839,80.12345679012346,0)" xlink:href="#Z"/><use transform="matrix(0.06172839506172839,0,0,0.06172839506172839,97.4074074074074,0)" xlink:href="#Y"/><use transform="matrix(0.06172839506172839,0,0,0.06172839506172839,104.75308641975309,0)" xlink:href="#aa"/><use transform="matrix(0.06172839506172839,0,0,0.06172839506172839,117.09876543209877,0)" xlink:href="#ab"/><use transform="matrix(0.06172839506172839,0,0,0.06172839506172839,123.27160493827161,0)" xlink:href="#ac"/><use transform="matrix(0.06172839506172839,0,0,0.06172839506172839,135.6172839506173,0)" xlink:href="#Y"/><use transform="matrix(0.06172839506172839,0,0,0.06172839506172839,142.96296296296296,0)" xlink:href="#ac"/><use transform="matrix(0.06172839506172839,0,0,0.06172839506172839,155.30864197530863,0)" xlink:href="#ad"/><use transform="matrix(0.06172839506172839,0,0,0.06172839506172839,167.6543209876543,0)" xlink:href="#ae"/></g><g id="r"><use transform="matrix(0.06172839506172839,0,0,0.06172839506172839,0,0)" xlink:href="#B"/><use transform="matrix(0.06172839506172839,0,0,0.06172839506172839,14.814814814814813,0)" xlink:href="#F"/><use transform="matrix(0.06172839506172839,0,0,0.06172839506172839,27.160493827160494,0)" xlink:href="#C"/><use transform="matrix(0.06172839506172839,0,0,0.06172839506172839,32.03703703703704,0)" xlink:href="#C"/></g><g id="s"><use transform="matrix(0.06172839506172839,0,0,0.06172839506172839,0,0)" xlink:href="#M"/><use transform="matrix(0.06172839506172839,0,0,0.06172839506172839,15.987654320987653,0)" xlink:href="#Q"/><use transform="matrix(0.06172839506172839,0,0,0.06172839506172839,28.333333333333332,0)" xlink:href="#D"/><use transform="matrix(0.06172839506172839,0,0,0.06172839506172839,40.67901234567901,0)" xlink:href="#E"/><use transform="matrix(0.06172839506172839,0,0,0.06172839506172839,53.02469135802469,0)" xlink:href="#S"/><use transform="matrix(0.06172839506172839,0,0,0.06172839506172839,65.37037037037037,0)" xlink:href="#H"/><use transform="matrix(0.06172839506172839,0,0,0.06172839506172839,77.71604938271605,0)" xlink:href="#y"/></g><use transform="matrix(0.06172839506172839,0,0,0.06172839506172839,0,0)" xlink:href="#B" id="t"/><path fill="#333" d="M76-208v77h127v40H76V0H24v-248h183v40H76" id="af"/><path fill="#333" d="M140-251c80 0 125 45 125 126S219 4 139 4C58 4 15-44 15-125s44-126 125-126zm-1 214c52 0 73-35 73-88 0-50-21-86-72-86-52 0-73 35-73 86s22 88 72 88" id="ag"/><path fill="#333" d="M240-174c0 40-23 61-54 70L253 0h-59l-57-94H76V0H24v-248c93 4 217-23 216 74zM76-134c48-2 112 12 112-38 0-48-66-32-112-35v73" id="ah"/><path fill="#333" d="M238-95c0 69-44 99-111 99C63 4 22-25 22-93v-155h51v151c-1 38 19 59 55 60 90 1 49-130 58-211h52v153" id="ai"/><g id="u"><use transform="matrix(0.06790123456790123,0,0,0.06790123456790123,0,0)" xlink:href="#af"/><use transform="matrix(0.06790123456790123,0,0,0.06790123456790123,14.87037037037037,0)" xlink:href="#ag"/><use transform="matrix(0.06790123456790123,0,0,0.06790123456790123,33.882716049382715,0)" xlink:href="#ah"/><use transform="matrix(0.06790123456790123,0,0,0.06790123456790123,51.46913580246913,0)" xlink:href="#ai"/><use transform="matrix(0.06790123456790123,0,0,0.06790123456790123,69.05555555555554,0)" xlink:href="#K"/></g><path fill="#333" d="M127-220V0H93v-220H8v-28h204v28h-85" id="aj"/><g id="v"><use transform="matrix(0.06172839506172839,0,0,0.06172839506172839,0,0)" xlink:href="#aj"/><use transform="matrix(0.06172839506172839,0,0,0.06172839506172839,11.851851851851851,0)" xlink:href="#A"/><use transform="matrix(0.06172839506172839,0,0,0.06172839506172839,26.666666666666664,0)" xlink:href="#Z"/></g></defs></g></svg>