<svg xmlns="http://www.w3.org/2000/svg" xmlns:xlink="http://www.w3.org/1999/xlink" xmlns:lucid="lucid" width="1286.82" height="770.67"><g transform="translate(-1919 -160)" lucid:page-tab-id="0_0"><path d="M2594.97 600H3155" stroke="#5e5e5e" stroke-width="8" fill="none"/><path d="M2595.08 604h-4.35l.24-3.96-.1-3.16-.12-.88h4.33z" fill="#5e5e5e"/><path d="M3154.9 600h4.1M1964 280h1192M1964.1 280h-4.1M3155.9 280h4.1" stroke="#5e5e5e" stroke-width="8" fill="none"/><path d="M1962 190c0-3.3 2.7-6 6-6h228c3.3 0 6 2.7 6 6v48c0 3.3-2.7 6-6 6h-228c-3.3 0-6-2.7-6-6z" fill="none"/><use xlink:href="#a" transform="matrix(1,0,0,1,1962,184) translate(20.740740740740762 21.111111111111114)"/><use xlink:href="#b" transform="matrix(1,0,0,1,1962,184) translate(62.654320987654344 21.111111111111114)"/><use xlink:href="#c" transform="matrix(1,0,0,1,1962,184) translate(145.30864197530866 21.111111111111114)"/><use xlink:href="#d" transform="matrix(1,0,0,1,1962,184) translate(95.30864197530865 47.777777777777786)"/><path d="M1964 440h1192M1964.1 440h-4.1M3155.9 440h4.1" stroke="#5e5e5e" stroke-width="8" fill="none"/><path d="M2120 280c0 22.1-17.9 40-40 40s-40-17.9-40-40 17.9-40 40-40 40 17.9 40 40z" stroke="#999" stroke-width="6" fill="#ffc374"/><use xlink:href="#e" transform="matrix(1,0,0,1,2045,245) translate(25.771604938271608 39.65277777777778)"/><path d="M2260 371c0-3.3 2.7-6 6-6h84c3.3 0 6 2.7 6 6v20.83c0 3.32-2.7 6-6 6h-84c-3.3 0-6-2.68-6-6z" stroke="#000" stroke-opacity="0" stroke-width="3" fill="#fff" fill-opacity="0"/><use xlink:href="#a" transform="matrix(1,0,0,1,2265,370) translate(7.876543209876544 17.77777777777778)"/><use xlink:href="#f" transform="matrix(1,0,0,1,2265,370) translate(49.79012345679013 17.77777777777778)"/><use xlink:href="#g" transform="matrix(1,0,0,1,2265,370) translate(43 44.44444444444444)"/><path d="M2347 437c0 22.1-17.9 40-40 40s-40-17.9-40-40 17.9-40 40-40 40 17.9 40 40z" stroke="#5e5e5e" stroke-width="6" fill="#fff"/><use xlink:href="#h" transform="matrix(1,0,0,1,2272,401.99999999999994) translate(27.006172839506174 39.65277777777778)"/><path d="M2420 280c0 22.1-17.9 40-40 40s-40-17.9-40-40 17.9-40 40-40 40 17.9 40 40z" stroke="#999" stroke-width="6" fill="#ffc374"/><use xlink:href="#e" transform="matrix(1,0,0,1,2345,245) translate(25.771604938271608 39.65277777777778)"/><path d="M2613 372c0-3.3 2.7-6 6-6h84c3.3 0 6 2.7 6 6v20.83c0 3.32-2.7 6-6 6h-84c-3.3 0-6-2.68-6-6z" stroke="#000" stroke-opacity="0" stroke-width="3" fill="#fff" fill-opacity="0"/><use xlink:href="#a" transform="matrix(1,0,0,1,2618,371.00000000000006) translate(7.876543209876544 17.77777777777778)"/><use xlink:href="#i" transform="matrix(1,0,0,1,2618,371.00000000000006) translate(49.79012345679013 17.77777777777778)"/><path d="M2700 438c0 22.1-17.9 40-40 40s-40-17.9-40-40 17.9-40 40-40 40 17.9 40 40z" stroke="#5e5e5e" stroke-width="6" fill="#fff"/><use xlink:href="#h" transform="matrix(1,0,0,1,2625,403) translate(27.006172839506174 39.65277777777778)"/><path d="M2508 525c0-3.3 2.7-6 6-6h62c3.3 0 6 2.7 6 6v48c0 3.3-2.7 6-6 6h-62c-3.3 0-6-2.7-6-6z" stroke="#000" stroke-opacity="0" stroke-width="3" fill="#fff" fill-opacity="0"/><use xlink:href="#j" transform="matrix(1,0,0,1,2513,524) translate(0 28.5)"/><use xlink:href="#k" transform="matrix(1,0,0,1,2513,524) translate(37.722222222222214 28.5)"/><path d="M2397.8 440.06h.9l4.28.26 3.73.37 3.3.46 2.95.54 2.65.6 2.4.66 2.18.7 2 .73 1.85.75 1.72.8 1.6.82 1.5.86 1.4.88 1.33.92 1.26.95 1.2.98 1.14 1.02 1.1 1.05 1.04 1.1 1 1.17.98 1.2.94 1.28.9 1.35.9 1.44.85 1.54.82 1.66.8 1.8.8 1.94.75 2.13.73 2.37.7 2.67.65 3.03.62 3.52.55 4.22.47 5.28.32 7.22.02 14-.24 27.88.34 7.3.47 5.35.57 4.3.63 3.57.67 3.1.7 2.7.76 2.44.77 2.2.8 1.98.83 1.83.86 1.7.87 1.57.9 1.48.94 1.4.98 1.32 1 1.25 1.05 1.2 1.08 1.14 1.14 1.1 1.18 1.05 1.24 1.02 1.3.98 1.4.95 1.45.92 1.57.88 1.66.86 1.8.84 1.92.8 2.1.76 2.27.73 2.5.68 2.77.65 3.08.57 3.46.5 3.9.38 2.16.12M2397.9 440.06l-4.1-.06M2500.9 599.88l4.1.12M2507 600h73M2507.1 600h-4.1M2579.9 600h4.1" stroke="#5e5e5e" stroke-width="8" fill="none"/><path d="M2318.5 865.96h7.9v5.87h-7.9v-5.87zM2348.6 800h31.4v76.67h-31.4V800z" fill="#29aae1"/><path d="M2280.5 812.92h83.1v53.13h-83.1V812.9z" fill="#29aae1"/><path d="M2284.3 816.15h75.8v47.5h-75.8v-47.5z" fill="#fff" fill-opacity=".98"/><path d="M2283.8 872.25h75.7l-3.7 12.66H2280l3.8-12.65z" fill="#29aae1"/><path d="M2283.3 871.83h77.5l6.5 13.17h-77.5l-6.5-13.17z" fill="#29aae1"/><path d="M2309.6 881.6h27.6v2.63h-27.6v-2.63zM2294.4 873.87h2.1v1.7h-2.1v-1.7zM2298 873.95h2.1v1.7h-2.1v-1.7zM2302.7 877h2v1.7h-2V877zM2301.9 873.78h2.1v1.7h-2.1v-1.7zM2305.4 873.87h2.1v1.7h-2.1v-1.7zM2308.9 873.78h2v1.7h-2v-1.7zM2330.2 874.03h2.1v1.7h-2.1v-1.7zM2333.4 874.03h2v1.7h-2v-1.7zM2336.3 874.03h2.1v1.7h-2.1v-1.7zM2339.8 874.03h2.1v1.7h-2.1v-1.7zM2343.1 874.03h2v1.7h-2v-1.7zM2339.2 876.84h2.1v1.7h-2.1v-1.7zM2346.8 874.03h2.1v1.7h-2.1v-1.7zM2306.5 876.92h2.1v1.7h-2.1v-1.7zM2310.5 876.92h2v1.7h-2v-1.7zM2336 876.75h1.8v1.7h-1.8v-1.7zM2332.5 876.75h2v1.7h-2v-1.7zM2312.7 873.87h2v1.7h-2v-1.7zM2316.5 873.95h2.1v1.7h-2.1v-1.7zM2320.1 873.87h2.1v1.7h-2.1v-1.7zM2324.1 873.87h2v1.7h-2v-1.7zM2327.3 873.95h2.1v1.7h-2.1v-1.7zM2314 876.84h2v1.7h-2v-1.7zM2317.8 876.84h2.1v1.7h-2.1v-1.7zM2321.5 876.92h2v1.7h-2v-1.7zM2325 876.92h2.1v1.7h-2.1v-1.7zM2328.7 876.75h2v1.7h-2v-1.7z" fill="#fff"/><path d="M2280.1 884.9l87.2-.24-6.2-12.83-77.2.08-3.8 13z" fill="none"/><path d="M2370.8 804h5.6c.6 0 .6 0 .6.6 0 .58 0 .58-.6.58h-5.6c-.6 0-.6 0-.6-.6s0-.6.6-.6zM2370.8 806.8h5.7c.5 0 .5 0 .5.5 0 .52 0 .52-.5.52h-5.7c-.6 0-.6 0-.6-.5 0-.52 0-.52.6-.52zM2348.7 812.07h15.1v.68h-15.1v-.68zM2363.8 812.07h.7v54.14h-.7V812.1z" fill="#fff"/><path d="M2348.6 866.13h15.8v.76h-15.8v-.77zM2348.7 870.47h12.1c.6 0 .6 0 .6.6 0 .67 0 .67-.6.67h-12.1c-.6 0-.6 0-.6-.68 0-.6 0-.6.6-.6z" fill="#fff"/><path d="M2361.3 870.63l3.4 5.87-1 .6-3.3-5.96.9-.5zM2318.1 865.96h8.5v.85h-8.5v-.84zM2318.4 870.9h8.1v.93h-8.1v-.94z" fill="#fff"/><use xlink:href="#l" transform="matrix(1,0,0,1,2250,885) translate(29.475308641975303 19.444444444444443)"/><path d="M2478.5 865.96h7.9v5.87h-7.9v-5.87zM2508.6 800h31.4v76.67h-31.4V800z" fill="#29aae1"/><path d="M2440.5 812.92h83.1v53.13h-83.1V812.9z" fill="#29aae1"/><path d="M2444.3 816.15h75.8v47.5h-75.8v-47.5z" fill="#fff" fill-opacity=".98"/><path d="M2443.8 872.25h75.7l-3.7 12.66H2440l3.8-12.65z" fill="#29aae1"/><path d="M2443.3 871.83h77.5l6.5 13.17h-77.5l-6.5-13.17z" fill="#29aae1"/><path d="M2469.6 881.6h27.6v2.63h-27.6v-2.63zM2454.4 873.87h2.1v1.7h-2.1v-1.7zM2458 873.95h2.1v1.7h-2.1v-1.7zM2462.7 877h2v1.7h-2V877zM2461.9 873.78h2.1v1.7h-2.1v-1.7zM2465.4 873.87h2.1v1.7h-2.1v-1.7zM2468.9 873.78h2v1.7h-2v-1.7zM2490.2 874.03h2.1v1.7h-2.1v-1.7zM2493.4 874.03h2v1.7h-2v-1.7zM2496.3 874.03h2.1v1.7h-2.1v-1.7zM2499.8 874.03h2.1v1.7h-2.1v-1.7zM2503.1 874.03h2v1.7h-2v-1.7zM2499.2 876.84h2.1v1.7h-2.1v-1.7zM2506.8 874.03h2.1v1.7h-2.1v-1.7zM2466.5 876.92h2.1v1.7h-2.1v-1.7zM2470.5 876.92h2v1.7h-2v-1.7zM2496 876.75h1.8v1.7h-1.8v-1.7zM2492.5 876.75h2v1.7h-2v-1.7zM2472.7 873.87h2v1.7h-2v-1.7zM2476.5 873.95h2.1v1.7h-2.1v-1.7zM2480.1 873.87h2.1v1.7h-2.1v-1.7zM2484.1 873.87h2v1.7h-2v-1.7zM2487.3 873.95h2.1v1.7h-2.1v-1.7zM2474 876.84h2v1.7h-2v-1.7zM2477.8 876.84h2.1v1.7h-2.1v-1.7zM2481.5 876.92h2v1.7h-2v-1.7zM2485 876.92h2.1v1.7h-2.1v-1.7zM2488.7 876.75h2v1.7h-2v-1.7z" fill="#fff"/><path d="M2440.1 884.9l87.2-.24-6.2-12.83-77.2.08-3.8 13z" fill="none"/><path d="M2530.8 804h5.6c.6 0 .6 0 .6.6 0 .58 0 .58-.6.58h-5.6c-.6 0-.6 0-.6-.6s0-.6.6-.6zM2530.8 806.8h5.7c.5 0 .5 0 .5.5 0 .52 0 .52-.5.52h-5.7c-.6 0-.6 0-.6-.5 0-.52 0-.52.6-.52zM2508.7 812.07h15.1v.68h-15.1v-.68zM2523.8 812.07h.7v54.14h-.7V812.1z" fill="#fff"/><path d="M2508.6 866.13h15.8v.76h-15.8v-.77zM2508.7 870.47h12.1c.6 0 .6 0 .6.6 0 .67 0 .67-.6.67h-12.1c-.6 0-.6 0-.6-.68 0-.6 0-.6.6-.6z" fill="#fff"/><path d="M2521.3 870.63l3.4 5.87-1 .6-3.3-5.96.9-.5zM2478.1 865.96h8.5v.85h-8.5v-.84zM2478.4 870.9h8.1v.93h-8.1v-.94z" fill="#fff"/><use xlink:href="#l" transform="matrix(1,0,0,1,2410,885) translate(29.475308641975303 19.444444444444443)"/><path d="M2638.5 865.96h7.9v5.87h-7.9v-5.87zM2668.6 800h31.4v76.67h-31.4V800z" fill="#29aae1"/><path d="M2600.5 812.92h83.1v53.13h-83.1V812.9z" fill="#29aae1"/><path d="M2604.3 816.15h75.8v47.5h-75.8v-47.5z" fill="#fff" fill-opacity=".98"/><path d="M2603.8 872.25h75.7l-3.7 12.66H2600l3.8-12.65z" fill="#29aae1"/><path d="M2603.3 871.83h77.5l6.5 13.17h-77.5l-6.5-13.17z" fill="#29aae1"/><path d="M2629.6 881.6h27.6v2.63h-27.6v-2.63zM2614.4 873.87h2.1v1.7h-2.1v-1.7zM2618 873.95h2.1v1.7h-2.1v-1.7zM2622.7 877h2v1.7h-2V877zM2621.9 873.78h2.1v1.7h-2.1v-1.7zM2625.4 873.87h2.1v1.7h-2.1v-1.7zM2628.9 873.78h2v1.7h-2v-1.7zM2650.2 874.03h2.1v1.7h-2.1v-1.7zM2653.4 874.03h2v1.7h-2v-1.7zM2656.3 874.03h2.1v1.7h-2.1v-1.7zM2659.8 874.03h2.1v1.7h-2.1v-1.7zM2663.1 874.03h2v1.7h-2v-1.7zM2659.2 876.84h2.1v1.7h-2.1v-1.7zM2666.8 874.03h2.1v1.7h-2.1v-1.7zM2626.5 876.92h2.1v1.7h-2.1v-1.7zM2630.5 876.92h2v1.7h-2v-1.7zM2656 876.75h1.8v1.7h-1.8v-1.7zM2652.5 876.75h2v1.7h-2v-1.7zM2632.7 873.87h2v1.7h-2v-1.7zM2636.5 873.95h2.1v1.7h-2.1v-1.7zM2640.1 873.87h2.1v1.7h-2.1v-1.7zM2644.1 873.87h2v1.7h-2v-1.7zM2647.3 873.95h2.1v1.7h-2.1v-1.7zM2634 876.84h2v1.7h-2v-1.7zM2637.8 876.84h2.1v1.7h-2.1v-1.7zM2641.5 876.92h2v1.7h-2v-1.7zM2645 876.92h2.1v1.7h-2.1v-1.7zM2648.7 876.75h2v1.7h-2v-1.7z" fill="#fff"/><path d="M2600.1 884.9l87.2-.24-6.2-12.83-77.2.08-3.8 13z" fill="none"/><path d="M2690.8 804h5.6c.6 0 .6 0 .6.6 0 .58 0 .58-.6.58h-5.6c-.6 0-.6 0-.6-.6s0-.6.6-.6zM2690.8 806.8h5.7c.5 0 .5 0 .5.5 0 .52 0 .52-.5.52h-5.7c-.6 0-.6 0-.6-.5 0-.52 0-.52.6-.52zM2668.7 812.07h15.1v.68h-15.1v-.68zM2683.8 812.07h.7v54.14h-.7V812.1z" fill="#fff"/><path d="M2668.6 866.13h15.8v.76h-15.8v-.77zM2668.7 870.47h12.1c.6 0 .6 0 .6.6 0 .67 0 .67-.6.67h-12.1c-.6 0-.6 0-.6-.68 0-.6 0-.6.6-.6z" fill="#fff"/><path d="M2681.3 870.63l3.4 5.87-1 .6-3.3-5.96.9-.5zM2638.1 865.96h8.5v.85h-8.5v-.84zM2638.4 870.9h8.1v.93h-8.1v-.94z" fill="#fff"/><use xlink:href="#l" transform="matrix(1,0,0,1,2570,885) translate(29.475308641975303 19.444444444444443)"/><path d="M2798.5 865.96h7.9v5.87h-7.9v-5.87zM2828.6 800h31.4v76.67h-31.4V800z" fill="#29aae1"/><path d="M2760.5 812.92h83.1v53.13h-83.1V812.9z" fill="#29aae1"/><path d="M2764.3 816.15h75.8v47.5h-75.8v-47.5z" fill="#fff" fill-opacity=".98"/><path d="M2763.8 872.25h75.7l-3.7 12.66H2760l3.8-12.65z" fill="#29aae1"/><path d="M2763.3 871.83h77.5l6.5 13.17h-77.5l-6.5-13.17z" fill="#29aae1"/><path d="M2789.6 881.6h27.6v2.63h-27.6v-2.63zM2774.4 873.87h2.1v1.7h-2.1v-1.7zM2778 873.95h2.1v1.7h-2.1v-1.7zM2782.7 877h2v1.7h-2V877zM2781.9 873.78h2.1v1.7h-2.1v-1.7zM2785.4 873.87h2.1v1.7h-2.1v-1.7zM2788.9 873.78h2v1.7h-2v-1.7zM2810.2 874.03h2.1v1.7h-2.1v-1.7zM2813.4 874.03h2v1.7h-2v-1.7zM2816.3 874.03h2.1v1.7h-2.1v-1.7zM2819.8 874.03h2.1v1.7h-2.1v-1.7zM2823.1 874.03h2v1.7h-2v-1.7zM2819.2 876.84h2.1v1.7h-2.1v-1.7zM2826.8 874.03h2.1v1.7h-2.1v-1.7zM2786.5 876.92h2.1v1.7h-2.1v-1.7zM2790.5 876.92h2v1.7h-2v-1.7zM2816 876.75h1.8v1.7h-1.8v-1.7zM2812.5 876.75h2v1.7h-2v-1.7zM2792.7 873.87h2v1.7h-2v-1.7zM2796.5 873.95h2.1v1.7h-2.1v-1.7zM2800.1 873.87h2.1v1.7h-2.1v-1.7zM2804.1 873.87h2v1.7h-2v-1.7zM2807.3 873.95h2.1v1.7h-2.1v-1.7zM2794 876.84h2v1.7h-2v-1.7zM2797.8 876.84h2.1v1.7h-2.1v-1.7zM2801.5 876.92h2v1.7h-2v-1.7zM2805 876.92h2.1v1.7h-2.1v-1.7zM2808.7 876.75h2v1.7h-2v-1.7z" fill="#fff"/><path d="M2760.1 884.9l87.2-.24-6.2-12.83-77.2.08-3.8 13z" fill="none"/><path d="M2850.8 804h5.6c.6 0 .6 0 .6.6 0 .58 0 .58-.6.58h-5.6c-.6 0-.6 0-.6-.6s0-.6.6-.6zM2850.8 806.8h5.7c.5 0 .5 0 .5.5 0 .52 0 .52-.5.52h-5.7c-.6 0-.6 0-.6-.5 0-.52 0-.52.6-.52zM2828.7 812.07h15.1v.68h-15.1v-.68zM2843.8 812.07h.7v54.14h-.7V812.1z" fill="#fff"/><path d="M2828.6 866.13h15.8v.76h-15.8v-.77zM2828.7 870.47h12.1c.6 0 .6 0 .6.6 0 .67 0 .67-.6.67h-12.1c-.6 0-.6 0-.6-.68 0-.6 0-.6.6-.6z" fill="#fff"/><path d="M2841.3 870.63l3.4 5.87-1 .6-3.3-5.96.9-.5zM2798.1 865.96h8.5v.85h-8.5v-.84zM2798.4 870.9h8.1v.93h-8.1v-.94z" fill="#fff"/><use xlink:href="#l" transform="matrix(1,0,0,1,2730,885) translate(29.475308641975303 19.444444444444443)"/><path d="M2587.97 600c0 22.1-17.9 40-40 40s-40-17.9-40-40 17.9-40 40-40 40 17.9 40 40z" stroke="#5e5e5e" stroke-width="6" fill="#fff"/><path d="M2529 576c0-3.3 2.7-6 6-6h25c3.3 0 6 2.7 6 6v48c0 3.3-2.7 6-6 6h-25c-3.3 0-6-2.7-6-6z" stroke="#000" stroke-opacity="0" stroke-width="3" fill="#fff" fill-opacity="0"/><use xlink:href="#m" transform="matrix(1,0,0,1,2534,575.0000185747631) translate(6.740740740740741 30.27777777777778)"/><path d="M2496.08 643.16l-135.16 149.68" stroke="#5e5e5e" stroke-width="8" fill="none"/><path d="M2508.32 629.6l-6.12 13.7-6.88-6.2zM2348.68 806.4l6.12-13.7 6.88 6.2z" stroke="#5e5e5e" stroke-width="8" fill="#5e5e5e"/><path d="M2529.4 665.35l-43.82 121.3" stroke="#5e5e5e" stroke-width="8" fill="none"/><path d="M2535.6 648.17l-.5 15-8.7-3.15zM2479.37 803.83l.5-15 8.7 3.15z" stroke="#5e5e5e" stroke-width="8" fill="#5e5e5e"/><path d="M2572 664.8l50.97 122.4" stroke="#5e5e5e" stroke-width="8" fill="none"/><path d="M2564.98 647.95l9.76 11.4-8.56 3.55zM2630 804.05l-9.77-11.4 8.56-3.55z" stroke="#5e5e5e" stroke-width="8" fill="#5e5e5e"/><path d="M2602.05 642.1l155.63 152.1" stroke="#5e5e5e" stroke-width="8" fill="none"/><path d="M2589 629.34l13.43 6.65-6.48 6.62zM2770.74 806.95l-13.44-6.65 6.48-6.63z" stroke="#5e5e5e" stroke-width="8" fill="#5e5e5e"/><path d="M2853.2 600h73M2853.3 600h-4.1M2926.1 600h4.1" stroke="#5e5e5e" stroke-width="8" fill="none"/><path d="M2934.18 600c0 22.1-17.9 40-40 40s-40-17.9-40-40 17.9-40 40-40 40 17.9 40 40z" stroke="#5e5e5e" stroke-width="6" fill="#fff"/><path d="M2875.2 576c0-3.3 2.7-6 6-6h25c3.32 0 6 2.7 6 6v48c0 3.3-2.68 6-6 6h-25c-3.3 0-6-2.7-6-6z" stroke="#000" stroke-opacity="0" stroke-width="3" fill="#fff" fill-opacity="0"/><use xlink:href="#m" transform="matrix(1,0,0,1,2880.206092236851,575.0000185747631) translate(6.740740740740741 30.27777777777778)"/><path d="M2259 188c0-3.3 2.7-6 6-6h228c3.3 0 6 2.7 6 6v48c0 3.3-2.7 6-6 6h-228c-3.3 0-6-2.7-6-6z" fill="none"/><use xlink:href="#a" transform="matrix(1,0,0,1,2259,182) translate(20.740740740740762 21.111111111111114)"/><use xlink:href="#b" transform="matrix(1,0,0,1,2259,182) translate(62.654320987654344 21.111111111111114)"/><use xlink:href="#c" transform="matrix(1,0,0,1,2259,182) translate(145.30864197530866 21.111111111111114)"/><use xlink:href="#n" transform="matrix(1,0,0,1,2259,182) translate(95.30864197530865 47.777777777777786)"/><path d="M2851 525c0-3.3 2.7-6 6-6h75c3.3 0 6 2.7 6 6v48c0 3.3-2.7 6-6 6h-75c-3.3 0-6-2.7-6-6z" stroke="#000" stroke-opacity="0" stroke-width="3" fill="#fff" fill-opacity="0"/><use xlink:href="#o" transform="matrix(1,0,0,1,2856,524) translate(0 28.5)"/><use xlink:href="#p" transform="matrix(1,0,0,1,2856,524) translate(5.5555555555555545 28.5)"/><use xlink:href="#q" transform="matrix(1,0,0,1,2856,524) translate(43.27777777777777 28.5)"/><path d="M2141.93 323.97c0 6.05-4.9 10.96-10.96 10.96-6.06 0-10.97-4.9-10.97-10.96 0-6.06 4.9-10.97 10.97-10.97 6.05 0 10.96 4.9 10.96 10.97zM2141.93 415.62c0 6.06-4.9 10.97-10.96 10.97-6.06 0-10.97-4.92-10.97-10.98 0-6.06 4.9-10.96 10.97-10.96 6.05 0 10.96 4.9 10.96 10.96zM2180 350.55c0 6.06-4.9 10.97-10.97 10.97-6.05 0-10.96-4.9-10.96-10.97 0-6.05 4.9-10.96 10.96-10.96 6.06 0 10.97 4.9 10.97 10.95z" stroke="#5e5e5e" stroke-width="6" fill="#fff"/><path d="M2130.97 397.63v-55.67" stroke="#5e5e5e" stroke-width="8" fill="none"/><path d="M2134.97 402.26l-.38-.16-3.63-.47-3.63.47-.37.16v-4.73h8zM2134.97 342.06h-8v-4.73l.37.15 3.63.48 3.62-.48.37-.15z" fill="#5e5e5e"/><path d="M2168.76 367.53l-.2.97-.43 1.3-.52 1.05-.6.9-.7.82-.85.75-1.07.7-1.42.7-2.12.72-4.4.84-12.84 1.9-2.84.95-2.04 1-1.62 1.1-1.36 1.18-1.2 1.37-1.04 1.6-.95 1.93-.84 2.48-.64 3.37-.1 1.37" stroke="#5e5e5e" stroke-width="6" fill="none"/><path d="M2171.84 367.8l-6-.37.2-3.28 3 .4 3.02-.4z" fill="#5e5e5e"/><path d="M2130.97 394.45l-.2 3.07" stroke="#5e5e5e" stroke-width="6" fill="none"/><path d="M2020 346c0-3.3 2.7-6 6-6h88c3.3 0 6 2.7 6 6v51.33c0 3.32-2.7 6-6 6h-88c-3.3 0-6-2.68-6-6z" stroke="#000" stroke-opacity="0" stroke-width="3" fill="#fff" fill-opacity="0"/><use xlink:href="#r" transform="matrix(1,0,0,1,2025,345) translate(11.728395061728392 17.77777777777778)"/><use xlink:href="#s" transform="matrix(1,0,0,1,2025,345) translate(9.845679012345677 44.44444444444444)"/><path d="M2395.93 474.97c0 6.05-4.9 10.96-10.96 10.96-6.06 0-10.97-4.9-10.97-10.96 0-6.06 4.9-10.97 10.97-10.97 6.05 0 10.96 4.9 10.96 10.97zM2395.93 566.62c0 6.06-4.9 10.97-10.96 10.97-6.06 0-10.97-4.92-10.97-10.98 0-6.06 4.9-10.96 10.97-10.96 6.05 0 10.96 4.9 10.96 10.96zM2434 501.55c0 6.06-4.9 10.97-10.97 10.97-6.05 0-10.96-4.9-10.96-10.97 0-6.05 4.9-10.96 10.96-10.96 6.06 0 10.97 4.9 10.97 10.95z" stroke="#5e5e5e" stroke-width="6" fill="#fff"/><path d="M2384.97 548.63v-55.67" stroke="#5e5e5e" stroke-width="8" fill="none"/><path d="M2388.97 553.26l-.38-.16-3.63-.47-3.63.47-.37.16v-4.73h8zM2388.97 493.06h-8v-4.73l.37.15 3.63.48 3.62-.48.37-.15z" fill="#5e5e5e"/><path d="M2422.76 518.53l-.2.97-.43 1.3-.52 1.05-.6.9-.7.82-.85.75-1.07.7-1.42.7-2.12.72-4.4.84-12.84 1.9-2.84.95-2.04 1-1.62 1.1-1.36 1.18-1.2 1.37-1.04 1.6-.95 1.93-.84 2.48-.64 3.37-.1 1.37" stroke="#5e5e5e" stroke-width="6" fill="none"/><path d="M2425.84 518.8l-6-.37.2-3.28 3 .4 3.02-.4z" fill="#5e5e5e"/><path d="M2384.97 545.45l-.2 3.07" stroke="#5e5e5e" stroke-width="6" fill="none"/><path d="M2274 497c0-3.3 2.7-6 6-6h88c3.3 0 6 2.7 6 6v51.33c0 3.32-2.7 6-6 6h-88c-3.3 0-6-2.68-6-6z" stroke="#000" stroke-opacity="0" stroke-width="3" fill="#fff" fill-opacity="0"/><use xlink:href="#r" transform="matrix(1,0,0,1,2279,496.00000000000006) translate(11.728395061728392 17.77777777777778)"/><use xlink:href="#s" transform="matrix(1,0,0,1,2279,496.00000000000006) translate(9.845679012345677 44.44444444444444)"/><path d="M2462 420h56M2462.05 420H2460M2517.95 420h2.05M2490 302v111.1M2490 302.05V300M2479.82 395.58L2490 412.8l10.18-17.22M2702 580h56M2702.05 580H2700M2757.95 580h2.05M2730 462v102.36M2730 462.05V460M2719.82 546.86l10.18 17.2 10.18-17.2" stroke="#5e5e5e" stroke-width="4" fill="none"/><path d="M2144 280.06h.92l4.26.26 3.73.37 3.3.46 2.96.54 2.64.6 2.4.66 2.18.7 2 .73 1.86.75 1.72.8 1.6.82 1.5.86 1.4.88 1.33.92 1.25.95 1.2.98 1.14 1.02 1.08 1.05 1.05 1.1 1 1.17.98 1.2.95 1.28.9 1.35.9 1.44.85 1.54.83 1.66.8 1.8.8 1.94.74 2.13.73 2.37.7 2.67.66 3.03.6 3.52.57 4.22.46 5.28.33 7.22.02 14-.24 27.88.34 7.3.48 5.35.56 4.3.62 3.57.68 3.1.7 2.7.75 2.44.78 2.2.8 1.98.84 1.83.85 1.7.87 1.57.9 1.48.95 1.4.97 1.32 1 1.25 1.03 1.2 1.1 1.14 1.12 1.1 1.18 1.05 1.24 1.02 1.3.98 1.4.95 1.45.92 1.55.88 1.67.86 1.78.84 1.93.8 2.1.76 2.28.73 2.5.68 2.77.65 3.08.57 3.46.5 3.92.38 2.15.12M2144.1 280.06l-4.1-.06M2247.1 439.88l4.1.12" stroke="#5e5e5e" stroke-width="8" fill="none"/><path d="M2000 626c0-3.3 2.7-6 6-6h364c3.3 0 6 2.7 6 6v103c0 3.3-2.7 6-6 6h-364c-3.3 0-6-2.7-6-6z" stroke="#000" stroke-opacity="0" stroke-width="3" fill="#fff" fill-opacity="0"/><g><use xlink:href="#t" transform="matrix(1,0,0,1,2005,625) translate(0 17.77777777777778)"/><use xlink:href="#u" transform="matrix(1,0,0,1,2005,625) translate(72.71604938271605 17.77777777777778)"/><use xlink:href="#v" transform="matrix(1,0,0,1,2005,625) translate(91.23456790123457 17.77777777777778)"/><use xlink:href="#w" transform="matrix(1,0,0,1,2005,625) translate(165.2469135802469 17.77777777777778)"/><use xlink:href="#u" transform="matrix(1,0,0,1,2005,625) translate(197.28395061728395 17.77777777777778)"/><use xlink:href="#x" transform="matrix(1,0,0,1,2005,625) translate(215.80246913580248 17.77777777777778)"/><use xlink:href="#y" transform="matrix(1,0,0,1,2005,625) translate(0 44.44444444444444)"/><use xlink:href="#z" transform="matrix(1,0,0,1,2005,625) translate(78.88888888888889 44.44444444444444)"/><use xlink:href="#A" transform="matrix(1,0,0,1,2005,625) translate(141.7283950617284 44.44444444444444)"/><use xlink:href="#B" transform="matrix(1,0,0,1,2005,625) translate(256.41975308641975 44.44444444444444)"/><use xlink:href="#C" transform="matrix(1,0,0,1,2005,625) translate(315.61728395061726 44.44444444444444)"/><use xlink:href="#D" transform="matrix(1,0,0,1,2005,625) translate(0 71.11111111111111)"/><use xlink:href="#E" transform="matrix(1,0,0,1,2005,625) translate(49.25925925925926 71.11111111111111)"/><use xlink:href="#F" transform="matrix(1,0,0,1,2005,625) translate(147.77777777777777 71.11111111111111)"/><use xlink:href="#G" transform="matrix(1,0,0,1,2005,625) translate(0 97.77777777777777)"/></g><path d="M2504 286c0-3.3 2.7-6 6-6h528c3.3 0 6 2.7 6 6v96.33c0 3.32-2.7 6-6 6h-528c-3.3 0-6-2.68-6-6z" stroke="#000" stroke-opacity="0" stroke-width="3" fill="#fff" fill-opacity="0"/><g><use xlink:href="#H" transform="matrix(1,0,0,1,2509,285) translate(0 17.77777777777778)"/><use xlink:href="#I" transform="matrix(1,0,0,1,2509,285) translate(18.51851851851852 17.77777777777778)"/><use xlink:href="#J" transform="matrix(1,0,0,1,2509,285) translate(60.49382716049383 17.77777777777778)"/><use xlink:href="#K" transform="matrix(1,0,0,1,2509,285) translate(150.6172839506173 17.77777777777778)"/><use xlink:href="#L" transform="matrix(1,0,0,1,2509,285) translate(204.93827160493828 17.77777777777778)"/><use xlink:href="#M" transform="matrix(1,0,0,1,2509,285) translate(260.4938271604938 17.77777777777778)"/><use xlink:href="#N" transform="matrix(1,0,0,1,2509,285) translate(322.1604938271605 17.77777777777778)"/><use xlink:href="#O" transform="matrix(1,0,0,1,2509,285) translate(346.85185185185185 17.77777777777778)"/><use xlink:href="#P" transform="matrix(1,0,0,1,2509,285) translate(383.8888888888889 17.77777777777778)"/><use xlink:href="#Q" transform="matrix(1,0,0,1,2509,285) translate(457.83950617283955 17.77777777777778)"/><use xlink:href="#R" transform="matrix(1,0,0,1,2509,285) translate(0 44.44444444444444)"/><use xlink:href="#S" transform="matrix(1,0,0,1,2509,285) translate(29.62962962962963 44.44444444444444)"/><use xlink:href="#T" transform="matrix(1,0,0,1,2509,285) translate(111.0493827160494 44.44444444444444)"/><use xlink:href="#U" transform="matrix(1,0,0,1,2509,285) translate(166.54320987654322 44.44444444444444)"/><use xlink:href="#V" transform="matrix(1,0,0,1,2509,285) translate(234.320987654321 44.44444444444444)"/><use xlink:href="#W" transform="matrix(1,0,0,1,2509,285) translate(367.53086419753083 44.44444444444444)"/><use xlink:href="#X" transform="matrix(1,0,0,1,2509,285) translate(408.1481481481481 44.44444444444444)"/><use xlink:href="#J" transform="matrix(1,0,0,1,2509,285) translate(0 71.11111111111111)"/><use xlink:href="#Y" transform="matrix(1,0,0,1,2509,285) translate(90.12345679012346 71.11111111111111)"/><use xlink:href="#N" transform="matrix(1,0,0,1,2509,285) translate(149.320987654321 71.11111111111111)"/><use xlink:href="#O" transform="matrix(1,0,0,1,2509,285) translate(174.01234567901236 71.11111111111111)"/><use xlink:href="#Z" transform="matrix(1,0,0,1,2509,285) translate(211.0493827160494 71.11111111111111)"/><use xlink:href="#aa" transform="matrix(1,0,0,1,2509,285) translate(256.6666666666667 71.11111111111111)"/></g><path d="M2740 466c0-3.3 2.7-6 6-6h252.8c3.3 0 6 2.7 6 6v51.52c0 3.3-2.7 6-6 6H2746c-3.3 0-6-2.7-6-6z" stroke="#000" stroke-opacity="0" stroke-width="3" fill="#fff" fill-opacity="0"/><g><use xlink:href="#ab" transform="matrix(1,0,0,1,2745,465) translate(0 17.77777777777778)"/><use xlink:href="#O" transform="matrix(1,0,0,1,2745,465) translate(45.67901234567901 17.77777777777778)"/><use xlink:href="#x" transform="matrix(1,0,0,1,2745,465) translate(82.71604938271605 17.77777777777778)"/><use xlink:href="#v" transform="matrix(1,0,0,1,2745,465) translate(0 44.44444444444444)"/><use xlink:href="#ac" transform="matrix(1,0,0,1,2745,465) translate(74.01234567901234 44.44444444444444)"/><use xlink:href="#ad" transform="matrix(1,0,0,1,2745,465) translate(134.44444444444443 44.44444444444444)"/><use xlink:href="#ae" transform="matrix(1,0,0,1,2745,465) translate(212.09876543209873 44.44444444444444)"/></g><path d="M2780 666c0-3.3 2.7-6 6-6h393.82c3.32 0 6 2.7 6 6v116.33c0 3.32-2.68 6-6 6H2786c-3.3 0-6-2.68-6-6z" stroke="#000" stroke-opacity="0" stroke-width="3" fill="#fff" fill-opacity="0"/><g><use xlink:href="#af" transform="matrix(1,0,0,1,2785,665) translate(0 17.77777777777778)"/><use xlink:href="#ag" transform="matrix(1,0,0,1,2785,665) translate(118.33333333333334 17.77777777777778)"/><use xlink:href="#N" transform="matrix(1,0,0,1,2785,665) translate(173.8888888888889 17.77777777777778)"/><use xlink:href="#ah" transform="matrix(1,0,0,1,2785,665) translate(198.58024691358028 17.77777777777778)"/><use xlink:href="#ai" transform="matrix(1,0,0,1,2785,665) translate(278.64197530864203 17.77777777777778)"/><use xlink:href="#aj" transform="matrix(1,0,0,1,2785,665) translate(0 44.44444444444444)"/><use xlink:href="#v" transform="matrix(1,0,0,1,2785,665) translate(118.27160493827161 44.44444444444444)"/><use xlink:href="#N" transform="matrix(1,0,0,1,2785,665) translate(192.28395061728395 44.44444444444444)"/><use xlink:href="#ak" transform="matrix(1,0,0,1,2785,665) translate(216.97530864197532 44.44444444444444)"/><use xlink:href="#al" transform="matrix(1,0,0,1,2785,665) translate(290.98765432098764 44.44444444444444)"/><use xlink:href="#am" transform="matrix(1,0,0,1,2785,665) translate(339.1358024691358 44.44444444444444)"/><use xlink:href="#Y" transform="matrix(1,0,0,1,2785,665) translate(0 71.11111111111111)"/><use xlink:href="#I" transform="matrix(1,0,0,1,2785,665) translate(59.19753086419753 71.11111111111111)"/><use xlink:href="#an" transform="matrix(1,0,0,1,2785,665) translate(101.17283950617283 71.11111111111111)"/><use xlink:href="#J" transform="matrix(1,0,0,1,2785,665) translate(155.49382716049382 71.11111111111111)"/><use xlink:href="#ao" transform="matrix(1,0,0,1,2785,665) translate(245.61728395061726 71.11111111111111)"/><use xlink:href="#ap" transform="matrix(1,0,0,1,2785,665) translate(302.2222222222222 71.11111111111111)"/><use xlink:href="#aq" transform="matrix(1,0,0,1,2785,665) translate(0 97.77777777777777)"/><use xlink:href="#ar" transform="matrix(1,0,0,1,2785,665) translate(52.96296296296297 97.77777777777777)"/><use xlink:href="#O" transform="matrix(1,0,0,1,2785,665) translate(83.82716049382717 97.77777777777777)"/><use xlink:href="#as" transform="matrix(1,0,0,1,2785,665) translate(120.8641975308642 97.77777777777777)"/></g><path d="M2500 186c0-3.3 2.7-6 6-6h370c3.3 0 6 2.7 6 6v69.67c0 3.3-2.7 6-6 6h-370c-3.3 0-6-2.7-6-6z" stroke="#000" stroke-opacity="0" stroke-width="3" fill="#fff" fill-opacity="0"/><g><use xlink:href="#at" transform="matrix(1,0,0,1,2505,185) translate(0 17.77777777777778)"/><use xlink:href="#au" transform="matrix(1,0,0,1,2505,185) translate(95 17.77777777777778)"/><use xlink:href="#av" transform="matrix(1,0,0,1,2505,185) translate(136.97530864197532 17.77777777777778)"/><use xlink:href="#M" transform="matrix(1,0,0,1,2505,185) translate(167.83950617283952 17.77777777777778)"/><use xlink:href="#N" transform="matrix(1,0,0,1,2505,185) translate(229.50617283950618 17.77777777777778)"/><use xlink:href="#O" transform="matrix(1,0,0,1,2505,185) translate(254.19753086419755 17.77777777777778)"/><use xlink:href="#aw" transform="matrix(1,0,0,1,2505,185) translate(291.2345679012346 17.77777777777778)"/><use xlink:href="#v" transform="matrix(1,0,0,1,2505,185) translate(0 44.44444444444444)"/><use xlink:href="#R" transform="matrix(1,0,0,1,2505,185) translate(74.01234567901234 44.44444444444444)"/><use xlink:href="#ax" transform="matrix(1,0,0,1,2505,185) translate(103.64197530864197 44.44444444444444)"/><use xlink:href="#V" transform="matrix(1,0,0,1,2505,185) translate(160.37037037037038 44.44444444444444)"/><use xlink:href="#ay" transform="matrix(1,0,0,1,2505,185) translate(293.58024691358025 44.44444444444444)"/><use xlink:href="#az" transform="matrix(1,0,0,1,2505,185) translate(0 71.11111111111111)"/><use xlink:href="#aA" transform="matrix(1,0,0,1,2505,185) translate(43.20987654320988 71.11111111111111)"/><use xlink:href="#av" transform="matrix(1,0,0,1,2505,185) translate(97.46913580246914 71.11111111111111)"/><use xlink:href="#aB" transform="matrix(1,0,0,1,2505,185) translate(128.33333333333334 71.11111111111111)"/></g><defs><path fill="#333" d="M127-220V0H93v-220H8v-28h204v28h-85" id="aC"/><path fill="#333" d="M141-36C126-15 110 5 73 4 37 3 15-17 15-53c-1-64 63-63 125-63 3-35-9-54-41-54-24 1-41 7-42 31l-33-3c5-37 33-52 76-52 45 0 72 20 72 64v82c-1 20 7 32 28 27v20c-31 9-61-2-59-35zM48-53c0 20 12 33 32 33 41-3 63-29 60-74-43 2-92-5-92 41" id="aD"/><path fill="#333" d="M177-190C167-65 218 103 67 71c-23-6-38-20-44-43l32-5c15 47 100 32 89-28v-30C133-14 115 1 83 1 29 1 15-40 15-95c0-56 16-97 71-98 29-1 48 16 59 35 1-10 0-23 2-32h30zM94-22c36 0 50-32 50-73 0-42-14-75-50-75-39 0-46 34-46 75s6 73 46 73" id="aE"/><g id="a"><use transform="matrix(0.06172839506172839,0,0,0.06172839506172839,0,0)" xlink:href="#aC"/><use transform="matrix(0.06172839506172839,0,0,0.06172839506172839,11.049382716049381,0)" xlink:href="#aD"/><use transform="matrix(0.06172839506172839,0,0,0.06172839506172839,23.39506172839506,0)" xlink:href="#aE"/></g><path fill="#333" d="M30-248c87 1 191-15 191 75 0 78-77 80-158 76V0H30v-248zm33 125c57 0 124 11 124-50 0-59-68-47-124-48v98" id="aF"/><path fill="#333" d="M114-163C36-179 61-72 57 0H25l-1-190h30c1 12-1 29 2 39 6-27 23-49 58-41v29" id="aG"/><path fill="#333" d="M100-194c62-1 85 37 85 99 1 63-27 99-86 99S16-35 15-95c0-66 28-99 85-99zM99-20c44 1 53-31 53-75 0-43-8-75-51-75s-53 32-53 75 10 74 51 75" id="aH"/><path fill="#333" d="M85-194c31 0 48 13 60 33l-1-100h32l1 261h-30c-2-10 0-23-3-31C134-8 116 4 85 4 32 4 16-35 15-94c0-66 23-100 70-100zm9 24c-40 0-46 34-46 75 0 40 6 74 45 74 42 0 51-32 51-76 0-42-9-74-50-73" id="aI"/><path fill="#333" d="M84 4C-5 8 30-112 23-190h32v120c0 31 7 50 39 49 72-2 45-101 50-169h31l1 190h-30c-1-10 1-25-2-33-11 22-28 36-60 37" id="aJ"/><path fill="#333" d="M96-169c-40 0-48 33-48 73s9 75 48 75c24 0 41-14 43-38l32 2c-6 37-31 61-74 61-59 0-76-41-82-99-10-93 101-131 147-64 4 7 5 14 7 22l-32 3c-4-21-16-35-41-35" id="aK"/><path fill="#333" d="M59-47c-2 24 18 29 38 22v24C64 9 27 4 27-40v-127H5v-23h24l9-43h21v43h35v23H59v120" id="aL"/><g id="b"><use transform="matrix(0.06172839506172839,0,0,0.06172839506172839,0,0)" xlink:href="#aF"/><use transform="matrix(0.06172839506172839,0,0,0.06172839506172839,14.814814814814813,0)" xlink:href="#aG"/><use transform="matrix(0.06172839506172839,0,0,0.06172839506172839,22.160493827160494,0)" xlink:href="#aH"/><use transform="matrix(0.06172839506172839,0,0,0.06172839506172839,34.50617283950617,0)" xlink:href="#aI"/><use transform="matrix(0.06172839506172839,0,0,0.06172839506172839,46.85185185185185,0)" xlink:href="#aJ"/><use transform="matrix(0.06172839506172839,0,0,0.06172839506172839,59.197530864197525,0)" xlink:href="#aK"/><use transform="matrix(0.06172839506172839,0,0,0.06172839506172839,70.30864197530863,0)" xlink:href="#aL"/></g><path fill="#333" d="M137 0h-34L2-248h35l83 218 83-218h36" id="aM"/><path fill="#333" d="M100-194c63 0 86 42 84 106H49c0 40 14 67 53 68 26 1 43-12 49-29l28 8c-11 28-37 45-77 45C44 4 14-33 15-96c1-61 26-98 85-98zm52 81c6-60-76-77-97-28-3 7-6 17-6 28h103" id="aN"/><path fill="#333" d="M135-143c-3-34-86-38-87 0 15 53 115 12 119 90S17 21 10-45l28-5c4 36 97 45 98 0-10-56-113-15-118-90-4-57 82-63 122-42 12 7 21 19 24 35" id="aO"/><path fill="#333" d="M24-231v-30h32v30H24zM24 0v-190h32V0H24" id="aP"/><path fill="#333" d="M117-194c89-4 53 116 60 194h-32v-121c0-31-8-49-39-48C34-167 62-67 57 0H25l-1-190h30c1 10-1 24 2 32 11-22 29-35 61-36" id="aQ"/><g id="c"><use transform="matrix(0.06172839506172839,0,0,0.06172839506172839,0,0)" xlink:href="#aM"/><use transform="matrix(0.06172839506172839,0,0,0.06172839506172839,13.580246913580245,0)" xlink:href="#aN"/><use transform="matrix(0.06172839506172839,0,0,0.06172839506172839,25.925925925925924,0)" xlink:href="#aG"/><use transform="matrix(0.06172839506172839,0,0,0.06172839506172839,33.2716049382716,0)" xlink:href="#aO"/><use transform="matrix(0.06172839506172839,0,0,0.06172839506172839,44.38271604938271,0)" xlink:href="#aP"/><use transform="matrix(0.06172839506172839,0,0,0.06172839506172839,49.25925925925925,0)" xlink:href="#aH"/><use transform="matrix(0.06172839506172839,0,0,0.06172839506172839,61.60493827160493,0)" xlink:href="#aQ"/></g><path fill="#333" d="M27 0v-27h64v-190l-56 39v-29l58-41h29v221h61V0H27" id="aR"/><path fill="#333" d="M33 0v-38h34V0H33" id="aS"/><path fill="#333" d="M101-251c68 0 85 55 85 127S166 4 100 4C33 4 14-52 14-124c0-73 17-127 87-127zm-1 229c47 0 54-49 54-102s-4-102-53-102c-51 0-55 48-55 102 0 53 5 102 54 102" id="aT"/><g id="d"><use transform="matrix(0.06172839506172839,0,0,0.06172839506172839,0,0)" xlink:href="#aR"/><use transform="matrix(0.06172839506172839,0,0,0.06172839506172839,12.345679012345679,0)" xlink:href="#aS"/><use transform="matrix(0.06172839506172839,0,0,0.06172839506172839,18.51851851851852,0)" xlink:href="#aT"/><use transform="matrix(0.06172839506172839,0,0,0.06172839506172839,30.864197530864196,0)" xlink:href="#aS"/><use transform="matrix(0.06172839506172839,0,0,0.06172839506172839,37.03703703703704,0)" xlink:href="#aT"/></g><path fill="#333" d="M230 0l2-204L168 0h-37L68-204 70 0H24v-248h70l56 185 57-185h69V0h-46" id="aU"/><use transform="matrix(0.06172839506172839,0,0,0.06172839506172839,0,0)" xlink:href="#aU" id="e"/><path fill="#333" d="M30-248c118-7 216 8 213 122C240-48 200 0 122 0H30v-248zM63-27c89 8 146-16 146-99s-60-101-146-95v194" id="aV"/><g id="f"><use transform="matrix(0.06172839506172839,0,0,0.06172839506172839,0,0)" xlink:href="#aV"/><use transform="matrix(0.06172839506172839,0,0,0.06172839506172839,15.987654320987653,0)" xlink:href="#aR"/></g><use transform="matrix(0.06172839506172839,0,0,0.06172839506172839,0,0)" xlink:href="#aV" id="h"/><path fill="#333" d="M101-251c82-7 93 87 43 132L82-64C71-53 59-42 53-27h129V0H18c2-99 128-94 128-182 0-28-16-43-45-43s-46 15-49 41l-32-3c6-41 34-60 81-64" id="aW"/><g id="i"><use transform="matrix(0.06172839506172839,0,0,0.06172839506172839,0,0)" xlink:href="#aV"/><use transform="matrix(0.06172839506172839,0,0,0.06172839506172839,15.987654320987653,0)" xlink:href="#aW"/></g><g id="j"><use transform="matrix(0.055555555555555546,0,0,0.055555555555555546,0,0)" xlink:href="#aC"/><use transform="matrix(0.055555555555555546,0,0,0.055555555555555546,9.944444444444443,0)" xlink:href="#aD"/><use transform="matrix(0.055555555555555546,0,0,0.055555555555555546,21.05555555555555,0)" xlink:href="#aE"/></g><path fill="#333" d="M63-220v92h138v28H63V0H30v-248h175v28H63" id="aX"/><g id="k"><use transform="matrix(0.055555555555555546,0,0,0.055555555555555546,0,0)" xlink:href="#aX"/><use transform="matrix(0.055555555555555546,0,0,0.055555555555555546,12.166666666666664,0)" xlink:href="#aR"/></g><path fill="#333" d="M108 0H70L1-190h34L89-25l56-165h34" id="aY"/><path fill="#333" d="M24 0v-261h32V0H24" id="aZ"/><path fill="#333" d="M115-194c55 1 70 41 70 98S169 2 115 4C84 4 66-9 55-30l1 105H24l-1-265h31l2 30c10-21 28-34 59-34zm-8 174c40 0 45-34 45-75s-6-73-45-74c-42 0-51 32-51 76 0 43 10 73 51 73" id="ba"/><g id="l"><use transform="matrix(0.06172839506172839,0,0,0.06172839506172839,0,0)" xlink:href="#aV"/><use transform="matrix(0.06172839506172839,0,0,0.06172839506172839,15.987654320987653,0)" xlink:href="#aN"/><use transform="matrix(0.06172839506172839,0,0,0.06172839506172839,28.333333333333332,0)" xlink:href="#aY"/><use transform="matrix(0.06172839506172839,0,0,0.06172839506172839,39.44444444444444,0)" xlink:href="#aN"/><use transform="matrix(0.06172839506172839,0,0,0.06172839506172839,51.79012345679012,0)" xlink:href="#aZ"/><use transform="matrix(0.06172839506172839,0,0,0.06172839506172839,56.666666666666664,0)" xlink:href="#aH"/><use transform="matrix(0.06172839506172839,0,0,0.06172839506172839,69.01234567901234,0)" xlink:href="#ba"/><use transform="matrix(0.06172839506172839,0,0,0.06172839506172839,81.35802469135803,0)" xlink:href="#aN"/><use transform="matrix(0.06172839506172839,0,0,0.06172839506172839,93.70370370370371,0)" xlink:href="#aG"/></g><use transform="matrix(0.06172839506172839,0,0,0.06172839506172839,0,0)" xlink:href="#aX" id="m"/><g id="n"><use transform="matrix(0.06172839506172839,0,0,0.06172839506172839,0,0)" xlink:href="#aR"/><use transform="matrix(0.06172839506172839,0,0,0.06172839506172839,12.345679012345679,0)" xlink:href="#aS"/><use transform="matrix(0.06172839506172839,0,0,0.06172839506172839,18.51851851851852,0)" xlink:href="#aT"/><use transform="matrix(0.06172839506172839,0,0,0.06172839506172839,30.864197530864196,0)" xlink:href="#aS"/><use transform="matrix(0.06172839506172839,0,0,0.06172839506172839,37.03703703703704,0)" xlink:href="#aR"/></g><g id="p"><use transform="matrix(0.055555555555555546,0,0,0.055555555555555546,0,0)" xlink:href="#aC"/><use transform="matrix(0.055555555555555546,0,0,0.055555555555555546,9.944444444444443,0)" xlink:href="#aD"/><use transform="matrix(0.055555555555555546,0,0,0.055555555555555546,21.05555555555555,0)" xlink:href="#aE"/></g><g id="q"><use transform="matrix(0.055555555555555546,0,0,0.055555555555555546,0,0)" xlink:href="#aX"/><use transform="matrix(0.055555555555555546,0,0,0.055555555555555546,12.166666666666664,0)" xlink:href="#aW"/></g><path fill="#333" d="M212-179c-10-28-35-45-73-45-59 0-87 40-87 99 0 60 29 101 89 101 43 0 62-24 78-52l27 14C228-24 195 4 139 4 59 4 22-46 18-125c-6-104 99-153 187-111 19 9 31 26 39 46" id="bb"/><g id="r"><use transform="matrix(0.06172839506172839,0,0,0.06172839506172839,0,0)" xlink:href="#bb"/><use transform="matrix(0.06172839506172839,0,0,0.06172839506172839,15.987654320987653,0)" xlink:href="#aG"/><use transform="matrix(0.06172839506172839,0,0,0.06172839506172839,23.333333333333332,0)" xlink:href="#aN"/><use transform="matrix(0.06172839506172839,0,0,0.06172839506172839,35.67901234567901,0)" xlink:href="#aD"/><use transform="matrix(0.06172839506172839,0,0,0.06172839506172839,48.02469135802469,0)" xlink:href="#aL"/><use transform="matrix(0.06172839506172839,0,0,0.06172839506172839,54.19753086419753,0)" xlink:href="#aN"/></g><path fill="#333" d="M160-131c35 5 61 23 61 61C221 17 115-2 30 0v-248c76 3 177-17 177 60 0 33-19 50-47 57zm-97-11c50-1 110 9 110-42 0-47-63-36-110-37v79zm0 115c55-2 124 14 124-45 0-56-70-42-124-44v89" id="bc"/><path fill="#333" d="M106-169C34-169 62-67 57 0H25v-261h32l-1 103c12-21 28-36 61-36 89 0 53 116 60 194h-32v-121c2-32-8-49-39-48" id="bd"/><g id="s"><use transform="matrix(0.06172839506172839,0,0,0.06172839506172839,0,0)" xlink:href="#bc"/><use transform="matrix(0.06172839506172839,0,0,0.06172839506172839,14.814814814814813,0)" xlink:href="#aG"/><use transform="matrix(0.06172839506172839,0,0,0.06172839506172839,22.160493827160494,0)" xlink:href="#aD"/><use transform="matrix(0.06172839506172839,0,0,0.06172839506172839,34.50617283950617,0)" xlink:href="#aQ"/><use transform="matrix(0.06172839506172839,0,0,0.06172839506172839,46.85185185185185,0)" xlink:href="#aK"/><use transform="matrix(0.06172839506172839,0,0,0.06172839506172839,57.96296296296296,0)" xlink:href="#bd"/></g><g id="t"><use transform="matrix(0.06172839506172839,0,0,0.06172839506172839,0,0)" xlink:href="#bb"/><use transform="matrix(0.06172839506172839,0,0,0.06172839506172839,15.987654320987653,0)" xlink:href="#aG"/><use transform="matrix(0.06172839506172839,0,0,0.06172839506172839,23.333333333333332,0)" xlink:href="#aN"/><use transform="matrix(0.06172839506172839,0,0,0.06172839506172839,35.67901234567901,0)" xlink:href="#aD"/><use transform="matrix(0.06172839506172839,0,0,0.06172839506172839,48.02469135802469,0)" xlink:href="#aL"/><use transform="matrix(0.06172839506172839,0,0,0.06172839506172839,54.19753086419753,0)" xlink:href="#aN"/></g><use transform="matrix(0.06172839506172839,0,0,0.06172839506172839,0,0)" xlink:href="#aD" id="u"/><path fill="#333" d="M115-194c53 0 69 39 70 98 0 66-23 100-70 100C84 3 66-7 56-30L54 0H23l1-261h32v101c10-23 28-34 59-34zm-8 174c40 0 45-34 45-75 0-40-5-75-45-74-42 0-51 32-51 76 0 43 10 73 51 73" id="be"/><g id="v"><use transform="matrix(0.06172839506172839,0,0,0.06172839506172839,0,0)" xlink:href="#be"/><use transform="matrix(0.06172839506172839,0,0,0.06172839506172839,12.345679012345679,0)" xlink:href="#aG"/><use transform="matrix(0.06172839506172839,0,0,0.06172839506172839,19.691358024691358,0)" xlink:href="#aD"/><use transform="matrix(0.06172839506172839,0,0,0.06172839506172839,32.03703703703704,0)" xlink:href="#aQ"/><use transform="matrix(0.06172839506172839,0,0,0.06172839506172839,44.382716049382715,0)" xlink:href="#aK"/><use transform="matrix(0.06172839506172839,0,0,0.06172839506172839,55.49382716049382,0)" xlink:href="#bd"/></g><path fill="#333" d="M101-234c-31-9-42 10-38 44h38v23H63V0H32v-167H5v-23h27c-7-52 17-82 69-68v24" id="bf"/><g id="w"><use transform="matrix(0.06172839506172839,0,0,0.06172839506172839,0,0)" xlink:href="#bf"/><use transform="matrix(0.06172839506172839,0,0,0.06172839506172839,6.172839506172839,0)" xlink:href="#aH"/><use transform="matrix(0.06172839506172839,0,0,0.06172839506172839,18.51851851851852,0)" xlink:href="#aG"/></g><path fill="#333" d="M0 4l72-265h28L28 4H0" id="bg"/><path fill="#333" d="M141 0L90-78 38 0H4l68-98-65-92h35l48 74 47-74h35l-64 92 68 98h-35" id="bh"/><g id="x"><use transform="matrix(0.06172839506172839,0,0,0.06172839506172839,0,0)" xlink:href="#aX"/><use transform="matrix(0.06172839506172839,0,0,0.06172839506172839,13.518518518518517,0)" xlink:href="#aN"/><use transform="matrix(0.06172839506172839,0,0,0.06172839506172839,25.864197530864196,0)" xlink:href="#aD"/><use transform="matrix(0.06172839506172839,0,0,0.06172839506172839,38.20987654320987,0)" xlink:href="#aL"/><use transform="matrix(0.06172839506172839,0,0,0.06172839506172839,44.382716049382715,0)" xlink:href="#aJ"/><use transform="matrix(0.06172839506172839,0,0,0.06172839506172839,56.72839506172839,0)" xlink:href="#aG"/><use transform="matrix(0.06172839506172839,0,0,0.06172839506172839,64.07407407407408,0)" xlink:href="#aN"/><use transform="matrix(0.06172839506172839,0,0,0.06172839506172839,76.41975308641976,0)" xlink:href="#bg"/><use transform="matrix(0.06172839506172839,0,0,0.06172839506172839,82.5925925925926,0)" xlink:href="#aX"/><use transform="matrix(0.06172839506172839,0,0,0.06172839506172839,96.11111111111111,0)" xlink:href="#aP"/><use transform="matrix(0.06172839506172839,0,0,0.06172839506172839,100.98765432098766,0)" xlink:href="#bh"/></g><g id="y"><use transform="matrix(0.06172839506172839,0,0,0.06172839506172839,0,0)" xlink:href="#aG"/><use transform="matrix(0.06172839506172839,0,0,0.06172839506172839,7.345679012345679,0)" xlink:href="#aN"/><use transform="matrix(0.06172839506172839,0,0,0.06172839506172839,19.691358024691358,0)" xlink:href="#aZ"/><use transform="matrix(0.06172839506172839,0,0,0.06172839506172839,24.5679012345679,0)" xlink:href="#aN"/><use transform="matrix(0.06172839506172839,0,0,0.06172839506172839,36.913580246913575,0)" xlink:href="#aD"/><use transform="matrix(0.06172839506172839,0,0,0.06172839506172839,49.25925925925925,0)" xlink:href="#aO"/><use transform="matrix(0.06172839506172839,0,0,0.06172839506172839,60.37037037037037,0)" xlink:href="#aN"/></g><path fill="#333" d="M206 0h-36l-40-164L89 0H53L-1-190h32L70-26l43-164h34l41 164 42-164h31" id="bi"/><g id="z"><use transform="matrix(0.06172839506172839,0,0,0.06172839506172839,0,0)" xlink:href="#bi"/><use transform="matrix(0.06172839506172839,0,0,0.06172839506172839,15.987654320987653,0)" xlink:href="#bd"/><use transform="matrix(0.06172839506172839,0,0,0.06172839506172839,28.333333333333332,0)" xlink:href="#aP"/><use transform="matrix(0.06172839506172839,0,0,0.06172839506172839,33.20987654320987,0)" xlink:href="#aK"/><use transform="matrix(0.06172839506172839,0,0,0.06172839506172839,44.32098765432099,0)" xlink:href="#bd"/></g><g id="A"><use transform="matrix(0.06172839506172839,0,0,0.06172839506172839,0,0)" xlink:href="#aI"/><use transform="matrix(0.06172839506172839,0,0,0.06172839506172839,12.345679012345679,0)" xlink:href="#aN"/><use transform="matrix(0.06172839506172839,0,0,0.06172839506172839,24.691358024691358,0)" xlink:href="#aY"/><use transform="matrix(0.06172839506172839,0,0,0.06172839506172839,35.80246913580247,0)" xlink:href="#aN"/><use transform="matrix(0.06172839506172839,0,0,0.06172839506172839,48.148148148148145,0)" xlink:href="#aZ"/><use transform="matrix(0.06172839506172839,0,0,0.06172839506172839,53.02469135802469,0)" xlink:href="#aH"/><use transform="matrix(0.06172839506172839,0,0,0.06172839506172839,65.37037037037037,0)" xlink:href="#ba"/><use transform="matrix(0.06172839506172839,0,0,0.06172839506172839,77.71604938271605,0)" xlink:href="#aN"/><use transform="matrix(0.06172839506172839,0,0,0.06172839506172839,90.06172839506173,0)" xlink:href="#aG"/><use transform="matrix(0.06172839506172839,0,0,0.06172839506172839,97.40740740740742,0)" xlink:href="#aO"/></g><g id="B"><use transform="matrix(0.06172839506172839,0,0,0.06172839506172839,0,0)" xlink:href="#aK"/><use transform="matrix(0.06172839506172839,0,0,0.06172839506172839,11.11111111111111,0)" xlink:href="#aZ"/><use transform="matrix(0.06172839506172839,0,0,0.06172839506172839,15.987654320987653,0)" xlink:href="#aH"/><use transform="matrix(0.06172839506172839,0,0,0.06172839506172839,28.333333333333332,0)" xlink:href="#aQ"/><use transform="matrix(0.06172839506172839,0,0,0.06172839506172839,40.67901234567901,0)" xlink:href="#aN"/></g><g id="C"><use transform="matrix(0.06172839506172839,0,0,0.06172839506172839,0,0)" xlink:href="#aL"/><use transform="matrix(0.06172839506172839,0,0,0.06172839506172839,6.172839506172839,0)" xlink:href="#aH"/></g><g id="D"><use transform="matrix(0.06172839506172839,0,0,0.06172839506172839,0,0)" xlink:href="#aL"/><use transform="matrix(0.06172839506172839,0,0,0.06172839506172839,6.172839506172839,0)" xlink:href="#bd"/><use transform="matrix(0.06172839506172839,0,0,0.06172839506172839,18.51851851851852,0)" xlink:href="#aN"/><use transform="matrix(0.06172839506172839,0,0,0.06172839506172839,30.864197530864196,0)" xlink:href="#aP"/><use transform="matrix(0.06172839506172839,0,0,0.06172839506172839,35.74074074074074,0)" xlink:href="#aG"/></g><g id="E"><use transform="matrix(0.06172839506172839,0,0,0.06172839506172839,0,0)" xlink:href="#aP"/><use transform="matrix(0.06172839506172839,0,0,0.06172839506172839,4.876543209876543,0)" xlink:href="#aQ"/><use transform="matrix(0.06172839506172839,0,0,0.06172839506172839,17.22222222222222,0)" xlink:href="#aI"/><use transform="matrix(0.06172839506172839,0,0,0.06172839506172839,29.5679012345679,0)" xlink:href="#aP"/><use transform="matrix(0.06172839506172839,0,0,0.06172839506172839,34.44444444444444,0)" xlink:href="#aY"/><use transform="matrix(0.06172839506172839,0,0,0.06172839506172839,45.55555555555556,0)" xlink:href="#aP"/><use transform="matrix(0.06172839506172839,0,0,0.06172839506172839,50.4320987654321,0)" xlink:href="#aI"/><use transform="matrix(0.06172839506172839,0,0,0.06172839506172839,62.77777777777778,0)" xlink:href="#aJ"/><use transform="matrix(0.06172839506172839,0,0,0.06172839506172839,75.12345679012346,0)" xlink:href="#aD"/><use transform="matrix(0.06172839506172839,0,0,0.06172839506172839,87.46913580246914,0)" xlink:href="#aZ"/></g><path fill="#333" d="M210-169c-67 3-38 105-44 169h-31v-121c0-29-5-50-35-48C34-165 62-65 56 0H25l-1-190h30c1 10-1 24 2 32 10-44 99-50 107 0 11-21 27-35 58-36 85-2 47 119 55 194h-31v-121c0-29-5-49-35-48" id="bj"/><g id="F"><use transform="matrix(0.06172839506172839,0,0,0.06172839506172839,0,0)" xlink:href="#aI"/><use transform="matrix(0.06172839506172839,0,0,0.06172839506172839,12.345679012345679,0)" xlink:href="#aN"/><use transform="matrix(0.06172839506172839,0,0,0.06172839506172839,24.691358024691358,0)" xlink:href="#aY"/><use transform="matrix(0.06172839506172839,0,0,0.06172839506172839,35.80246913580247,0)" xlink:href="#aN"/><use transform="matrix(0.06172839506172839,0,0,0.06172839506172839,48.148148148148145,0)" xlink:href="#aZ"/><use transform="matrix(0.06172839506172839,0,0,0.06172839506172839,53.02469135802469,0)" xlink:href="#aH"/><use transform="matrix(0.06172839506172839,0,0,0.06172839506172839,65.37037037037037,0)" xlink:href="#ba"/><use transform="matrix(0.06172839506172839,0,0,0.06172839506172839,77.71604938271605,0)" xlink:href="#bj"/><use transform="matrix(0.06172839506172839,0,0,0.06172839506172839,96.17283950617283,0)" xlink:href="#aN"/><use transform="matrix(0.06172839506172839,0,0,0.06172839506172839,108.51851851851852,0)" xlink:href="#aQ"/><use transform="matrix(0.06172839506172839,0,0,0.06172839506172839,120.8641975308642,0)" xlink:href="#aL"/></g><g id="G"><use transform="matrix(0.06172839506172839,0,0,0.06172839506172839,0,0)" xlink:href="#aN"/><use transform="matrix(0.06172839506172839,0,0,0.06172839506172839,12.345679012345679,0)" xlink:href="#aQ"/><use transform="matrix(0.06172839506172839,0,0,0.06172839506172839,24.691358024691358,0)" xlink:href="#aY"/><use transform="matrix(0.06172839506172839,0,0,0.06172839506172839,35.80246913580247,0)" xlink:href="#aP"/><use transform="matrix(0.06172839506172839,0,0,0.06172839506172839,40.67901234567901,0)" xlink:href="#aG"/><use transform="matrix(0.06172839506172839,0,0,0.06172839506172839,48.02469135802469,0)" xlink:href="#aH"/><use transform="matrix(0.06172839506172839,0,0,0.06172839506172839,60.37037037037037,0)" xlink:href="#aQ"/><use transform="matrix(0.06172839506172839,0,0,0.06172839506172839,72.71604938271605,0)" xlink:href="#bj"/><use transform="matrix(0.06172839506172839,0,0,0.06172839506172839,91.17283950617283,0)" xlink:href="#aN"/><use transform="matrix(0.06172839506172839,0,0,0.06172839506172839,103.51851851851852,0)" xlink:href="#aQ"/><use transform="matrix(0.06172839506172839,0,0,0.06172839506172839,115.8641975308642,0)" xlink:href="#aL"/><use transform="matrix(0.06172839506172839,0,0,0.06172839506172839,122.03703703703704,0)" xlink:href="#aO"/></g><path fill="#333" d="M33 0v-248h34V0H33" id="bk"/><g id="H"><use transform="matrix(0.06172839506172839,0,0,0.06172839506172839,0,0)" xlink:href="#bk"/><use transform="matrix(0.06172839506172839,0,0,0.06172839506172839,6.172839506172839,0)" xlink:href="#bf"/></g><path fill="#333" d="M179-190L93 31C79 59 56 82 12 73V49c39 6 53-20 64-50L1-190h34L92-34l54-156h33" id="bl"/><g id="I"><use transform="matrix(0.06172839506172839,0,0,0.06172839506172839,0,0)" xlink:href="#aD"/><use transform="matrix(0.06172839506172839,0,0,0.06172839506172839,12.345679012345679,0)" xlink:href="#aQ"/><use transform="matrix(0.06172839506172839,0,0,0.06172839506172839,24.691358024691358,0)" xlink:href="#bl"/></g><g id="J"><use transform="matrix(0.06172839506172839,0,0,0.06172839506172839,0,0)" xlink:href="#aK"/><use transform="matrix(0.06172839506172839,0,0,0.06172839506172839,11.11111111111111,0)" xlink:href="#bd"/><use transform="matrix(0.06172839506172839,0,0,0.06172839506172839,23.45679012345679,0)" xlink:href="#aD"/><use transform="matrix(0.06172839506172839,0,0,0.06172839506172839,35.80246913580247,0)" xlink:href="#aQ"/><use transform="matrix(0.06172839506172839,0,0,0.06172839506172839,48.148148148148145,0)" xlink:href="#aE"/><use transform="matrix(0.06172839506172839,0,0,0.06172839506172839,60.49382716049382,0)" xlink:href="#aN"/><use transform="matrix(0.06172839506172839,0,0,0.06172839506172839,72.8395061728395,0)" xlink:href="#aO"/></g><g id="K"><use transform="matrix(0.06172839506172839,0,0,0.06172839506172839,0,0)" xlink:href="#bd"/><use transform="matrix(0.06172839506172839,0,0,0.06172839506172839,12.345679012345679,0)" xlink:href="#aD"/><use transform="matrix(0.06172839506172839,0,0,0.06172839506172839,24.691358024691358,0)" xlink:href="#aY"/><use transform="matrix(0.06172839506172839,0,0,0.06172839506172839,35.80246913580247,0)" xlink:href="#aN"/></g><g id="L"><use transform="matrix(0.06172839506172839,0,0,0.06172839506172839,0,0)" xlink:href="#be"/><use transform="matrix(0.06172839506172839,0,0,0.06172839506172839,12.345679012345679,0)" xlink:href="#aN"/><use transform="matrix(0.06172839506172839,0,0,0.06172839506172839,24.691358024691358,0)" xlink:href="#aN"/><use transform="matrix(0.06172839506172839,0,0,0.06172839506172839,37.03703703703704,0)" xlink:href="#aQ"/></g><g id="M"><use transform="matrix(0.06172839506172839,0,0,0.06172839506172839,0,0)" xlink:href="#bj"/><use transform="matrix(0.06172839506172839,0,0,0.06172839506172839,18.456790123456788,0)" xlink:href="#aD"/><use transform="matrix(0.06172839506172839,0,0,0.06172839506172839,30.80246913580247,0)" xlink:href="#aI"/><use transform="matrix(0.06172839506172839,0,0,0.06172839506172839,43.148148148148145,0)" xlink:href="#aN"/></g><g id="N"><use transform="matrix(0.06172839506172839,0,0,0.06172839506172839,0,0)" xlink:href="#aL"/><use transform="matrix(0.06172839506172839,0,0,0.06172839506172839,6.172839506172839,0)" xlink:href="#aH"/></g><g id="O"><use transform="matrix(0.06172839506172839,0,0,0.06172839506172839,0,0)" xlink:href="#aL"/><use transform="matrix(0.06172839506172839,0,0,0.06172839506172839,6.172839506172839,0)" xlink:href="#bd"/><use transform="matrix(0.06172839506172839,0,0,0.06172839506172839,18.51851851851852,0)" xlink:href="#aN"/></g><path fill="#333" d="M240 0l2-218c-23 76-54 145-80 218h-23L58-218 59 0H30v-248h44l77 211c21-75 51-140 76-211h43V0h-30" id="bm"/><g id="P"><use transform="matrix(0.06172839506172839,0,0,0.06172839506172839,0,0)" xlink:href="#bm"/><use transform="matrix(0.06172839506172839,0,0,0.06172839506172839,18.456790123456788,0)" xlink:href="#aD"/><use transform="matrix(0.06172839506172839,0,0,0.06172839506172839,30.80246913580247,0)" xlink:href="#aO"/><use transform="matrix(0.06172839506172839,0,0,0.06172839506172839,41.91358024691358,0)" xlink:href="#aL"/><use transform="matrix(0.06172839506172839,0,0,0.06172839506172839,48.086419753086425,0)" xlink:href="#aN"/><use transform="matrix(0.06172839506172839,0,0,0.06172839506172839,60.4320987654321,0)" xlink:href="#aG"/></g><g id="Q"><use transform="matrix(0.06172839506172839,0,0,0.06172839506172839,0,0)" xlink:href="#be"/><use transform="matrix(0.06172839506172839,0,0,0.06172839506172839,12.345679012345679,0)" xlink:href="#aG"/><use transform="matrix(0.06172839506172839,0,0,0.06172839506172839,19.691358024691358,0)" xlink:href="#aD"/><use transform="matrix(0.06172839506172839,0,0,0.06172839506172839,32.03703703703704,0)" xlink:href="#aQ"/><use transform="matrix(0.06172839506172839,0,0,0.06172839506172839,44.382716049382715,0)" xlink:href="#aK"/><use transform="matrix(0.06172839506172839,0,0,0.06172839506172839,55.49382716049382,0)" xlink:href="#bd"/></g><g id="R"><use transform="matrix(0.06172839506172839,0,0,0.06172839506172839,0,0)" xlink:href="#be"/><use transform="matrix(0.06172839506172839,0,0,0.06172839506172839,12.345679012345679,0)" xlink:href="#bl"/></g><g id="S"><use transform="matrix(0.06172839506172839,0,0,0.06172839506172839,0,0)" xlink:href="#aD"/><use transform="matrix(0.06172839506172839,0,0,0.06172839506172839,12.345679012345679,0)" xlink:href="#aQ"/><use transform="matrix(0.06172839506172839,0,0,0.06172839506172839,24.691358024691358,0)" xlink:href="#aH"/><use transform="matrix(0.06172839506172839,0,0,0.06172839506172839,37.03703703703704,0)" xlink:href="#aL"/><use transform="matrix(0.06172839506172839,0,0,0.06172839506172839,43.20987654320988,0)" xlink:href="#bd"/><use transform="matrix(0.06172839506172839,0,0,0.06172839506172839,55.55555555555556,0)" xlink:href="#aN"/><use transform="matrix(0.06172839506172839,0,0,0.06172839506172839,67.90123456790124,0)" xlink:href="#aG"/></g><g id="T"><use transform="matrix(0.06172839506172839,0,0,0.06172839506172839,0,0)" xlink:href="#aL"/><use transform="matrix(0.06172839506172839,0,0,0.06172839506172839,6.172839506172839,0)" xlink:href="#aN"/><use transform="matrix(0.06172839506172839,0,0,0.06172839506172839,18.51851851851852,0)" xlink:href="#aD"/><use transform="matrix(0.06172839506172839,0,0,0.06172839506172839,30.864197530864196,0)" xlink:href="#bj"/></g><g id="U"><use transform="matrix(0.06172839506172839,0,0,0.06172839506172839,0,0)" xlink:href="#aI"/><use transform="matrix(0.06172839506172839,0,0,0.06172839506172839,12.345679012345679,0)" xlink:href="#aJ"/><use transform="matrix(0.06172839506172839,0,0,0.06172839506172839,24.691358024691358,0)" xlink:href="#aG"/><use transform="matrix(0.06172839506172839,0,0,0.06172839506172839,32.03703703703704,0)" xlink:href="#aP"/><use transform="matrix(0.06172839506172839,0,0,0.06172839506172839,36.91358024691358,0)" xlink:href="#aQ"/><use transform="matrix(0.06172839506172839,0,0,0.06172839506172839,49.25925925925926,0)" xlink:href="#aE"/></g><g id="V"><use transform="matrix(0.06172839506172839,0,0,0.06172839506172839,0,0)" xlink:href="#aI"/><use transform="matrix(0.06172839506172839,0,0,0.06172839506172839,12.345679012345679,0)" xlink:href="#aN"/><use transform="matrix(0.06172839506172839,0,0,0.06172839506172839,24.691358024691358,0)" xlink:href="#aY"/><use transform="matrix(0.06172839506172839,0,0,0.06172839506172839,35.80246913580247,0)" xlink:href="#aN"/><use transform="matrix(0.06172839506172839,0,0,0.06172839506172839,48.148148148148145,0)" xlink:href="#aZ"/><use transform="matrix(0.06172839506172839,0,0,0.06172839506172839,53.02469135802469,0)" xlink:href="#aH"/><use transform="matrix(0.06172839506172839,0,0,0.06172839506172839,65.37037037037037,0)" xlink:href="#ba"/><use transform="matrix(0.06172839506172839,0,0,0.06172839506172839,77.71604938271605,0)" xlink:href="#bj"/><use transform="matrix(0.06172839506172839,0,0,0.06172839506172839,96.17283950617283,0)" xlink:href="#aN"/><use transform="matrix(0.06172839506172839,0,0,0.06172839506172839,108.51851851851852,0)" xlink:href="#aQ"/><use transform="matrix(0.06172839506172839,0,0,0.06172839506172839,120.8641975308642,0)" xlink:href="#aL"/></g><g id="W"><use transform="matrix(0.06172839506172839,0,0,0.06172839506172839,0,0)" xlink:href="#ba"/><use transform="matrix(0.06172839506172839,0,0,0.06172839506172839,12.345679012345679,0)" xlink:href="#aJ"/><use transform="matrix(0.06172839506172839,0,0,0.06172839506172839,24.691358024691358,0)" xlink:href="#aZ"/><use transform="matrix(0.06172839506172839,0,0,0.06172839506172839,29.5679012345679,0)" xlink:href="#aZ"/></g><g id="X"><use transform="matrix(0.06172839506172839,0,0,0.06172839506172839,0,0)" xlink:href="#aL"/><use transform="matrix(0.06172839506172839,0,0,0.06172839506172839,6.172839506172839,0)" xlink:href="#bd"/><use transform="matrix(0.06172839506172839,0,0,0.06172839506172839,18.51851851851852,0)" xlink:href="#aH"/><use transform="matrix(0.06172839506172839,0,0,0.06172839506172839,30.864197530864196,0)" xlink:href="#aO"/><use transform="matrix(0.06172839506172839,0,0,0.06172839506172839,41.9753086419753,0)" xlink:href="#aN"/></g><g id="Y"><use transform="matrix(0.06172839506172839,0,0,0.06172839506172839,0,0)" xlink:href="#aI"/><use transform="matrix(0.06172839506172839,0,0,0.06172839506172839,12.345679012345679,0)" xlink:href="#aH"/><use transform="matrix(0.06172839506172839,0,0,0.06172839506172839,24.691358024691358,0)" xlink:href="#bi"/><use transform="matrix(0.06172839506172839,0,0,0.06172839506172839,40.67901234567901,0)" xlink:href="#aQ"/></g><g id="Z"><use transform="matrix(0.06172839506172839,0,0,0.06172839506172839,0,0)" xlink:href="#aV"/><use transform="matrix(0.06172839506172839,0,0,0.06172839506172839,15.987654320987653,0)" xlink:href="#aN"/><use transform="matrix(0.06172839506172839,0,0,0.06172839506172839,28.333333333333332,0)" xlink:href="#aY"/></g><g id="aa"><use transform="matrix(0.06172839506172839,0,0,0.06172839506172839,0,0)" xlink:href="#be"/><use transform="matrix(0.06172839506172839,0,0,0.06172839506172839,12.345679012345679,0)" xlink:href="#aG"/><use transform="matrix(0.06172839506172839,0,0,0.06172839506172839,19.691358024691358,0)" xlink:href="#aD"/><use transform="matrix(0.06172839506172839,0,0,0.06172839506172839,32.03703703703704,0)" xlink:href="#aQ"/><use transform="matrix(0.06172839506172839,0,0,0.06172839506172839,44.382716049382715,0)" xlink:href="#aK"/><use transform="matrix(0.06172839506172839,0,0,0.06172839506172839,55.49382716049382,0)" xlink:href="#bd"/></g><path fill="#333" d="M205 0l-28-72H64L36 0H1l101-248h38L239 0h-34zm-38-99l-47-123c-12 45-31 82-46 123h93" id="bn"/><g id="ab"><use transform="matrix(0.06172839506172839,0,0,0.06172839506172839,0,0)" xlink:href="#bn"/><use transform="matrix(0.06172839506172839,0,0,0.06172839506172839,14.814814814814813,0)" xlink:href="#aQ"/><use transform="matrix(0.06172839506172839,0,0,0.06172839506172839,27.160493827160494,0)" xlink:href="#aI"/></g><g id="ac"><use transform="matrix(0.06172839506172839,0,0,0.06172839506172839,0,0)" xlink:href="#be"/><use transform="matrix(0.06172839506172839,0,0,0.06172839506172839,12.345679012345679,0)" xlink:href="#aN"/><use transform="matrix(0.06172839506172839,0,0,0.06172839506172839,24.691358024691358,0)" xlink:href="#aP"/><use transform="matrix(0.06172839506172839,0,0,0.06172839506172839,29.5679012345679,0)" xlink:href="#aQ"/><use transform="matrix(0.06172839506172839,0,0,0.06172839506172839,41.913580246913575,0)" xlink:href="#aE"/></g><path fill="#333" d="M143 0L79-87 56-68V0H24v-261h32v163l83-92h37l-77 82L181 0h-38" id="bo"/><g id="ad"><use transform="matrix(0.06172839506172839,0,0,0.06172839506172839,0,0)" xlink:href="#bi"/><use transform="matrix(0.06172839506172839,0,0,0.06172839506172839,15.987654320987653,0)" xlink:href="#aH"/><use transform="matrix(0.06172839506172839,0,0,0.06172839506172839,28.333333333333332,0)" xlink:href="#aG"/><use transform="matrix(0.06172839506172839,0,0,0.06172839506172839,35.67901234567901,0)" xlink:href="#bo"/><use transform="matrix(0.06172839506172839,0,0,0.06172839506172839,46.79012345679013,0)" xlink:href="#aN"/><use transform="matrix(0.06172839506172839,0,0,0.06172839506172839,59.135802469135804,0)" xlink:href="#aI"/></g><g id="ae"><use transform="matrix(0.06172839506172839,0,0,0.06172839506172839,0,0)" xlink:href="#aH"/><use transform="matrix(0.06172839506172839,0,0,0.06172839506172839,12.345679012345679,0)" xlink:href="#aQ"/></g><g id="af"><use transform="matrix(0.06172839506172839,0,0,0.06172839506172839,0,0)" xlink:href="#aV"/><use transform="matrix(0.06172839506172839,0,0,0.06172839506172839,15.987654320987653,0)" xlink:href="#aN"/><use transform="matrix(0.06172839506172839,0,0,0.06172839506172839,28.333333333333332,0)" xlink:href="#aY"/><use transform="matrix(0.06172839506172839,0,0,0.06172839506172839,39.44444444444444,0)" xlink:href="#aN"/><use transform="matrix(0.06172839506172839,0,0,0.06172839506172839,51.79012345679012,0)" xlink:href="#aZ"/><use transform="matrix(0.06172839506172839,0,0,0.06172839506172839,56.666666666666664,0)" xlink:href="#aH"/><use transform="matrix(0.06172839506172839,0,0,0.06172839506172839,69.01234567901234,0)" xlink:href="#ba"/><use transform="matrix(0.06172839506172839,0,0,0.06172839506172839,81.35802469135803,0)" xlink:href="#aN"/><use transform="matrix(0.06172839506172839,0,0,0.06172839506172839,93.70370370370371,0)" xlink:href="#aG"/><use transform="matrix(0.06172839506172839,0,0,0.06172839506172839,101.0493827160494,0)" xlink:href="#aO"/></g><g id="ag"><use transform="matrix(0.06172839506172839,0,0,0.06172839506172839,0,0)" xlink:href="#aQ"/><use transform="matrix(0.06172839506172839,0,0,0.06172839506172839,12.345679012345679,0)" xlink:href="#aN"/><use transform="matrix(0.06172839506172839,0,0,0.06172839506172839,24.691358024691358,0)" xlink:href="#aN"/><use transform="matrix(0.06172839506172839,0,0,0.06172839506172839,37.03703703703704,0)" xlink:href="#aI"/></g><g id="ah"><use transform="matrix(0.06172839506172839,0,0,0.06172839506172839,0,0)" xlink:href="#bj"/><use transform="matrix(0.06172839506172839,0,0,0.06172839506172839,18.456790123456788,0)" xlink:href="#aH"/><use transform="matrix(0.06172839506172839,0,0,0.06172839506172839,30.80246913580247,0)" xlink:href="#aQ"/><use transform="matrix(0.06172839506172839,0,0,0.06172839506172839,43.148148148148145,0)" xlink:href="#aP"/><use transform="matrix(0.06172839506172839,0,0,0.06172839506172839,48.02469135802469,0)" xlink:href="#aL"/><use transform="matrix(0.06172839506172839,0,0,0.06172839506172839,54.19753086419753,0)" xlink:href="#aH"/><use transform="matrix(0.06172839506172839,0,0,0.06172839506172839,66.54320987654322,0)" xlink:href="#aG"/></g><g id="ai"><use transform="matrix(0.06172839506172839,0,0,0.06172839506172839,0,0)" xlink:href="#aL"/><use transform="matrix(0.06172839506172839,0,0,0.06172839506172839,6.172839506172839,0)" xlink:href="#bd"/><use transform="matrix(0.06172839506172839,0,0,0.06172839506172839,18.51851851851852,0)" xlink:href="#aN"/></g><g id="aj"><use transform="matrix(0.06172839506172839,0,0,0.06172839506172839,0,0)" xlink:href="#aX"/><use transform="matrix(0.06172839506172839,0,0,0.06172839506172839,13.518518518518517,0)" xlink:href="#aN"/><use transform="matrix(0.06172839506172839,0,0,0.06172839506172839,25.864197530864196,0)" xlink:href="#aD"/><use transform="matrix(0.06172839506172839,0,0,0.06172839506172839,38.20987654320987,0)" xlink:href="#aL"/><use transform="matrix(0.06172839506172839,0,0,0.06172839506172839,44.382716049382715,0)" xlink:href="#aJ"/><use transform="matrix(0.06172839506172839,0,0,0.06172839506172839,56.72839506172839,0)" xlink:href="#aG"/><use transform="matrix(0.06172839506172839,0,0,0.06172839506172839,64.07407407407408,0)" xlink:href="#aN"/><use transform="matrix(0.06172839506172839,0,0,0.06172839506172839,76.41975308641976,0)" xlink:href="#bg"/><use transform="matrix(0.06172839506172839,0,0,0.06172839506172839,82.5925925925926,0)" xlink:href="#aX"/><use transform="matrix(0.06172839506172839,0,0,0.06172839506172839,96.11111111111111,0)" xlink:href="#aP"/><use transform="matrix(0.06172839506172839,0,0,0.06172839506172839,100.98765432098766,0)" xlink:href="#bh"/></g><g id="ak"><use transform="matrix(0.06172839506172839,0,0,0.06172839506172839,0,0)" xlink:href="#aN"/><use transform="matrix(0.06172839506172839,0,0,0.06172839506172839,12.345679012345679,0)" xlink:href="#aQ"/><use transform="matrix(0.06172839506172839,0,0,0.06172839506172839,24.691358024691358,0)" xlink:href="#aO"/><use transform="matrix(0.06172839506172839,0,0,0.06172839506172839,35.80246913580247,0)" xlink:href="#aJ"/><use transform="matrix(0.06172839506172839,0,0,0.06172839506172839,48.148148148148145,0)" xlink:href="#aG"/><use transform="matrix(0.06172839506172839,0,0,0.06172839506172839,55.49382716049382,0)" xlink:href="#aN"/></g><g id="al"><use transform="matrix(0.06172839506172839,0,0,0.06172839506172839,0,0)" xlink:href="#aL"/><use transform="matrix(0.06172839506172839,0,0,0.06172839506172839,6.172839506172839,0)" xlink:href="#bd"/><use transform="matrix(0.06172839506172839,0,0,0.06172839506172839,18.51851851851852,0)" xlink:href="#aN"/><use transform="matrix(0.06172839506172839,0,0,0.06172839506172839,30.864197530864196,0)" xlink:href="#bl"/></g><g id="am"><use transform="matrix(0.06172839506172839,0,0,0.06172839506172839,0,0)" xlink:href="#ba"/><use transform="matrix(0.06172839506172839,0,0,0.06172839506172839,12.345679012345679,0)" xlink:href="#aJ"/><use transform="matrix(0.06172839506172839,0,0,0.06172839506172839,24.691358024691358,0)" xlink:href="#aZ"/><use transform="matrix(0.06172839506172839,0,0,0.06172839506172839,29.5679012345679,0)" xlink:href="#aZ"/></g><g id="an"><use transform="matrix(0.06172839506172839,0,0,0.06172839506172839,0,0)" xlink:href="#aK"/><use transform="matrix(0.06172839506172839,0,0,0.06172839506172839,11.11111111111111,0)" xlink:href="#aH"/><use transform="matrix(0.06172839506172839,0,0,0.06172839506172839,23.45679012345679,0)" xlink:href="#aI"/><use transform="matrix(0.06172839506172839,0,0,0.06172839506172839,35.80246913580247,0)" xlink:href="#aN"/></g><g id="ao"><use transform="matrix(0.06172839506172839,0,0,0.06172839506172839,0,0)" xlink:href="#bi"/><use transform="matrix(0.06172839506172839,0,0,0.06172839506172839,15.987654320987653,0)" xlink:href="#bd"/><use transform="matrix(0.06172839506172839,0,0,0.06172839506172839,28.333333333333332,0)" xlink:href="#aP"/><use transform="matrix(0.06172839506172839,0,0,0.06172839506172839,33.20987654320987,0)" xlink:href="#aZ"/><use transform="matrix(0.06172839506172839,0,0,0.06172839506172839,38.08641975308642,0)" xlink:href="#aN"/></g><g id="ap"><use transform="matrix(0.06172839506172839,0,0,0.06172839506172839,0,0)" xlink:href="#aL"/><use transform="matrix(0.06172839506172839,0,0,0.06172839506172839,6.172839506172839,0)" xlink:href="#bd"/><use transform="matrix(0.06172839506172839,0,0,0.06172839506172839,18.51851851851852,0)" xlink:href="#aN"/><use transform="matrix(0.06172839506172839,0,0,0.06172839506172839,30.864197530864196,0)" xlink:href="#bl"/></g><g id="aq"><use transform="matrix(0.06172839506172839,0,0,0.06172839506172839,0,0)" xlink:href="#bi"/><use transform="matrix(0.06172839506172839,0,0,0.06172839506172839,15.987654320987653,0)" xlink:href="#aH"/><use transform="matrix(0.06172839506172839,0,0,0.06172839506172839,28.333333333333332,0)" xlink:href="#aG"/><use transform="matrix(0.06172839506172839,0,0,0.06172839506172839,35.67901234567901,0)" xlink:href="#bo"/></g><g id="ar"><use transform="matrix(0.06172839506172839,0,0,0.06172839506172839,0,0)" xlink:href="#aH"/><use transform="matrix(0.06172839506172839,0,0,0.06172839506172839,12.345679012345679,0)" xlink:href="#aQ"/></g><g id="as"><use transform="matrix(0.06172839506172839,0,0,0.06172839506172839,0,0)" xlink:href="#aX"/><use transform="matrix(0.06172839506172839,0,0,0.06172839506172839,13.518518518518517,0)" xlink:href="#aN"/><use transform="matrix(0.06172839506172839,0,0,0.06172839506172839,25.864197530864196,0)" xlink:href="#aD"/><use transform="matrix(0.06172839506172839,0,0,0.06172839506172839,38.20987654320987,0)" xlink:href="#aL"/><use transform="matrix(0.06172839506172839,0,0,0.06172839506172839,44.382716049382715,0)" xlink:href="#aJ"/><use transform="matrix(0.06172839506172839,0,0,0.06172839506172839,56.72839506172839,0)" xlink:href="#aG"/><use transform="matrix(0.06172839506172839,0,0,0.06172839506172839,64.07407407407408,0)" xlink:href="#aN"/><use transform="matrix(0.06172839506172839,0,0,0.06172839506172839,76.41975308641976,0)" xlink:href="#bg"/><use transform="matrix(0.06172839506172839,0,0,0.06172839506172839,82.5925925925926,0)" xlink:href="#aX"/><use transform="matrix(0.06172839506172839,0,0,0.06172839506172839,96.11111111111111,0)" xlink:href="#aP"/><use transform="matrix(0.06172839506172839,0,0,0.06172839506172839,100.98765432098766,0)" xlink:href="#bh"/></g><g id="at"><use transform="matrix(0.06172839506172839,0,0,0.06172839506172839,0,0)" xlink:href="#bb"/><use transform="matrix(0.06172839506172839,0,0,0.06172839506172839,15.987654320987653,0)" xlink:href="#bd"/><use transform="matrix(0.06172839506172839,0,0,0.06172839506172839,28.333333333333332,0)" xlink:href="#aD"/><use transform="matrix(0.06172839506172839,0,0,0.06172839506172839,40.67901234567901,0)" xlink:href="#aQ"/><use transform="matrix(0.06172839506172839,0,0,0.06172839506172839,53.02469135802469,0)" xlink:href="#aE"/><use transform="matrix(0.06172839506172839,0,0,0.06172839506172839,65.37037037037037,0)" xlink:href="#aN"/><use transform="matrix(0.06172839506172839,0,0,0.06172839506172839,77.71604938271605,0)" xlink:href="#aO"/></g><g id="au"><use transform="matrix(0.06172839506172839,0,0,0.06172839506172839,0,0)" xlink:href="#aK"/><use transform="matrix(0.06172839506172839,0,0,0.06172839506172839,11.11111111111111,0)" xlink:href="#aD"/><use transform="matrix(0.06172839506172839,0,0,0.06172839506172839,23.45679012345679,0)" xlink:href="#aQ"/></g><g id="av"><use transform="matrix(0.06172839506172839,0,0,0.06172839506172839,0,0)" xlink:href="#be"/><use transform="matrix(0.06172839506172839,0,0,0.06172839506172839,12.345679012345679,0)" xlink:href="#aN"/></g><g id="aw"><use transform="matrix(0.06172839506172839,0,0,0.06172839506172839,0,0)" xlink:href="#bm"/><use transform="matrix(0.06172839506172839,0,0,0.06172839506172839,18.456790123456788,0)" xlink:href="#aD"/><use transform="matrix(0.06172839506172839,0,0,0.06172839506172839,30.80246913580247,0)" xlink:href="#aP"/><use transform="matrix(0.06172839506172839,0,0,0.06172839506172839,35.67901234567901,0)" xlink:href="#aQ"/></g><g id="ax"><use transform="matrix(0.06172839506172839,0,0,0.06172839506172839,0,0)" xlink:href="#aH"/><use transform="matrix(0.06172839506172839,0,0,0.06172839506172839,12.345679012345679,0)" xlink:href="#aL"/><use transform="matrix(0.06172839506172839,0,0,0.06172839506172839,18.51851851851852,0)" xlink:href="#bd"/><use transform="matrix(0.06172839506172839,0,0,0.06172839506172839,30.864197530864196,0)" xlink:href="#aN"/><use transform="matrix(0.06172839506172839,0,0,0.06172839506172839,43.20987654320987,0)" xlink:href="#aG"/></g><g id="ay"><use transform="matrix(0.06172839506172839,0,0,0.06172839506172839,0,0)" xlink:href="#aL"/><use transform="matrix(0.06172839506172839,0,0,0.06172839506172839,6.172839506172839,0)" xlink:href="#aN"/><use transform="matrix(0.06172839506172839,0,0,0.06172839506172839,18.51851851851852,0)" xlink:href="#aD"/><use transform="matrix(0.06172839506172839,0,0,0.06172839506172839,30.864197530864196,0)" xlink:href="#bj"/><use transform="matrix(0.06172839506172839,0,0,0.06172839506172839,49.32098765432099,0)" xlink:href="#aO"/></g><g id="az"><use transform="matrix(0.06172839506172839,0,0,0.06172839506172839,0,0)" xlink:href="#aD"/><use transform="matrix(0.06172839506172839,0,0,0.06172839506172839,12.345679012345679,0)" xlink:href="#aQ"/><use transform="matrix(0.06172839506172839,0,0,0.06172839506172839,24.691358024691358,0)" xlink:href="#aI"/></g><g id="aA"><use transform="matrix(0.06172839506172839,0,0,0.06172839506172839,0,0)" xlink:href="#bj"/><use transform="matrix(0.06172839506172839,0,0,0.06172839506172839,18.456790123456788,0)" xlink:href="#aJ"/><use transform="matrix(0.06172839506172839,0,0,0.06172839506172839,30.80246913580247,0)" xlink:href="#aO"/><use transform="matrix(0.06172839506172839,0,0,0.06172839506172839,41.91358024691358,0)" xlink:href="#aL"/></g><g id="aB"><use transform="matrix(0.06172839506172839,0,0,0.06172839506172839,0,0)" xlink:href="#bj"/><use transform="matrix(0.06172839506172839,0,0,0.06172839506172839,18.456790123456788,0)" xlink:href="#aH"/><use transform="matrix(0.06172839506172839,0,0,0.06172839506172839,30.80246913580247,0)" xlink:href="#aQ"/><use transform="matrix(0.06172839506172839,0,0,0.06172839506172839,43.148148148148145,0)" xlink:href="#aP"/><use transform="matrix(0.06172839506172839,0,0,0.06172839506172839,48.02469135802469,0)" xlink:href="#aL"/><use transform="matrix(0.06172839506172839,0,0,0.06172839506172839,54.19753086419753,0)" xlink:href="#aH"/><use transform="matrix(0.06172839506172839,0,0,0.06172839506172839,66.54320987654322,0)" xlink:href="#aG"/><use transform="matrix(0.06172839506172839,0,0,0.06172839506172839,73.8888888888889,0)" xlink:href="#aN"/><use transform="matrix(0.06172839506172839,0,0,0.06172839506172839,86.23456790123458,0)" xlink:href="#aI"/></g></defs></g></svg>