<svg xmlns="http://www.w3.org/2000/svg" xmlns:xlink="http://www.w3.org/1999/xlink" xmlns:lucid="lucid" width="1382" height="859"><g transform="translate(-3659 -100.00000000000001)" lucid:page-tab-id="5DJIxIVamk_X"><path d="M4404 900l592-1M4404.1 900h-4.1M4995.9 899h4.1M3704 740l1292-1M3704.1 740h-4.1M4995.9 739h4.1M3704 279h1292M3704.1 279h-4.1M4995.9 279h4.1M3704 601.5h1292M3704.1 601.5h-4.1M4995.9 601.5h4.1M3704 442h1292M3704.1 442h-4.1M4995.9 442h4.1" stroke="#5e5e5e" stroke-width="8" fill="none"/><path d="M4400 126c0-3.3 2.7-6 6-6h508c3.3 0 6 2.7 6 6v108.37c0 3.32-2.7 6-6 6h-508c-3.3 0-6-2.68-6-6z" stroke="#000" stroke-opacity="0" stroke-width="3" fill="#fff" fill-opacity="0"/><use xlink:href="#a" transform="matrix(1,0,0,1,4405,125.00000000000001) translate(0 17.77777777777778)"/><use xlink:href="#b" transform="matrix(1,0,0,1,4405,125.00000000000001) translate(73.95061728395062 17.77777777777778)"/><use xlink:href="#c" transform="matrix(1,0,0,1,4405,125.00000000000001) translate(150.4320987654321 17.77777777777778)"/><use xlink:href="#d" transform="matrix(1,0,0,1,4405,125.00000000000001) translate(260.12345679012344 17.77777777777778)"/><use xlink:href="#e" transform="matrix(1,0,0,1,4405,125.00000000000001) translate(284.8148148148148 17.77777777777778)"/><use xlink:href="#d" transform="matrix(1,0,0,1,4405,125.00000000000001) translate(378.45679012345676 17.77777777777778)"/><use xlink:href="#f" transform="matrix(1,0,0,1,4405,125.00000000000001) translate(403.1481481481481 17.77777777777778)"/><use xlink:href="#g" transform="matrix(1,0,0,1,4405,125.00000000000001) translate(0 44.44444444444444)"/><use xlink:href="#c" transform="matrix(1,0,0,1,4405,125.00000000000001) translate(98.64197530864196 44.44444444444444)"/><use xlink:href="#h" transform="matrix(1,0,0,1,4405,125.00000000000001) translate(208.33333333333331 44.44444444444444)"/><use xlink:href="#i" transform="matrix(1,0,0,1,4405,125.00000000000001) translate(221.85185185185185 44.44444444444444)"/><use xlink:href="#j" transform="matrix(1,0,0,1,4405,125.00000000000001) translate(155.74074074074076 71.11111111111111)"/><use xlink:href="#k" transform="matrix(1,0,0,1,4405,125.00000000000001) translate(197.65432098765433 71.11111111111111)"/><use xlink:href="#l" transform="matrix(1,0,0,1,4405,125.00000000000001) translate(280.30864197530866 71.11111111111111)"/><use xlink:href="#m" transform="matrix(1,0,0,1,4405,125.00000000000001) translate(227.8395061728395 97.77777777777777)"/><path d="M4180 445c0 22.1-17.9 40-40 40s-40-17.9-40-40 17.9-40 40-40 40 17.9 40 40z" stroke="#5e5e5e" stroke-width="6" fill="#fff"/><use xlink:href="#n" transform="matrix(1,0,0,1,4105,410) translate(27.006172839506174 39.65277777777778)"/><path d="M4177.6 417l24.67-24.65" stroke="#5e5e5e" stroke-width="8" fill="none"/><path d="M4180.5 419.77l-3.47 3.48-.82-1.46-3.18-4.35-.73-.77 2.55-2.57z" fill="#5e5e5e"/><path d="M4215.2 379.43l-6.82 13.37-6.56-6.56z" stroke="#5e5e5e" stroke-width="8" fill="#5e5e5e"/><path d="M3849 736.46c0 22.1-17.9 40-40 40s-40-17.9-40-40 17.9-40 40-40 40 17.9 40 40z" stroke="#5e5e5e" stroke-width="6" fill="#fff"/><use xlink:href="#o" transform="matrix(1,0,0,1,3774,701.4603825136612) translate(27.592592592592595 39.65277777777778)"/><path d="M3967.96 601c0 22.1-17.9 40-40 40s-40-17.9-40-40 17.9-40 40-40 40 17.9 40 40z" stroke="#5e5e5e" stroke-width="6" fill="#fff"/><path d="M3909 577c0-3.3 2.68-6 6-6h25c3.3 0 6 2.7 6 6v48c0 3.3-2.7 6-6 6h-25c-3.32 0-6-2.7-6-6z" stroke="#000" stroke-opacity="0" stroke-width="3" fill="#fff" fill-opacity="0"/><use xlink:href="#p" transform="matrix(1,0,0,1,3913.9889917309592,576.0000185747631) translate(6.740740740740741 30.27777777777778)"/><path d="M3855 483c0-3.3 2.7-6 6-6h129.96c3.3 0 6 2.7 6 6v78c0 3.3-2.7 6-6 6H3861c-3.3 0-6-2.7-6-6z" stroke="#000" stroke-opacity="0" stroke-width="3" fill="#fff" fill-opacity="0"/><use xlink:href="#j" transform="matrix(1,0,0,1,3860,482) translate(25.351851851851848 30.27777777777778)"/><use xlink:href="#q" transform="matrix(1,0,0,1,3860,482) translate(67.26543209876543 30.27777777777778)"/><use xlink:href="#r" transform="matrix(1,0,0,1,3860,482) translate(3.7469135802469182 56.94444444444445)"/><use xlink:href="#s" transform="matrix(1,0,0,1,3860,482) translate(45.59876543209877 56.94444444444445)"/><use xlink:href="#t" transform="matrix(1,0,0,1,3860,482) translate(115.90740740740739 56.94444444444445)"/><path d="M4032.5 471.75c0 6.5-5.25 11.76-11.75 11.76s-11.75-5.25-11.75-11.75 5.26-11.75 11.75-11.75c6.5 0 11.76 5.26 11.76 11.75zM4032.5 570c0 6.5-5.25 11.75-11.75 11.75S4009 576.5 4009 570c0-6.5 5.26-11.76 11.75-11.76 6.5 0 11.76 5.26 11.76 11.76zM4075.97 548.7c0 6.5-5.26 11.76-11.75 11.76-6.5 0-11.76-5.26-11.76-11.75 0-6.48 5.27-11.75 11.76-11.75 6.5 0 11.75 5.27 11.75 11.76z" stroke="#5e5e5e" stroke-width="6" fill="#fff"/><path d="M4020.75 551.22v-60.7" stroke="#5e5e5e" stroke-width="8" fill="none"/><path d="M4024.75 555.8l-.16-.08-3.85-.5-3.83.5-.17.07v-4.7h8zM4024.75 490.64h-8v-4.68l.17.07 3.83.5 3.84-.5.15-.07z" fill="#5e5e5e"/><path d="M4020.92 509.76l.02.1.34 1.07.4.88.46.77.53.68.6.63.74.6.9.57 1.2.58 1.68.6 3 .66 17 2.66 3.3 1.16 2.63 1.3 2.28 1.45 2.04 1.67 1.88 1.93 1.77 2.3 1.14 1.9M4020.78 509.86l-.25-3.07" stroke="#5e5e5e" stroke-width="6" fill="none"/><path d="M4067.8 534.4l-3.58-.47-3.14.4-.9-1.84 5.38-2.66z" fill="#5e5e5e"/><path d="M4030.74 473c0-3.3 2.7-6 6-6h45.22c3.3 0 6 2.7 6 6v33.17c0 3.3-2.7 6-6 6h-45.22c-3.3 0-6-2.7-6-6z" stroke="#000" stroke-opacity="0" stroke-width="3" fill="#fff" fill-opacity="0"/><use xlink:href="#u" transform="matrix(1,0,0,1,4035.7413479052834,472) translate(9.23456790123457 14.222222222222221)"/><use xlink:href="#v" transform="matrix(1,0,0,1,4035.7413479052834,472) translate(-9.06172839506172 35.55555555555556)"/><path d="M3842.83 697.17l35.1-35.1M3842.9 697.1l-2.9 2.9" stroke="#5e5e5e" stroke-width="8" fill="none"/><path d="M3890.85 649.15l-6.8 13.37-6.57-6.56z" stroke="#5e5e5e" stroke-width="8" fill="#5e5e5e"/><path d="M3880 664.17c0-3.32 2.7-6 6-6h148c3.3 0 6 2.68 6 6v48c0 3.3-2.7 6-6 6h-148c-3.3 0-6-2.7-6-6z" stroke="#000" stroke-opacity="0" stroke-width="3" fill="#fff" fill-opacity="0"/><use xlink:href="#w" transform="matrix(1,0,0,1,3885,663.1665148754837) translate(8.395061728395063 30.27777777777778)"/><use xlink:href="#x" transform="matrix(1,0,0,1,3885,663.1665148754837) translate(78.7037037037037 30.27777777777778)"/><path d="M4247.84 442.07l2.17.1 2.82.27 2.64.36 2.5.44 2.4.53 2.28.6 2.2.7 2.1.75 2.06.83 1.98.9 1.94 1 1.9 1.05 1.84 1.15 1.83 1.23 1.8 1.34 1.78 1.44 1.77 1.55 1.76 1.7 1.77 1.83 1.76 2 1.77 2.17 1.8 2.4 1.78 2.64 1.82 2.92 1.85 3.26 1.87 3.66 1.9 4.14 1.94 4.73 1.97 5.45 2 6.37 2.03 7.54 2.04 9.12 2.04 11.28 2 14.45 1.85 19.6 1.55 29.9 2.8 183.5 1.92 20.18 2.06 14.93 2.1 11.7 2.14 9.48 2.12 7.87 2.08 6.66 2.07 5.72 2.03 4.96 2 4.36 1.97 3.85 1.95 3.44 1.92 3.08 1.9 2.8 1.9 2.53 1.86 2.32 1.88 2.1 1.87 1.96 1.87 1.8 1.9 1.65 1.9 1.54 1.9 1.42 1.96 1.3 1.98 1.23 2.03 1.14 2.07 1.05 2.13.97 2.2.88 2.26.82 2.36.73 2.44.65 2.58.57 2.7.48 2.85.4 3.03.27 1.9.1M4247.94 442.04l-4.1-.04M4395.9 899.95l4.1.05" stroke="#5e5e5e" stroke-width="8" fill="none"/><path d="M4540 899c0 22.1-17.9 40-40 40s-40-17.9-40-40 17.9-40 40-40 40 17.9 40 40z" stroke="#5e5e5e" stroke-width="6" fill="#fff"/><use xlink:href="#y" transform="matrix(1,0,0,1,4465,864) translate(27.006172839506174 39.65277777777778)"/><path d="M4441.93 767.7c0 6.07-4.9 10.98-10.96 10.98-6.06 0-10.97-4.9-10.97-10.97 0-6.04 4.9-10.95 10.97-10.95 6.05 0 10.96 4.9 10.96 10.96zM4441.93 859.37c0 6.05-4.9 10.96-10.96 10.96-6.06 0-10.97-4.9-10.97-10.96 0-6.06 4.9-10.97 10.97-10.97 6.05 0 10.96 4.9 10.96 10.97zM4480 794.3c0 6.05-4.9 10.96-10.97 10.96-6.05 0-10.96-4.9-10.96-10.96 0-6.06 4.9-10.97 10.96-10.97 6.06 0 10.97 4.9 10.97 10.97z" stroke="#5e5e5e" stroke-width="6" fill="#fff"/><path d="M4430.97 841.38V785.7" stroke="#5e5e5e" stroke-width="8" fill="none"/><path d="M4434.97 846l-.38-.15-3.63-.47-3.63.47-.37.16v-4.73h8zM4434.97 785.8h-8v-4.73l.37.16 3.63.47 3.62-.47.37-.16z" fill="#5e5e5e"/><path d="M4468.76 811.27l-.2.97-.43 1.3-.52 1.06-.6.9-.7.82-.85.75-1.07.7-1.42.7-2.12.72-4.4.83-12.84 1.88-2.84.97-2.04 1-1.62 1.1-1.36 1.2-1.2 1.35-1.04 1.6-.95 1.93-.84 2.48-.64 3.36-.1 1.37" stroke="#5e5e5e" stroke-width="6" fill="none"/><path d="M4471.84 811.55l-6-.37.2-3.28 3 .4 3.02-.4z" fill="#5e5e5e"/><path d="M4430.97 838.2l-.2 3.06" stroke="#5e5e5e" stroke-width="6" fill="none"/><path d="M4320 789.75c0-3.32 2.7-6 6-6h88c3.3 0 6 2.68 6 6v51.33c0 3.3-2.7 6-6 6h-88c-3.3 0-6-2.7-6-6z" stroke="#000" stroke-opacity="0" stroke-width="3" fill="#fff" fill-opacity="0"/><use xlink:href="#z" transform="matrix(1,0,0,1,4325,788.7471264367817) translate(11.728395061728392 17.77777777777778)"/><use xlink:href="#A" transform="matrix(1,0,0,1,4325,788.7471264367817) translate(9.845679012345677 44.44444444444444)"/><path d="M4694 280c0 22.1-17.9 40-40 40s-40-17.9-40-40 17.9-40 40-40 40 17.9 40 40z" stroke="#999" stroke-width="6" fill="#ffc374"/><use xlink:href="#B" transform="matrix(1,0,0,1,4619,245) translate(25.771604938271608 39.65277777777778)"/><path d="M4563.5 311.75c0 6.5-5.25 11.76-11.75 11.76s-11.75-5.25-11.75-11.75 5.26-11.75 11.75-11.75c6.5 0 11.76 5.26 11.76 11.75zM4563.5 410c0 6.5-5.25 11.75-11.75 11.75S4540 416.5 4540 410c0-6.5 5.26-11.76 11.75-11.76 6.5 0 11.76 5.26 11.76 11.76zM4606.97 388.7c0 6.5-5.26 11.76-11.75 11.76-6.5 0-11.76-5.26-11.76-11.75 0-6.48 5.27-11.75 11.76-11.75 6.5 0 11.75 5.27 11.75 11.76z" stroke="#5e5e5e" stroke-width="6" fill="#fff"/><path d="M4551.75 391.22v-60.7" stroke="#5e5e5e" stroke-width="8" fill="none"/><path d="M4555.75 395.8l-.16-.08-3.85-.5-3.83.5-.17.07v-4.7h8zM4555.75 330.64h-8v-4.68l.17.07 3.83.5 3.84-.5.15-.07z" fill="#5e5e5e"/><path d="M4551.92 349.76l.02.1.34 1.07.4.88.46.77.53.68.6.63.74.6.9.57 1.2.58 1.68.6 3 .66 17 2.66 3.3 1.16 2.63 1.3 2.28 1.45 2.04 1.67 1.88 1.93 1.77 2.3 1.14 1.9M4551.78 349.86l-.25-3.07" stroke="#5e5e5e" stroke-width="6" fill="none"/><path d="M4598.8 374.4l-3.58-.47-3.14.4-.9-1.84 5.38-2.66z" fill="#5e5e5e"/><path d="M4561.74 313c0-3.3 2.7-6 6-6h45.22c3.3 0 6 2.7 6 6v33.17c0 3.3-2.7 6-6 6h-45.22c-3.3 0-6-2.7-6-6z" stroke="#000" stroke-opacity="0" stroke-width="3" fill="#fff" fill-opacity="0"/><g><use xlink:href="#u" transform="matrix(1,0,0,1,4566.741347905284,312) translate(9.23456790123457 14.222222222222221)"/><use xlink:href="#v" transform="matrix(1,0,0,1,4566.741347905284,312) translate(-9.06172839506172 35.55555555555556)"/></g><path d="M4501.1 852.15l149.1-522.26" stroke="#5e5e5e" stroke-width="8" fill="none"/><path d="M4504.97 853.15l-.88 3.1-4.06-.25-3.16.1-1.1.16 1.5-5.3z" fill="#5e5e5e"/><path d="M4655.1 349.8l-5.06-19.35-14.52 13.76" stroke="#5e5e5e" stroke-width="8" fill="none"/><path d="M4348 320c17.67 0 32 14.18 32 31.67 0 17.5-14.33 31.66-32 31.66h-96c-17.67 0-32-14.17-32-31.66 0-17.5 14.33-31.67 32-31.67z" stroke="#5e5e5e" stroke-width="3" fill="#ffc374"/><g><use xlink:href="#C" transform="matrix(1,0,0,1,4225,325) translate(30.320987654320994 33.05555555555556)"/></g><path d="M3820 279c0 22.1-17.9 40-40 40s-40-17.9-40-40 17.9-40 40-40 40 17.9 40 40z" stroke="#999" stroke-width="6" fill="#ffc374"/><g><use xlink:href="#B" transform="matrix(1,0,0,1,3745,244) translate(25.771604938271608 39.65277777777778)"/></g><path d="M4260 740c0 22.1-17.9 40-40 40s-40-17.9-40-40 17.9-40 40-40 40 17.9 40 40z" stroke="#5e5e5e" stroke-width="6" fill="#fff"/><g><use xlink:href="#o" transform="matrix(1,0,0,1,4185,705) translate(27.592592592592595 39.65277777777778)"/></g><path d="M4042 718.17h56M4042.05 718.17H4040M4097.95 718.17h2.05M4070 640.17v62.36M4070 640.22v-2.05M4059.82 685.02l10.18 17.22 10.18-17.22" stroke="#5e5e5e" stroke-width="4" fill="none"/><path d="M4094 664.17c0-3.32 2.7-6 6-6h88c3.3 0 6 2.68 6 6v48c0 3.3-2.7 6-6 6h-88c-3.3 0-6-2.7-6-6z" stroke="#000" stroke-opacity="0" stroke-width="3" fill="#fff" fill-opacity="0"/><g><use xlink:href="#D" transform="matrix(1,0,0,1,4099,663.1665148754837) translate(26.54320987654321 17.77777777777778)"/><use xlink:href="#E" transform="matrix(1,0,0,1,4099,663.1665148754837) translate(0.5864197530864175 44.44444444444444)"/></g><path d="M4130 801.67c0-3.32 2.7-6 6-6h168c3.3 0 6 2.68 6 6V853c0 3.3-2.7 6-6 6h-168c-3.3 0-6-2.7-6-6z" stroke="#000" stroke-opacity="0" stroke-width="3" fill="#fff" fill-opacity="0"/><g><use xlink:href="#j" transform="matrix(1,0,0,1,4135,800.6666666666666) translate(44.35185185185185 17.77777777777778)"/><use xlink:href="#q" transform="matrix(1,0,0,1,4135,800.6666666666666) translate(86.26543209876543 17.77777777777778)"/><use xlink:href="#F" transform="matrix(1,0,0,1,4135,800.6666666666666) translate(16.574074074074076 44.44444444444444)"/><use xlink:href="#G" transform="matrix(1,0,0,1,4135,800.6666666666666) translate(63.42592592592593 44.44444444444444)"/><use xlink:href="#t" transform="matrix(1,0,0,1,4135,800.6666666666666) translate(141.08024691358025 44.44444444444444)"/></g><defs><path fill="#333" d="M240 0l2-218c-23 76-54 145-80 218h-23L58-218 59 0H30v-248h44l77 211c21-75 51-140 76-211h43V0h-30" id="H"/><path fill="#333" d="M141-36C126-15 110 5 73 4 37 3 15-17 15-53c-1-64 63-63 125-63 3-35-9-54-41-54-24 1-41 7-42 31l-33-3c5-37 33-52 76-52 45 0 72 20 72 64v82c-1 20 7 32 28 27v20c-31 9-61-2-59-35zM48-53c0 20 12 33 32 33 41-3 63-29 60-74-43 2-92-5-92 41" id="I"/><path fill="#333" d="M135-143c-3-34-86-38-87 0 15 53 115 12 119 90S17 21 10-45l28-5c4 36 97 45 98 0-10-56-113-15-118-90-4-57 82-63 122-42 12 7 21 19 24 35" id="J"/><path fill="#333" d="M59-47c-2 24 18 29 38 22v24C64 9 27 4 27-40v-127H5v-23h24l9-43h21v43h35v23H59v120" id="K"/><path fill="#333" d="M100-194c63 0 86 42 84 106H49c0 40 14 67 53 68 26 1 43-12 49-29l28 8c-11 28-37 45-77 45C44 4 14-33 15-96c1-61 26-98 85-98zm52 81c6-60-76-77-97-28-3 7-6 17-6 28h103" id="L"/><path fill="#333" d="M114-163C36-179 61-72 57 0H25l-1-190h30c1 12-1 29 2 39 6-27 23-49 58-41v29" id="M"/><g id="a"><use transform="matrix(0.06172839506172839,0,0,0.06172839506172839,0,0)" xlink:href="#H"/><use transform="matrix(0.06172839506172839,0,0,0.06172839506172839,18.456790123456788,0)" xlink:href="#I"/><use transform="matrix(0.06172839506172839,0,0,0.06172839506172839,30.80246913580247,0)" xlink:href="#J"/><use transform="matrix(0.06172839506172839,0,0,0.06172839506172839,41.91358024691358,0)" xlink:href="#K"/><use transform="matrix(0.06172839506172839,0,0,0.06172839506172839,48.086419753086425,0)" xlink:href="#L"/><use transform="matrix(0.06172839506172839,0,0,0.06172839506172839,60.4320987654321,0)" xlink:href="#M"/></g><path fill="#333" d="M160-131c35 5 61 23 61 61C221 17 115-2 30 0v-248c76 3 177-17 177 60 0 33-19 50-47 57zm-97-11c50-1 110 9 110-42 0-47-63-36-110-37v79zm0 115c55-2 124 14 124-45 0-56-70-42-124-44v89" id="N"/><path fill="#333" d="M117-194c89-4 53 116 60 194h-32v-121c0-31-8-49-39-48C34-167 62-67 57 0H25l-1-190h30c1 10-1 24 2 32 11-22 29-35 61-36" id="O"/><path fill="#333" d="M96-169c-40 0-48 33-48 73s9 75 48 75c24 0 41-14 43-38l32 2c-6 37-31 61-74 61-59 0-76-41-82-99-10-93 101-131 147-64 4 7 5 14 7 22l-32 3c-4-21-16-35-41-35" id="P"/><path fill="#333" d="M106-169C34-169 62-67 57 0H25v-261h32l-1 103c12-21 28-36 61-36 89 0 53 116 60 194h-32v-121c2-32-8-49-39-48" id="Q"/><g id="b"><use transform="matrix(0.06172839506172839,0,0,0.06172839506172839,0,0)" xlink:href="#N"/><use transform="matrix(0.06172839506172839,0,0,0.06172839506172839,14.814814814814813,0)" xlink:href="#M"/><use transform="matrix(0.06172839506172839,0,0,0.06172839506172839,22.160493827160494,0)" xlink:href="#I"/><use transform="matrix(0.06172839506172839,0,0,0.06172839506172839,34.50617283950617,0)" xlink:href="#O"/><use transform="matrix(0.06172839506172839,0,0,0.06172839506172839,46.85185185185185,0)" xlink:href="#P"/><use transform="matrix(0.06172839506172839,0,0,0.06172839506172839,57.96296296296296,0)" xlink:href="#Q"/></g><path fill="#333" d="M137 0h-34L2-248h35l83 218 83-218h36" id="R"/><path fill="#333" d="M24-231v-30h32v30H24zM24 0v-190h32V0H24" id="S"/><path fill="#333" d="M100-194c62-1 85 37 85 99 1 63-27 99-86 99S16-35 15-95c0-66 28-99 85-99zM99-20c44 1 53-31 53-75 0-43-8-75-51-75s-53 32-53 75 10 74 51 75" id="T"/><path fill="#333" d="M177-190C167-65 218 103 67 71c-23-6-38-20-44-43l32-5c15 47 100 32 89-28v-30C133-14 115 1 83 1 29 1 15-40 15-95c0-56 16-97 71-98 29-1 48 16 59 35 1-10 0-23 2-32h30zM94-22c36 0 50-32 50-73 0-42-14-75-50-75-39 0-46 34-46 75s6 73 46 73" id="U"/><g id="c"><use transform="matrix(0.06172839506172839,0,0,0.06172839506172839,0,0)" xlink:href="#R"/><use transform="matrix(0.06172839506172839,0,0,0.06172839506172839,13.580246913580245,0)" xlink:href="#L"/><use transform="matrix(0.06172839506172839,0,0,0.06172839506172839,25.925925925925924,0)" xlink:href="#M"/><use transform="matrix(0.06172839506172839,0,0,0.06172839506172839,33.2716049382716,0)" xlink:href="#J"/><use transform="matrix(0.06172839506172839,0,0,0.06172839506172839,44.38271604938271,0)" xlink:href="#S"/><use transform="matrix(0.06172839506172839,0,0,0.06172839506172839,49.25925925925925,0)" xlink:href="#T"/><use transform="matrix(0.06172839506172839,0,0,0.06172839506172839,61.60493827160493,0)" xlink:href="#O"/><use transform="matrix(0.06172839506172839,0,0,0.06172839506172839,73.9506172839506,0)" xlink:href="#S"/><use transform="matrix(0.06172839506172839,0,0,0.06172839506172839,78.82716049382715,0)" xlink:href="#O"/><use transform="matrix(0.06172839506172839,0,0,0.06172839506172839,91.17283950617283,0)" xlink:href="#U"/></g><g id="d"><use transform="matrix(0.06172839506172839,0,0,0.06172839506172839,0,0)" xlink:href="#K"/><use transform="matrix(0.06172839506172839,0,0,0.06172839506172839,6.172839506172839,0)" xlink:href="#T"/></g><path fill="#333" d="M101-234c-31-9-42 10-38 44h38v23H63V0H32v-167H5v-23h27c-7-52 17-82 69-68v24" id="V"/><path fill="#333" d="M210-169c-67 3-38 105-44 169h-31v-121c0-29-5-50-35-48C34-165 62-65 56 0H25l-1-190h30c1 10-1 24 2 32 10-44 99-50 107 0 11-21 27-35 58-36 85-2 47 119 55 194h-31v-121c0-29-5-49-35-48" id="W"/><g id="e"><use transform="matrix(0.06172839506172839,0,0,0.06172839506172839,0,0)" xlink:href="#P"/><use transform="matrix(0.06172839506172839,0,0,0.06172839506172839,11.11111111111111,0)" xlink:href="#T"/><use transform="matrix(0.06172839506172839,0,0,0.06172839506172839,23.45679012345679,0)" xlink:href="#M"/><use transform="matrix(0.06172839506172839,0,0,0.06172839506172839,30.80246913580247,0)" xlink:href="#O"/><use transform="matrix(0.06172839506172839,0,0,0.06172839506172839,43.148148148148145,0)" xlink:href="#V"/><use transform="matrix(0.06172839506172839,0,0,0.06172839506172839,49.32098765432099,0)" xlink:href="#T"/><use transform="matrix(0.06172839506172839,0,0,0.06172839506172839,61.666666666666664,0)" xlink:href="#M"/><use transform="matrix(0.06172839506172839,0,0,0.06172839506172839,69.01234567901234,0)" xlink:href="#W"/></g><path fill="#333" d="M185-189c-5-48-123-54-124 2 14 75 158 14 163 119 3 78-121 87-175 55-17-10-28-26-33-46l33-7c5 56 141 63 141-1 0-78-155-14-162-118-5-82 145-84 179-34 5 7 8 16 11 25" id="X"/><path fill="#333" d="M85-194c31 0 48 13 60 33l-1-100h32l1 261h-30c-2-10 0-23-3-31C134-8 116 4 85 4 32 4 16-35 15-94c0-66 23-100 70-100zm9 24c-40 0-46 34-46 75 0 40 6 74 45 74 42 0 51-32 51-76 0-42-9-74-50-73" id="Y"/><g id="f"><use transform="matrix(0.06172839506172839,0,0,0.06172839506172839,0,0)" xlink:href="#X"/><use transform="matrix(0.06172839506172839,0,0,0.06172839506172839,14.814814814814813,0)" xlink:href="#K"/><use transform="matrix(0.06172839506172839,0,0,0.06172839506172839,20.98765432098765,0)" xlink:href="#I"/><use transform="matrix(0.06172839506172839,0,0,0.06172839506172839,33.33333333333333,0)" xlink:href="#O"/><use transform="matrix(0.06172839506172839,0,0,0.06172839506172839,45.679012345679006,0)" xlink:href="#Y"/><use transform="matrix(0.06172839506172839,0,0,0.06172839506172839,58.02469135802468,0)" xlink:href="#I"/><use transform="matrix(0.06172839506172839,0,0,0.06172839506172839,70.37037037037037,0)" xlink:href="#M"/><use transform="matrix(0.06172839506172839,0,0,0.06172839506172839,77.71604938271605,0)" xlink:href="#Y"/></g><g id="g"><use transform="matrix(0.06172839506172839,0,0,0.06172839506172839,0,0)" xlink:href="#X"/><use transform="matrix(0.06172839506172839,0,0,0.06172839506172839,14.814814814814813,0)" xlink:href="#L"/><use transform="matrix(0.06172839506172839,0,0,0.06172839506172839,27.160493827160494,0)" xlink:href="#W"/><use transform="matrix(0.06172839506172839,0,0,0.06172839506172839,45.61728395061728,0)" xlink:href="#I"/><use transform="matrix(0.06172839506172839,0,0,0.06172839506172839,57.962962962962955,0)" xlink:href="#O"/><use transform="matrix(0.06172839506172839,0,0,0.06172839506172839,70.30864197530863,0)" xlink:href="#K"/><use transform="matrix(0.06172839506172839,0,0,0.06172839506172839,76.48148148148147,0)" xlink:href="#S"/><use transform="matrix(0.06172839506172839,0,0,0.06172839506172839,81.35802469135801,0)" xlink:href="#P"/></g><path fill="#333" d="M16-82v-28h88v28H16" id="Z"/><use transform="matrix(0.06172839506172839,0,0,0.06172839506172839,0,0)" xlink:href="#Z" id="h"/><path fill="#333" d="M115-194c55 1 70 41 70 98S169 2 115 4C84 4 66-9 55-30l1 105H24l-1-265h31l2 30c10-21 28-34 59-34zm-8 174c40 0 45-34 45-75s-6-73-45-74c-42 0-51 32-51 76 0 43 10 73 51 73" id="aa"/><path fill="#333" d="M33-154v-36h34v36H33zM33 0v-36h34V0H33" id="ab"/><path fill="#333" d="M0 4l72-265h28L28 4H0" id="ac"/><path fill="#333" d="M108 0H70L1-190h34L89-25l56-165h34" id="ad"/><path fill="#333" d="M33 0v-38h34V0H33" id="ae"/><g id="i"><use transform="matrix(0.06172839506172839,0,0,0.06172839506172839,0,0)" xlink:href="#Q"/><use transform="matrix(0.06172839506172839,0,0,0.06172839506172839,12.345679012345679,0)" xlink:href="#K"/><use transform="matrix(0.06172839506172839,0,0,0.06172839506172839,18.51851851851852,0)" xlink:href="#K"/><use transform="matrix(0.06172839506172839,0,0,0.06172839506172839,24.691358024691358,0)" xlink:href="#aa"/><use transform="matrix(0.06172839506172839,0,0,0.06172839506172839,37.03703703703704,0)" xlink:href="#J"/><use transform="matrix(0.06172839506172839,0,0,0.06172839506172839,48.14814814814815,0)" xlink:href="#ab"/><use transform="matrix(0.06172839506172839,0,0,0.06172839506172839,54.320987654320994,0)" xlink:href="#ac"/><use transform="matrix(0.06172839506172839,0,0,0.06172839506172839,60.49382716049384,0)" xlink:href="#ac"/><use transform="matrix(0.06172839506172839,0,0,0.06172839506172839,66.66666666666667,0)" xlink:href="#J"/><use transform="matrix(0.06172839506172839,0,0,0.06172839506172839,77.77777777777779,0)" xlink:href="#L"/><use transform="matrix(0.06172839506172839,0,0,0.06172839506172839,90.12345679012347,0)" xlink:href="#W"/><use transform="matrix(0.06172839506172839,0,0,0.06172839506172839,108.58024691358025,0)" xlink:href="#ad"/><use transform="matrix(0.06172839506172839,0,0,0.06172839506172839,119.69135802469137,0)" xlink:href="#L"/><use transform="matrix(0.06172839506172839,0,0,0.06172839506172839,132.03703703703704,0)" xlink:href="#M"/><use transform="matrix(0.06172839506172839,0,0,0.06172839506172839,138.14814814814815,0)" xlink:href="#ae"/><use transform="matrix(0.06172839506172839,0,0,0.06172839506172839,144.320987654321,0)" xlink:href="#T"/><use transform="matrix(0.06172839506172839,0,0,0.06172839506172839,156.66666666666666,0)" xlink:href="#M"/><use transform="matrix(0.06172839506172839,0,0,0.06172839506172839,164.01234567901233,0)" xlink:href="#U"/><use transform="matrix(0.06172839506172839,0,0,0.06172839506172839,176.358024691358,0)" xlink:href="#ac"/></g><path fill="#333" d="M127-220V0H93v-220H8v-28h204v28h-85" id="af"/><g id="j"><use transform="matrix(0.06172839506172839,0,0,0.06172839506172839,0,0)" xlink:href="#af"/><use transform="matrix(0.06172839506172839,0,0,0.06172839506172839,11.049382716049381,0)" xlink:href="#I"/><use transform="matrix(0.06172839506172839,0,0,0.06172839506172839,23.39506172839506,0)" xlink:href="#U"/></g><path fill="#333" d="M30-248c87 1 191-15 191 75 0 78-77 80-158 76V0H30v-248zm33 125c57 0 124 11 124-50 0-59-68-47-124-48v98" id="ag"/><path fill="#333" d="M84 4C-5 8 30-112 23-190h32v120c0 31 7 50 39 49 72-2 45-101 50-169h31l1 190h-30c-1-10 1-25-2-33-11 22-28 36-60 37" id="ah"/><g id="k"><use transform="matrix(0.06172839506172839,0,0,0.06172839506172839,0,0)" xlink:href="#ag"/><use transform="matrix(0.06172839506172839,0,0,0.06172839506172839,14.814814814814813,0)" xlink:href="#M"/><use transform="matrix(0.06172839506172839,0,0,0.06172839506172839,22.160493827160494,0)" xlink:href="#T"/><use transform="matrix(0.06172839506172839,0,0,0.06172839506172839,34.50617283950617,0)" xlink:href="#Y"/><use transform="matrix(0.06172839506172839,0,0,0.06172839506172839,46.85185185185185,0)" xlink:href="#ah"/><use transform="matrix(0.06172839506172839,0,0,0.06172839506172839,59.197530864197525,0)" xlink:href="#P"/><use transform="matrix(0.06172839506172839,0,0,0.06172839506172839,70.30864197530863,0)" xlink:href="#K"/></g><g id="l"><use transform="matrix(0.06172839506172839,0,0,0.06172839506172839,0,0)" xlink:href="#R"/><use transform="matrix(0.06172839506172839,0,0,0.06172839506172839,13.580246913580245,0)" xlink:href="#L"/><use transform="matrix(0.06172839506172839,0,0,0.06172839506172839,25.925925925925924,0)" xlink:href="#M"/><use transform="matrix(0.06172839506172839,0,0,0.06172839506172839,33.2716049382716,0)" xlink:href="#J"/><use transform="matrix(0.06172839506172839,0,0,0.06172839506172839,44.38271604938271,0)" xlink:href="#S"/><use transform="matrix(0.06172839506172839,0,0,0.06172839506172839,49.25925925925925,0)" xlink:href="#T"/><use transform="matrix(0.06172839506172839,0,0,0.06172839506172839,61.60493827160493,0)" xlink:href="#O"/></g><path fill="#333" d="M27 0v-27h64v-190l-56 39v-29l58-41h29v221h61V0H27" id="ai"/><path fill="#333" d="M195 0l-74-108L45 0H8l94-129-87-119h37l69 98 67-98h37l-84 118L233 0h-38" id="aj"/><g id="m"><use transform="matrix(0.06172839506172839,0,0,0.06172839506172839,0,0)" xlink:href="#ai"/><use transform="matrix(0.06172839506172839,0,0,0.06172839506172839,12.345679012345679,0)" xlink:href="#ae"/><use transform="matrix(0.06172839506172839,0,0,0.06172839506172839,18.51851851851852,0)" xlink:href="#aj"/><use transform="matrix(0.06172839506172839,0,0,0.06172839506172839,33.33333333333333,0)" xlink:href="#ae"/><use transform="matrix(0.06172839506172839,0,0,0.06172839506172839,39.50617283950617,0)" xlink:href="#aj"/></g><path fill="#333" d="M30-248c118-7 216 8 213 122C240-48 200 0 122 0H30v-248zM63-27c89 8 146-16 146-99s-60-101-146-95v194" id="ak"/><use transform="matrix(0.06172839506172839,0,0,0.06172839506172839,0,0)" xlink:href="#ak" id="n"/><use transform="matrix(0.06172839506172839,0,0,0.06172839506172839,0,0)" xlink:href="#X" id="o"/><path fill="#333" d="M63-220v92h138v28H63V0H30v-248h175v28H63" id="al"/><use transform="matrix(0.06172839506172839,0,0,0.06172839506172839,0,0)" xlink:href="#al" id="p"/><path fill="#333" d="M206 0h-36l-40-164L89 0H53L-1-190h32L70-26l43-164h34l41 164 42-164h31" id="am"/><g id="q"><use transform="matrix(0.06172839506172839,0,0,0.06172839506172839,0,0)" xlink:href="#am"/><use transform="matrix(0.06172839506172839,0,0,0.06172839506172839,15.987654320987653,0)" xlink:href="#S"/><use transform="matrix(0.06172839506172839,0,0,0.06172839506172839,20.864197530864196,0)" xlink:href="#K"/><use transform="matrix(0.06172839506172839,0,0,0.06172839506172839,27.037037037037035,0)" xlink:href="#Q"/></g><path fill="#333" d="M153-248C145-148 188 4 80 4 36 3 13-21 6-62l32-5c4 25 16 42 43 43 27 0 39-20 39-49v-147H72v-28h81" id="an"/><g id="r"><use transform="matrix(0.06172839506172839,0,0,0.06172839506172839,0,0)" xlink:href="#an"/><use transform="matrix(0.06172839506172839,0,0,0.06172839506172839,11.11111111111111,0)" xlink:href="#S"/><use transform="matrix(0.06172839506172839,0,0,0.06172839506172839,15.987654320987653,0)" xlink:href="#M"/><use transform="matrix(0.06172839506172839,0,0,0.06172839506172839,23.333333333333332,0)" xlink:href="#I"/></g><g id="s"><use transform="matrix(0.06172839506172839,0,0,0.06172839506172839,0,0)" xlink:href="#ak"/><use transform="matrix(0.06172839506172839,0,0,0.06172839506172839,15.987654320987653,0)" xlink:href="#L"/><use transform="matrix(0.06172839506172839,0,0,0.06172839506172839,28.333333333333332,0)" xlink:href="#V"/><use transform="matrix(0.06172839506172839,0,0,0.06172839506172839,34.50617283950617,0)" xlink:href="#L"/><use transform="matrix(0.06172839506172839,0,0,0.06172839506172839,46.85185185185185,0)" xlink:href="#P"/><use transform="matrix(0.06172839506172839,0,0,0.06172839506172839,57.96296296296296,0)" xlink:href="#K"/></g><path fill="#333" d="M158-156l-14 65h45v19h-49L124 0h-19l15-72H56L41 0H22l15-72H2v-19h39l14-65H11v-19h48l15-71h20l-16 71h64l16-71h19l-16 71h37v19h-40zm-83 0L61-91h63l14-65H75" id="ao"/><use transform="matrix(0.06172839506172839,0,0,0.06172839506172839,0,0)" xlink:href="#ao" id="t"/><path fill="#333" d="M24 0v-261h32V0H24" id="ap"/><g id="u"><use transform="matrix(0.049382716049382706,0,0,0.049382716049382706,0,0)" xlink:href="#ag"/><use transform="matrix(0.049382716049382706,0,0,0.049382716049382706,11.85185185185185,0)" xlink:href="#ah"/><use transform="matrix(0.049382716049382706,0,0,0.049382716049382706,21.728395061728392,0)" xlink:href="#ap"/><use transform="matrix(0.049382716049382706,0,0,0.049382716049382706,25.629629629629626,0)" xlink:href="#ap"/></g><path fill="#333" d="M233-177c-1 41-23 64-60 70L243 0h-38l-65-103H63V0H30v-248c88 3 205-21 203 71zM63-129c60-2 137 13 137-47 0-61-80-42-137-45v92" id="aq"/><path fill="#333" d="M145-31C134-9 116 4 85 4 32 4 16-35 15-94c0-59 17-99 70-100 32-1 48 14 60 33 0-11-1-24 2-32h30l-1 268h-32zM93-21c41 0 51-33 51-76s-8-73-50-73c-40 0-46 35-46 75s5 74 45 74" id="ar"/><g id="v"><use transform="matrix(0.049382716049382706,0,0,0.049382716049382706,0,0)" xlink:href="#aq"/><use transform="matrix(0.049382716049382706,0,0,0.049382716049382706,12.790123456790122,0)" xlink:href="#L"/><use transform="matrix(0.049382716049382706,0,0,0.049382716049382706,22.666666666666664,0)" xlink:href="#ar"/><use transform="matrix(0.049382716049382706,0,0,0.049382716049382706,32.5432098765432,0)" xlink:href="#ah"/><use transform="matrix(0.049382716049382706,0,0,0.049382716049382706,42.419753086419746,0)" xlink:href="#L"/><use transform="matrix(0.049382716049382706,0,0,0.049382716049382706,52.29629629629628,0)" xlink:href="#J"/><use transform="matrix(0.049382716049382706,0,0,0.049382716049382706,61.185185185185176,0)" xlink:href="#K"/></g><g id="w"><use transform="matrix(0.06172839506172839,0,0,0.06172839506172839,0,0)" xlink:href="#ak"/><use transform="matrix(0.06172839506172839,0,0,0.06172839506172839,15.987654320987653,0)" xlink:href="#L"/><use transform="matrix(0.06172839506172839,0,0,0.06172839506172839,28.333333333333332,0)" xlink:href="#V"/><use transform="matrix(0.06172839506172839,0,0,0.06172839506172839,34.50617283950617,0)" xlink:href="#L"/><use transform="matrix(0.06172839506172839,0,0,0.06172839506172839,46.85185185185185,0)" xlink:href="#P"/><use transform="matrix(0.06172839506172839,0,0,0.06172839506172839,57.96296296296296,0)" xlink:href="#K"/></g><g id="x"><use transform="matrix(0.06172839506172839,0,0,0.06172839506172839,0,0)" xlink:href="#al"/><use transform="matrix(0.06172839506172839,0,0,0.06172839506172839,13.518518518518517,0)" xlink:href="#T"/><use transform="matrix(0.06172839506172839,0,0,0.06172839506172839,25.864197530864196,0)" xlink:href="#ah"/><use transform="matrix(0.06172839506172839,0,0,0.06172839506172839,38.20987654320987,0)" xlink:href="#O"/><use transform="matrix(0.06172839506172839,0,0,0.06172839506172839,50.55555555555555,0)" xlink:href="#Y"/></g><use transform="matrix(0.06172839506172839,0,0,0.06172839506172839,0,0)" xlink:href="#aq" id="y"/><path fill="#333" d="M212-179c-10-28-35-45-73-45-59 0-87 40-87 99 0 60 29 101 89 101 43 0 62-24 78-52l27 14C228-24 195 4 139 4 59 4 22-46 18-125c-6-104 99-153 187-111 19 9 31 26 39 46" id="as"/><g id="z"><use transform="matrix(0.06172839506172839,0,0,0.06172839506172839,0,0)" xlink:href="#as"/><use transform="matrix(0.06172839506172839,0,0,0.06172839506172839,15.987654320987653,0)" xlink:href="#M"/><use transform="matrix(0.06172839506172839,0,0,0.06172839506172839,23.333333333333332,0)" xlink:href="#L"/><use transform="matrix(0.06172839506172839,0,0,0.06172839506172839,35.67901234567901,0)" xlink:href="#I"/><use transform="matrix(0.06172839506172839,0,0,0.06172839506172839,48.02469135802469,0)" xlink:href="#K"/><use transform="matrix(0.06172839506172839,0,0,0.06172839506172839,54.19753086419753,0)" xlink:href="#L"/></g><g id="A"><use transform="matrix(0.06172839506172839,0,0,0.06172839506172839,0,0)" xlink:href="#N"/><use transform="matrix(0.06172839506172839,0,0,0.06172839506172839,14.814814814814813,0)" xlink:href="#M"/><use transform="matrix(0.06172839506172839,0,0,0.06172839506172839,22.160493827160494,0)" xlink:href="#I"/><use transform="matrix(0.06172839506172839,0,0,0.06172839506172839,34.50617283950617,0)" xlink:href="#O"/><use transform="matrix(0.06172839506172839,0,0,0.06172839506172839,46.85185185185185,0)" xlink:href="#P"/><use transform="matrix(0.06172839506172839,0,0,0.06172839506172839,57.96296296296296,0)" xlink:href="#Q"/></g><path fill="#333" d="M230 0l2-204L168 0h-37L68-204 70 0H24v-248h70l56 185 57-185h69V0h-46" id="at"/><use transform="matrix(0.06172839506172839,0,0,0.06172839506172839,0,0)" xlink:href="#at" id="B"/><path fill="#333" d="M76-208v77h127v40H76V0H24v-248h183v40H76" id="au"/><path fill="#333" d="M140-251c80 0 125 45 125 126S219 4 139 4C58 4 15-44 15-125s44-126 125-126zm-1 214c52 0 73-35 73-88 0-50-21-86-72-86-52 0-73 35-73 86s22 88 72 88" id="av"/><path fill="#333" d="M240-174c0 40-23 61-54 70L253 0h-59l-57-94H76V0H24v-248c93 4 217-23 216 74zM76-134c48-2 112 12 112-38 0-48-66-32-112-35v73" id="aw"/><path fill="#333" d="M238-95c0 69-44 99-111 99C63 4 22-25 22-93v-155h51v151c-1 38 19 59 55 60 90 1 49-130 58-211h52v153" id="ax"/><g id="C"><use transform="matrix(0.06790123456790123,0,0,0.06790123456790123,0,0)" xlink:href="#au"/><use transform="matrix(0.06790123456790123,0,0,0.06790123456790123,14.87037037037037,0)" xlink:href="#av"/><use transform="matrix(0.06790123456790123,0,0,0.06790123456790123,33.882716049382715,0)" xlink:href="#aw"/><use transform="matrix(0.06790123456790123,0,0,0.06790123456790123,51.46913580246913,0)" xlink:href="#ax"/><use transform="matrix(0.06790123456790123,0,0,0.06790123456790123,69.05555555555554,0)" xlink:href="#at"/></g><g id="D"><use transform="matrix(0.06172839506172839,0,0,0.06172839506172839,0,0)" xlink:href="#ag"/><use transform="matrix(0.06172839506172839,0,0,0.06172839506172839,14.814814814814813,0)" xlink:href="#ah"/><use transform="matrix(0.06172839506172839,0,0,0.06172839506172839,27.160493827160494,0)" xlink:href="#ap"/><use transform="matrix(0.06172839506172839,0,0,0.06172839506172839,32.03703703703704,0)" xlink:href="#ap"/></g><g id="E"><use transform="matrix(0.06172839506172839,0,0,0.06172839506172839,0,0)" xlink:href="#as"/><use transform="matrix(0.06172839506172839,0,0,0.06172839506172839,15.987654320987653,0)" xlink:href="#Q"/><use transform="matrix(0.06172839506172839,0,0,0.06172839506172839,28.333333333333332,0)" xlink:href="#I"/><use transform="matrix(0.06172839506172839,0,0,0.06172839506172839,40.67901234567901,0)" xlink:href="#O"/><use transform="matrix(0.06172839506172839,0,0,0.06172839506172839,53.02469135802469,0)" xlink:href="#U"/><use transform="matrix(0.06172839506172839,0,0,0.06172839506172839,65.37037037037037,0)" xlink:href="#L"/><use transform="matrix(0.06172839506172839,0,0,0.06172839506172839,77.71604938271605,0)" xlink:href="#J"/></g><g id="F"><use transform="matrix(0.06172839506172839,0,0,0.06172839506172839,0,0)" xlink:href="#O"/><use transform="matrix(0.06172839506172839,0,0,0.06172839506172839,12.345679012345679,0)" xlink:href="#L"/><use transform="matrix(0.06172839506172839,0,0,0.06172839506172839,24.691358024691358,0)" xlink:href="#am"/></g><g id="G"><use transform="matrix(0.06172839506172839,0,0,0.06172839506172839,0,0)" xlink:href="#ad"/><use transform="matrix(0.06172839506172839,0,0,0.06172839506172839,11.11111111111111,0)" xlink:href="#L"/><use transform="matrix(0.06172839506172839,0,0,0.06172839506172839,23.45679012345679,0)" xlink:href="#M"/><use transform="matrix(0.06172839506172839,0,0,0.06172839506172839,30.80246913580247,0)" xlink:href="#J"/><use transform="matrix(0.06172839506172839,0,0,0.06172839506172839,41.91358024691358,0)" xlink:href="#S"/><use transform="matrix(0.06172839506172839,0,0,0.06172839506172839,46.79012345679013,0)" xlink:href="#T"/><use transform="matrix(0.06172839506172839,0,0,0.06172839506172839,59.135802469135804,0)" xlink:href="#O"/></g></defs></g></svg>