<svg xmlns="http://www.w3.org/2000/svg" xmlns:xlink="http://www.w3.org/1999/xlink" xmlns:lucid="lucid" width="2987" height="1392"><g transform="translate(47 -9)" lucid:page-tab-id="31-O.2PWu9cM"><path d="M-27 35c0-3.3 2.7-6 6-6h2935c3.3 0 6 2.7 6 6v237c0 3.3-2.7 6-6 6H-21c-3.3 0-6-2.7-6-6z" stroke="#000" stroke-opacity="0" stroke-width="3" fill="#e5e5e5"/><use xlink:href="#a" transform="matrix(1,0,0,1,-22,34) translate(1355.8148148148148 99.93402777777777)"/><use xlink:href="#b" transform="matrix(1,0,0,1,-22,34) translate(1416.0617283950617 99.93402777777777)"/><use xlink:href="#c" transform="matrix(1,0,0,1,-22,34) translate(1480.1358024691358 99.93402777777777)"/><use xlink:href="#d" transform="matrix(1,0,0,1,-22,34) translate(1468.5 126.60069444444446)"/><use xlink:href="#e" transform="matrix(1,0,0,1,-22,34) translate(1290.8148148148148 153.26736111111111)"/><use xlink:href="#f" transform="matrix(1,0,0,1,-22,34) translate(1325.320987654321 153.26736111111111)"/><use xlink:href="#g" transform="matrix(1,0,0,1,-22,34) translate(1415.4444444444443 153.26736111111111)"/><use xlink:href="#h" transform="matrix(1,0,0,1,-22,34) translate(1471 153.26736111111111)"/><use xlink:href="#i" transform="matrix(1,0,0,1,-22,34) translate(1494.395061728395 153.26736111111111)"/><use xlink:href="#j" transform="matrix(1,0,0,1,-22,34) translate(1554.8888888888887 153.26736111111111)"/><path d="M2892.98 66.76h-2.05V63c0-7.92-5.05-12-10.94-12h-.97c-6 0-10.97 3.96-10.97 12v3.76h-2c-.88 0-2.06 1.16-2.06 2.04v20.16c0 .88 1.18 2.04 2.05 2.04h26.9c.87 0 2.05-1.16 2.05-2.04V68.8c-.1-.88-1.28-2.04-2.02-2.04zm-12.03 11.92v8.36h-3v-8.36c-1.18-.56-2.05-1.72-2.05-3.12 0-1.92 1.64-3.52 3.54-3.52 1.95 0 3.56 1.6 3.56 3.52 0 1.28-.87 2.44-2.05 3.12zm6.23-11.92h-15.34V63c0-5.04 2.67-8.48 7.2-8.48h.95c4.6 0 7.18 3.44 7.18 8.48v3.76zM2892.98 206.76h-2.05V203c0-7.92-5.05-12-10.94-12h-.97c-6 0-10.97 3.96-10.97 12v3.76h-2c-.88 0-2.06 1.16-2.06 2.04v20.16c0 .88 1.18 2.04 2.05 2.04h26.9c.87 0 2.05-1.16 2.05-2.04V208.8c-.1-.88-1.28-2.04-2.02-2.04zm-12.03 11.92v8.36h-3v-8.36c-1.18-.56-2.05-1.72-2.05-3.12 0-1.92 1.64-3.52 3.54-3.52 1.95 0 3.56 1.6 3.56 3.52 0 1.28-.87 2.44-2.05 3.12zm6.23-11.92h-15.34V203c0-5.04 2.67-8.48 7.2-8.48h.95c4.6 0 7.18 3.44 7.18 8.48v3.76z" stroke="#000" stroke-opacity="0" fill="#2a3282"/><path d="M0 766c0-3.3 2.7-6 6-6h178c3.3 0 6 2.7 6 6v28c0 3.3-2.7 6-6 6H6c-3.3 0-6-2.7-6-6z" stroke="#5e5e5e" stroke-width="3" fill="#ffbbb1"/><use xlink:href="#k" transform="matrix(1,0,0,1,5,765) translate(1.2345679012345698 19.65277777777778)"/><path d="M1732.4 782H193.5v-4h1538.9zm265.6 0h-132.9v-4H1998z" fill="#5e5e5e"/><path d="M193.55 782h-2.05v-4h2.05zM2000 782h-2.05v-4h2.05z" fill="#5e5e5e"/><use xlink:href="#l" transform="matrix(1,0,0,1,1732.4113913581439,769.3333333333334) translate(0 14.222222222222223)"/><use xlink:href="#m" transform="matrix(1,0,0,1,1732.4113913581439,769.3333333333334) translate(76 14.222222222222223)"/><path d="M482 747.75h-4v-6.07h4zm0-14.16h-4v-12.15h4zm0-20.25h-4V701.2h4zm0-20.23h-4v-12.14h4zm0-20.23h-4v-12.15h4zm0-20.25h-4V640.5h4zm0-20.23h-4v-12.14h4zm0-20.23h-4v-12.15h4zm0-20.25h-4V579.8h4zm0-20.23h-4v-12.14h4zm0-20.24h-4v-12.14h4zm0-20.23h-4V519.1h4zm0-20.23h-4v-12.14h4zm0-20.24h-4v-12.14h4zm0-20.23h-4V458.4h4zm0-20.23h-4v-12.14h4zm0-40.47h-4V397.7h4zm0-20.23h-4v-12.14h4zm0-20.24h-4v-12.14h4zm0-20.23h-4V337h4zm0-20.23h-4v-12.14h4zm0-20.24h-4v-12.14h4zm0-20.23h-4V276.3h4zm0-20.23h-4v-12.14h4zm0-20.24h-4v-12.14h4zm0-20.23h-4v-6.07h4z" fill="#5e5e5e"/><path d="M482 221.73h-4v-2.05h4zM480 764.02l-4.64-14.27h9.28z" fill="#5e5e5e"/><path d="M480 770.5l-7.4-22.75h14.8zm-1.88-18.75l1.88 5.8 1.88-5.8z" fill="#5e5e5e"/><use xlink:href="#n" transform="matrix(1,0,0,1,463.7283950617287,413.5788037026801) translate(0 14.222222222222223)"/><path d="M490 780c0 5.52-4.48 10-10 10s-10-4.48-10-10 4.48-10 10-10 10 4.48 10 10z" stroke="#5e5e5e" stroke-width="3" fill="#333"/><path d="M0 66c0-3.3 2.7-6 6-6h230.56c3.3 0 6 2.7 6 6v28c0 3.3-2.7 6-6 6H6c-3.3 0-6-2.7-6-6z" stroke="#5e5e5e" stroke-width="3" fill="#fff"/><use xlink:href="#o" transform="matrix(1,0,0,1,5.000000000000028,65) translate(82.61111111111111 19.65277777777778)"/><path d="M2649.1 82H246.06v-4H2649.1zm212.9 0h-47.27v-4H2862z" fill="#5e5e5e"/><path d="M246.1 82h-2.04v-4h2.05zM2864 82h-2.05v-4h2.05z" fill="#5e5e5e"/><use xlink:href="#p" transform="matrix(1,0,0,1,2649.1048546692746,69.33333333333333) translate(0 14.222222222222223)"/><use xlink:href="#q" transform="matrix(1,0,0,1,2649.1048546692746,69.33333333333333) translate(64.0493827160494 14.222222222222223)"/><use xlink:href="#r" transform="matrix(1,0,0,1,2649.1048546692746,69.33333333333333) translate(107.40740740740742 14.222222222222223)"/><path d="M0 207c0-3.3 2.7-6 6-6h223.12c3.32 0 6 2.7 6 6v28c0 3.3-2.68 6-6 6H6c-3.3 0-6-2.7-6-6z" stroke="#5e5e5e" stroke-width="3" fill="#fff"/><use xlink:href="#s" transform="matrix(1,0,0,1,5,206) translate(74.79012345679013 19.65277777777778)"/><path d="M2642.96 221.68H238.62v-4h2404.34zm219.04 0h-44.67v-4H2862z" fill="#5e5e5e"/><path d="M238.67 221.68h-2.05v-4h2.05zM2864 221.68h-2.05v-4h2.05z" fill="#5e5e5e"/><use xlink:href="#p" transform="matrix(1,0,0,1,2642.9622589809665,209.01333333333335) translate(0 14.222222222222223)"/><use xlink:href="#q" transform="matrix(1,0,0,1,2642.9622589809665,209.01333333333335) translate(64.0493827160494 14.222222222222223)"/><use xlink:href="#t" transform="matrix(1,0,0,1,2642.9622589809665,209.01333333333335) translate(107.40740740740742 14.222222222222223)"/><path d="M1823.27 362H186.17v-4h1637.1zm159.73 0h-19.78v-4H1983z" fill="#5e5e5e"/><path d="M186.22 362h-2.06v-4h2.06zM1985 362h-2.05v-4h2.05z" fill="#5e5e5e"/><use xlink:href="#p" transform="matrix(1,0,0,1,1823.270280842554,349.3333333333333) translate(0 14.222222222222223)"/><use xlink:href="#q" transform="matrix(1,0,0,1,1823.270280842554,349.3333333333333) translate(64.0493827160494 14.222222222222223)"/><use xlink:href="#u" transform="matrix(1,0,0,1,1823.270280842554,349.3333333333333) translate(107.40740740740742 14.222222222222223)"/><path d="M0 346c0-3.3 2.7-6 6-6h170.66c3.32 0 6 2.7 6 6v28c0 3.3-2.68 6-6 6H6c-3.3 0-6-2.7-6-6z" stroke="#5e5e5e" stroke-width="3" fill="#fff"/><use xlink:href="#v" transform="matrix(1,0,0,1,5,345) translate(7.641975308641975 19.71527777777778)"/><path d="M0 486c0-3.3 2.7-6 6-6h184.17c3.3 0 6 2.7 6 6v28c0 3.3-2.7 6-6 6H6c-3.3 0-6-2.7-6-6z" stroke="#5e5e5e" stroke-width="3" fill="#fff"/><use xlink:href="#w" transform="matrix(1,0,0,1,5,485) translate(10.907407407407405 19.65277777777778)"/><path d="M1821.84 502H199.67v-4h1622.17zm161.16 0h-16.27v-4H1983z" fill="#5e5e5e"/><path d="M199.72 502h-2.05v-4h2.05zM1985 502h-2.05v-4h2.05z" fill="#5e5e5e"/><use xlink:href="#p" transform="matrix(1,0,0,1,1821.8394254581494,489.3333333333333) translate(0 14.222222222222223)"/><use xlink:href="#q" transform="matrix(1,0,0,1,1821.8394254581494,489.3333333333333) translate(64.0493827160494 14.222222222222223)"/><use xlink:href="#x" transform="matrix(1,0,0,1,1821.8394254581494,489.3333333333333) translate(107.40740740740742 14.222222222222223)"/><path d="M0 626c0-3.3 2.7-6 6-6h168c3.3 0 6 2.7 6 6v28c0 3.3-2.7 6-6 6H6c-3.3 0-6-2.7-6-6z" stroke="#5e5e5e" stroke-width="3" fill="#fff"/><use xlink:href="#y" transform="matrix(1,0,0,1,5,625) translate(2.4074074074074048 19.65277777777778)"/><path d="M1707.52 642H183.5v-4h1524.02zm290.48 0h-50.88v-4H1998z" fill="#5e5e5e"/><path d="M183.55 642h-2.05v-4h2.05zM2000 642h-2.05v-4h2.05z" fill="#5e5e5e"/><use xlink:href="#z" transform="matrix(1,0,0,1,1707.5169368867257,629.3333333333334) translate(0 14.222222222222223)"/><use xlink:href="#A" transform="matrix(1,0,0,1,1707.5169368867257,629.3333333333334) translate(37.48148148148149 14.222222222222223)"/><use xlink:href="#B" transform="matrix(1,0,0,1,1707.5169368867257,629.3333333333334) translate(48.296296296296305 14.222222222222223)"/><use xlink:href="#C" transform="matrix(1,0,0,1,1707.5169368867257,629.3333333333334) translate(117.28395061728398 14.222222222222223)"/><use xlink:href="#D" transform="matrix(1,0,0,1,1707.5169368867257,629.3333333333334) translate(167.5555555555556 14.222222222222223)"/><path d="M712 596v-27.64" stroke="#5e5e5e" stroke-width="5" fill="none"/><path d="M714.5 598.65l-2.48-.15-2.52.1v-2.67h5z" fill="#5e5e5e"/><path d="M712 551.6l4.64 14.26h-9.28z" stroke="#5e5e5e" stroke-width="5" fill="#5e5e5e"/><path d="M639 778h-4v-52.33h4zm0-73.67h-4v-31.6h4zM641.64 670.74h-9.28l4.64-14.27z" fill="#5e5e5e"/><path d="M644.4 672.74h-14.8L637 650zm-9.28-4h3.76l-1.88-5.8zM639 780h-4v-2.05h4z" fill="#5e5e5e"/><use xlink:href="#E" transform="matrix(1,0,0,1,615.320987654321,704.3333333333334) translate(0 14.222222222222223)"/><path d="M647 639.27c0 5.1-4.48 9.26-10 9.26s-10-4.15-10-9.26c0-5.12 4.48-9.27 10-9.27s10 4.15 10 9.27z" stroke="#5e5e5e" stroke-width="3" fill="#333"/><g stroke="#000" stroke-opacity="0"><path d="M688.17 609.73l-1.44-13.08-29.03-25.37-17.74 20.85L669 617.5l12.43.13 6.74-7.9zm-9.96 1.8c-1.1-.98-1.22-2.7-.27-3.84 1-1.14 2.68-1.26 3.78-.28 1.16.97 1.3 2.7.3 3.82-.96 1.13-2.64 1.26-3.8.28z" fill="#ffdba9"/><path d="M657.7 571.28l-17.74 20.84 4.6 4.1 38.4-2.85-25.27-22.1z" fill="#fff" fill-opacity=".1"/><path d="M683.73 612.75c1.76-2.06 1.52-5.2-.5-6.98-2.04-1.78-5.16-1.55-6.9.5-1.76 2.06-1.52 5.2.52 7 2.03 1.77 5.14 1.54 6.88-.52zm-5.5-1.23c-1.1-.97-1.24-2.7-.28-3.83.96-1.14 2.67-1.26 3.77-.3 1.12 1 1.25 2.72.3 3.84-.97 1.13-2.67 1.26-3.8.28z" fill="#9db02f" fill-opacity=".3"/></g><path d="M540 526c0-3.3 2.7-6 6-6h128c3.3 0 6 2.7 6 6v48c0 3.3-2.7 6-6 6H546c-3.3 0-6-2.7-6-6z" stroke="#000" stroke-opacity="0" stroke-width="3" fill="#fff" fill-opacity="0"/><use xlink:href="#F" transform="matrix(1,0,0,1,545,525) translate(2.1296296296296333 30.27777777777778)"/><use xlink:href="#G" transform="matrix(1,0,0,1,545,525) translate(45.21604938271606 30.27777777777778)"/><path d="M887.12 540.55c13.14 0 23.8 13.3 23.8 29.72 0 16.42-10.66 29.73-23.8 29.73h-71.34c-13.13 0-23.78-13.3-23.78-29.73 0-16.4 10.65-29.72 23.78-29.72z" stroke="#5e5e5e" stroke-width="3" fill="#ff8f80"/><use xlink:href="#H" transform="matrix(1,0,0,1,797,545.5468780509551) translate(13.882716049382722 30.27777777777778)"/><path d="M750.06 619.08l28.9-14.9" stroke="#5e5e5e" stroke-width="4" fill="none"/><path d="M751.02 620.84l-1.76.9-1.95-3.5 1.9-.96z" fill="#5e5e5e"/><path d="M793.4 596.74l-10.55 10.66-4.24-8.24z" stroke="#5e5e5e" stroke-width="4" fill="#5e5e5e"/><path d="M752 640c0 22.1-17.9 40-40 40s-40-17.9-40-40 17.9-40 40-40 40 17.9 40 40z" stroke="#5e5e5e" stroke-width="3" fill="#fff"/><use xlink:href="#I" transform="matrix(1,0,0,1,677,605) translate(4.490740740740762 37.326388888888886)"/><path d="M752 502c0 22.1-17.9 40-40 40s-40-17.9-40-40 17.9-40 40-40 40 17.9 40 40z" stroke="#5e5e5e" stroke-width="3" fill="#fff"/><use xlink:href="#J" transform="matrix(1,0,0,1,677,467) translate(4.490740740740762 30.763888888888886)"/><use xlink:href="#K" transform="matrix(1,0,0,1,677,467) translate(28.20987654320988 44.097222222222214)"/><path d="M653 589c0-3.3 2.7-6 6-6h8c3.3 0 6 2.7 6 6v8.55c0 3.3-2.7 6-6 6h-8c-3.3 0-6-2.7-6-6z" stroke="#000" stroke-opacity="0" stroke-width="3" fill="#fff" fill-opacity="0"/><use xlink:href="#L" transform="matrix(1,0,0,1,658,588) translate(-4.506172839506171 12.444444444444443)"/><path d="M322 748.26h-4v-49.7h4zm0-71.04h-4V643h4z" fill="#5e5e5e"/><path d="M322 643.05h-4V641h4zM320 764.53l-4.64-14.27h9.28z" fill="#5e5e5e"/><path d="M320 771l-7.4-22.74h14.8zm-1.88-18.74l1.88 5.8 1.88-5.8z" fill="#5e5e5e"/><use xlink:href="#M" transform="matrix(1,0,0,1,272.69135802469134,677.2165478842845) translate(0 14.222222222222223)"/><use xlink:href="#N" transform="matrix(1,0,0,1,272.69135802469134,677.2165478842845) translate(54.17283950617285 14.222222222222223)"/><path d="M330 781c0 5.52-4.48 10-10 10s-10-4.48-10-10 4.48-10 10-10 10 4.48 10 10z" stroke="#5e5e5e" stroke-width="3" fill="#333"/><path d="M322 606.26h-4v-49.7h4zm0-71.04h-4V501h4z" fill="#5e5e5e"/><path d="M322 501.05h-4V499h4zM320 622.53l-4.64-14.27h9.28z" fill="#5e5e5e"/><path d="M320 629l-7.4-22.74h14.8zm-1.88-18.74l1.88 5.8 1.88-5.8z" fill="#5e5e5e"/><use xlink:href="#O" transform="matrix(1,0,0,1,259.3827160493827,535.2165478842845) translate(0 14.222222222222223)"/><use xlink:href="#P" transform="matrix(1,0,0,1,259.3827160493827,535.2165478842845) translate(60.14814814814816 14.222222222222223)"/><path d="M330 639c0 5.52-4.48 10-10 10s-10-4.48-10-10 4.48-10 10-10 10 4.48 10 10z" stroke="#5e5e5e" stroke-width="3" fill="#333"/><path d="M322 467.26h-4v-49.7h4zm0-71.04h-4V362h4z" fill="#5e5e5e"/><path d="M322 362.05h-4V360h4zM320 483.53l-4.64-14.27h9.28z" fill="#5e5e5e"/><path d="M320 490l-7.4-22.74h14.8zm-1.88-18.74l1.88 5.8 1.88-5.8z" fill="#5e5e5e"/><use xlink:href="#O" transform="matrix(1,0,0,1,259.3827160493827,396.2165478842845) translate(0 14.222222222222223)"/><use xlink:href="#P" transform="matrix(1,0,0,1,259.3827160493827,396.2165478842845) translate(60.14814814814816 14.222222222222223)"/><path d="M330 500c0 5.52-4.48 10-10 10s-10-4.48-10-10 4.48-10 10-10 10 4.48 10 10z" stroke="#5e5e5e" stroke-width="3" fill="#333"/><path d="M322 327.26h-4v-49.7h4zm0-71.04h-4V222h4z" fill="#5e5e5e"/><path d="M322 222.05h-4V220h4zM320 343.53l-4.64-14.27h9.28z" fill="#5e5e5e"/><path d="M320 350l-7.4-22.74h14.8zm-1.88-18.74l1.88 5.8 1.88-5.8z" fill="#5e5e5e"/><use xlink:href="#O" transform="matrix(1,0,0,1,259.3827160493827,256.2165478842845) translate(0 14.222222222222223)"/><use xlink:href="#P" transform="matrix(1,0,0,1,259.3827160493827,256.2165478842845) translate(60.14814814814816 14.222222222222223)"/><path d="M330 360c0 5.52-4.48 10-10 10s-10-4.48-10-10 4.48-10 10-10 10 4.48 10 10z" stroke="#5e5e5e" stroke-width="3" fill="#333"/><path d="M360 80c0 22.1-17.9 40-40 40s-40-17.9-40-40 17.9-40 40-40 40 17.9 40 40z" stroke="#5e5e5e" stroke-width="3" fill="#fff"/><use xlink:href="#Q" transform="matrix(1,0,0,1,285,45) translate(4.8179012345679055 38.69444444444444)"/><path d="M330 220c0 5.52-4.48 10-10 10s-10-4.48-10-10 4.48-10 10-10 10 4.48 10 10z" stroke="#5e5e5e" stroke-width="3" fill="#333"/><path d="M322 185.75h-4v-22.2h4zm0-43.55h-4v-18.7h4z" fill="#5e5e5e"/><path d="M322 123.55h-4v-2.05h4zM320 202.02l-4.64-14.27h9.28z" fill="#5e5e5e"/><path d="M320 208.5l-7.4-22.75h14.8zm-1.88-18.75l1.88 5.8 1.88-5.8z" fill="#5e5e5e"/><use xlink:href="#O" transform="matrix(1,0,0,1,259.3827160493827,142.20499885758701) translate(0 14.222222222222223)"/><use xlink:href="#P" transform="matrix(1,0,0,1,259.3827160493827,142.20499885758701) translate(60.14814814814816 14.222222222222223)"/><path d="M1192 596v-29.64" stroke="#5e5e5e" stroke-width="5" fill="none"/><path d="M1194.5 598.65l-2.48-.15-2.52.1v-2.67h5z" fill="#5e5e5e"/><path d="M1192 549.6l4.64 14.26h-9.28z" stroke="#5e5e5e" stroke-width="5" fill="#5e5e5e"/><path d="M1119 778h-4v-52.33h4zm0-73.67h-4v-31.6h4zM1121.64 670.74h-9.28l4.64-14.27z" fill="#5e5e5e"/><path d="M1124.4 672.74h-14.8L1117 650zm-9.28-4h3.76l-1.88-5.8zM1119 780h-4v-2.05h4z" fill="#5e5e5e"/><use xlink:href="#E" transform="matrix(1,0,0,1,1095.320987654321,704.3333333333334) translate(0 14.222222222222223)"/><path d="M1127 640.27c0 5.1-4.48 9.26-10 9.26s-10-4.15-10-9.26c0-5.12 4.48-9.27 10-9.27s10 4.15 10 9.27z" stroke="#5e5e5e" stroke-width="3" fill="#333"/><g stroke="#000" stroke-opacity="0"><path d="M1168.17 607.73l-1.44-13.08-29.03-25.37-17.74 20.85L1149 615.5l12.43.13 6.74-7.9zm-9.96 1.8c-1.1-.98-1.22-2.7-.27-3.84 1-1.14 2.68-1.26 3.78-.28 1.16.97 1.3 2.7.3 3.82-.96 1.13-2.64 1.26-3.8.28z" fill="#ffdba9"/><path d="M1137.7 569.28l-17.74 20.84 4.6 4.1 38.4-2.85-25.27-22.1z" fill="#fff" fill-opacity=".1"/><path d="M1163.73 610.75c1.76-2.06 1.52-5.2-.5-6.98-2.04-1.78-5.16-1.55-6.9.5-1.76 2.06-1.52 5.2.52 7 2.03 1.77 5.14 1.54 6.88-.52zm-5.5-1.23c-1.1-.97-1.24-2.7-.28-3.83.96-1.14 2.67-1.26 3.77-.3 1.12 1 1.25 2.72.3 3.84-.97 1.13-2.67 1.26-3.8.28z" fill="#9db02f" fill-opacity=".3"/></g><path d="M1020 524c0-3.3 2.7-6 6-6h128c3.3 0 6 2.7 6 6v48c0 3.3-2.7 6-6 6h-128c-3.3 0-6-2.7-6-6z" stroke="#000" stroke-opacity="0" stroke-width="3" fill="#fff" fill-opacity="0"/><use xlink:href="#F" transform="matrix(1,0,0,1,1025,523) translate(2.1296296296296333 30.27777777777778)"/><use xlink:href="#G" transform="matrix(1,0,0,1,1025,523) translate(45.21604938271606 30.27777777777778)"/><path d="M1367.12 538.55c13.14 0 23.8 13.3 23.8 29.72 0 16.42-10.66 29.73-23.8 29.73h-71.34c-13.13 0-23.78-13.3-23.78-29.73 0-16.4 10.65-29.72 23.78-29.72z" stroke="#5e5e5e" stroke-width="3" fill="#ff8f80"/><use xlink:href="#H" transform="matrix(1,0,0,1,1277,543.5468780509551) translate(13.882716049382722 30.27777777777778)"/><path d="M1230.03 619.03l29.25-16.23" stroke="#5e5e5e" stroke-width="4" fill="none"/><path d="M1231.05 620.75l-1.8 1-1.94-3.5 1.8-1z" fill="#5e5e5e"/><path d="M1273.5 594.9l-10.22 11-4.5-8.12z" stroke="#5e5e5e" stroke-width="4" fill="#5e5e5e"/><path d="M1232 640c0 22.1-17.9 40-40 40s-40-17.9-40-40 17.9-40 40-40 40 17.9 40 40z" stroke="#5e5e5e" stroke-width="3" fill="#fff"/><use xlink:href="#I" transform="matrix(1,0,0,1,1157,605) translate(4.490740740740762 37.326388888888886)"/><path d="M1232 500c0 22.1-17.9 40-40 40s-40-17.9-40-40 17.9-40 40-40 40 17.9 40 40z" stroke="#5e5e5e" stroke-width="3" fill="#fff"/><use xlink:href="#J" transform="matrix(1,0,0,1,1157,465) translate(4.490740740740762 30.763888888888886)"/><use xlink:href="#R" transform="matrix(1,0,0,1,1157,465) translate(28.20987654320988 44.097222222222214)"/><path d="M1133 587c0-3.3 2.7-6 6-6h8c3.3 0 6 2.7 6 6v8.55c0 3.3-2.7 6-6 6h-8c-3.3 0-6-2.7-6-6z" stroke="#000" stroke-opacity="0" stroke-width="3" fill="#fff" fill-opacity="0"/><use xlink:href="#S" transform="matrix(1,0,0,1,1138,586) translate(-4.506172839506171 12.444444444444443)"/><path d="M1320 360c0 22.1-17.9 40-40 40s-40-17.9-40-40 17.9-40 40-40 40 17.9 40 40z" stroke="#5e5e5e" stroke-width="3" fill="#fff"/><use xlink:href="#J" transform="matrix(1,0,0,1,1245,325) translate(4.490740740740762 30.763888888888886)"/><use xlink:href="#R" transform="matrix(1,0,0,1,1245,325) translate(28.20987654320988 44.097222222222214)"/><path d="M1281 497.5v-71.64M1281 497.44V500" stroke="#5e5e5e" stroke-width="5" fill="none"/><path d="M1281 409.1l4.64 14.26h-9.28z" stroke="#5e5e5e" stroke-width="5" fill="#5e5e5e"/><path d="M1120 406c0-3.3 2.7-6 6-6h128c3.3 0 6 2.7 6 6v48c0 3.3-2.7 6-6 6h-128c-3.3 0-6-2.7-6-6z" stroke="#000" stroke-opacity="0" stroke-width="3" fill="#fff" fill-opacity="0"/><use xlink:href="#F" transform="matrix(1,0,0,1,1125,405) translate(2.1296296296296333 30.27777777777778)"/><use xlink:href="#G" transform="matrix(1,0,0,1,1125,405) translate(45.21604938271606 30.27777777777778)"/><path d="M1632 596v-29.64" stroke="#5e5e5e" stroke-width="5" fill="none"/><path d="M1634.5 598.65l-2.48-.15-2.52.1v-2.67h5z" fill="#5e5e5e"/><path d="M1632 549.6l4.64 14.26h-9.28z" stroke="#5e5e5e" stroke-width="5" fill="#5e5e5e"/><path d="M1559 778h-4v-52.33h4zm0-73.67h-4v-31.6h4zM1561.64 670.74h-9.28l4.64-14.27z" fill="#5e5e5e"/><path d="M1564.4 672.74h-14.8L1557 650zm-9.28-4h3.76l-1.88-5.8zM1559 780h-4v-2.05h4z" fill="#5e5e5e"/><use xlink:href="#E" transform="matrix(1,0,0,1,1535.320987654321,704.3333333333334) translate(0 14.222222222222223)"/><path d="M1567 640.27c0 5.1-4.48 9.26-10 9.26s-10-4.15-10-9.26c0-5.12 4.48-9.27 10-9.27s10 4.15 10 9.27z" stroke="#5e5e5e" stroke-width="3" fill="#333"/><g stroke="#000" stroke-opacity="0"><path d="M1608.17 607.73l-1.44-13.08-29.03-25.37-17.74 20.85L1589 615.5l12.43.13 6.74-7.9zm-9.96 1.8c-1.1-.98-1.22-2.7-.27-3.84 1-1.14 2.68-1.26 3.78-.28 1.16.97 1.3 2.7.3 3.82-.96 1.13-2.64 1.26-3.8.28z" fill="#ffdba9"/><path d="M1577.7 569.28l-17.74 20.84 4.6 4.1 38.4-2.85-25.27-22.1z" fill="#fff" fill-opacity=".1"/><path d="M1603.73 610.75c1.76-2.06 1.52-5.2-.5-6.98-2.04-1.78-5.16-1.55-6.9.5-1.76 2.06-1.52 5.2.52 7 2.03 1.77 5.14 1.54 6.88-.52zm-5.5-1.23c-1.1-.97-1.24-2.7-.28-3.83.96-1.14 2.67-1.26 3.77-.3 1.12 1 1.25 2.72.3 3.84-.97 1.13-2.67 1.26-3.8.28z" fill="#9db02f" fill-opacity=".3"/></g><path d="M1460 524c0-3.3 2.7-6 6-6h128c3.3 0 6 2.7 6 6v48c0 3.3-2.7 6-6 6h-128c-3.3 0-6-2.7-6-6z" stroke="#000" stroke-opacity="0" stroke-width="3" fill="#fff" fill-opacity="0"/><use xlink:href="#F" transform="matrix(1,0,0,1,1465,523) translate(2.1296296296296333 30.27777777777778)"/><use xlink:href="#G" transform="matrix(1,0,0,1,1465,523) translate(45.21604938271606 30.27777777777778)"/><path d="M1807.12 538.55c13.14 0 23.8 13.3 23.8 29.72 0 16.42-10.66 29.73-23.8 29.73h-71.34c-13.13 0-23.78-13.3-23.78-29.73 0-16.4 10.65-29.72 23.78-29.72z" stroke="#5e5e5e" stroke-width="3" fill="#ff8f80"/><use xlink:href="#H" transform="matrix(1,0,0,1,1717,543.5468780509551) translate(13.882716049382722 30.27777777777778)"/><path d="M1700.25 604.55L1671 620.78l-1.94-3.5 29.25-16.22z" fill="#5e5e5e"/><path d="M1671.05 620.75l-1.8 1-1.94-3.5 1.8-1zM1703.28 605.9l-4.5-8.12 14.72-2.87z" fill="#5e5e5e"/><path d="M1702.86 609.27l-7.16-12.93 23.46-4.57zm-1-10.05l1.83 3.3 4.14-4.47z" fill="#5e5e5e"/><path d="M1672 640c0 22.1-17.9 40-40 40s-40-17.9-40-40 17.9-40 40-40 40 17.9 40 40z" stroke="#5e5e5e" stroke-width="3" fill="#fff"/><use xlink:href="#I" transform="matrix(1,0,0,1,1597,605) translate(4.490740740740762 37.326388888888886)"/><path d="M1672 500c0 22.1-17.9 40-40 40s-40-17.9-40-40 17.9-40 40-40 40 17.9 40 40z" stroke="#5e5e5e" stroke-width="3" fill="#fff"/><use xlink:href="#J" transform="matrix(1,0,0,1,1597,465) translate(4.490740740740762 30.763888888888886)"/><use xlink:href="#T" transform="matrix(1,0,0,1,1597,465) translate(28.20987654320988 44.097222222222214)"/><path d="M1573 587c0-3.3 2.7-6 6-6h8c3.3 0 6 2.7 6 6v8.55c0 3.3-2.7 6-6 6h-8c-3.3 0-6-2.7-6-6z" stroke="#000" stroke-opacity="0" stroke-width="3" fill="#fff" fill-opacity="0"/><use xlink:href="#U" transform="matrix(1,0,0,1,1578,586) translate(-4.506172839506171 12.444444444444443)"/><path d="M1745 360c0 22.1-17.9 40-40 40s-40-17.9-40-40 17.9-40 40-40 40 17.9 40 40z" stroke="#5e5e5e" stroke-width="3" fill="#fff"/><use xlink:href="#J" transform="matrix(1,0,0,1,1670,325) translate(4.490740740740762 30.763888888888886)"/><use xlink:href="#T" transform="matrix(1,0,0,1,1670,325) translate(28.20987654320988 44.097222222222214)"/><path d="M1705 497.5v-71.64M1705 497.44V500" stroke="#5e5e5e" stroke-width="5" fill="none"/><path d="M1705 409.1l4.64 14.26h-9.28z" stroke="#5e5e5e" stroke-width="5" fill="#5e5e5e"/><path d="M1821 220c0 22.1-17.9 40-40 40s-40-17.9-40-40 17.9-40 40-40 40 17.9 40 40z" stroke="#5e5e5e" stroke-width="3" fill="#fff"/><use xlink:href="#J" transform="matrix(1,0,0,1,1746,185) translate(4.490740740740762 30.763888888888886)"/><use xlink:href="#T" transform="matrix(1,0,0,1,1746,185) translate(28.20987654320988 44.097222222222214)"/><path d="M1783.5 357.5h-5v-71.64h5z" fill="#5e5e5e"/><path d="M1783.5 360h-5v-2.56h5zM1785.64 283.36h-9.28l4.64-14.27z" fill="#5e5e5e"/><path d="M1789.08 285.86h-16.16L1781 261zm-9.27-5h2.4l-1.2-3.68z" fill="#5e5e5e"/><path d="M1556 409c0-3.3 2.7-6 6-6h128c3.3 0 6 2.7 6 6v48c0 3.3-2.7 6-6 6h-128c-3.3 0-6-2.7-6-6z" stroke="#000" stroke-opacity="0" stroke-width="3" fill="#fff" fill-opacity="0"/><use xlink:href="#F" transform="matrix(1,0,0,1,1561,408) translate(2.1296296296296333 30.27777777777778)"/><use xlink:href="#G" transform="matrix(1,0,0,1,1561,408) translate(45.21604938271606 30.27777777777778)"/><path d="M1634 278c0-3.3 2.7-6 6-6h128c3.3 0 6 2.7 6 6v48c0 3.3-2.7 6-6 6h-128c-3.3 0-6-2.7-6-6z" stroke="#000" stroke-opacity="0" stroke-width="3" fill="#fff" fill-opacity="0"/><use xlink:href="#F" transform="matrix(1,0,0,1,1639,277) translate(2.1296296296296333 30.27777777777778)"/><use xlink:href="#G" transform="matrix(1,0,0,1,1639,277) translate(45.21604938271606 30.27777777777778)"/><path d="M1948 80c0 22.1-17.9 40-40 40s-40-17.9-40-40 17.9-40 40-40 40 17.9 40 40z" stroke="#5e5e5e" stroke-width="3" fill="#fff"/><use xlink:href="#J" transform="matrix(1,0,0,1,1873,45) translate(4.490740740740762 30.763888888888886)"/><use xlink:href="#T" transform="matrix(1,0,0,1,1873,45) translate(28.20987654320988 44.097222222222214)"/><path d="M1908 216.5v-71.64M1908 216.44V219" stroke="#5e5e5e" stroke-width="5" fill="none"/><path d="M1908 128.1l4.64 14.26h-9.28z" stroke="#5e5e5e" stroke-width="5" fill="#5e5e5e"/><path d="M1733 105c0-3.3 2.7-6 6-6h128c3.3 0 6 2.7 6 6v48c0 3.3-2.7 6-6 6h-128c-3.3 0-6-2.7-6-6z" stroke="#000" stroke-opacity="0" stroke-width="3" fill="#fff" fill-opacity="0"/><use xlink:href="#F" transform="matrix(1,0,0,1,1738,104) translate(2.1296296296296333 30.27777777777778)"/><use xlink:href="#G" transform="matrix(1,0,0,1,1738,104) translate(45.21604938271606 30.27777777777778)"/><path d="M1291 501c0 5.52-4.48 10-10 10s-10-4.48-10-10 4.48-10 10-10 10 4.48 10 10zM1715 497.3c0 5.5-4.48 10-10 10s-10-4.5-10-10c0-5.54 4.48-10 10-10s10 4.46 10 10zM1791 360c0 5.52-4.48 10-10 10s-10-4.48-10-10 4.48-10 10-10 10 4.48 10 10zM1918 221c0 5.52-4.48 10-10 10s-10-4.48-10-10 4.48-10 10-10 10 4.48 10 10z" stroke="#5e5e5e" stroke-width="3" fill="#333"/><path d="M2013.98 487.76h-2.05V484c0-7.92-5.05-12-10.94-12h-.97c-6 0-10.97 3.96-10.97 12v3.76h-2c-.88 0-2.06 1.16-2.06 2.04v20.16c0 .88 1.18 2.04 2.05 2.04h26.9c.87 0 2.04-1.16 2.04-2.04V489.8c-.1-.88-1.28-2.04-2.02-2.04zm-12.03 11.92v8.36h-3v-8.36c-1.18-.56-2.05-1.72-2.05-3.12 0-1.92 1.64-3.52 3.54-3.52 1.95 0 3.56 1.6 3.56 3.52 0 1.28-.87 2.44-2.05 3.12zm6.23-11.92h-15.34V484c0-5.04 2.67-8.48 7.2-8.48h.95c4.6 0 7.18 3.44 7.18 8.48v3.76zM2013.98 346.76h-2.05V343c0-7.92-5.05-12-10.94-12h-.97c-6 0-10.97 3.96-10.97 12v3.76h-2c-.88 0-2.06 1.16-2.06 2.04v20.16c0 .88 1.18 2.04 2.05 2.04h26.9c.87 0 2.04-1.16 2.04-2.04V348.8c-.1-.88-1.28-2.04-2.02-2.04zm-12.03 11.92v8.36h-3v-8.36c-1.18-.56-2.05-1.72-2.05-3.12 0-1.92 1.64-3.52 3.54-3.52 1.95 0 3.56 1.6 3.56 3.52 0 1.28-.87 2.44-2.05 3.12zm6.23-11.92h-15.34V343c0-5.04 2.67-8.48 7.2-8.48h.95c4.6 0 7.18 3.44 7.18 8.48v3.76z" stroke="#000" stroke-opacity="0" fill="#2a3282"/><path d="M3 1346c0-3.3 2.7-6 6-6h175c3.3 0 6 2.7 6 6v29c0 3.3-2.7 6-6 6H9c-3.3 0-6-2.7-6-6z" stroke="#5e5e5e" stroke-width="3" fill="#ffbbb1"/><use xlink:href="#V" transform="matrix(1,0,0,1,8.000000000000014,1345) translate(0.9691358024691397 19.71527777777778)"/><path d="M2358.4 1362h-981.3l-1.2.5H193.5v-4h1180.9l1.2-.5h982.8zm199.6 0h-66.9v-4h66.9z" fill="#5e5e5e"/><path d="M193.55 1362.5h-2.05v-4h2.05zM2560 1362h-2.05v-4h2.05z" fill="#5e5e5e"/><use xlink:href="#l" transform="matrix(1,0,0,1,2358.4066113293916,1349.3333333333333) translate(0 14.222222222222223)"/><use xlink:href="#m" transform="matrix(1,0,0,1,2358.4066113293916,1349.3333333333333) translate(76 14.222222222222223)"/><path d="M2583.28 942H182.6v-4h2400.68zm200.72 0h-60.77v-4H2784z" fill="#5e5e5e"/><path d="M182.65 942h-2.05v-4h2.05zM2786 942h-2.05v-4h2.05z" fill="#5e5e5e"/><use xlink:href="#p" transform="matrix(1,0,0,1,2583.2759460942193,929.3333333333334) translate(0 14.222222222222223)"/><use xlink:href="#q" transform="matrix(1,0,0,1,2583.2759460942193,929.3333333333334) translate(64.0493827160494 14.222222222222223)"/><use xlink:href="#u" transform="matrix(1,0,0,1,2583.2759460942193,929.3333333333334) translate(107.40740740740742 14.222222222222223)"/><path d="M0 926c0-3.3 2.7-6 6-6h167.1c3.3 0 6 2.7 6 6v28c0 3.3-2.7 6-6 6H6c-3.3 0-6-2.7-6-6z" stroke="#5e5e5e" stroke-width="3" fill="#fff"/><use xlink:href="#W" transform="matrix(1,0,0,1,5,925) translate(7.376543209876544 19.71527777777778)"/><path d="M3 1066c0-3.3 2.7-6 6-6h180.62c3.32 0 6 2.7 6 6v28c0 3.3-2.68 6-6 6H9c-3.3 0-6-2.7-6-6z" stroke="#5e5e5e" stroke-width="3" fill="#fff"/><use xlink:href="#X" transform="matrix(1,0,0,1,8.000000000000014,1065) translate(10.141975308641975 19.65277777777778)"/><path d="M2582.16 1082H199.12v-4h2383.04zm201.84 0h-56.95v-4H2784z" fill="#5e5e5e"/><path d="M199.18 1082h-2.06v-4h2.06zM2786 1082h-2.05v-4h2.05z" fill="#5e5e5e"/><use xlink:href="#p" transform="matrix(1,0,0,1,2582.157045173172,1069.3333333333333) translate(0 14.222222222222223)"/><use xlink:href="#q" transform="matrix(1,0,0,1,2582.157045173172,1069.3333333333333) translate(64.0493827160494 14.222222222222223)"/><use xlink:href="#x" transform="matrix(1,0,0,1,2582.157045173172,1069.3333333333333) translate(107.40740740740742 14.222222222222223)"/><path d="M3 1206c0-3.3 2.7-6 6-6h168c3.3 0 6 2.7 6 6v28c0 3.3-2.7 6-6 6H9c-3.3 0-6-2.7-6-6z" stroke="#5e5e5e" stroke-width="3" fill="#fff"/><use xlink:href="#Y" transform="matrix(1,0,0,1,8,1205) translate(3.6419753086419746 19.65277777777778)"/><path d="M2431.83 1222H186.5v-4h2245.33zm366.17 0h-126.56v-4H2798z" fill="#5e5e5e"/><path d="M186.55 1222h-2.05v-4h2.05zM2800 1222h-2.05v-4h2.05z" fill="#5e5e5e"/><use xlink:href="#z" transform="matrix(1,0,0,1,2431.834642743176,1209.3333333333333) translate(0 14.222222222222223)"/><use xlink:href="#A" transform="matrix(1,0,0,1,2431.834642743176,1209.3333333333333) translate(37.48148148148149 14.222222222222223)"/><use xlink:href="#B" transform="matrix(1,0,0,1,2431.834642743176,1209.3333333333333) translate(48.296296296296305 14.222222222222223)"/><use xlink:href="#C" transform="matrix(1,0,0,1,2431.834642743176,1209.3333333333333) translate(117.28395061728398 14.222222222222223)"/><use xlink:href="#D" transform="matrix(1,0,0,1,2431.834642743176,1209.3333333333333) translate(167.5555555555556 14.222222222222223)"/><path d="M324 1328.26h-4v-49.7h4zm0-71.04h-4V1223h4z" fill="#5e5e5e"/><path d="M324 1223.05h-4V1221h4zM322 1344.53l-4.64-14.27h9.28z" fill="#5e5e5e"/><path d="M322 1351l-7.4-22.74h14.8zm-1.88-18.74l1.88 5.8 1.88-5.8z" fill="#5e5e5e"/><use xlink:href="#M" transform="matrix(1,0,0,1,274.69135802469134,1257.2165478842844) translate(0 14.222222222222223)"/><use xlink:href="#N" transform="matrix(1,0,0,1,274.69135802469134,1257.2165478842844) translate(54.17283950617285 14.222222222222223)"/><path d="M332 1361c0 5.52-4.48 10-10 10s-10-4.48-10-10 4.48-10 10-10 10 4.48 10 10z" stroke="#5e5e5e" stroke-width="3" fill="#333"/><path d="M324 1186.26h-4v-49.7h4zm0-71.04h-4V1081h4z" fill="#5e5e5e"/><path d="M324 1081.05h-4V1079h4zM322 1202.53l-4.64-14.27h9.28z" fill="#5e5e5e"/><path d="M322 1209l-7.4-22.74h14.8zm-1.88-18.74l1.88 5.8 1.88-5.8z" fill="#5e5e5e"/><use xlink:href="#O" transform="matrix(1,0,0,1,261.3827160493827,1115.2165478842844) translate(0 14.222222222222223)"/><use xlink:href="#P" transform="matrix(1,0,0,1,261.3827160493827,1115.2165478842844) translate(60.14814814814816 14.222222222222223)"/><path d="M332 1219c0 5.52-4.48 10-10 10s-10-4.48-10-10 4.48-10 10-10 10 4.48 10 10z" stroke="#5e5e5e" stroke-width="3" fill="#333"/><path d="M324 1047.26h-4v-49.7h4zm0-71.04h-4V942h4z" fill="#5e5e5e"/><path d="M324 942.05h-4V940h4zM322 1063.53l-4.64-14.27h9.28z" fill="#5e5e5e"/><path d="M322 1070l-7.4-22.74h14.8zm-1.88-18.74l1.88 5.8 1.88-5.8z" fill="#5e5e5e"/><use xlink:href="#O" transform="matrix(1,0,0,1,261.3827160493827,976.2165478842845) translate(0 14.222222222222223)"/><use xlink:href="#P" transform="matrix(1,0,0,1,261.3827160493827,976.2165478842845) translate(60.14814814814816 14.222222222222223)"/><path d="M332 1080c0 5.52-4.48 10-10 10s-10-4.48-10-10 4.48-10 10-10 10 4.48 10 10z" stroke="#5e5e5e" stroke-width="3" fill="#333"/><path d="M321.5 885v21.25c0 .14.1.25.25.25.14 0 .25.1.25.25v.5" stroke="#5e5e5e" stroke-width="4" fill="none"/><path d="M323.5 885.05h-4V883h4z" fill="#5e5e5e"/><path d="M322 923.53l-4.64-14.27h9.28z" stroke="#5e5e5e" stroke-width="4" fill="#5e5e5e"/><path d="M232 850.83c0-3.3 2.7-6 6-6h167c3.3 0 6 2.7 6 6V877c0 3.3-2.7 6-6 6H238c-3.3 0-6-2.7-6-6z" stroke="#000" stroke-opacity="0" stroke-width="3" fill="#e5e5e5"/><use xlink:href="#Z" transform="matrix(1,0,0,1,237,849.8336838942307) translate(3.660493827160508 17.84722222222222)"/><use xlink:href="#aa" transform="matrix(1,0,0,1,237,849.8336838942307) translate(61.833333333333336 17.84722222222222)"/><use xlink:href="#ab" transform="matrix(1,0,0,1,237,849.8336838942307) translate(102.22839506172839 17.84722222222222)"/><path d="M332 940c0 5.52-4.48 10-10 10s-10-4.48-10-10 4.48-10 10-10 10 4.48 10 10z" stroke="#5e5e5e" stroke-width="3" fill="#333"/><path d="M692 1174v-27.64" stroke="#5e5e5e" stroke-width="5" fill="none"/><path d="M694.5 1176.65l-2.48-.15-2.52.1v-2.67h5z" fill="#5e5e5e"/><path d="M692 1129.6l4.64 14.26h-9.28z" stroke="#5e5e5e" stroke-width="5" fill="#5e5e5e"/><path d="M592 1356h-4v-52.33h4zm0-73.67h-4v-31.6h4zM594.64 1248.74h-9.28l4.64-14.27z" fill="#5e5e5e"/><path d="M597.4 1250.74h-14.8L590 1228zm-9.28-4h3.76l-1.88-5.8zM592 1358h-4v-2.05h4z" fill="#5e5e5e"/><use xlink:href="#E" transform="matrix(1,0,0,1,568.320987654321,1282.3333333333333) translate(0 14.222222222222223)"/><path d="M600 1217.27c0 5.1-4.48 9.26-10 9.26s-10-4.15-10-9.26c0-5.12 4.48-9.27 10-9.27s10 4.15 10 9.27z" stroke="#5e5e5e" stroke-width="3" fill="#333"/><g stroke="#000" stroke-opacity="0"><path d="M668.17 1187.73l-1.44-13.08-29.03-25.37-17.74 20.85L649 1195.5l12.43.13 6.74-7.9zm-9.96 1.8c-1.1-.98-1.22-2.7-.27-3.84 1-1.14 2.68-1.26 3.78-.28 1.16.97 1.3 2.7.3 3.82-.96 1.13-2.64 1.26-3.8.28z" fill="#ffdba9"/><path d="M637.7 1149.28l-17.74 20.84 4.6 4.1 38.4-2.85-25.27-22.1z" fill="#fff" fill-opacity=".1"/><path d="M663.73 1190.75c1.76-2.06 1.52-5.2-.5-6.98-2.04-1.78-5.16-1.55-6.9.5-1.76 2.06-1.52 5.2.52 7 2.03 1.77 5.14 1.54 6.88-.52zm-5.5-1.23c-1.1-.97-1.24-2.7-.28-3.83.96-1.14 2.67-1.26 3.77-.3 1.12 1 1.25 2.72.3 3.84-.97 1.13-2.67 1.26-3.8.28z" fill="#9db02f" fill-opacity=".3"/></g><path d="M520 1104c0-3.3 2.7-6 6-6h128c3.3 0 6 2.7 6 6v48c0 3.3-2.7 6-6 6H526c-3.3 0-6-2.7-6-6z" stroke="#000" stroke-opacity="0" stroke-width="3" fill="#fff" fill-opacity="0"/><use xlink:href="#F" transform="matrix(1,0,0,1,525,1103) translate(2.1296296296296333 30.27777777777778)"/><use xlink:href="#G" transform="matrix(1,0,0,1,525,1103) translate(45.21604938271606 30.27777777777778)"/><path d="M867.12 1118.55c13.14 0 23.8 13.3 23.8 29.72 0 16.42-10.66 29.73-23.8 29.73h-71.34c-13.13 0-23.78-13.3-23.78-29.73 0-16.4 10.65-29.72 23.78-29.72z" stroke="#5e5e5e" stroke-width="3" fill="#ff8f80"/><use xlink:href="#H" transform="matrix(1,0,0,1,777,1123.546878050955) translate(13.882716049382722 30.27777777777778)"/><path d="M730.06 1197.08l28.9-14.9" stroke="#5e5e5e" stroke-width="4" fill="none"/><path d="M731.02 1198.84l-1.76.9-1.95-3.5 1.9-.96z" fill="#5e5e5e"/><path d="M773.4 1174.74l-10.55 10.66-4.24-8.24z" stroke="#5e5e5e" stroke-width="4" fill="#5e5e5e"/><path d="M732 1218c0 22.1-17.9 40-40 40s-40-17.9-40-40 17.9-40 40-40 40 17.9 40 40z" stroke="#5e5e5e" stroke-width="3" fill="#fff"/><use xlink:href="#ac" transform="matrix(1,0,0,1,657,1183) translate(5.108024691358043 37.326388888888886)"/><path d="M732 1080c0 22.1-17.9 40-40 40s-40-17.9-40-40 17.9-40 40-40 40 17.9 40 40z" stroke="#5e5e5e" stroke-width="3" fill="#fff"/><use xlink:href="#ad" transform="matrix(1,0,0,1,657,1045) translate(5.108024691358043 30.763888888888886)"/><use xlink:href="#K" transform="matrix(1,0,0,1,657,1045) translate(28.20987654320988 44.097222222222214)"/><path d="M633 1167c0-3.3 2.7-6 6-6h8c3.3 0 6 2.7 6 6v8.55c0 3.3-2.7 6-6 6h-8c-3.3 0-6-2.7-6-6z" stroke="#000" stroke-opacity="0" stroke-width="3" fill="#fff" fill-opacity="0"/><g><use xlink:href="#L" transform="matrix(1,0,0,1,638,1166) translate(-4.506172839506171 12.444444444444443)"/></g><path d="M2162 1326.75h-4v-6.03h4zm0-14.07h-4v-12.05h4zm0-20.1h-4v-12.04h4zm0-20.08h-4v-12.05h4zm0-20.1h-4v-12.05h4zm0-20.08h-4v-12.06h4zm0-20.1h-4v-12.05h4zm0-20.1h-4v-12.04h4zm0-20.08h-4v-12.06h4zm0-20.1h-4v-12.05h4zm0-20.08h-4v-12.06h4zm0-20.1h-4v-12.05h4zm0-20.1h-4v-12.04h4zm0-20.08h-4v-12.06h4zm0-20.1h-4v-12.05h4zm0-20.1h-4v-12.04h4zm0-20.08h-4v-12.05h4zm0-20.1h-4v-12.05h4zm0-20.08h-4v-12.06h4zm0-20.1h-4v-12.05h4zm0-20.1h-4V918.9h4zm0-20.08h-4V898.8h4zm0-20.1h-4V878.7h4zm0-20.08h-4V858.6h4zm0-20.1h-4V838.5h4zm0-20.1h-4v-12.04h4zm0-20.08h-4v-12.05h4zm0-20.1h-4v-12.05h4zm0-20.08h-4v-12.06h4zm0-20.1h-4v-12.05h4zm0-20.1h-4v-12.04h4zm0-20.08h-4v-12.06h4zm0-20.1h-4v-12.05h4zm0-20.08h-4v-12.06h4zm0-41.13h-4v-11.1h4zm0-19.14h-4V597.4h4zm0-20.1h-4v-12.05h4zm0-20.1h-4v-12.04h4zm0-20.08h-4v-12.05h4zm0-20.1h-4v-12.05h4zm0-20.08h-4v-12.06h4zm0-20.1h-4v-12.05h4zm0-20.1h-4v-12.04h4zm0-20.08h-4v-12.05h4zm0-20.1h-4v-12.05h4zm0-20.08h-4v-12.06h4zm0-20.1h-4V376.4h4zm0-20.1h-4V356.3h4zm0-20.08h-4V336.2h4zm0-20.1h-4v-12.05h4zm0-20.08h-4v-12.06h4zm0-20.1h-4v-12.05h4zm0-20.1h-4v-12.04h4zm0-20.08h-4v-12.06h4zm0-20.1h-4v-6.02h4z" fill="#5e5e5e"/><path d="M2162 221.73h-4v-2.05h4zM2160 1343.02l-4.64-14.27h9.28z" fill="#5e5e5e"/><path d="M2160 1349.5l-7.4-22.75h14.8zm-1.88-18.75l1.88 5.8 1.88-5.8z" fill="#5e5e5e"/><g><use xlink:href="#n" transform="matrix(1,0,0,1,2143.727766453844,628.6148129755195) translate(0 14.222222222222223)"/></g><path d="M510 1360c0 5.52-4.48 10-10 10s-10-4.48-10-10 4.48-10 10-10 10 4.48 10 10z" stroke="#5e5e5e" stroke-width="3" fill="#333"/><path d="M502 1327.75h-4v-6.08h4zm0-14.18h-4v-12.16h4zm0-20.26h-4v-12.15h4zm0-20.26h-4v-12.15h4zm0-20.26h-4v-12.15h4zm0-20.26h-4v-12.16h4zm0-20.26h-4v-12.16h4zm0-20.26h-4v-12.16h4zm0-20.26h-4v-12.16h4zm0-20.26h-4v-12.16h4zm0-20.27h-4v-12.14h4zm0-20.25h-4v-12.15h4zm0-20.26h-4v-12.17h4zm0-20.27h-4v-5.03h4zm0-26.36h-4V1038h4zm0-14.16h-4v-12.15h4zm0-20.25h-4V997.5h4zm0-20.26h-4v-12.17h4zm0-20.28h-4v-12.15h4zm0-20.26h-4V936.7h4zm0-20.26h-4v-12.16h4zm0-20.26h-4v-12.16h4zm0-20.26h-4V882h4z" fill="#5e5e5e"/><path d="M502 882.05h-4V880h4zM500 1344.02l-4.64-14.27h9.28z" fill="#5e5e5e"/><path d="M500 1350.5l-7.4-22.75h14.8zm-1.88-18.75l1.88 5.8 1.88-5.8z" fill="#5e5e5e"/><g><use xlink:href="#n" transform="matrix(1,0,0,1,483.7283950617287,1044.0685889925483) translate(0 14.222222222222223)"/></g><path d="M2170 1361c0 5.52-4.48 10-10 10s-10-4.48-10-10 4.48-10 10-10 10 4.48 10 10z" stroke="#5e5e5e" stroke-width="3" fill="#333"/><path d="M2365 1176v-29.64" stroke="#5e5e5e" stroke-width="5" fill="none"/><path d="M2367.5 1178.65l-2.48-.15-2.52.1v-2.67h5z" fill="#5e5e5e"/><path d="M2365 1129.6l4.64 14.26h-9.28z" stroke="#5e5e5e" stroke-width="5" fill="#5e5e5e"/><path d="M2292 1358h-4v-52.33h4zm0-73.67h-4v-31.6h4zM2294.64 1250.74h-9.28l4.64-14.27z" fill="#5e5e5e"/><path d="M2297.4 1252.74h-14.8l7.4-22.74zm-9.28-4h3.76l-1.88-5.8zM2292 1360h-4v-2.05h4z" fill="#5e5e5e"/><g><use xlink:href="#E" transform="matrix(1,0,0,1,2268.320987654321,1284.3333333333333) translate(0 14.222222222222223)"/></g><path d="M2300 1220.27c0 5.1-4.48 9.26-10 9.26s-10-4.15-10-9.26c0-5.12 4.48-9.27 10-9.27s10 4.15 10 9.27z" stroke="#5e5e5e" stroke-width="3" fill="#333"/><g stroke="#000" stroke-opacity="0"><path d="M2341.17 1187.73l-1.44-13.08-29.03-25.37-17.74 20.85 29.03 25.37 12.43.13 6.74-7.9zm-9.96 1.8c-1.1-.98-1.22-2.7-.27-3.84 1-1.14 2.68-1.26 3.78-.28 1.16.97 1.3 2.7.3 3.82-.96 1.13-2.64 1.26-3.8.28z" fill="#ffdba9"/><path d="M2310.7 1149.28l-17.74 20.84 4.6 4.1 38.4-2.85-25.27-22.1z" fill="#fff" fill-opacity=".1"/><path d="M2336.73 1190.75c1.76-2.06 1.52-5.2-.5-6.98-2.04-1.78-5.16-1.55-6.9.5-1.76 2.06-1.52 5.2.52 7 2.03 1.77 5.14 1.54 6.88-.52zm-5.5-1.23c-1.1-.97-1.24-2.7-.28-3.83.96-1.14 2.67-1.26 3.77-.3 1.12 1 1.25 2.72.3 3.84-.97 1.13-2.67 1.26-3.8.28z" fill="#9db02f" fill-opacity=".3"/></g><path d="M2193 1104c0-3.3 2.7-6 6-6h128c3.3 0 6 2.7 6 6v48c0 3.3-2.7 6-6 6h-128c-3.3 0-6-2.7-6-6z" stroke="#000" stroke-opacity="0" stroke-width="3" fill="#fff" fill-opacity="0"/><g><use xlink:href="#F" transform="matrix(1,0,0,1,2198,1103) translate(2.1296296296296333 30.27777777777778)"/><use xlink:href="#G" transform="matrix(1,0,0,1,2198,1103) translate(45.21604938271606 30.27777777777778)"/></g><path d="M2540.12 1118.55c13.14 0 23.8 13.3 23.8 29.72 0 16.42-10.66 29.73-23.8 29.73h-71.34c-13.13 0-23.78-13.3-23.78-29.73 0-16.4 10.65-29.72 23.78-29.72z" stroke="#5e5e5e" stroke-width="3" fill="#ff8f80"/><g><use xlink:href="#H" transform="matrix(1,0,0,1,2449.9999999999995,1123.546878050955) translate(13.882716049382722 30.27777777777778)"/></g><path d="M2433.25 1184.55l-29.25 16.23-1.94-3.5 29.25-16.22z" fill="#5e5e5e"/><path d="M2404.05 1200.75l-1.8 1-1.94-3.5 1.8-1zM2436.28 1185.9l-4.5-8.12 14.72-2.87z" fill="#5e5e5e"/><path d="M2435.86 1189.27l-7.16-12.93 23.46-4.57zm-1-10.05l1.83 3.3 4.14-4.47z" fill="#5e5e5e"/><path d="M2405 1220c0 22.1-17.9 40-40 40s-40-17.9-40-40 17.9-40 40-40 40 17.9 40 40z" stroke="#5e5e5e" stroke-width="3" fill="#fff"/><g><use xlink:href="#ac" transform="matrix(1,0,0,1,2330,1185) translate(5.108024691358043 37.326388888888886)"/></g><path d="M2405 1080c0 22.1-17.9 40-40 40s-40-17.9-40-40 17.9-40 40-40 40 17.9 40 40z" stroke="#5e5e5e" stroke-width="3" fill="#fff"/><g><use xlink:href="#ad" transform="matrix(1,0,0,1,2330,1045) translate(5.108024691358043 30.763888888888886)"/><use xlink:href="#R" transform="matrix(1,0,0,1,2330,1045) translate(28.20987654320988 44.097222222222214)"/></g><path d="M2306 1167c0-3.3 2.7-6 6-6h8c3.3 0 6 2.7 6 6v8.55c0 3.3-2.7 6-6 6h-8c-3.3 0-6-2.7-6-6z" stroke="#000" stroke-opacity="0" stroke-width="3" fill="#fff" fill-opacity="0"/><g><use xlink:href="#S" transform="matrix(1,0,0,1,2311,1166) translate(-4.506172839506171 12.444444444444443)"/></g><path d="M2478 940c0 22.1-17.9 40-40 40s-40-17.9-40-40 17.9-40 40-40 40 17.9 40 40z" stroke="#5e5e5e" stroke-width="3" fill="#fff"/><g><use xlink:href="#ad" transform="matrix(1,0,0,1,2403,904.9999999999999) translate(5.108024691358043 30.763888888888886)"/><use xlink:href="#R" transform="matrix(1,0,0,1,2403,904.9999999999999) translate(28.20987654320988 44.097222222222214)"/></g><path d="M2438 1077.5v-71.64M2438 1077.44v2.56" stroke="#5e5e5e" stroke-width="5" fill="none"/><path d="M2438 989.1l4.64 14.26h-9.28z" stroke="#5e5e5e" stroke-width="5" fill="#5e5e5e"/><path d="M2289 989c0-3.3 2.7-6 6-6h128c3.3 0 6 2.7 6 6v48c0 3.3-2.7 6-6 6h-128c-3.3 0-6-2.7-6-6z" stroke="#000" stroke-opacity="0" stroke-width="3" fill="#fff" fill-opacity="0"/><g><use xlink:href="#F" transform="matrix(1,0,0,1,2294,988) translate(2.1296296296296333 30.27777777777778)"/><use xlink:href="#G" transform="matrix(1,0,0,1,2294,988) translate(45.21604938271606 30.27777777777778)"/></g><path d="M2538 220c0 22.1-17.9 40-40 40s-40-17.9-40-40 17.9-40 40-40 40 17.9 40 40z" stroke="#5e5e5e" stroke-width="3" fill="#fff"/><g><use xlink:href="#J" transform="matrix(1,0,0,1,2463,185) translate(4.490740740740762 30.763888888888886)"/><use xlink:href="#T" transform="matrix(1,0,0,1,2463,185) translate(28.20987654320988 44.097222222222214)"/></g><path d="M2498 937.5V284.86M2498 937.44V940" stroke="#5e5e5e" stroke-width="5" fill="none"/><path d="M2498 268.1l4.64 14.26h-9.28z" stroke="#5e5e5e" stroke-width="5" fill="#5e5e5e"/><path d="M2323 245c0-3.3 2.7-6 6-6h128c3.3 0 6 2.7 6 6v48c0 3.3-2.7 6-6 6h-128c-3.3 0-6-2.7-6-6z" stroke="#000" stroke-opacity="0" stroke-width="3" fill="#fff" fill-opacity="0"/><g><use xlink:href="#F" transform="matrix(1,0,0,1,2328,244) translate(2.1296296296296333 30.27777777777778)"/><use xlink:href="#G" transform="matrix(1,0,0,1,2328,244) translate(45.21604938271606 30.27777777777778)"/></g><path d="M418 850.83c0-3.3 2.7-6 6-6h153c3.3 0 6 2.7 6 6V876c0 3.3-2.7 6-6 6H424c-3.3 0-6-2.7-6-6z" stroke="#000" stroke-opacity="0" stroke-width="3" fill="#e5e5e5"/><g><use xlink:href="#ae" transform="matrix(1,0,0,1,423,849.8336838942307) translate(8.512345679012356 17.72222222222222)"/><use xlink:href="#aa" transform="matrix(1,0,0,1,423,849.8336838942307) translate(42.98148148148149 17.72222222222222)"/><use xlink:href="#ab" transform="matrix(1,0,0,1,423,849.8336838942307) translate(83.37654320987654 17.72222222222222)"/></g><path d="M2812.98 931.76h-2.05V928c0-7.92-5.05-12-10.94-12h-.97c-6 0-10.97 3.96-10.97 12v3.76h-2c-.88 0-2.06 1.16-2.06 2.04v20.16c0 .88 1.18 2.04 2.05 2.04h26.9c.87 0 2.05-1.16 2.05-2.04V933.8c-.1-.88-1.28-2.04-2.02-2.04zm-12.03 11.92v8.36h-3v-8.36c-1.18-.56-2.05-1.72-2.05-3.12 0-1.92 1.64-3.52 3.54-3.52 1.95 0 3.56 1.6 3.56 3.52 0 1.28-.87 2.44-2.05 3.12zm6.23-11.92h-15.34V928c0-5.04 2.67-8.48 7.2-8.48h.95c4.6 0 7.18 3.44 7.18 8.48v3.76zM2814.98 1071.76h-2.05V1068c0-7.92-5.05-12-10.94-12h-.97c-6 0-10.97 3.96-10.97 12v3.76h-2c-.88 0-2.06 1.16-2.06 2.04v20.16c0 .88 1.18 2.04 2.05 2.04h26.9c.87 0 2.05-1.16 2.05-2.04v-20.16c-.1-.88-1.28-2.04-2.02-2.04zm-12.03 11.92v8.36h-3v-8.36c-1.18-.56-2.05-1.72-2.05-3.12 0-1.92 1.64-3.52 3.54-3.52 1.95 0 3.56 1.6 3.56 3.52 0 1.28-.87 2.44-2.05 3.12zm6.23-11.92h-15.34V1068c0-5.04 2.67-8.48 7.2-8.48h.95c4.6 0 7.18 3.44 7.18 8.48v3.76z" stroke="#000" stroke-opacity="0" fill="#2a3282"/><defs><path fill="#333" d="M24 0v-248h52v208h133V0H24" id="af"/><path fill="#333" d="M110-194c64 0 96 36 96 99 0 64-35 99-97 99-61 0-95-36-95-99 0-62 34-99 96-99zm-1 164c35 0 45-28 45-65 0-40-10-65-43-65-34 0-45 26-45 65 0 36 10 65 43 65" id="ag"/><path fill="#333" d="M135-194c87-1 58 113 63 194h-50c-7-57 23-157-34-157-59 0-34 97-39 157H25l-1-190h47c2 12-1 28 3 38 12-26 28-41 61-42" id="ah"/><path fill="#333" d="M195-6C206 82 75 100 31 46c-4-6-6-13-8-21l49-6c3 16 16 24 34 25 40 0 42-37 40-79-11 22-30 35-61 35-53 0-70-43-70-97 0-56 18-96 73-97 30 0 46 14 59 34l2-30h47zm-90-29c32 0 41-27 41-63 0-35-9-62-40-62-32 0-39 29-40 63 0 36 9 62 39 62" id="ai"/><g id="a"><use transform="matrix(0.06172839506172839,0,0,0.06172839506172839,0,0)" xlink:href="#af"/><use transform="matrix(0.06172839506172839,0,0,0.06172839506172839,13.518518518518517,0)" xlink:href="#ag"/><use transform="matrix(0.06172839506172839,0,0,0.06172839506172839,27.037037037037035,0)" xlink:href="#ah"/><use transform="matrix(0.06172839506172839,0,0,0.06172839506172839,40.55555555555555,0)" xlink:href="#ai"/></g><path fill="#333" d="M25-224v-37h50v37H25zM25 0v-190h50V0H25" id="aj"/><path fill="#333" d="M128 0H69L1-190h53L99-40l48-150h52" id="ak"/><path fill="#333" d="M185-48c-13 30-37 53-82 52C43 2 14-33 14-96s30-98 90-98c62 0 83 45 84 108H66c0 31 8 55 39 56 18 0 30-7 34-22zm-45-69c5-46-57-63-70-21-2 6-4 13-4 21h74" id="al"/><path fill="#333" d="M88-194c31-1 46 15 58 34l-1-101h50l1 261h-48c-2-10 0-23-3-31C134-8 116 4 84 4 32 4 16-41 15-95c0-56 19-97 73-99zm17 164c33 0 40-30 41-66 1-37-9-64-41-64s-38 30-39 65c0 43 13 65 39 65" id="am"/><g id="b"><use transform="matrix(0.06172839506172839,0,0,0.06172839506172839,0,0)" xlink:href="#af"/><use transform="matrix(0.06172839506172839,0,0,0.06172839506172839,13.518518518518517,0)" xlink:href="#aj"/><use transform="matrix(0.06172839506172839,0,0,0.06172839506172839,19.691358024691358,0)" xlink:href="#ak"/><use transform="matrix(0.06172839506172839,0,0,0.06172839506172839,32.03703703703704,0)" xlink:href="#al"/><use transform="matrix(0.06172839506172839,0,0,0.06172839506172839,44.382716049382715,0)" xlink:href="#am"/></g><path fill="#333" d="M182-130c37 4 62 22 62 59C244 23 116-4 24 0v-248c84 5 203-23 205 63 0 31-19 50-47 55zM76-148c40-3 101 13 101-30 0-44-60-28-101-31v61zm0 110c48-3 116 14 116-37 0-48-69-32-116-35v72" id="an"/><path fill="#333" d="M135-150c-39-12-60 13-60 57V0H25l-1-190h47c2 13-1 29 3 40 6-28 27-53 61-41v41" id="ao"/><path fill="#333" d="M133-34C117-15 103 5 69 4 32 3 11-16 11-54c-1-60 55-63 116-61 1-26-3-47-28-47-18 1-26 9-28 27l-52-2c7-38 36-58 82-57s74 22 75 68l1 82c-1 14 12 18 25 15v27c-30 8-71 5-69-32zm-48 3c29 0 43-24 42-57-32 0-66-3-65 30 0 17 8 27 23 27" id="ap"/><path fill="#333" d="M190-63c-7 42-38 67-86 67-59 0-84-38-90-98-12-110 154-137 174-36l-49 2c-2-19-15-32-35-32-30 0-35 28-38 64-6 74 65 87 74 30" id="aq"/><path fill="#333" d="M114-157C55-157 80-60 75 0H25v-261h50l-1 109c12-26 28-41 61-42 86-1 58 113 63 194h-50c-7-57 23-157-34-157" id="ar"/><path fill="#333" d="M137-138c1-29-70-34-71-4 15 46 118 7 119 86 1 83-164 76-172 9l43-7c4 19 20 25 44 25 33 8 57-30 24-41C81-84 22-81 20-136c-2-80 154-74 161-7" id="as"/><g id="c"><use transform="matrix(0.06172839506172839,0,0,0.06172839506172839,0,0)" xlink:href="#an"/><use transform="matrix(0.06172839506172839,0,0,0.06172839506172839,15.987654320987653,0)" xlink:href="#ao"/><use transform="matrix(0.06172839506172839,0,0,0.06172839506172839,24.629629629629626,0)" xlink:href="#ap"/><use transform="matrix(0.06172839506172839,0,0,0.06172839506172839,36.9753086419753,0)" xlink:href="#ah"/><use transform="matrix(0.06172839506172839,0,0,0.06172839506172839,50.49382716049382,0)" xlink:href="#aq"/><use transform="matrix(0.06172839506172839,0,0,0.06172839506172839,62.8395061728395,0)" xlink:href="#ar"/><use transform="matrix(0.06172839506172839,0,0,0.06172839506172839,76.35802469135801,0)" xlink:href="#al"/><use transform="matrix(0.06172839506172839,0,0,0.06172839506172839,88.7037037037037,0)" xlink:href="#as"/></g><path fill="#333" d="M173 0L80-213 41 0H11l48-248h37l94 214 40-214h30L212 0h-39" id="at"/><path fill="#333" d="M30-147c31-64 166-65 159 27C183-49 158 1 86 4 9 8 1-88 30-147zM88-20c53 0 68-48 68-100 0-31-11-51-44-50-52 1-68 46-68 97 0 32 13 53 44 53" id="au"/><g id="e"><use transform="matrix(0.06172839506172839,0,0,0.06172839506172839,0,0)" xlink:href="#at"/><use transform="matrix(0.06172839506172839,0,0,0.06172839506172839,15.987654320987653,0)" xlink:href="#au"/></g><path fill="#333" d="M44-68c0 29 11 47 38 47 30 0 42-19 51-41l28 9C148-21 126 4 82 4 31 4 10-29 12-85c3-77 74-140 146-93 12 8 15 23 18 40l-31 5c-1-22-13-36-36-36-52 0-65 49-65 101" id="av"/><path fill="#333" d="M67-158c15-20 31-36 64-36 94 0 33 127 27 194h-32l25-140c3-38-53-32-70-12C52-117 51-51 37 0H6l51-261h31" id="aw"/><path fill="#333" d="M165-48c-4 18 1 34 23 27l-3 20c-29 8-62 0-52-35h-2C116-14 99 4 63 4 30 4 8-16 8-49c0-68 71-67 138-67 10-26 0-56-31-54-26 1-42 9-47 31l-32-5c8-67 160-71 144 15-5 28-9 54-15 81zM42-50c3 52 80 24 89-6 7-12 7-24 11-38-47 1-103-4-100 44" id="ax"/><path fill="#333" d="M67-158c22-48 132-52 116 29L158 0h-32l25-140c3-38-53-32-70-12C52-117 51-52 38 0H6l36-190h30" id="ay"/><path fill="#333" d="M103-194c29 0 47 14 56 36 2-11 5-23 8-32h30L160-5C157 61 82 97 21 62 9 55 4 45 1 30l28-7c7 42 83 31 92-3 4-16 9-38 13-55-13 20-29 36-62 36-40 0-60-25-60-64 0-71 23-131 91-131zm4 24c-53 0-58 54-61 104-2 27 10 44 36 44 49 0 65-50 67-102 1-29-15-46-42-46" id="az"/><path fill="#333" d="M111-194c62-3 86 47 72 106H45c-7 38 6 69 45 68 27-1 43-14 53-32l24 11C152-15 129 4 87 4 38 3 12-23 12-71c0-70 32-119 99-123zm44 81c14-66-71-72-95-28-4 8-8 17-11 28h106" id="aA"/><path fill="#333" d="M55-144c13 50 104 24 104 88C159 21 15 23 1-39l26-10c6 40 102 42 102-4-13-50-104-23-104-87 0-71 143-71 148-8l-29 4c-5-35-85-37-89 0" id="aB"/><g id="f"><use transform="matrix(0.06172839506172839,0,0,0.06172839506172839,0,0)" xlink:href="#av"/><use transform="matrix(0.06172839506172839,0,0,0.06172839506172839,11.11111111111111,0)" xlink:href="#aw"/><use transform="matrix(0.06172839506172839,0,0,0.06172839506172839,23.45679012345679,0)" xlink:href="#ax"/><use transform="matrix(0.06172839506172839,0,0,0.06172839506172839,35.80246913580247,0)" xlink:href="#ay"/><use transform="matrix(0.06172839506172839,0,0,0.06172839506172839,48.148148148148145,0)" xlink:href="#az"/><use transform="matrix(0.06172839506172839,0,0,0.06172839506172839,60.49382716049382,0)" xlink:href="#aA"/><use transform="matrix(0.06172839506172839,0,0,0.06172839506172839,72.8395061728395,0)" xlink:href="#aB"/></g><path fill="#333" d="M133-28C103 26-5 8 13-77c13-62 24-115 90-117 29-1 46 15 56 35l19-102h32L160 0h-30zM45-64c-2 27 10 43 35 43 54-1 69-50 69-103 0-29-15-46-42-46-53-1-58 58-62 106" id="aC"/><g id="g"><use transform="matrix(0.06172839506172839,0,0,0.06172839506172839,0,0)" xlink:href="#aC"/><use transform="matrix(0.06172839506172839,0,0,0.06172839506172839,12.345679012345679,0)" xlink:href="#au"/><use transform="matrix(0.06172839506172839,0,0,0.06172839506172839,24.691358024691358,0)" xlink:href="#ay"/><use transform="matrix(0.06172839506172839,0,0,0.06172839506172839,37.03703703703704,0)" xlink:href="#aA"/></g><path fill="#333" d="M50-231l6-30h32l-6 30H50zM6 0l37-190h31L37 0H6" id="aD"/><g id="h"><use transform="matrix(0.06172839506172839,0,0,0.06172839506172839,0,0)" xlink:href="#aD"/><use transform="matrix(0.06172839506172839,0,0,0.06172839506172839,4.876543209876543,0)" xlink:href="#ay"/></g><path fill="#333" d="M51-54c-9 22 5 41 31 30L79-1C43 14 10-4 19-52l22-115H19l5-23h22l19-43h21l-9 43h35l-4 23H73" id="aE"/><g id="i"><use transform="matrix(0.06172839506172839,0,0,0.06172839506172839,0,0)" xlink:href="#aE"/><use transform="matrix(0.06172839506172839,0,0,0.06172839506172839,6.172839506172839,0)" xlink:href="#aw"/><use transform="matrix(0.06172839506172839,0,0,0.06172839506172839,18.51851851851852,0)" xlink:href="#aA"/><use transform="matrix(0.06172839506172839,0,0,0.06172839506172839,30.864197530864196,0)" xlink:href="#aB"/><use transform="matrix(0.06172839506172839,0,0,0.06172839506172839,41.9753086419753,0)" xlink:href="#aA"/></g><path fill="#333" d="M68-162c25-46 127-43 121 31C183-60 169 1 98 4 69 5 53-11 43-31L36 0H5l52-261h31zm88 36c2-27-9-43-34-43-55 0-70 51-70 103 0 29 15 45 43 46 52 0 58-58 61-106" id="aF"/><path fill="#333" d="M66-151c12-25 30-51 66-40l-6 26C45-176 58-65 38 0H6l36-190h30" id="aG"/><g id="j"><use transform="matrix(0.06172839506172839,0,0,0.06172839506172839,0,0)" xlink:href="#aF"/><use transform="matrix(0.06172839506172839,0,0,0.06172839506172839,12.345679012345679,0)" xlink:href="#aG"/><use transform="matrix(0.06172839506172839,0,0,0.06172839506172839,19.691358024691358,0)" xlink:href="#ax"/><use transform="matrix(0.06172839506172839,0,0,0.06172839506172839,32.03703703703704,0)" xlink:href="#ay"/><use transform="matrix(0.06172839506172839,0,0,0.06172839506172839,44.382716049382715,0)" xlink:href="#av"/><use transform="matrix(0.06172839506172839,0,0,0.06172839506172839,55.49382716049382,0)" xlink:href="#aw"/><use transform="matrix(0.06172839506172839,0,0,0.06172839506172839,67.8395061728395,0)" xlink:href="#aA"/><use transform="matrix(0.06172839506172839,0,0,0.06172839506172839,80.18518518518519,0)" xlink:href="#aB"/></g><path fill="#333" d="M30-248c118-7 216 8 213 122C240-48 200 0 122 0H30v-248zM63-27c89 8 146-16 146-99s-60-101-146-95v194" id="aH"/><path fill="#333" d="M143 4C61 4 22-44 18-125c-5-107 100-154 193-111 17 8 29 25 37 43l-32 9c-13-25-37-40-76-40-61 0-88 39-88 99 0 61 29 100 91 101 35 0 62-11 79-27v-45h-74v-28h105v86C228-13 192 4 143 4" id="aI"/><path fill="#333" d="M16-82v-28h88v28H16" id="aJ"/><path fill="#333" d="M27 0v-27h64v-190l-56 39v-29l58-41h29v221h61V0H27" id="aK"/><path fill="#333" d="M101-251c82-7 93 87 43 132L82-64C71-53 59-42 53-27h129V0H18c2-99 128-94 128-182 0-28-16-43-45-43s-46 15-49 41l-32-3c6-41 34-60 81-64" id="aL"/><path fill="#333" d="M126-127c33 6 58 20 58 59 0 88-139 92-164 29-3-8-5-16-6-25l32-3c6 27 21 44 54 44 32 0 52-15 52-46 0-38-36-46-79-43v-28c39 1 72-4 72-42 0-27-17-43-46-43-28 0-47 15-49 41l-32-3c6-42 35-63 81-64 48-1 79 21 79 65 0 36-21 52-52 59" id="aM"/><path fill="#333" d="M155-56V0h-30v-56H8v-25l114-167h33v167h35v25h-35zm-30-156c-27 46-58 90-88 131h88v-131" id="aN"/><path fill="#333" d="M54-142c48-35 137-8 131 61C196 18 31 33 14-55l32-4c7 23 22 37 52 37 35-1 51-22 54-58 4-55-73-65-99-34H22l8-134h141v27H59" id="aO"/><path fill="#333" d="M85-194c31 0 48 13 60 33l-1-100h32l1 261h-30c-2-10 0-23-3-31C134-8 116 4 85 4 32 4 16-35 15-94c0-66 23-100 70-100zm9 24c-40 0-46 34-46 75 0 40 6 74 45 74 42 0 51-32 51-76 0-42-9-74-50-73" id="aP"/><path fill="#333" d="M100-194c63 0 86 42 84 106H49c0 40 14 67 53 68 26 1 43-12 49-29l28 8c-11 28-37 45-77 45C44 4 14-33 15-96c1-61 26-98 85-98zm52 81c6-60-76-77-97-28-3 7-6 17-6 28h103" id="aQ"/><path fill="#333" d="M108 0H70L1-190h34L89-25l56-165h34" id="aR"/><g id="k"><use transform="matrix(0.06172839506172839,0,0,0.06172839506172839,0,0)" xlink:href="#aH"/><use transform="matrix(0.06172839506172839,0,0,0.06172839506172839,15.987654320987653,0)" xlink:href="#aI"/><use transform="matrix(0.06172839506172839,0,0,0.06172839506172839,33.2716049382716,0)" xlink:href="#aJ"/><use transform="matrix(0.06172839506172839,0,0,0.06172839506172839,40.61728395061728,0)" xlink:href="#aK"/><use transform="matrix(0.06172839506172839,0,0,0.06172839506172839,52.962962962962955,0)" xlink:href="#aL"/><use transform="matrix(0.06172839506172839,0,0,0.06172839506172839,65.30864197530863,0)" xlink:href="#aM"/><use transform="matrix(0.06172839506172839,0,0,0.06172839506172839,77.65432098765432,0)" xlink:href="#aJ"/><use transform="matrix(0.06172839506172839,0,0,0.06172839506172839,85,0)" xlink:href="#aM"/><use transform="matrix(0.06172839506172839,0,0,0.06172839506172839,97.34567901234568,0)" xlink:href="#aN"/><use transform="matrix(0.06172839506172839,0,0,0.06172839506172839,109.69135802469137,0)" xlink:href="#aO"/><use transform="matrix(0.06172839506172839,0,0,0.06172839506172839,122.03703703703705,0)" xlink:href="#aJ"/><use transform="matrix(0.06172839506172839,0,0,0.06172839506172839,129.38271604938274,0)" xlink:href="#aP"/><use transform="matrix(0.06172839506172839,0,0,0.06172839506172839,141.7283950617284,0)" xlink:href="#aQ"/><use transform="matrix(0.06172839506172839,0,0,0.06172839506172839,154.07407407407408,0)" xlink:href="#aR"/><use transform="matrix(0.06172839506172839,0,0,0.06172839506172839,165.1851851851852,0)" xlink:href="#aK"/></g><path fill="#333" d="M15-91v-56l181-69v40L49-119l147 57v40" id="aS"/><path fill="#333" d="M140-251c80 0 125 45 125 126S219 4 139 4C58 4 15-44 15-125s44-126 125-126zm-1 214c52 0 73-35 73-88 0-50-21-86-72-86-52 0-73 35-73 86s22 88 72 88" id="aT"/><path fill="#333" d="M67-125c0 53 21 87 73 88 37 1 54-22 65-47l45 17C233-25 199 4 140 4 58 4 20-42 15-125 8-235 124-281 211-232c18 10 29 29 36 50l-46 12c-8-25-30-41-62-41-52 0-71 34-72 86" id="aU"/><path fill="#333" d="M199 0l-22-63H83L61 0H9l90-248h61L250 0h-51zm-33-102l-36-108c-10 38-24 72-36 108h72" id="aV"/><g id="l"><use transform="matrix(0.04938271604938272,0,0,0.04938271604938272,0,0)" xlink:href="#aS"/><use transform="matrix(0.04938271604938272,0,0,0.04938271604938272,10.370370370370372,0)" xlink:href="#af"/><use transform="matrix(0.04938271604938272,0,0,0.04938271604938272,21.185185185185187,0)" xlink:href="#aT"/><use transform="matrix(0.04938271604938272,0,0,0.04938271604938272,35.01234567901235,0)" xlink:href="#aU"/><use transform="matrix(0.04938271604938272,0,0,0.04938271604938272,47.802469135802475,0)" xlink:href="#aV"/><use transform="matrix(0.04938271604938272,0,0,0.04938271604938272,60.592592592592595,0)" xlink:href="#af"/></g><path fill="#333" d="M25 0v-261h50V0H25" id="aW"/><path fill="#333" d="M15-22v-40l146-57-146-57v-40l181 69v56" id="aX"/><g id="m"><use transform="matrix(0.04938271604938272,0,0,0.04938271604938272,0,0)" xlink:href="#aq"/><use transform="matrix(0.04938271604938272,0,0,0.04938271604938272,9.876543209876544,0)" xlink:href="#aW"/><use transform="matrix(0.04938271604938272,0,0,0.04938271604938272,14.814814814814817,0)" xlink:href="#ag"/><use transform="matrix(0.04938271604938272,0,0,0.04938271604938272,25.629629629629633,0)" xlink:href="#ah"/><use transform="matrix(0.04938271604938272,0,0,0.04938271604938272,36.44444444444445,0)" xlink:href="#al"/><use transform="matrix(0.04938271604938272,0,0,0.04938271604938272,46.320987654320994,0)" xlink:href="#aX"/></g><path fill="#333" d="M24-248c93 1 206-16 204 79-1 75-69 88-152 82V0H24v-248zm52 121c47 0 100 7 100-41 0-47-54-39-100-39v80" id="aY"/><path fill="#333" d="M85 4C-2 5 27-109 22-190h50c7 57-23 150 33 157 60-5 35-97 40-157h50l1 190h-47c-2-12 1-28-3-38-12 25-28 42-61 42" id="aZ"/><g id="n"><use transform="matrix(0.04938271604938272,0,0,0.04938271604938272,0,0)" xlink:href="#aY"/><use transform="matrix(0.04938271604938272,0,0,0.04938271604938272,11.851851851851853,0)" xlink:href="#aZ"/><use transform="matrix(0.04938271604938272,0,0,0.04938271604938272,22.666666666666668,0)" xlink:href="#aW"/><use transform="matrix(0.04938271604938272,0,0,0.04938271604938272,27.60493827160494,0)" xlink:href="#aW"/></g><path fill="#333" d="M210-169c-67 3-38 105-44 169h-31v-121c0-29-5-50-35-48C34-165 62-65 56 0H25l-1-190h30c1 10-1 24 2 32 10-44 99-50 107 0 11-21 27-35 58-36 85-2 47 119 55 194h-31v-121c0-29-5-49-35-48" id="ba"/><path fill="#333" d="M141-36C126-15 110 5 73 4 37 3 15-17 15-53c-1-64 63-63 125-63 3-35-9-54-41-54-24 1-41 7-42 31l-33-3c5-37 33-52 76-52 45 0 72 20 72 64v82c-1 20 7 32 28 27v20c-31 9-61-2-59-35zM48-53c0 20 12 33 32 33 41-3 63-29 60-74-43 2-92-5-92 41" id="bb"/><path fill="#333" d="M135-143c-3-34-86-38-87 0 15 53 115 12 119 90S17 21 10-45l28-5c4 36 97 45 98 0-10-56-113-15-118-90-4-57 82-63 122-42 12 7 21 19 24 35" id="bc"/><path fill="#333" d="M59-47c-2 24 18 29 38 22v24C64 9 27 4 27-40v-127H5v-23h24l9-43h21v43h35v23H59v120" id="bd"/><path fill="#333" d="M114-163C36-179 61-72 57 0H25l-1-190h30c1 12-1 29 2 39 6-27 23-49 58-41v29" id="be"/><g id="o"><use transform="matrix(0.06172839506172839,0,0,0.06172839506172839,0,0)" xlink:href="#ba"/><use transform="matrix(0.06172839506172839,0,0,0.06172839506172839,18.456790123456788,0)" xlink:href="#bb"/><use transform="matrix(0.06172839506172839,0,0,0.06172839506172839,30.80246913580247,0)" xlink:href="#bc"/><use transform="matrix(0.06172839506172839,0,0,0.06172839506172839,41.91358024691358,0)" xlink:href="#bd"/><use transform="matrix(0.06172839506172839,0,0,0.06172839506172839,48.086419753086425,0)" xlink:href="#aQ"/><use transform="matrix(0.06172839506172839,0,0,0.06172839506172839,60.4320987654321,0)" xlink:href="#be"/></g><path fill="#333" d="M135-194c52 0 70 43 70 98 0 56-19 99-73 100-30 1-46-15-58-35L72 0H24l1-261h50v104c11-23 29-37 60-37zM114-30c31 0 40-27 40-66 0-37-7-63-39-63s-41 28-41 65c0 36 8 64 40 64" id="bf"/><g id="p"><use transform="matrix(0.04938271604938272,0,0,0.04938271604938272,0,0)" xlink:href="#bf"/><use transform="matrix(0.04938271604938272,0,0,0.04938271604938272,10.814814814814815,0)" xlink:href="#ao"/><use transform="matrix(0.04938271604938272,0,0,0.04938271604938272,17.728395061728396,0)" xlink:href="#ap"/><use transform="matrix(0.04938271604938272,0,0,0.04938271604938272,27.60493827160494,0)" xlink:href="#ah"/><use transform="matrix(0.04938271604938272,0,0,0.04938271604938272,38.41975308641975,0)" xlink:href="#aq"/><use transform="matrix(0.04938271604938272,0,0,0.04938271604938272,48.2962962962963,0)" xlink:href="#ar"/></g><path fill="#333" d="M35-132v-50h50v50H35zM35 0v-49h50V0H35" id="bg"/><g id="q"><use transform="matrix(0.04938271604938272,0,0,0.04938271604938272,0,0)" xlink:href="#ao"/><use transform="matrix(0.04938271604938272,0,0,0.04938271604938272,6.913580246913581,0)" xlink:href="#aZ"/><use transform="matrix(0.04938271604938272,0,0,0.04938271604938272,17.728395061728396,0)" xlink:href="#aW"/><use transform="matrix(0.04938271604938272,0,0,0.04938271604938272,22.666666666666668,0)" xlink:href="#al"/><use transform="matrix(0.04938271604938272,0,0,0.04938271604938272,32.543209876543216,0)" xlink:href="#bg"/></g><path fill="#333" d="M220-157c-53 9-28 100-34 157h-49v-107c1-27-5-49-29-50C55-147 81-57 75 0H25l-1-190h47c2 12-1 28 3 38 10-53 101-56 108 0 13-22 24-43 59-42 82 1 51 116 57 194h-49v-107c-1-25-5-48-29-50" id="bh"/><path fill="#333" d="M115-3C79 11 28 4 28-45v-112H4v-33h27l15-45h31v45h36v33H77v99c-1 23 16 31 38 25v30" id="bi"/><g id="r"><use transform="matrix(0.04938271604938272,0,0,0.04938271604938272,0,0)" xlink:href="#bh"/><use transform="matrix(0.04938271604938272,0,0,0.04938271604938272,15.80246913580247,0)" xlink:href="#ap"/><use transform="matrix(0.04938271604938272,0,0,0.04938271604938272,25.679012345679016,0)" xlink:href="#as"/><use transform="matrix(0.04938271604938272,0,0,0.04938271604938272,35.55555555555556,0)" xlink:href="#bi"/><use transform="matrix(0.04938271604938272,0,0,0.04938271604938272,41.4320987654321,0)" xlink:href="#al"/><use transform="matrix(0.04938271604938272,0,0,0.04938271604938272,51.308641975308646,0)" xlink:href="#ao"/></g><path fill="#333" d="M115-194c55 1 70 41 70 98S169 2 115 4C84 4 66-9 55-30l1 105H24l-1-265h31l2 30c10-21 28-34 59-34zm-8 174c40 0 45-34 45-75s-6-73-45-74c-42 0-51 32-51 76 0 43 10 73 51 73" id="bj"/><path fill="#333" d="M100-194c62-1 85 37 85 99 1 63-27 99-86 99S16-35 15-95c0-66 28-99 85-99zM99-20c44 1 53-31 53-75 0-43-8-75-51-75s-53 32-53 75 10 74 51 75" id="bk"/><g id="s"><use transform="matrix(0.06172839506172839,0,0,0.06172839506172839,0,0)" xlink:href="#bj"/><use transform="matrix(0.06172839506172839,0,0,0.06172839506172839,12.345679012345679,0)" xlink:href="#be"/><use transform="matrix(0.06172839506172839,0,0,0.06172839506172839,19.691358024691358,0)" xlink:href="#aQ"/><use transform="matrix(0.06172839506172839,0,0,0.06172839506172839,32.03703703703704,0)" xlink:href="#bj"/><use transform="matrix(0.06172839506172839,0,0,0.06172839506172839,44.382716049382715,0)" xlink:href="#be"/><use transform="matrix(0.06172839506172839,0,0,0.06172839506172839,51.72839506172839,0)" xlink:href="#bk"/><use transform="matrix(0.06172839506172839,0,0,0.06172839506172839,64.07407407407408,0)" xlink:href="#aP"/></g><path fill="#333" d="M135-194c53 0 70 44 70 98 0 56-19 98-73 100-31 1-45-17-59-34 3 33 2 69 2 105H25l-1-265h48c2 10 0 23 3 31 11-24 29-35 60-35zM114-30c33 0 39-31 40-66 0-38-9-64-40-64-56 0-55 130 0 130" id="bl"/><g id="t"><use transform="matrix(0.04938271604938272,0,0,0.04938271604938272,0,0)" xlink:href="#bl"/><use transform="matrix(0.04938271604938272,0,0,0.04938271604938272,10.814814814814815,0)" xlink:href="#ao"/><use transform="matrix(0.04938271604938272,0,0,0.04938271604938272,17.728395061728396,0)" xlink:href="#al"/><use transform="matrix(0.04938271604938272,0,0,0.04938271604938272,27.60493827160494,0)" xlink:href="#bl"/><use transform="matrix(0.04938271604938272,0,0,0.04938271604938272,38.41975308641975,0)" xlink:href="#ao"/><use transform="matrix(0.04938271604938272,0,0,0.04938271604938272,45.333333333333336,0)" xlink:href="#ag"/><use transform="matrix(0.04938271604938272,0,0,0.04938271604938272,56.14814814814815,0)" xlink:href="#am"/></g><path fill="#333" d="M86-200l42-18 12 35-44 11 32 37-32 21-26-44-26 44-32-21 33-37-44-11 12-35 42 18-3-48h38" id="bm"/><g id="u"><use transform="matrix(0.04938271604938272,0,0,0.04938271604938272,0,0)" xlink:href="#bm"/><use transform="matrix(0.04938271604938272,0,0,0.04938271604938272,6.913580246913581,0)" xlink:href="#aj"/><use transform="matrix(0.04938271604938272,0,0,0.04938271604938272,11.851851851851853,0)" xlink:href="#ag"/><use transform="matrix(0.04938271604938272,0,0,0.04938271604938272,22.666666666666668,0)" xlink:href="#aq"/></g><path fill="#333" d="M24-231v-30h32v30H24zM24 0v-190h32V0H24" id="bn"/><path fill="#333" d="M96-169c-40 0-48 33-48 73s9 75 48 75c24 0 41-14 43-38l32 2c-6 37-31 61-74 61-59 0-76-41-82-99-10-93 101-131 147-64 4 7 5 14 7 22l-32 3c-4-21-16-35-41-35" id="bo"/><g id="v"><use transform="matrix(0.06172839506172839,0,0,0.06172839506172839,0,0)" xlink:href="#aH"/><use transform="matrix(0.06172839506172839,0,0,0.06172839506172839,15.987654320987653,0)" xlink:href="#aI"/><use transform="matrix(0.06172839506172839,0,0,0.06172839506172839,33.2716049382716,0)" xlink:href="#aJ"/><use transform="matrix(0.06172839506172839,0,0,0.06172839506172839,40.61728395061728,0)" xlink:href="#aK"/><use transform="matrix(0.06172839506172839,0,0,0.06172839506172839,52.962962962962955,0)" xlink:href="#aL"/><use transform="matrix(0.06172839506172839,0,0,0.06172839506172839,65.30864197530863,0)" xlink:href="#aM"/><use transform="matrix(0.06172839506172839,0,0,0.06172839506172839,77.65432098765432,0)" xlink:href="#aJ"/><use transform="matrix(0.06172839506172839,0,0,0.06172839506172839,85,0)" xlink:href="#aM"/><use transform="matrix(0.06172839506172839,0,0,0.06172839506172839,97.34567901234568,0)" xlink:href="#aN"/><use transform="matrix(0.06172839506172839,0,0,0.06172839506172839,109.69135802469137,0)" xlink:href="#aO"/><use transform="matrix(0.06172839506172839,0,0,0.06172839506172839,122.03703703703705,0)" xlink:href="#aJ"/><use transform="matrix(0.06172839506172839,0,0,0.06172839506172839,129.38271604938274,0)" xlink:href="#bn"/><use transform="matrix(0.06172839506172839,0,0,0.06172839506172839,134.25925925925927,0)" xlink:href="#bk"/><use transform="matrix(0.06172839506172839,0,0,0.06172839506172839,146.60493827160494,0)" xlink:href="#bo"/></g><path fill="#333" d="M145-31C134-9 116 4 85 4 32 4 16-35 15-94c0-59 17-99 70-100 32-1 48 14 60 33 0-11-1-24 2-32h30l-1 268h-32zM93-21c41 0 51-33 51-76s-8-73-50-73c-40 0-46 35-46 75s5 74 45 74" id="bp"/><g id="w"><use transform="matrix(0.06172839506172839,0,0,0.06172839506172839,0,0)" xlink:href="#aH"/><use transform="matrix(0.06172839506172839,0,0,0.06172839506172839,15.987654320987653,0)" xlink:href="#aI"/><use transform="matrix(0.06172839506172839,0,0,0.06172839506172839,33.2716049382716,0)" xlink:href="#aJ"/><use transform="matrix(0.06172839506172839,0,0,0.06172839506172839,40.61728395061728,0)" xlink:href="#aK"/><use transform="matrix(0.06172839506172839,0,0,0.06172839506172839,52.962962962962955,0)" xlink:href="#aL"/><use transform="matrix(0.06172839506172839,0,0,0.06172839506172839,65.30864197530863,0)" xlink:href="#aM"/><use transform="matrix(0.06172839506172839,0,0,0.06172839506172839,77.65432098765432,0)" xlink:href="#aJ"/><use transform="matrix(0.06172839506172839,0,0,0.06172839506172839,85,0)" xlink:href="#aM"/><use transform="matrix(0.06172839506172839,0,0,0.06172839506172839,97.34567901234568,0)" xlink:href="#aN"/><use transform="matrix(0.06172839506172839,0,0,0.06172839506172839,109.69135802469137,0)" xlink:href="#aO"/><use transform="matrix(0.06172839506172839,0,0,0.06172839506172839,122.03703703703705,0)" xlink:href="#aJ"/><use transform="matrix(0.06172839506172839,0,0,0.06172839506172839,129.38271604938274,0)" xlink:href="#bc"/><use transform="matrix(0.06172839506172839,0,0,0.06172839506172839,140.49382716049385,0)" xlink:href="#bp"/><use transform="matrix(0.06172839506172839,0,0,0.06172839506172839,152.83950617283952,0)" xlink:href="#bb"/></g><path fill="#333" d="M84 4C32 4 15-41 15-95c0-55 18-99 73-99 29 0 47 12 58 34l2-30h48l-1 265h-49V-32C136-9 114 4 84 4zm21-34c32 0 41-29 41-66 0-36-9-64-40-64-33 0-39 30-40 65 0 43 13 65 39 65" id="bq"/><g id="x"><use transform="matrix(0.04938271604938272,0,0,0.04938271604938272,0,0)" xlink:href="#bm"/><use transform="matrix(0.04938271604938272,0,0,0.04938271604938272,6.913580246913581,0)" xlink:href="#as"/><use transform="matrix(0.04938271604938272,0,0,0.04938271604938272,16.790123456790127,0)" xlink:href="#bq"/><use transform="matrix(0.04938271604938272,0,0,0.04938271604938272,27.604938271604947,0)" xlink:href="#ap"/></g><g id="y"><use transform="matrix(0.06172839506172839,0,0,0.06172839506172839,0,0)" xlink:href="#aH"/><use transform="matrix(0.06172839506172839,0,0,0.06172839506172839,15.987654320987653,0)" xlink:href="#aI"/><use transform="matrix(0.06172839506172839,0,0,0.06172839506172839,33.2716049382716,0)" xlink:href="#aJ"/><use transform="matrix(0.06172839506172839,0,0,0.06172839506172839,40.61728395061728,0)" xlink:href="#aK"/><use transform="matrix(0.06172839506172839,0,0,0.06172839506172839,52.962962962962955,0)" xlink:href="#aL"/><use transform="matrix(0.06172839506172839,0,0,0.06172839506172839,65.30864197530863,0)" xlink:href="#aM"/><use transform="matrix(0.06172839506172839,0,0,0.06172839506172839,77.65432098765432,0)" xlink:href="#aJ"/><use transform="matrix(0.06172839506172839,0,0,0.06172839506172839,85,0)" xlink:href="#aM"/><use transform="matrix(0.06172839506172839,0,0,0.06172839506172839,97.34567901234568,0)" xlink:href="#aN"/><use transform="matrix(0.06172839506172839,0,0,0.06172839506172839,109.69135802469137,0)" xlink:href="#aO"/><use transform="matrix(0.06172839506172839,0,0,0.06172839506172839,122.03703703703705,0)" xlink:href="#aJ"/><use transform="matrix(0.06172839506172839,0,0,0.06172839506172839,129.38271604938274,0)" xlink:href="#aP"/><use transform="matrix(0.06172839506172839,0,0,0.06172839506172839,141.7283950617284,0)" xlink:href="#aQ"/><use transform="matrix(0.06172839506172839,0,0,0.06172839506172839,154.07407407407408,0)" xlink:href="#aR"/></g><path fill="#333" d="M24-248c120-7 223 5 221 122C244-46 201 0 124 0H24v-248zM76-40c74 7 117-18 117-86 0-67-45-88-117-82v168" id="br"/><g id="z"><use transform="matrix(0.04938271604938272,0,0,0.04938271604938272,0,0)" xlink:href="#br"/><use transform="matrix(0.04938271604938272,0,0,0.04938271604938272,12.790123456790125,0)" xlink:href="#al"/><use transform="matrix(0.04938271604938272,0,0,0.04938271604938272,22.66666666666667,0)" xlink:href="#ak"/></g><path fill="#333" d="M14-72v-43h91v43H14" id="bs"/><use transform="matrix(0.04938271604938272,0,0,0.04938271604938272,0,0)" xlink:href="#bs" id="A"/><g id="B"><use transform="matrix(0.04938271604938272,0,0,0.04938271604938272,0,0)" xlink:href="#br"/><use transform="matrix(0.04938271604938272,0,0,0.04938271604938272,12.790123456790125,0)" xlink:href="#al"/><use transform="matrix(0.04938271604938272,0,0,0.04938271604938272,22.66666666666667,0)" xlink:href="#aW"/><use transform="matrix(0.04938271604938272,0,0,0.04938271604938272,27.604938271604947,0)" xlink:href="#al"/><use transform="matrix(0.04938271604938272,0,0,0.04938271604938272,37.48148148148149,0)" xlink:href="#bi"/><use transform="matrix(0.04938271604938272,0,0,0.04938271604938272,43.35802469135803,0)" xlink:href="#al"/><use transform="matrix(0.04938271604938272,0,0,0.04938271604938272,53.23456790123457,0)" xlink:href="#am"/></g><path fill="#333" d="M231 0h-52l-39-155L100 0H48L-1-190h46L77-45c9-52 24-97 36-145h53l37 145 32-145h46" id="bt"/><g id="C"><use transform="matrix(0.04938271604938272,0,0,0.04938271604938272,0,0)" xlink:href="#bt"/><use transform="matrix(0.04938271604938272,0,0,0.04938271604938272,13.827160493827162,0)" xlink:href="#ar"/><use transform="matrix(0.04938271604938272,0,0,0.04938271604938272,24.641975308641975,0)" xlink:href="#al"/><use transform="matrix(0.04938271604938272,0,0,0.04938271604938272,34.51851851851852,0)" xlink:href="#ah"/></g><g id="D"><use transform="matrix(0.04938271604938272,0,0,0.04938271604938272,0,0)" xlink:href="#ao"/><use transform="matrix(0.04938271604938272,0,0,0.04938271604938272,6.913580246913581,0)" xlink:href="#al"/><use transform="matrix(0.04938271604938272,0,0,0.04938271604938272,16.790123456790127,0)" xlink:href="#aW"/><use transform="matrix(0.04938271604938272,0,0,0.04938271604938272,21.7283950617284,0)" xlink:href="#al"/><use transform="matrix(0.04938271604938272,0,0,0.04938271604938272,31.60493827160494,0)" xlink:href="#ap"/><use transform="matrix(0.04938271604938272,0,0,0.04938271604938272,41.48148148148149,0)" xlink:href="#as"/><use transform="matrix(0.04938271604938272,0,0,0.04938271604938272,51.35802469135803,0)" xlink:href="#al"/><use transform="matrix(0.04938271604938272,0,0,0.04938271604938272,61.23456790123457,0)" xlink:href="#am"/></g><g id="E"><use transform="matrix(0.04938271604938272,0,0,0.04938271604938272,0,0)" xlink:href="#aY"/><use transform="matrix(0.04938271604938272,0,0,0.04938271604938272,11.851851851851853,0)" xlink:href="#aZ"/><use transform="matrix(0.04938271604938272,0,0,0.04938271604938272,22.666666666666668,0)" xlink:href="#as"/><use transform="matrix(0.04938271604938272,0,0,0.04938271604938272,32.543209876543216,0)" xlink:href="#ar"/></g><path fill="#333" d="M30-248c87 1 191-15 191 75 0 78-77 80-158 76V0H30v-248zm33 125c57 0 124 11 124-50 0-59-68-47-124-48v98" id="bu"/><path fill="#333" d="M84 4C-5 8 30-112 23-190h32v120c0 31 7 50 39 49 72-2 45-101 50-169h31l1 190h-30c-1-10 1-25-2-33-11 22-28 36-60 37" id="bv"/><path fill="#333" d="M24 0v-261h32V0H24" id="bw"/><g id="F"><use transform="matrix(0.06172839506172839,0,0,0.06172839506172839,0,0)" xlink:href="#bu"/><use transform="matrix(0.06172839506172839,0,0,0.06172839506172839,14.814814814814813,0)" xlink:href="#bv"/><use transform="matrix(0.06172839506172839,0,0,0.06172839506172839,27.160493827160494,0)" xlink:href="#bw"/><use transform="matrix(0.06172839506172839,0,0,0.06172839506172839,32.03703703703704,0)" xlink:href="#bw"/></g><path fill="#333" d="M233-177c-1 41-23 64-60 70L243 0h-38l-65-103H63V0H30v-248c88 3 205-21 203 71zM63-129c60-2 137 13 137-47 0-61-80-42-137-45v92" id="bx"/><g id="G"><use transform="matrix(0.06172839506172839,0,0,0.06172839506172839,0,0)" xlink:href="#bx"/><use transform="matrix(0.06172839506172839,0,0,0.06172839506172839,15.987654320987653,0)" xlink:href="#aQ"/><use transform="matrix(0.06172839506172839,0,0,0.06172839506172839,28.333333333333332,0)" xlink:href="#bp"/><use transform="matrix(0.06172839506172839,0,0,0.06172839506172839,40.67901234567901,0)" xlink:href="#bv"/><use transform="matrix(0.06172839506172839,0,0,0.06172839506172839,53.02469135802469,0)" xlink:href="#aQ"/><use transform="matrix(0.06172839506172839,0,0,0.06172839506172839,65.37037037037037,0)" xlink:href="#bc"/><use transform="matrix(0.06172839506172839,0,0,0.06172839506172839,76.48148148148148,0)" xlink:href="#bd"/></g><path fill="#333" d="M63-220v92h138v28H63V0H30v-248h175v28H63" id="by"/><path fill="#333" d="M140-251c81 0 123 46 123 126C263-46 219 4 140 4 59 4 17-45 17-125s42-126 123-126zm0 227c63 0 89-41 89-101s-29-99-89-99c-61 0-89 39-89 99S79-25 140-24" id="bz"/><path fill="#333" d="M232-93c-1 65-40 97-104 97C67 4 28-28 28-90v-158h33c8 89-33 224 67 224 102 0 64-133 71-224h33v155" id="bA"/><path fill="#333" d="M240 0l2-218c-23 76-54 145-80 218h-23L58-218 59 0H30v-248h44l77 211c21-75 51-140 76-211h43V0h-30" id="bB"/><g id="H"><use transform="matrix(0.06172839506172839,0,0,0.06172839506172839,0,0)" xlink:href="#by"/><use transform="matrix(0.06172839506172839,0,0,0.06172839506172839,13.518518518518517,0)" xlink:href="#bz"/><use transform="matrix(0.06172839506172839,0,0,0.06172839506172839,30.80246913580247,0)" xlink:href="#bx"/><use transform="matrix(0.06172839506172839,0,0,0.06172839506172839,46.79012345679012,0)" xlink:href="#bA"/><use transform="matrix(0.06172839506172839,0,0,0.06172839506172839,62.77777777777777,0)" xlink:href="#bB"/></g><g id="I"><use transform="matrix(0.030864197530864182,0,0,0.030864197530864182,0,0)" xlink:href="#aH"/><use transform="matrix(0.030864197530864182,0,0,0.030864197530864182,7.993827160493823,0)" xlink:href="#aI"/><use transform="matrix(0.030864197530864182,0,0,0.030864197530864182,16.635802469135793,0)" xlink:href="#aJ"/><use transform="matrix(0.030864197530864182,0,0,0.030864197530864182,20.308641975308632,0)" xlink:href="#aK"/><use transform="matrix(0.030864197530864182,0,0,0.030864197530864182,26.481481481481467,0)" xlink:href="#aL"/><use transform="matrix(0.030864197530864182,0,0,0.030864197530864182,32.6543209876543,0)" xlink:href="#aM"/><use transform="matrix(0.030864197530864182,0,0,0.030864197530864182,38.82716049382714,0)" xlink:href="#aJ"/><use transform="matrix(0.030864197530864182,0,0,0.030864197530864182,42.49999999999997,0)" xlink:href="#aM"/><use transform="matrix(0.030864197530864182,0,0,0.030864197530864182,48.67283950617281,0)" xlink:href="#aN"/><use transform="matrix(0.030864197530864182,0,0,0.030864197530864182,54.84567901234564,0)" xlink:href="#aO"/></g><g id="J"><use transform="matrix(0.030864197530864182,0,0,0.030864197530864182,0,0)" xlink:href="#aH"/><use transform="matrix(0.030864197530864182,0,0,0.030864197530864182,7.993827160493823,0)" xlink:href="#aI"/><use transform="matrix(0.030864197530864182,0,0,0.030864197530864182,16.635802469135793,0)" xlink:href="#aJ"/><use transform="matrix(0.030864197530864182,0,0,0.030864197530864182,20.308641975308632,0)" xlink:href="#aK"/><use transform="matrix(0.030864197530864182,0,0,0.030864197530864182,26.481481481481467,0)" xlink:href="#aL"/><use transform="matrix(0.030864197530864182,0,0,0.030864197530864182,32.6543209876543,0)" xlink:href="#aM"/><use transform="matrix(0.030864197530864182,0,0,0.030864197530864182,38.82716049382714,0)" xlink:href="#aJ"/><use transform="matrix(0.030864197530864182,0,0,0.030864197530864182,42.49999999999997,0)" xlink:href="#aM"/><use transform="matrix(0.030864197530864182,0,0,0.030864197530864182,48.67283950617281,0)" xlink:href="#aN"/><use transform="matrix(0.030864197530864182,0,0,0.030864197530864182,54.84567901234564,0)" xlink:href="#aO"/></g><path fill="#333" d="M137 0h-34L2-248h35l83 218 83-218h36" id="bC"/><g id="K"><use transform="matrix(0.030864197530864182,0,0,0.030864197530864182,0,0)" xlink:href="#bC"/><use transform="matrix(0.030864197530864182,0,0,0.030864197530864182,7.407407407407404,0)" xlink:href="#aK"/></g><g id="L"><use transform="matrix(0.04320987654320987,0,0,0.04320987654320987,0,0)" xlink:href="#bC"/><use transform="matrix(0.04320987654320987,0,0,0.04320987654320987,10.370370370370368,0)" xlink:href="#aK"/></g><g id="M"><use transform="matrix(0.04938271604938272,0,0,0.04938271604938272,0,0)" xlink:href="#aU"/><use transform="matrix(0.04938271604938272,0,0,0.04938271604938272,12.790123456790125,0)" xlink:href="#aW"/><use transform="matrix(0.04938271604938272,0,0,0.04938271604938272,17.7283950617284,0)" xlink:href="#ag"/><use transform="matrix(0.04938271604938272,0,0,0.04938271604938272,28.54320987654322,0)" xlink:href="#ah"/><use transform="matrix(0.04938271604938272,0,0,0.04938271604938272,39.35802469135803,0)" xlink:href="#al"/></g><g id="N"><use transform="matrix(0.04938271604938272,0,0,0.04938271604938272,0,0)" xlink:href="#aW"/><use transform="matrix(0.04938271604938272,0,0,0.04938271604938272,4.938271604938272,0)" xlink:href="#ag"/><use transform="matrix(0.04938271604938272,0,0,0.04938271604938272,15.753086419753087,0)" xlink:href="#aq"/><use transform="matrix(0.04938271604938272,0,0,0.04938271604938272,25.629629629629633,0)" xlink:href="#ap"/><use transform="matrix(0.04938271604938272,0,0,0.04938271604938272,35.50617283950618,0)" xlink:href="#aW"/></g><g id="O"><use transform="matrix(0.04938271604938272,0,0,0.04938271604938272,0,0)" xlink:href="#aU"/><use transform="matrix(0.04938271604938272,0,0,0.04938271604938272,12.790123456790125,0)" xlink:href="#ao"/><use transform="matrix(0.04938271604938272,0,0,0.04938271604938272,19.703703703703706,0)" xlink:href="#al"/><use transform="matrix(0.04938271604938272,0,0,0.04938271604938272,29.58024691358025,0)" xlink:href="#ap"/><use transform="matrix(0.04938271604938272,0,0,0.04938271604938272,39.4567901234568,0)" xlink:href="#bi"/><use transform="matrix(0.04938271604938272,0,0,0.04938271604938272,45.33333333333334,0)" xlink:href="#al"/></g><g id="P"><use transform="matrix(0.04938271604938272,0,0,0.04938271604938272,0,0)" xlink:href="#an"/><use transform="matrix(0.04938271604938272,0,0,0.04938271604938272,12.790123456790125,0)" xlink:href="#ao"/><use transform="matrix(0.04938271604938272,0,0,0.04938271604938272,19.703703703703706,0)" xlink:href="#ap"/><use transform="matrix(0.04938271604938272,0,0,0.04938271604938272,29.58024691358025,0)" xlink:href="#ah"/><use transform="matrix(0.04938271604938272,0,0,0.04938271604938272,40.39506172839506,0)" xlink:href="#aq"/><use transform="matrix(0.04938271604938272,0,0,0.04938271604938272,50.27160493827161,0)" xlink:href="#ar"/></g><path fill="#333" d="M117-194c89-4 53 116 60 194h-32v-121c0-31-8-49-39-48C34-167 62-67 57 0H25l-1-190h30c1 10-1 24 2 32 11-22 29-35 61-36" id="bD"/><g id="Q"><use transform="matrix(0.04320987654320987,0,0,0.04320987654320987,0,0)" xlink:href="#bu"/><use transform="matrix(0.04320987654320987,0,0,0.04320987654320987,10.370370370370368,0)" xlink:href="#bw"/><use transform="matrix(0.04320987654320987,0,0,0.04320987654320987,13.783950617283947,0)" xlink:href="#bb"/><use transform="matrix(0.04320987654320987,0,0,0.04320987654320987,22.42592592592592,0)" xlink:href="#bd"/><use transform="matrix(0.04320987654320987,0,0,0.04320987654320987,26.746913580246908,0)" xlink:href="#bn"/><use transform="matrix(0.04320987654320987,0,0,0.04320987654320987,30.160493827160487,0)" xlink:href="#bD"/><use transform="matrix(0.04320987654320987,0,0,0.04320987654320987,38.80246913580246,0)" xlink:href="#bv"/><use transform="matrix(0.04320987654320987,0,0,0.04320987654320987,47.444444444444436,0)" xlink:href="#ba"/></g><g id="R"><use transform="matrix(0.030864197530864182,0,0,0.030864197530864182,0,0)" xlink:href="#bC"/><use transform="matrix(0.030864197530864182,0,0,0.030864197530864182,7.407407407407404,0)" xlink:href="#aL"/></g><g id="S"><use transform="matrix(0.04320987654320987,0,0,0.04320987654320987,0,0)" xlink:href="#bC"/><use transform="matrix(0.04320987654320987,0,0,0.04320987654320987,10.370370370370368,0)" xlink:href="#aL"/></g><g id="T"><use transform="matrix(0.030864197530864182,0,0,0.030864197530864182,0,0)" xlink:href="#bC"/><use transform="matrix(0.030864197530864182,0,0,0.030864197530864182,7.407407407407404,0)" xlink:href="#aM"/></g><g id="U"><use transform="matrix(0.04320987654320987,0,0,0.04320987654320987,0,0)" xlink:href="#bC"/><use transform="matrix(0.04320987654320987,0,0,0.04320987654320987,10.370370370370368,0)" xlink:href="#aM"/></g><path fill="#333" d="M195 0l-74-108L45 0H8l94-129-87-119h37l69 98 67-98h37l-84 118L233 0h-38" id="bE"/><path fill="#333" d="M64 0c3-98 48-159 88-221H18v-27h164v26C143-157 98-101 97 0H64" id="bF"/><g id="V"><use transform="matrix(0.06172839506172839,0,0,0.06172839506172839,0,0)" xlink:href="#bE"/><use transform="matrix(0.06172839506172839,0,0,0.06172839506172839,14.814814814814813,0)" xlink:href="#bA"/><use transform="matrix(0.06172839506172839,0,0,0.06172839506172839,30.80246913580247,0)" xlink:href="#aJ"/><use transform="matrix(0.06172839506172839,0,0,0.06172839506172839,38.148148148148145,0)" xlink:href="#aN"/><use transform="matrix(0.06172839506172839,0,0,0.06172839506172839,50.49382716049382,0)" xlink:href="#aM"/><use transform="matrix(0.06172839506172839,0,0,0.06172839506172839,62.8395061728395,0)" xlink:href="#aO"/><use transform="matrix(0.06172839506172839,0,0,0.06172839506172839,75.18518518518518,0)" xlink:href="#aJ"/><use transform="matrix(0.06172839506172839,0,0,0.06172839506172839,82.53086419753086,0)" xlink:href="#aK"/><use transform="matrix(0.06172839506172839,0,0,0.06172839506172839,94.87654320987654,0)" xlink:href="#aL"/><use transform="matrix(0.06172839506172839,0,0,0.06172839506172839,107.22222222222223,0)" xlink:href="#bF"/><use transform="matrix(0.06172839506172839,0,0,0.06172839506172839,119.56790123456791,0)" xlink:href="#aJ"/><use transform="matrix(0.06172839506172839,0,0,0.06172839506172839,126.9135802469136,0)" xlink:href="#aP"/><use transform="matrix(0.06172839506172839,0,0,0.06172839506172839,139.25925925925927,0)" xlink:href="#aQ"/><use transform="matrix(0.06172839506172839,0,0,0.06172839506172839,151.60493827160494,0)" xlink:href="#aR"/><use transform="matrix(0.06172839506172839,0,0,0.06172839506172839,162.71604938271605,0)" xlink:href="#aK"/></g><g id="W"><use transform="matrix(0.06172839506172839,0,0,0.06172839506172839,0,0)" xlink:href="#bE"/><use transform="matrix(0.06172839506172839,0,0,0.06172839506172839,14.814814814814813,0)" xlink:href="#bA"/><use transform="matrix(0.06172839506172839,0,0,0.06172839506172839,30.80246913580247,0)" xlink:href="#aJ"/><use transform="matrix(0.06172839506172839,0,0,0.06172839506172839,38.148148148148145,0)" xlink:href="#aN"/><use transform="matrix(0.06172839506172839,0,0,0.06172839506172839,50.49382716049382,0)" xlink:href="#aM"/><use transform="matrix(0.06172839506172839,0,0,0.06172839506172839,62.8395061728395,0)" xlink:href="#aO"/><use transform="matrix(0.06172839506172839,0,0,0.06172839506172839,75.18518518518518,0)" xlink:href="#aJ"/><use transform="matrix(0.06172839506172839,0,0,0.06172839506172839,82.53086419753086,0)" xlink:href="#aK"/><use transform="matrix(0.06172839506172839,0,0,0.06172839506172839,94.87654320987654,0)" xlink:href="#aL"/><use transform="matrix(0.06172839506172839,0,0,0.06172839506172839,107.22222222222223,0)" xlink:href="#bF"/><use transform="matrix(0.06172839506172839,0,0,0.06172839506172839,119.56790123456791,0)" xlink:href="#aJ"/><use transform="matrix(0.06172839506172839,0,0,0.06172839506172839,126.9135802469136,0)" xlink:href="#bn"/><use transform="matrix(0.06172839506172839,0,0,0.06172839506172839,131.79012345679013,0)" xlink:href="#bk"/><use transform="matrix(0.06172839506172839,0,0,0.06172839506172839,144.1358024691358,0)" xlink:href="#bo"/></g><g id="X"><use transform="matrix(0.06172839506172839,0,0,0.06172839506172839,0,0)" xlink:href="#bE"/><use transform="matrix(0.06172839506172839,0,0,0.06172839506172839,14.814814814814813,0)" xlink:href="#bA"/><use transform="matrix(0.06172839506172839,0,0,0.06172839506172839,30.80246913580247,0)" xlink:href="#aJ"/><use transform="matrix(0.06172839506172839,0,0,0.06172839506172839,38.148148148148145,0)" xlink:href="#aN"/><use transform="matrix(0.06172839506172839,0,0,0.06172839506172839,50.49382716049382,0)" xlink:href="#aM"/><use transform="matrix(0.06172839506172839,0,0,0.06172839506172839,62.8395061728395,0)" xlink:href="#aO"/><use transform="matrix(0.06172839506172839,0,0,0.06172839506172839,75.18518518518518,0)" xlink:href="#aJ"/><use transform="matrix(0.06172839506172839,0,0,0.06172839506172839,82.53086419753086,0)" xlink:href="#aK"/><use transform="matrix(0.06172839506172839,0,0,0.06172839506172839,94.87654320987654,0)" xlink:href="#aL"/><use transform="matrix(0.06172839506172839,0,0,0.06172839506172839,107.22222222222223,0)" xlink:href="#bF"/><use transform="matrix(0.06172839506172839,0,0,0.06172839506172839,119.56790123456791,0)" xlink:href="#aJ"/><use transform="matrix(0.06172839506172839,0,0,0.06172839506172839,126.9135802469136,0)" xlink:href="#bc"/><use transform="matrix(0.06172839506172839,0,0,0.06172839506172839,138.0246913580247,0)" xlink:href="#bp"/><use transform="matrix(0.06172839506172839,0,0,0.06172839506172839,150.37037037037038,0)" xlink:href="#bb"/></g><g id="Y"><use transform="matrix(0.06172839506172839,0,0,0.06172839506172839,0,0)" xlink:href="#bE"/><use transform="matrix(0.06172839506172839,0,0,0.06172839506172839,14.814814814814813,0)" xlink:href="#bA"/><use transform="matrix(0.06172839506172839,0,0,0.06172839506172839,30.80246913580247,0)" xlink:href="#aJ"/><use transform="matrix(0.06172839506172839,0,0,0.06172839506172839,38.148148148148145,0)" xlink:href="#aN"/><use transform="matrix(0.06172839506172839,0,0,0.06172839506172839,50.49382716049382,0)" xlink:href="#aM"/><use transform="matrix(0.06172839506172839,0,0,0.06172839506172839,62.8395061728395,0)" xlink:href="#aO"/><use transform="matrix(0.06172839506172839,0,0,0.06172839506172839,75.18518518518518,0)" xlink:href="#aJ"/><use transform="matrix(0.06172839506172839,0,0,0.06172839506172839,82.53086419753086,0)" xlink:href="#aK"/><use transform="matrix(0.06172839506172839,0,0,0.06172839506172839,94.87654320987654,0)" xlink:href="#aL"/><use transform="matrix(0.06172839506172839,0,0,0.06172839506172839,107.22222222222223,0)" xlink:href="#bF"/><use transform="matrix(0.06172839506172839,0,0,0.06172839506172839,119.56790123456791,0)" xlink:href="#aJ"/><use transform="matrix(0.06172839506172839,0,0,0.06172839506172839,126.9135802469136,0)" xlink:href="#aP"/><use transform="matrix(0.06172839506172839,0,0,0.06172839506172839,139.25925925925927,0)" xlink:href="#aQ"/><use transform="matrix(0.06172839506172839,0,0,0.06172839506172839,151.60493827160494,0)" xlink:href="#aR"/></g><path fill="#333" d="M212-179c-10-28-35-45-73-45-59 0-87 40-87 99 0 60 29 101 89 101 43 0 62-24 78-52l27 14C228-24 195 4 139 4 59 4 22-46 18-125c-6-104 99-153 187-111 19 9 31 26 39 46" id="bG"/><g id="Z"><use transform="matrix(0.049382716049382706,0,0,0.049382716049382706,0,0)" xlink:href="#bG"/><use transform="matrix(0.049382716049382706,0,0,0.049382716049382706,12.790123456790122,0)" xlink:href="#be"/><use transform="matrix(0.049382716049382706,0,0,0.049382716049382706,18.666666666666664,0)" xlink:href="#aQ"/><use transform="matrix(0.049382716049382706,0,0,0.049382716049382706,28.543209876543205,0)" xlink:href="#bb"/><use transform="matrix(0.049382716049382706,0,0,0.049382716049382706,38.419753086419746,0)" xlink:href="#bd"/><use transform="matrix(0.049382716049382706,0,0,0.049382716049382706,43.35802469135802,0)" xlink:href="#aQ"/></g><path fill="#333" d="M101-234c-31-9-42 10-38 44h38v23H63V0H32v-167H5v-23h27c-7-52 17-82 69-68v24" id="bH"/><g id="aa"><use transform="matrix(0.049382716049382706,0,0,0.049382716049382706,0,0)" xlink:href="#bH"/><use transform="matrix(0.049382716049382706,0,0,0.049382716049382706,4.93827160493827,0)" xlink:href="#be"/><use transform="matrix(0.049382716049382706,0,0,0.049382716049382706,10.814814814814813,0)" xlink:href="#bk"/><use transform="matrix(0.049382716049382706,0,0,0.049382716049382706,20.691358024691354,0)" xlink:href="#ba"/></g><g id="ab"><use transform="matrix(0.049382716049382706,0,0,0.049382716049382706,0,0)" xlink:href="#bu"/><use transform="matrix(0.049382716049382706,0,0,0.049382716049382706,11.85185185185185,0)" xlink:href="#be"/><use transform="matrix(0.049382716049382706,0,0,0.049382716049382706,17.728395061728392,0)" xlink:href="#aQ"/><use transform="matrix(0.049382716049382706,0,0,0.049382716049382706,27.604938271604933,0)" xlink:href="#bj"/><use transform="matrix(0.049382716049382706,0,0,0.049382716049382706,37.481481481481474,0)" xlink:href="#be"/><use transform="matrix(0.049382716049382706,0,0,0.049382716049382706,43.35802469135802,0)" xlink:href="#bk"/><use transform="matrix(0.049382716049382706,0,0,0.049382716049382706,53.234567901234556,0)" xlink:href="#aP"/></g><g id="ac"><use transform="matrix(0.030864197530864182,0,0,0.030864197530864182,0,0)" xlink:href="#bE"/><use transform="matrix(0.030864197530864182,0,0,0.030864197530864182,7.407407407407404,0)" xlink:href="#bA"/><use transform="matrix(0.030864197530864182,0,0,0.030864197530864182,15.401234567901227,0)" xlink:href="#aJ"/><use transform="matrix(0.030864197530864182,0,0,0.030864197530864182,19.074074074074066,0)" xlink:href="#aN"/><use transform="matrix(0.030864197530864182,0,0,0.030864197530864182,25.246913580246904,0)" xlink:href="#aM"/><use transform="matrix(0.030864197530864182,0,0,0.030864197530864182,31.41975308641974,0)" xlink:href="#aO"/><use transform="matrix(0.030864197530864182,0,0,0.030864197530864182,37.592592592592574,0)" xlink:href="#aJ"/><use transform="matrix(0.030864197530864182,0,0,0.030864197530864182,41.26543209876541,0)" xlink:href="#aK"/><use transform="matrix(0.030864197530864182,0,0,0.030864197530864182,47.438271604938244,0)" xlink:href="#aL"/><use transform="matrix(0.030864197530864182,0,0,0.030864197530864182,53.61111111111108,0)" xlink:href="#bF"/></g><g id="ad"><use transform="matrix(0.030864197530864182,0,0,0.030864197530864182,0,0)" xlink:href="#bE"/><use transform="matrix(0.030864197530864182,0,0,0.030864197530864182,7.407407407407404,0)" xlink:href="#bA"/><use transform="matrix(0.030864197530864182,0,0,0.030864197530864182,15.401234567901227,0)" xlink:href="#aJ"/><use transform="matrix(0.030864197530864182,0,0,0.030864197530864182,19.074074074074066,0)" xlink:href="#aN"/><use transform="matrix(0.030864197530864182,0,0,0.030864197530864182,25.246913580246904,0)" xlink:href="#aM"/><use transform="matrix(0.030864197530864182,0,0,0.030864197530864182,31.41975308641974,0)" xlink:href="#aO"/><use transform="matrix(0.030864197530864182,0,0,0.030864197530864182,37.592592592592574,0)" xlink:href="#aJ"/><use transform="matrix(0.030864197530864182,0,0,0.030864197530864182,41.26543209876541,0)" xlink:href="#aK"/><use transform="matrix(0.030864197530864182,0,0,0.030864197530864182,47.438271604938244,0)" xlink:href="#aL"/><use transform="matrix(0.030864197530864182,0,0,0.030864197530864182,53.61111111111108,0)" xlink:href="#bF"/></g><g id="ae"><use transform="matrix(0.049382716049382706,0,0,0.049382716049382706,0,0)" xlink:href="#bu"/><use transform="matrix(0.049382716049382706,0,0,0.049382716049382706,11.85185185185185,0)" xlink:href="#bv"/><use transform="matrix(0.049382716049382706,0,0,0.049382716049382706,21.728395061728392,0)" xlink:href="#bw"/><use transform="matrix(0.049382716049382706,0,0,0.049382716049382706,25.629629629629626,0)" xlink:href="#bw"/></g></defs></g></svg>